<svg width="200" height="200" viewBox="0 0 200 200" fill="none" xmlns="http://www.w3.org/2000/svg">
<path d="M100 200C155.228 200 200 155.228 200 100C200 44.7715 155.228 0 100 0C44.7715 0 0 44.7715 0 100C0 155.228 44.7715 200 100 200Z" fill="#F0F0F0"/>
<path d="M169.982 28.5719C151.945 10.9 127.251 0 100.006 0C91.3102 0 65.8676 10.9 47.832 28.5719H169.982Z" fill="#6DA544"/>
<path d="M99.9922 85.7199H198.972C197.529 75.632 194.582 66.0305 190.363 57.1484H95.6445L99.9922 85.7199Z" fill="#6DA544"/>
<path d="M9.62461 142.849H190.366C194.586 133.968 197.532 124.365 198.975 114.277H1.01562C2.45898 124.366 5.40469 133.968 9.62461 142.849Z" fill="#6DA544"/>
<path d="M30.0195 171.428C48.0559 189.1 72.7504 200 99.9953 200C127.24 200 151.935 189.1 169.971 171.428H30.0195Z" fill="#6DA544"/>
<path d="M99.9953 0C49.618 0 7.94844 37.2543 1.01562 85.7145H99.9953V0Z" fill="#D80027"/>
<path d="M49.9922 76.6574L45.6445 67.9621V50.5707L56.5141 41.875L67.3836 50.5707V63.6141L71.7312 59.2664V67.9621L63.0355 76.6574H49.9922Z" fill="#F0F0F0"/>
<path d="M26.6145 50L27.7656 53.543H31.4906L28.477 55.7332L29.6285 59.2758L26.6145 57.0859L23.6004 59.2758L24.752 55.7332L21.7383 53.543H25.4633L26.6145 50Z" fill="#F0F0F0"/>
<path d="M35.3059 41.3086L36.457 44.8516H40.1824L37.1684 47.0418L38.3195 50.5844L35.3059 48.3949L32.2922 50.5844L33.4437 47.0418L30.4297 44.8516H34.1543L35.3059 41.3086Z" fill="#F0F0F0"/>
<path d="M43.9973 32.6172L45.1484 36.1602H48.873L45.8598 38.3504L47.0105 41.893L43.9973 39.7035L40.9832 41.893L42.1344 38.3504L39.1211 36.1602H42.8457L43.9973 32.6172Z" fill="#F0F0F0"/>
<path d="M86.4187 50L85.2676 53.543H81.543L84.5563 55.7332L83.4051 59.2758L86.4187 57.0859L89.4328 59.2758L88.2816 55.7332L91.2949 53.543H87.5703L86.4187 50Z" fill="#F0F0F0"/>
<path d="M77.7273 41.3086L76.5762 44.8516H72.8516L75.8648 47.0418L74.7137 50.5844L77.7273 48.3949L80.7414 50.5844L79.5898 47.0418L82.6035 44.8516H78.8789L77.7273 41.3086Z" fill="#F0F0F0"/>
<path d="M69.0363 32.6172L67.8848 36.1602H64.1602L67.1734 38.3504L66.0223 41.893L69.0363 39.7035L72.05 41.893L70.8988 38.3504L73.9121 36.1602H70.1875L69.0363 32.6172Z" fill="#F0F0F0"/>
<path d="M56.5168 28.2617L55.3652 31.8047H51.6406L54.6539 33.9945L53.5027 37.5371L56.5168 35.3477L59.5305 37.5371L58.3793 33.9945L61.3926 31.8047H57.668L56.5168 28.2617Z" fill="#F0F0F0"/>
</svg>
