<svg width="200" height="200" viewBox="0 0 200 200" fill="none" xmlns="http://www.w3.org/2000/svg">
<path d="M143.484 9.92266C130.337 3.56563 115.588 0 100.006 0C84.4238 0 69.6746 3.56563 56.5277 9.92266L47.832 100L56.5277 190.077C69.6746 196.434 84.4238 200 100.006 200C115.588 200 130.337 196.434 143.484 190.077L152.18 100L143.484 9.92266Z" fill="#D80027"/>
<path d="M56.5218 9.92188C23.0726 26.0965 0 60.35 0 99.9957C0 139.641 23.0726 173.895 56.5218 190.07V9.92188Z" fill="black"/>
<path d="M143.477 9.92188V190.07C176.926 173.895 199.998 139.641 199.998 99.9957C199.998 60.35 176.926 26.0965 143.477 9.92188Z" fill="#496E2D"/>
<path d="M99.9972 65.2148C80.7871 65.2148 65.2148 80.7875 65.2148 99.9973C65.2148 119.207 80.7875 134.78 99.9972 134.78C119.207 134.78 134.78 119.207 134.78 99.9973C134.78 80.7875 119.207 65.2148 99.9972 65.2148ZM99.9972 121.736C87.991 121.736 78.2582 112.003 78.2582 99.9973C78.2582 87.9914 87.9914 78.2582 99.9972 78.2582C112.003 78.2582 121.736 87.9914 121.736 99.9973C121.736 112.003 112.003 121.736 99.9972 121.736Z" fill="#FFDA44"/>
<path d="M100.004 86.9531C95.2016 86.9531 91.3086 90.8461 91.3086 95.6488V108.692H108.7V95.6488C108.7 90.8461 104.807 86.9531 100.004 86.9531Z" fill="#FFDA44"/>
</svg>
