<svg width="200" height="200" viewBox="0 0 200 200" fill="none" xmlns="http://www.w3.org/2000/svg">
<path d="M196.555 126.078C198.797 117.76 200 109.017 200 99.9906C200 90.9645 198.797 82.2215 196.555 73.9035L91.3043 0.371094C71.7648 2.05469 53.834 9.35547 39.1305 20.6527L3.44492 73.9035C1.20313 82.2215 0 90.9645 0 99.9906C0 108.964 1.18867 117.659 3.40547 125.933L39.1301 179.329C53.8336 190.626 71.7645 197.927 91.3039 199.61L196.555 126.078Z" fill="#FFDA44"/>
<path d="M3.4375 126.094C9.22344 147.562 21.9754 166.169 39.123 179.345V126.094H3.4375Z" fill="#0052B4"/>
<path d="M91.3086 199.626C94.175 199.873 97.0738 200.007 100.004 200.007C146.207 200.007 185.084 168.67 196.559 126.094H91.3086V199.626Z" fill="#0052B4"/>
<path d="M196.559 73.9129C185.084 31.3363 146.207 0 100.004 0C97.0738 0 94.175 0.133594 91.3086 0.380469V73.9129H196.559Z" fill="#0052B4"/>
<path d="M39.123 20.6621C21.9754 33.8379 9.22344 52.4445 3.4375 73.9129H39.123V20.6621Z" fill="#0052B4"/>
<path d="M199.154 86.9625H78.2613L78.2609 2.38281C69.0195 4.43203 60.2582 7.75352 52.1738 12.1648V86.9621H0.846484C0.289844 91.232 0 95.5852 0 100.006C0 104.427 0.289844 108.78 0.846484 113.049H52.1734H52.1738V187.847C60.2582 192.257 69.0195 195.58 78.2609 197.629V113.05V113.05H199.154C199.709 108.78 200 104.427 200 100.006C200 95.5852 199.709 91.232 199.154 86.9625Z" fill="#D80027"/>
</svg>
