<svg width="200" height="200" viewBox="0 0 200 200" fill="none" xmlns="http://www.w3.org/2000/svg">
<path d="M100 200C155.228 200 200 155.228 200 100C200 44.7715 155.228 0 100 0C44.7715 0 0 44.7715 0 100C0 155.228 44.7715 200 100 200Z" fill="#D80027"/>
<path d="M156.52 74.216H120.299C122.535 71.8746 123.911 68.7047 123.911 65.2113C123.911 58.0078 118.071 52.168 110.868 52.168C106.329 52.168 102.334 54.4867 99.998 58.0027C97.6617 54.4867 93.6664 52.168 89.1285 52.168C81.925 52.168 76.0852 58.0078 76.0852 65.2113C76.0852 68.7047 77.4613 71.875 79.6973 74.216H43.4766C43.4766 83.8211 51.8426 91.607 61.4469 91.607H60.8672C60.8672 101.213 68.6535 108.999 78.259 108.999C78.259 112.11 79.0789 115.026 80.5102 117.551L66.0844 131.977L77.1523 143.045L92.8523 127.345C93.4672 127.57 94.1035 127.751 94.7605 127.874L85.2734 149.294L99.998 165.211L114.723 149.293L105.236 127.873C105.893 127.75 106.529 127.57 107.144 127.344L122.844 143.044L133.912 131.976L119.486 117.55C120.917 115.025 121.737 112.109 121.737 108.998C131.342 108.998 139.129 101.212 139.129 91.6059H138.549C148.154 91.6066 156.52 83.8211 156.52 74.216Z" fill="black"/>
</svg>
