<svg width="200" height="200" viewBox="0 0 200 200" fill="none" xmlns="http://www.w3.org/2000/svg">
<path d="M99.9965 0C155.225 0 199.996 44.7719 199.996 100C199.996 155.228 155.225 200 99.9965 200C99.9965 195.652 86.9531 100 86.9531 100L99.9965 0Z" fill="#F0F0F0"/>
<path d="M99.9999 200C44.7718 200 0 155.228 0 100C0 44.7719 44.7718 0 99.9999 0" fill="#496E2D"/>
<path d="M121.493 80.8184L113.288 92.125L100 87.8156L108.218 99.1125L100.014 110.419L113.297 106.095L121.515 117.391L121.506 103.422L134.789 99.0969L121.502 94.7883L121.493 80.8184Z" fill="#D80027"/>
<path d="M108.289 128.261C92.6808 128.261 80.0277 115.607 80.0277 99.9996C80.0277 84.3918 92.6808 71.7387 108.289 71.7387C113.155 71.7387 117.734 72.9691 121.732 75.1356C115.46 69.0023 106.884 65.2168 97.4191 65.2168C78.209 65.2168 62.6367 80.7895 62.6367 99.9992C62.6367 119.209 78.2094 134.782 97.4191 134.782C106.884 134.782 115.461 130.996 121.732 124.863C117.734 127.03 113.155 128.261 108.289 128.261Z" fill="#D80027"/>
</svg>
