<svg width="200" height="200" viewBox="0 0 200 200" fill="none" xmlns="http://www.w3.org/2000/svg">
<path d="M100 200C155.228 200 200 155.228 200 100C200 44.7715 155.228 0 100 0C44.7715 0 0 44.7715 0 100C0 155.228 44.7715 200 100 200Z" fill="#F0F0F0"/>
<path d="M148.514 12.5437C134.145 4.55625 117.605 0 100 0C44.7758 0 0.00703125 44.7648 0 99.9883L69.5652 65.2176L148.514 12.5437Z" fill="#0052B4"/>
<path d="M0 100.02C0.00703125 155.243 44.7758 200.008 100 200.008C117.605 200.008 134.145 195.452 148.514 187.464L69.5652 134.79L0 100.02Z" fill="#0052B4"/>
<path d="M156.848 17.7211C154.162 15.8621 151.379 14.1332 148.511 12.5391L0 99.982V99.9938C0 99.9938 0 100.002 0 100.005L148.511 187.448C151.379 185.854 154.162 184.125 156.848 182.266L17.118 99.9938L156.848 17.7211Z" fill="#D80027"/>
<path d="M173.904 96.2664H161.992C165.089 92.5477 164.898 87.0152 161.409 83.5266C165.105 79.8309 165.105 73.8383 161.409 70.1418L161.186 70.3652C164.882 66.6695 165.105 60.4535 161.409 56.7578L107.871 110.295C111.567 113.992 117.455 113.948 121.15 110.252L122.181 109.31L147.817 106.979V118.005H156.512V106.189L169.556 105.003L173.904 96.2664Z" fill="#A2001D"/>
<path d="M108.699 121.743L100 117.395L108.699 113.047H165.22V121.743H108.699Z" fill="#FFDA44"/>
</svg>
