<svg width="200" height="200" viewBox="0 0 200 200" fill="none" xmlns="http://www.w3.org/2000/svg">
<path d="M56.5277 190.077C69.6746 196.434 84.4234 200 100.006 200C115.588 200 130.337 196.434 143.484 190.077L152.18 100L143.484 9.92266C130.337 3.56563 115.588 0 100.006 0C84.4234 0 69.6746 3.56563 56.5277 9.92266L47.832 100L56.5277 190.077Z" fill="#FFDA44"/>
<path d="M143.477 190.07C176.926 173.895 199.998 139.641 199.998 99.9957C199.998 60.35 176.926 26.0961 143.477 9.92188V190.07Z" fill="#D80027"/>
<path d="M56.5218 190.07V9.92188C23.0722 26.0961 0 60.3496 0 99.9957C0 139.642 23.0722 173.895 56.5218 190.07Z" fill="#0052B4"/>
<path d="M100 134.782C100 118.825 100 100 100 100H126.087V113.043C126.087 115.309 121.739 123.612 111.008 130.435C106.943 133.019 102.736 133.85 100 134.782Z" fill="#D80027"/>
<path d="M73.9062 73.9062H99.9933V99.9934H73.9062V73.9062Z" fill="#D80027"/>
<path d="M113.041 65.2172C113.041 60.4145 109.147 56.5215 104.345 56.5215C102.759 56.5215 101.277 56.9527 99.9972 57.6941C98.7171 56.9527 97.2355 56.5215 95.6496 56.5215C90.8472 56.5215 86.9539 60.4145 86.9539 65.2172H65.2148V108.695C65.2148 124.881 78.0687 134.241 88.1488 139.094C87.3945 140.382 86.9539 141.877 86.9539 143.478C86.9539 148.281 90.8472 152.174 95.6496 152.174C97.2355 152.174 98.7175 151.743 99.9972 151.001C101.277 151.743 102.759 152.174 104.345 152.174C109.147 152.174 113.041 148.281 113.041 143.478C113.041 141.877 112.6 140.382 111.845 139.094C121.925 134.241 134.78 124.881 134.78 108.695V65.2172H113.041ZM121.736 108.695C121.736 110.961 121.736 117.856 111.005 124.679C106.94 127.263 102.733 128.939 99.9972 129.87C97.2613 128.939 93.0543 127.263 88.9894 124.679C78.2582 117.856 78.2582 110.961 78.2582 108.695V78.2606H121.736V108.695Z" fill="#FF9811"/>
</svg>
