<svg width="200" height="200" viewBox="0 0 200 200" fill="none" xmlns="http://www.w3.org/2000/svg">
<path d="M0 100C0 44.7719 44.7719 0 100 0C155.228 0 200 44.7719 200 100C195.652 100 100 113.043 100 113.043L0 100Z" fill="#D80027"/>
<path d="M200 100C200 155.228 155.228 200 100 200C44.7719 200 0 155.228 0 100" fill="black"/>
<path d="M86.2891 79.541L94.7664 85.6934L91.5359 95.6574L100.007 89.4949L108.485 95.6473L105.242 85.6863L113.712 79.5246L103.238 79.5309L99.9945 69.5703L96.7637 79.5344L86.2891 79.541Z" fill="#FFDA44"/>
<path d="M125 56.7016C117.12 52.152 108.504 50.0048 100 50.0196V63.0602C106.286 63.0489 112.654 64.6348 118.478 67.9981C136.126 78.1872 142.194 100.834 132.005 118.482C121.816 136.129 99.1695 142.198 81.5215 132.009C76.3801 129.04 72.2297 125.01 69.1703 120.359L58.2812 127.548C62.4207 133.84 68.0441 139.288 75 143.304C98.8766 157.089 129.516 148.879 143.301 125.003C157.086 101.126 148.877 70.4868 125 56.7016Z" fill="#FFDA44"/>
<path d="M71.1728 91.3086C67.7158 97.6285 70.0369 105.555 76.3564 109.012L118.719 132.16C115.838 137.426 117.369 143.836 122.635 146.717L134.078 152.977C139.344 155.858 145.95 153.923 148.831 148.657L155.09 137.214L71.1728 91.3086Z" fill="#FFDA44"/>
</svg>
