<svg width="200" height="200" viewBox="0 0 200 200" fill="none" xmlns="http://www.w3.org/2000/svg">
<path d="M200 100C200 155.228 155.228 200 100 200C44.7719 200 0 155.228 0 100C0 100.024 100 0.0109375 100 0C155.228 0 200 44.7719 200 100Z" fill="#0052B4"/>
<path d="M99.7266 99.9941H99.9941C99.9941 99.9043 99.9941 99.8168 99.9941 99.7266C99.9051 99.816 99.816 99.9051 99.7266 99.9941Z" fill="#F0F0F0"/>
<path d="M100 52.1738C100 34.5781 100 23.0488 100 0H99.9832C44.7621 0.009375 0 44.777 0 100H52.1738V70.6207L81.5531 100H99.7328C99.8219 99.9109 99.9109 99.8219 100 99.7324C100 92.9953 100 86.984 100 81.5539L70.6203 52.1738H100Z" fill="#F0F0F0"/>
<path d="M50.5953 13.0469C34.9551 21.9527 21.9523 34.9551 13.0469 50.5953V100.004H39.134V39.1348V39.134H100.004C100.004 30.9063 100.004 23.068 100.004 13.0469H50.5953Z" fill="#D80027"/>
<path d="M99.9941 87.6965L64.4648 52.168H52.168V52.1687L99.9934 99.9938H99.9941C99.9941 99.9938 99.9941 91.5145 99.9941 87.6965Z" fill="#D80027"/>
<path d="M169.12 114.632C171.996 110.675 173.916 105.844 173.916 99.9934V56.5152C170.283 59.2449 165.767 60.8629 160.873 60.8629C153.761 60.8629 147.448 57.4477 143.482 52.168C139.515 57.4477 133.202 60.8629 126.09 60.8629C121.196 60.8629 116.68 59.2445 113.047 56.516V99.9934C113.047 105.844 114.968 110.675 117.843 114.632H169.12Z" fill="#F3F3F3"/>
<path d="M160.08 91.9406C161.464 88.5633 162.541 83.627 162.541 81.1703C162.541 77.223 157.395 74.0234 157.395 74.0234C157.395 74.0234 152.248 77.223 152.248 81.1703C152.248 83.6273 153.325 88.5637 154.709 91.9406L151.738 98.648C153.484 99.3582 155.393 99.7527 157.395 99.7527C159.397 99.7527 161.305 99.3578 163.052 98.648L160.08 91.9406Z" fill="#FF9811"/>
<path d="M139.955 70.223C136.339 70.7129 131.525 72.25 129.398 73.4781C125.98 75.452 125.781 81.5078 125.781 81.5078C125.781 81.5078 131.126 84.3645 134.544 82.391C136.672 81.1625 140.408 77.7625 142.639 74.875L149.935 74.0938C149.677 72.2273 149.062 70.377 148.063 68.6438C147.061 66.9105 145.766 65.4543 144.278 64.2969L139.955 70.223Z" fill="#FF9811"/>
<path d="M131.201 98.4887C133.433 101.375 137.17 104.774 139.298 106.003C142.716 107.977 148.061 105.121 148.061 105.121C148.061 105.121 147.861 99.0641 144.444 97.0902C142.315 95.8617 137.502 94.3262 133.886 93.8371L129.563 87.9102C128.075 89.0672 126.78 90.5242 125.779 92.2559C124.778 93.9898 124.166 95.8395 123.906 97.707L131.201 98.4887Z" fill="#FF9811"/>
<path d="M116.758 113.045C124.878 126.074 143.472 130.436 143.472 130.436C143.472 130.436 162.066 126.074 170.187 113.045H116.758Z" fill="#338AF3"/>
</svg>
