<svg width="200" height="200" viewBox="0 0 200 200" fill="none" xmlns="http://www.w3.org/2000/svg">
<path d="M0 99.9934C0 106.843 0.690625 113.531 2.00273 119.993L100 126.08L197.998 119.993C199.31 113.531 200 106.843 200 99.9934C200 93.1438 199.309 86.4555 197.998 79.9934L100 73.9062L2.00273 79.9934C0.690625 86.4555 0 93.1438 0 99.9934Z" fill="#0052B4"/>
<path d="M198.007 120H2.01172C11.277 165.645 51.6305 200 100.009 200C148.387 200 188.741 165.645 198.007 120Z" fill="#F0F0F0"/>
<path d="M2.01172 80H198.007C188.741 34.3555 148.388 0 100.009 0C51.6297 0 11.277 34.3555 2.01172 80Z" fill="black"/>
<path d="M143.48 79.9934H56.5234L74.2891 71.6363L64.8285 54.4312L84.1195 58.1207L86.5648 38.6328L100.002 52.9664L113.439 38.6328L115.883 58.1207L135.175 54.4312L125.715 71.6371L143.48 79.9934Z" fill="#FFDA44"/>
<path d="M0 100.004C0 155.232 44.7719 200.004 100 200.004L19.9984 40C7.44219 56.7145 0 77.4891 0 100.004Z" fill="#A2001D"/>
<path d="M100 200.004C155.228 200.004 200 155.232 200 100.004C200 77.4891 192.558 56.7145 180.002 40L100 200.004Z" fill="#A2001D"/>
</svg>
