<svg width="200" height="200" viewBox="0 0 200 200" fill="none" xmlns="http://www.w3.org/2000/svg">
<path d="M100 200C155.228 200 200 155.228 200 100C200 44.7715 155.228 0 100 0C44.7715 0 0 44.7715 0 100C0 155.228 44.7715 200 100 200Z" fill="#F0F0F0"/>
<path d="M100 0C60.3541 0 26.0979 23.0723 9.92285 56.5219H190.077C173.903 23.0723 139.646 0 100 0Z" fill="#338AF3"/>
<path d="M99.9992 200C139.645 200 173.902 176.928 190.077 143.479H9.92188C26.0969 176.928 60.3531 200 99.9992 200Z" fill="#338AF3"/>
<path d="M129.895 99.9949L117.682 105.74L124.185 117.568L110.923 115.03L109.243 128.427L100.006 118.574L90.7684 128.427L89.0883 115.03L75.8266 117.567L82.3297 105.739L70.1172 99.9949L82.3301 94.25L75.8266 82.4227L89.0879 84.9594L90.7687 71.5625L100.006 81.4156L109.243 71.5625L110.923 84.9594L124.186 82.4227L117.682 94.2504L129.895 99.9949Z" fill="#FFDA44"/>
</svg>
