<svg width="200" height="200" viewBox="0 0 200 200" fill="none" xmlns="http://www.w3.org/2000/svg">
<path d="M100 200C155.228 200 200 155.228 200 100C200 44.7715 155.228 0 100 0C44.7715 0 0 44.7715 0 100C0 155.228 44.7715 200 100 200Z" fill="#FFDA44"/>
<path d="M100.004 199.997C130.313 199.997 157.471 186.511 175.809 165.215H24.1992C42.5379 186.511 69.6953 199.997 100.004 199.997Z" fill="#338AF3"/>
<path d="M200 100C200 44.7719 155.228 0 100 0C44.7719 0 0 44.7719 0 100C0 109.026 1.20313 117.769 3.44492 126.087H196.555C198.797 117.769 200 109.026 200 100Z" fill="#338AF3"/>
<path d="M7.94922 139.121C9.87695 143.651 12.1305 148.007 14.6777 152.164H185.323C187.87 148.007 190.124 143.65 192.052 139.121H7.94922Z" fill="#338AF3"/>
<path d="M45.8266 63.0715L26.2891 54.4488L45.8266 45.8262L54.4488 26.2891L63.0711 45.8262L82.6082 54.4488L63.0711 63.0715L54.4488 82.6086L45.8266 63.0715Z" fill="#F0F0F0"/>
<path d="M54.4422 37.0508L59.7668 49.1168L71.8332 54.4422L59.7668 59.7672L54.4422 71.8332L49.1168 59.7672L37.0508 54.4422L49.1168 49.1168L54.4422 37.0508Z" fill="#D80027"/>
</svg>
