<svg width="200" height="200" viewBox="0 0 200 200" fill="none" xmlns="http://www.w3.org/2000/svg">
<path d="M200 100C200 155.228 155.228 200 100 200C44.7719 200 0 155.228 0 100C0 100.023 100 0.0113281 100 0C155.228 0 200 44.7719 200 100Z" fill="#0052B4"/>
<path d="M99.9973 0C99.9918 0 99.9859 0.01 99.9805 0.01L99.9973 0Z" fill="#F0F0F0"/>
<path d="M99.7266 99.9941H99.9941C99.9941 99.9035 99.9941 99.8168 99.9941 99.7266C99.9051 99.816 99.816 99.9051 99.7266 99.9941Z" fill="#F0F0F0"/>
<path d="M100 52.1738C100 34.5781 100 23.048 100 0H99.9832C44.7625 0.00898438 0 44.7766 0 99.9996H52.1738V70.6199L81.5535 99.9996H99.7328C99.8223 99.9106 99.9113 99.8215 100 99.732C100 92.9949 100 86.9836 100 81.5539L70.6203 52.1738H100Z" fill="#F0F0F0"/>
<path d="M50.5953 13.0469C34.9551 21.9527 21.9527 34.9551 13.0469 50.5953V100.004H39.134V39.1344L100.004 39.134C100.004 30.9063 100.004 23.068 100.004 13.0469H50.5953Z" fill="#D80027"/>
<path d="M99.9938 87.6963L64.4652 52.1681H52.168L99.9934 99.9935H99.9938C99.9938 99.9935 99.9938 91.515 99.9938 87.6963Z" fill="#D80027"/>
<path d="M60.3059 117.383L65.7941 128.859L78.1875 125.994L72.6375 137.44L82.6039 145.344L70.1949 148.141L70.2297 160.861L60.3059 152.903L50.3824 160.861L50.4172 148.141L38.0078 145.344L47.9746 137.44L42.4238 125.994L54.818 128.859L60.3059 117.383Z" fill="#F0F0F0"/>
<path d="M149.723 139.121L152.467 144.859L158.664 143.427L155.889 149.15L160.872 153.102L154.668 154.5L154.685 160.86L149.723 156.881L144.761 160.86L144.779 154.5L138.574 153.102L143.557 149.15L140.782 143.427L146.979 144.859L149.723 139.121Z" fill="#F0F0F0"/>
<path d="M124.196 78.2617L126.94 84L133.137 82.5672L130.362 88.2902L135.345 92.2422L129.141 93.6406L129.157 100.001L124.196 96.0215L119.234 100.001L119.251 93.6406L113.047 92.2422L118.03 88.2902L115.255 82.5672L121.452 84L124.196 78.2617Z" fill="#F0F0F0"/>
<path d="M149.723 43.4785L152.467 49.2168L158.664 47.7844L155.889 53.5074L160.872 57.459L154.668 58.8578L154.685 65.218L149.723 61.2387L144.761 65.218L144.779 58.8578L138.574 57.459L143.557 53.5074L140.782 47.7844L146.979 49.2168L149.723 43.4785Z" fill="#F0F0F0"/>
<path d="M172.028 69.5703L174.772 75.3086L180.969 73.8758L178.194 79.5988L183.177 83.5508L176.972 84.9496L176.989 91.3094L172.028 87.3305L167.066 91.3094L167.083 84.9496L160.879 83.5508L165.862 79.5988L163.087 73.8758L169.284 75.3086L172.028 69.5703Z" fill="#F0F0F0"/>
<path d="M156.077 100L158.235 106.643H165.22L159.569 110.749L161.728 117.391L156.077 113.286L150.426 117.391L152.584 110.749L146.934 106.643H153.918L156.077 100Z" fill="#F0F0F0"/>
</svg>
