<svg width="200" height="200" viewBox="0 0 200 200" fill="none" xmlns="http://www.w3.org/2000/svg">
<path d="M200 100.009C200 87.7773 197.8 76.0598 193.78 65.227L100 60.8789L6.21992 65.2266C2.20039 76.0598 0 87.7773 0 100.009C0 112.241 2.20039 123.959 6.21992 134.792L100 139.14L193.78 134.792C197.8 123.959 200 112.241 200 100.009Z" fill="#D80027"/>
<path d="M100.001 200.003C142.997 200.003 179.652 172.865 193.781 134.785H6.2207C20.35 172.865 57.0043 200.003 100.001 200.003Z" fill="#6DA544"/>
<path d="M6.21973 65.2176H193.78C179.651 27.1375 142.996 0 99.9998 0C57.0033 0 20.349 27.1375 6.21973 65.2176Z" fill="#338AF3"/>
<path d="M102.175 128.261C86.5676 128.261 73.9145 115.607 73.9145 99.9996C73.9145 84.3918 86.5676 71.7387 102.175 71.7387C107.042 71.7387 111.621 72.9691 115.619 75.1356C109.347 69.0023 100.77 65.2168 91.3059 65.2168C72.0957 65.2168 56.5234 80.7895 56.5234 99.9992C56.5234 119.209 72.0961 134.782 91.3059 134.782C100.771 134.782 109.347 130.996 115.619 124.863C111.621 127.03 107.042 128.261 102.175 128.261Z" fill="#F0F0F0"/>
<path d="M123.911 80.4297L127.654 90.9574L137.746 86.1598L132.948 96.2512L143.476 99.9949L132.948 103.739L137.746 113.83L127.654 109.032L123.911 119.56L120.168 109.032L110.076 113.83L114.874 103.739L104.346 99.9949L114.874 96.2512L110.076 86.1598L120.168 90.9574L123.911 80.4297Z" fill="#F0F0F0"/>
</svg>
