<svg width="200" height="200" viewBox="0 0 200 200" fill="none" xmlns="http://www.w3.org/2000/svg">
<path d="M100 200C155.228 200 200 155.228 200 100C200 44.7715 155.228 0 100 0C44.7715 0 0 44.7715 0 100C0 155.228 44.7715 200 100 200Z" fill="#F0F0F0"/>
<path d="M0 100.009C0 137.913 21.0898 170.89 52.1738 187.85V12.168C21.0898 29.1281 0 62.1047 0 100.009Z" fill="#D80027"/>
<path d="M0 99.9926C0 146.195 31.3363 185.073 73.9129 196.548V3.4375C31.3363 14.9125 0 53.7898 0 99.9926Z" fill="#0052B4"/>
<path d="M35.8691 34.7852V51.0895C35.8691 59.1938 42.4387 65.7633 50.543 65.7633C58.6473 65.7633 65.2168 59.1938 65.2168 51.0895V34.7852H35.8691Z" fill="#D80027"/>
<path d="M50.5387 57.0652C47.2422 57.0652 44.5605 54.3836 44.5605 51.0871V43.4785H56.5172V51.0871C56.5172 54.3836 53.8352 57.0652 50.5387 57.0652Z" fill="#F0F0F0"/>
<path d="M108.696 104.34H82.6094C82.6094 99.5379 78.716 95.6445 73.9137 95.6445C69.1113 95.6445 65.218 99.5379 65.218 104.34H39.1309C39.1309 109.143 43.3141 113.036 48.116 113.036H47.8266C47.8266 117.839 51.7191 121.732 56.5223 121.732C56.5223 126.534 60.4148 130.427 65.218 130.427H82.6094C87.4117 130.427 91.3051 126.534 91.3051 121.732C96.1074 121.732 100.001 117.839 100.001 113.036H99.7113C104.513 113.036 108.696 109.143 108.696 104.34Z" fill="#FFDA44"/>
<path d="M112.267 90.4367L109.984 94.0918L112.754 97.3918L108.572 96.3508L106.289 100.004L105.988 95.7055L101.807 94.6629L105.803 93.0488L105.502 88.75L108.272 92.0516L112.267 90.4367Z" fill="#FFDA44"/>
<path d="M98.95 79.2578L98.0551 83.473L101.787 85.6273L97.5008 86.0797L96.6051 90.2937L94.852 86.357L90.5664 86.807L93.7691 83.9234L92.0168 79.9875L95.748 82.1418L98.95 79.2578Z" fill="#FFDA44"/>
<path d="M82.6047 73.3008L83.2043 77.5684L87.4477 78.3164L83.575 80.2055L84.1746 84.473L81.1816 81.373L77.3082 83.2621L79.3312 79.457L76.3379 76.3578L80.582 77.1055L82.6047 73.3008Z" fill="#FFDA44"/>
<path d="M65.2141 73.3008L67.2375 77.1055L71.4809 76.3574L68.4875 79.4578L70.5105 83.2625L66.6379 81.373L63.6441 84.4723L64.2441 80.2055L60.3711 78.3168L64.6144 77.5684L65.2141 73.3008Z" fill="#FFDA44"/>
<path d="M48.8805 79.2578L52.0828 82.1418L55.8141 79.9875L54.0625 83.925L57.2637 86.8074L52.9789 86.357L51.2254 90.2937L50.3309 86.0789L46.0449 85.6289L49.7762 83.4734L48.8805 79.2578Z" fill="#FFDA44"/>
<path d="M35.5539 90.4363L39.5504 92.0512L42.3188 88.75L42.0195 93.0496L46.0145 94.6641L41.8328 95.7055L41.5313 100.004L39.2496 96.3504L35.0684 97.3922L37.8383 94.0914L35.5539 90.4363Z" fill="#FFDA44"/>
</svg>
