<svg width="200" height="200" viewBox="0 0 200 200" fill="none" xmlns="http://www.w3.org/2000/svg">
<path d="M100 200C155.228 200 200 155.228 200 100C200 44.7715 155.228 0 100 0C44.7715 0 0 44.7715 0 100C0 155.228 44.7715 200 100 200Z" fill="#FFDA44"/>
<path d="M60.8738 65.2176H193.784C179.655 27.1375 143 0 100.004 0C72.3895 0 47.3922 11.1949 29.2969 29.2926L60.8738 65.2176Z" fill="#338AF3"/>
<path d="M60.8738 134.785H193.784C179.655 172.865 143 200.003 100.004 200.003C72.3895 200.003 47.3922 188.808 29.2969 170.71L60.8738 134.785Z" fill="#338AF3"/>
<path d="M29.2893 29.2969C-9.76309 68.3492 -9.76309 131.666 29.2893 170.719C45.4271 154.581 60.9478 139.06 100 100.008L29.2893 29.2969Z" fill="black"/>
</svg>
