<svg width="200" height="200" viewBox="0 0 200 200" fill="none" xmlns="http://www.w3.org/2000/svg">
<path d="M100 200C155.228 200 200 155.228 200 100C200 44.7715 155.228 0 100 0C44.7715 0 0 44.7715 0 100C0 155.228 44.7715 200 100 200Z" fill="#F0F0F0"/>
<path d="M99.9906 0C79.9219 0 61.2375 5.91602 45.5766 16.093L71.2949 33.3309L39.1211 49.9973L71.2949 66.6637L39.1211 83.3301L71.2949 99.9945L39.1211 116.661L71.2949 133.327L39.1211 149.995L71.2949 166.661L45.5734 183.904C61.2352 194.083 79.9207 200 99.9906 200C155.219 200 199.991 155.228 199.991 100C199.991 44.7719 155.219 0 99.9906 0Z" fill="#D80027"/>
</svg>
