<svg width="200" height="200" viewBox="0 0 200 200" fill="none" xmlns="http://www.w3.org/2000/svg">
<path d="M100 0C155.228 0 200 44.7719 200 100C200 155.228 155.228 200 100 200C44.7722 200 0.000488281 155.228 0.000488281 100" fill="#FFDA44"/>
<path d="M97.832 44.4488H183.161C177.543 36.0555 170.686 28.5633 162.854 22.2266H97.832V44.4488Z" fill="#D80027"/>
<path d="M97.832 88.882H199.388C198.536 81.1766 196.809 73.7363 194.308 66.6602H97.832V88.882Z" fill="#D80027"/>
<path d="M5.70545 133.334H194.308C196.809 126.258 198.537 118.817 199.389 111.111H0.625C1.47656 118.817 3.2039 126.258 5.70545 133.334Z" fill="#D80027"/>
<path d="M37.1425 177.769H162.839C170.67 171.433 177.527 163.94 183.146 155.547H16.8359C22.4547 163.94 29.3109 171.432 37.1425 177.769Z" fill="#D80027"/>
<path d="M100 0C44.7717 0 -0.000390621 44.7719 2.55604e-09 100.001C22.8226 100 44.7717 100.001 99.9996 100.001L100 0Z" fill="#4A1F63"/>
<path d="M82.608 52.1742V60.8699H78.2603V52.1742H69.5647V60.8699H65.217V43.4785H47.8257V60.8699H43.4776V52.1742H34.7824V60.8699H30.4343V52.1742H21.7383V78.2609H91.3036V52.1742H82.608Z" fill="#F0F0F0"/>
</svg>
