<svg width="200" height="200" viewBox="0 0 200 200" fill="none" xmlns="http://www.w3.org/2000/svg">
<path d="M143.484 9.92266C130.337 3.56563 115.588 0 100.006 0C84.4238 0 69.6746 3.56563 56.5277 9.92266L47.832 100L56.5277 190.077C69.6746 196.434 84.4238 200 100.006 200C115.588 200 130.337 196.434 143.484 190.077L152.18 100L143.484 9.92266Z" fill="#FFDA44"/>
<path d="M56.5218 9.92188C23.0726 26.0961 0 60.3496 0 99.9957C0 139.642 23.0726 173.895 56.5218 190.07V9.92188Z" fill="#0052B4"/>
<path d="M143.477 9.92188V190.07C176.926 173.895 199.998 139.641 199.998 99.9957C199.998 60.35 176.926 26.0961 143.477 9.92188Z" fill="#0052B4"/>
<path d="M130.433 60.8637L124.6 57.9473C124.248 58.6508 116.631 74.148 115.387 97.8203H106.52V60.8637L99.9984 52.168L93.4765 60.8637V97.8203H84.6097C83.3652 74.148 75.7488 58.6508 75.3969 57.9473L63.7305 63.7805C63.8109 63.9406 71.7379 80.0754 71.7379 104.342V110.864H93.4769V147.821H106.52V110.864H128.259V104.342C128.259 91.7957 130.43 81.4504 132.251 74.9809C134.237 67.9262 136.254 63.8062 136.274 63.7652L130.433 60.8637Z" fill="black"/>
</svg>
