<svg width="200" height="200" viewBox="0 0 200 200" fill="none" xmlns="http://www.w3.org/2000/svg">
<path d="M100 200C155.228 200 200 155.228 200 100C200 44.7715 155.228 0 100 0C44.7715 0 0 44.7715 0 100C0 155.228 44.7715 200 100 200Z" fill="#F0F0F0"/>
<path d="M0.839844 113.047C3.16641 130.904 10.2063 147.277 20.666 160.884L73.9059 113.047H0.839844Z" fill="#D80027"/>
<path d="M86.9586 199.16V126.094L39.1211 179.334C52.7293 189.794 69.102 196.834 86.9586 199.16Z" fill="#D80027"/>
<path d="M86.9586 0.839844C69.102 3.16641 52.7293 10.2063 39.1211 20.666L86.9586 73.9066V0.839844Z" fill="#D80027"/>
<path d="M0.839844 86.9566H73.9059L20.6656 39.1191C10.2059 52.727 3.16602 69.1 0.839844 86.9566Z" fill="#D80027"/>
<path d="M113.047 0.839844V73.9062L160.885 20.666C147.277 10.207 130.904 3.16602 113.047 0.839844Z" fill="#D80027"/>
<path d="M199.16 86.957C196.834 69.1004 189.794 52.7273 179.334 39.1191L126.094 86.957H199.16Z" fill="#D80027"/>
<path d="M126.094 113.047L179.334 160.885C189.794 147.277 196.834 130.904 199.161 113.047H126.094Z" fill="#D80027"/>
<path d="M113.047 199.16C130.904 196.834 147.277 189.794 160.885 179.334L113.047 126.094V199.16Z" fill="#D80027"/>
<path d="M179.334 160.888L118.446 99.9996L118.446 99.9992L179.334 39.1102C176.709 35.6977 173.836 32.4148 170.71 29.2883C167.584 26.1625 164.301 23.2895 160.888 20.6641L99.9996 81.5527H99.9992L39.1105 20.6641C35.698 23.2898 32.4148 26.1621 29.2883 29.2883C26.1625 32.4148 23.2895 35.6977 20.6641 39.1105L81.5527 99.9988L81.5531 99.9992L20.6645 160.888C23.2902 164.3 26.1629 167.584 29.2887 170.71C32.4148 173.836 35.698 176.709 39.1109 179.334L99.9992 118.446L160.888 179.334C164.3 176.709 167.584 173.836 170.71 170.71C173.836 167.584 176.709 164.3 179.334 160.888Z" fill="#496E2D"/>
<path d="M113.043 199.154V113.045V113.044H199.154C199.71 108.774 200 104.421 200 100C200 95.5797 199.71 91.2266 199.154 86.957H113.044L113.044 86.9566V0.846875C108.774 0.291016 104.421 0 100 0C95.5793 0.000390625 91.2262 0.291016 86.9566 0.846875L86.957 86.9559V86.9566H0.846875C0.290625 91.2262 0 95.5793 0 100C0.000390625 104.421 0.290625 108.774 0.846875 113.043H86.9563L86.9566 199.154C91.2266 199.709 95.5785 200 100 200C104.421 200 108.774 199.709 113.043 199.154Z" fill="#F0F0F0"/>
</svg>
