<svg width="200" height="200" viewBox="0 0 200 200" fill="none" xmlns="http://www.w3.org/2000/svg">
<path d="M100 200C155.228 200 200 155.228 200 100C200 44.7715 155.228 0 100 0C44.7715 0 0 44.7715 0 100C0 155.228 44.7715 200 100 200Z" fill="#FCFCFC"/>
<path d="M41.2992 92.7633L30.4297 73.0434L41.2992 53.6328L52.1687 73.0434L41.2992 92.7633Z" fill="#A2001D"/>
<path d="M19.5609 92.7633L8.69141 73.0434L19.5609 53.6328L30.4305 73.0434L19.5609 92.7633Z" fill="#A2001D"/>
<path d="M41.2992 146.377L30.4297 126.657L41.2992 107.246L52.1687 126.657L41.2992 146.377Z" fill="#A2001D"/>
<path d="M19.5609 146.377L8.69141 126.657L19.5609 107.246L30.4305 126.657L19.5609 146.377Z" fill="#A2001D"/>
<path d="M52.1766 19.4016L49.0992 13.9062C43.5797 17.1766 38.4027 20.9629 33.6328 25.1988L41.307 39.1211L52.1766 19.4016Z" fill="#A2001D"/>
<path d="M41.3102 160.879L33.5547 174.729C38.3203 178.97 43.4937 182.763 49.0109 186.039L52.1801 180.29L41.3102 160.879Z" fill="#A2001D"/>
<path d="M60.8789 126.094V192.056C72.898 197.172 86.1219 200.007 100.009 200.007C143.006 200.007 179.66 172.869 193.789 134.789L60.8789 126.094Z" fill="#6DA544"/>
<path d="M193.789 134.782C197.809 123.949 200.009 112.232 200.009 100C200.009 44.7719 155.237 0 100.009 0C86.123 0 72.898 2.8332 60.8789 7.94844V134.783H193.789V134.782Z" fill="#A2001D"/>
</svg>
