<svg width="200" height="200" viewBox="0 0 200 200" fill="none" xmlns="http://www.w3.org/2000/svg">
<path d="M200 100.004C200 65.6828 182.707 35.4043 156.362 17.3949L100 13.0469L43.6379 17.3945C17.293 35.4043 0 65.6832 0 100.004C0 134.325 17.293 164.603 43.6379 182.612L100 186.96L156.362 182.613C182.707 164.603 200 134.325 200 100.004Z" fill="#0052B4"/>
<path d="M156.357 17.3914C140.308 6.42031 120.903 0 99.9949 0C79.0875 0 59.6816 6.42031 43.6328 17.3914H156.357Z" fill="#A2001D"/>
<path d="M43.6328 182.617C59.6812 193.588 79.0875 200.009 99.9949 200.009C120.903 200.009 140.308 193.588 156.357 182.617H43.6328Z" fill="#A2001D"/>
<path d="M99.9941 147.82C126.408 147.82 147.82 126.408 147.82 99.9941C147.82 73.5805 126.408 52.168 99.9941 52.168C73.5805 52.168 52.168 73.5805 52.168 99.9941C52.168 126.408 73.5805 147.82 99.9941 147.82Z" fill="#F0F0F0"/>
<path d="M100.009 139.14C121.621 139.14 139.14 121.621 139.14 100.009C139.14 78.3982 121.621 60.8789 100.009 60.8789C78.3982 60.8789 60.8789 78.3982 60.8789 100.009C60.8789 121.621 78.3982 139.14 100.009 139.14Z" fill="#6DA544"/>
<path d="M99.9934 126.08C114.401 126.08 126.08 114.401 126.08 99.9934C126.08 85.5858 114.401 73.9062 99.9934 73.9062C85.5858 73.9062 73.9062 85.5858 73.9062 99.9934C73.9062 114.401 85.5858 126.08 99.9934 126.08Z" fill="#F0F0F0"/>
<path d="M100.009 93.4785L85.8789 100V110.87L100.009 119.566L114.14 110.87V100L100.009 93.4785Z" fill="#0052B4"/>
<path d="M85.8789 86.9531H114.14V99.9965H85.8789V86.9531Z" fill="#FFDA44"/>
</svg>
