<svg width="200" height="200" viewBox="0 0 200 200" fill="none" xmlns="http://www.w3.org/2000/svg">
<path d="M200 100C200 155.228 155.228 200 100 200C44.7719 200 0 155.228 0 100C0 100.024 100 0.0109375 100 0C155.228 0 200 44.7719 200 100Z" fill="#D80027"/>
<path d="M99.9973 47.832V81.5598L65.2148 47.832H99.9973Z" fill="#0052B4"/>
<path d="M52.1797 100.009H81.559L52.1797 60.8789L47.832 91.3137L52.1797 100.009Z" fill="#0052B4"/>
<path d="M99.7266 99.9941H99.9941C99.9941 99.9043 99.9941 99.8168 99.9941 99.7266C99.9051 99.816 99.816 99.9051 99.7266 99.9941Z" fill="#F0F0F0"/>
<path d="M100 52.1738C100 34.5781 100 23.0488 100 0H99.9832C44.7621 0.009375 0 44.777 0 100H52.1738V70.6207L81.5531 100H99.7328C99.8219 99.9109 99.9109 99.8219 100 99.7324C100 92.9953 100 86.984 100 81.5539L70.6203 52.1738H100Z" fill="#F0F0F0"/>
<path d="M50.5953 13.0469C34.9551 21.9527 21.9523 34.9551 13.0469 50.5953V104.351H39.134V39.1348V39.134H104.351C104.351 30.9063 104.351 23.068 104.351 13.0469H50.5953Z" fill="#D80027"/>
<path d="M103.97 91.6715L64.4648 52.168H52.168V52.1687L103.968 103.969H103.969C103.97 103.97 103.97 95.4902 103.97 91.6715Z" fill="#D80027"/>
<path d="M113.047 52.168V99.9937C113.047 123.291 173.916 123.291 173.916 99.9937V52.168H113.047Z" fill="#F3F3F3"/>
<path d="M113.047 100V100C113.047 123.297 143.482 130.435 143.482 130.435C143.482 130.435 173.916 123.297 173.916 100V100H113.047Z" fill="#6DA544"/>
<path d="M143.486 80.8789L129.355 86.966V100.009L143.486 108.705L157.616 100.009V86.966L143.486 80.8789Z" fill="#A2001D"/>
<path d="M129.355 73.9062H157.616V86.9496H129.355V73.9062Z" fill="#338AF3"/>
</svg>
