<svg width="200" height="200" viewBox="0 0 200 200" fill="none" xmlns="http://www.w3.org/2000/svg">
<path d="M29.2892 170.711C-9.76306 131.658 -9.76306 68.3421 29.2892 29.2894C68.3414 -9.76332 131.658 -9.76293 170.711 29.2894C170.711 29.3031 197.261 119.155 158.208 158.208C119.156 197.261 29.3165 170.738 29.2892 170.711Z" fill="#FFDA44"/>
<path d="M29.2969 170.716C68.3491 209.769 131.666 209.769 170.718 170.716C209.771 131.664 209.771 68.3476 170.718 29.2949L29.2969 170.716Z" fill="#FF9811"/>
<path d="M156.577 56.5105V39.1191H123.242L120.695 41.6656C111.637 50.7238 113.161 61.291 114.274 69.0066C115.305 76.164 115.429 78.9058 112.767 81.5679C110.106 84.2293 107.363 84.1058 100.206 83.0734C92.4909 81.9613 81.9241 80.4375 72.8659 89.4953C63.8082 98.5531 65.3328 109.119 66.446 116.835C67.4784 123.991 67.6027 126.733 64.9417 129.394C62.2804 132.054 59.5378 131.93 52.3828 130.898C49.5929 130.495 46.7082 130.08 43.6285 130.045L43.4375 147.436C45.3648 147.457 47.5676 147.775 49.8996 148.111C52.6605 148.51 55.7855 148.961 59.0769 148.961C62.4878 148.961 66.0761 148.475 69.6198 146.944V160.859H95.7069V147.816H82.6636V139.12H91.3592V126.077H84.4093C84.739 121.857 84.1593 117.816 83.6593 114.352C82.6268 107.196 82.5026 104.454 85.1636 101.794C87.8253 99.132 90.5667 99.2554 97.7245 100.287C103.347 101.098 110.483 102.122 117.446 99.116V113.033H143.533V99.9894H130.49V91.2937H139.186V78.2504H132.236C132.566 74.0304 131.987 69.9902 131.487 66.525C130.766 61.5246 130.488 58.6793 131.294 56.5109L156.577 56.5105Z" fill="#F0F0F0"/>
</svg>
