<svg width="200" height="200" viewBox="0 0 200 200" fill="none" xmlns="http://www.w3.org/2000/svg">
<path d="M200 100.009C200 87.7773 197.8 76.0598 193.78 65.227L100 60.8789L6.21992 65.2266C2.2 76.0598 0 87.7773 0 100.009C0 112.241 2.2 123.959 6.21992 134.792L100 139.14L193.78 134.792C197.8 123.959 200 112.241 200 100.009Z" fill="#FFDA44"/>
<path d="M99.991 200.003C142.987 200.003 179.642 172.865 193.771 134.785H6.21094C20.3402 172.865 56.9945 200.003 99.991 200.003Z" fill="#6DA544"/>
<path d="M6.21094 65.2176H193.771C179.642 27.1375 142.987 0 99.991 0C56.9945 0 20.3402 27.1375 6.21094 65.2176Z" fill="#D80027"/>
</svg>
