<svg width="200" height="200" viewBox="0 0 200 200" fill="none" xmlns="http://www.w3.org/2000/svg">
<path d="M100 200C155.228 200 200 155.228 200 100C200 44.7715 155.228 0 100 0C44.7715 0 0 44.7715 0 100C0 155.228 44.7715 200 100 200Z" fill="#F0F0F0"/>
<path d="M29.2863 29.286C7.85468 50.7177 -1.81212 79.4575 0.278896 107.483L107.483 0.278991C79.4574 -1.81242 50.718 7.85438 29.2863 29.286Z" fill="#FFDA44"/>
<path d="M35.7031 176.586C74.9926 209.642 133.727 207.687 170.707 170.707C207.687 133.727 209.643 74.9922 176.587 35.7031L35.7031 176.586Z" fill="#0052B4"/>
<path d="M99.634 95.9813L108.252 91.3133L99.634 86.6453C97.6219 73.5746 87.2945 63.2469 74.2238 61.2352L69.5555 52.6172L64.8875 61.2348C51.8172 63.2465 41.4898 73.5742 39.4773 86.6449L30.8594 91.3133L39.477 95.9813C41.4891 109.052 51.8164 119.38 64.8871 121.391L69.5555 130.009L74.2234 121.392C87.2945 119.38 97.6219 109.052 99.634 95.9813ZM69.5559 108.705C59.9508 108.705 52.1645 100.919 52.1645 91.3133C52.1645 81.7078 59.9504 73.9219 69.5559 73.9219C79.1613 73.9219 86.9473 81.7078 86.9473 91.3133C86.9473 100.919 79.1609 108.705 69.5559 108.705Z" fill="black"/>
<path d="M69.5574 78.2617L73.3227 84.7832H80.8535L77.0879 91.3051L80.8535 97.8269H73.3227L69.5574 104.348L65.7922 97.8269H58.2617L62.027 91.3051L58.2617 84.7832H65.7922L69.5574 78.2617Z" fill="#D80027"/>
</svg>
