<svg width="200" height="200" viewBox="0 0 200 200" fill="none" xmlns="http://www.w3.org/2000/svg">
<path d="M100 200C155.228 200 200 155.228 200 100C200 44.7715 155.228 0 100 0C44.7715 0 0 44.7715 0 100C0 155.228 44.7715 200 100 200Z" fill="#F0F0F0"/>
<path d="M99.9999 0C64.5429 0 33.3983 18.4543 15.6421 46.2809L151.251 185.879C180.448 168.417 200 136.493 200 100C200 44.7719 155.228 0 99.9999 0Z" fill="#FFDA44"/>
<path d="M199.993 99.9914C199.993 74.0453 190.111 50.4094 173.906 32.6367V167.346C190.111 149.573 199.993 125.938 199.993 99.9914Z" fill="#0052B4"/>
<path d="M124.918 188.223L135.392 188.217L138.623 178.252L141.866 188.213L147.12 188.21C150.342 186.485 153.458 184.59 156.456 182.534L17.4566 43.5352C15.166 46.8773 13.077 50.3672 11.1984 53.9844L12.4336 57.7781L22.9082 57.7715L14.4379 63.9336L17.6809 73.8941L9.20274 67.7426L4.14609 71.4207C1.45039 80.4738 0 90.0633 0 99.9918C0 155.22 44.7719 199.992 100 199.992C111.677 199.992 122.884 197.987 133.301 194.307L124.918 188.223ZM22.3043 95.6441L25.5348 85.6801L17.0574 79.5277L27.532 79.5211L30.7629 69.5566L34.0059 79.5172L44.4805 79.5105L36.0098 85.6727L39.2527 95.6332L30.7746 89.4816L22.3043 95.6441ZM43.8766 117.383L47.107 107.419L38.6297 101.267L49.1043 101.26L52.3352 91.2957L55.5781 101.256L66.0527 101.25L57.5824 107.412L60.8254 117.372L52.3473 111.221L43.8766 117.383ZM65.4484 139.122L68.6789 129.158L60.2016 123.006L70.6762 122.999L73.907 113.035L77.15 122.995L87.6246 122.989L79.1543 129.151L82.3973 139.111L73.9191 132.959L65.4484 139.122ZM95.491 154.699L87.0203 160.861L90.2508 150.897L81.7734 144.745L92.2481 144.738L95.4793 134.774L98.7223 144.734L109.197 144.728L100.727 150.89L103.97 160.85L95.491 154.699ZM108.593 182.6L111.823 172.636L103.346 166.484L113.82 166.477L117.051 156.513L120.294 166.473L130.769 166.467L122.298 172.629L125.541 182.589L117.063 176.437L108.593 182.6Z" fill="#0052B4"/>
</svg>
