<svg width="200" height="200" viewBox="0 0 200 200" fill="none" xmlns="http://www.w3.org/2000/svg">
<path d="M4.72188 69.5645C1.65859 79.1618 -0.000390556 89.3856 6.89667e-08 99.9993C-0.000390556 110.612 1.65859 120.837 4.72227 130.434L100 134.783L195.277 130.434C198.34 120.837 200 110.612 200 99.9997C200 89.3864 198.341 79.1618 195.277 69.5645L99.9996 65.2168L4.72188 69.5645Z" fill="#F0F0F0"/>
<path d="M200 100.009C200 94.0766 199.48 88.2656 198.489 82.6172H1.51094C0.519531 88.2656 0 94.0758 0 100.009C0 105.941 0.519922 111.752 1.51094 117.4H198.489C199.48 111.751 200 105.941 200 100.009Z" fill="black"/>
<path d="M100.004 199.996C144.62 199.996 182.405 170.776 195.282 130.43H4.72656C17.6035 170.775 55.3891 199.995 100.004 199.996Z" fill="#338AF3"/>
<path d="M100.005 1.56654e-08C55.3895 1.56654e-08 17.6043 29.22 4.72656 69.5647L195.281 69.5651C182.405 29.22 144.62 -0.000781237 100.005 1.56654e-08Z" fill="#338AF3"/>
</svg>
