<svg width="200" height="200" viewBox="0 0 200 200" fill="none" xmlns="http://www.w3.org/2000/svg">
<path d="M100 200C155.228 200 200 155.228 200 100C200 44.7715 155.228 0 100 0C44.7715 0 0 44.7715 0 100C0 155.228 44.7715 200 100 200Z" fill="#6DA544"/>
<path d="M100.001 39.1211L182.61 99.9906L100.001 160.86L17.3926 99.9906L100.001 39.1211Z" fill="#FFDA44"/>
<path d="M99.9973 134.78C119.207 134.78 134.78 119.207 134.78 99.9973C134.78 80.7875 119.207 65.2148 99.9973 65.2148C80.7875 65.2148 65.2148 80.7875 65.2148 99.9973C65.2148 119.207 80.7875 134.78 99.9973 134.78Z" fill="#F0F0F0"/>
<path d="M82.6047 97.832C76.5562 97.832 70.7191 98.752 65.2246 100.459C65.468 119.459 80.9383 134.789 99.9961 134.789C111.78 134.789 122.188 128.923 128.48 119.957C117.716 106.482 101.153 97.832 82.6047 97.832Z" fill="#0052B4"/>
<path d="M134.138 106.661C134.557 104.504 134.783 102.277 134.783 99.9973C134.783 80.7871 119.21 65.2148 100 65.2148C85.6668 65.2148 73.3621 73.8871 68.0371 86.2691C72.7441 85.2938 77.6176 84.7801 82.6094 84.7801C102.811 84.7797 121.087 93.1773 134.138 106.661Z" fill="#0052B4"/>
</svg>
