<svg width="200" height="200" viewBox="0 0 200 200" fill="none" xmlns="http://www.w3.org/2000/svg">
<path d="M0 100C0 44.7719 44.7718 0 99.9998 0C155.228 0 200 44.7719 200 100H0Z" fill="#F0F0F0"/>
<path d="M73.9043 94.5332L68.4375 100H73.9043V94.5332Z" fill="#0052B4"/>
<path d="M126.094 94.5332V99.9996H131.56L126.094 94.5332Z" fill="#0052B4"/>
<path d="M2.88515 76.0938C1.0043 83.7563 0 91.7637 0 100.006H31.5535L55.4659 76.0938H2.88515Z" fill="#0052B4"/>
<path d="M144.531 76.0938L168.444 100.006H199.998C199.998 91.7637 198.993 83.7563 197.113 76.0938H144.531Z" fill="#0052B4"/>
<path d="M138.391 76.0938H126.094L150.006 100.006H162.304L138.391 76.0938Z" fill="#D80027"/>
<path d="M73.9132 88.3902V76.0938H73.9125L50 100.006H62.2976L73.9132 88.3902Z" fill="#D80027"/>
<path d="M46.8461 15.293C42.7242 17.8852 38.8051 20.7688 35.1172 23.916H55.4687L46.8461 15.293Z" fill="#0052B4"/>
<path d="M164.882 23.916C161.194 20.7684 157.275 17.8848 153.154 15.293L144.531 23.916H164.882Z" fill="#0052B4"/>
<path d="M113.04 63.0434H192.942C189.161 53.5438 183.965 44.7633 177.617 36.9563H113.04H113.04V0.846484C108.77 0.290625 104.417 0 99.9963 0C95.5748 0 91.2225 0.290625 86.953 0.846484V36.9559L22.3761 36.9563C16.0273 44.7633 10.8312 53.5438 7.05078 63.0434H86.9522H86.9526V100H113.04V63.0434Z" fill="#D80027"/>
<path d="M73.9058 23.9039L58.8304 8.82812C56.0433 10.0887 53.3269 11.4773 50.6836 12.9785L61.609 23.9039H73.9058Z" fill="#D80027"/>
<path d="M126.094 23.9129L141.17 8.8375C138.302 7.54102 135.362 6.37852 132.358 5.35156L126.094 11.616V23.9129Z" fill="#D80027"/>
<path d="M200 100C200 155.228 155.228 200 99.9998 200C44.7718 200 0 155.228 0 100H200Z" fill="#F0F0F0"/>
<path d="M183.338 112.754C175.005 112.754 175.005 105.135 166.672 105.135C158.338 105.135 158.338 112.754 150.006 112.754C141.673 112.754 141.672 105.135 133.34 105.135C125.006 105.135 125.006 112.754 116.673 112.754C108.339 112.754 108.339 105.135 100.005 105.135C91.6717 105.135 91.6717 112.754 83.3389 112.754C75.0069 112.754 75.0069 105.135 66.6737 105.135C58.3397 105.135 58.3397 112.754 50.0058 112.754C41.6718 112.754 41.6718 105.135 33.3378 105.135C25.0058 105.135 25.0058 112.754 16.6726 112.754C8.38436 112.754 8.33631 105.219 0.136719 105.138C0.367578 109.713 0.91367 114.203 1.73945 118.595C8.38163 119.571 8.96327 126.087 16.673 126.087C25.0062 126.087 25.0062 118.469 33.3382 118.469C41.6722 118.469 41.6722 126.087 50.0062 126.087C58.3401 126.087 58.3401 118.469 66.6741 118.469C75.0073 118.469 75.0073 126.087 83.3393 126.087C91.6725 126.087 91.6725 118.469 100.005 118.469C108.339 118.469 108.339 126.087 116.673 126.087C125.007 126.087 125.007 118.469 133.34 118.469C141.673 118.469 141.673 126.087 150.006 126.087C158.339 126.087 158.339 118.469 166.672 118.469C175.006 118.469 175.006 126.087 183.339 126.087C191.049 126.087 191.631 119.571 198.273 118.595C199.1 114.203 199.645 109.713 199.877 105.139C191.676 105.22 191.627 112.754 183.338 112.754Z" fill="#0052B4"/>
<path d="M166.668 131.23C158.335 131.23 158.335 138.85 150.002 138.85C141.669 138.85 141.669 131.23 133.336 131.23C125.003 131.23 125.003 138.85 116.669 138.85C108.335 138.85 108.335 131.23 100.001 131.23C91.6678 131.23 91.6678 138.85 83.335 138.85C75.003 138.85 75.003 131.23 66.6698 131.23C58.3358 131.23 58.3358 138.85 50.0019 138.85C41.6679 138.85 41.6679 131.23 33.3339 131.23C25.0019 131.23 25.0019 138.85 16.6687 138.85C10.7144 138.85 9.01367 134.961 5.48828 132.739C7.83515 139.52 10.8883 145.97 14.5652 152C15.2047 152.118 15.9008 152.183 16.6687 152.183C25.0019 152.183 25.0019 144.564 33.3339 144.564C41.6679 144.564 41.6679 152.183 50.0019 152.183C58.3358 152.183 58.3358 144.564 66.6698 144.564C75.003 144.564 75.003 152.183 83.335 152.183C91.6682 152.183 91.6682 144.564 100.001 144.564C108.335 144.564 108.335 152.183 116.669 152.183C125.003 152.183 125.003 144.564 133.336 144.564C141.669 144.564 141.669 152.183 150.002 152.183C158.335 152.183 158.335 144.564 166.668 144.564C175.002 144.564 175.002 152.183 183.334 152.183C184.103 152.183 184.799 152.118 185.439 152C189.116 145.97 192.169 139.52 194.516 132.739C190.991 134.96 189.29 138.85 183.334 138.85C175.002 138.85 175.002 131.23 166.668 131.23Z" fill="#0052B4"/>
<path d="M199.941 96.8555C199.95 97.1332 199.96 97.4109 199.966 97.6898C199.96 97.4113 199.95 97.1332 199.941 96.8555Z" fill="#F0F0F0"/>
<path d="M0.0195312 97.6918C0.0261719 97.4133 0.0355468 97.1355 0.0441406 96.8574C0.0359375 97.1355 0.0257812 97.4137 0.0195312 97.6918Z" fill="#F0F0F0"/>
<path d="M0 100C0 101.821 0.0515624 103.631 0.148828 105.429C8.32967 105.52 8.38397 113.043 16.6664 113.043C24.9996 113.043 24.9996 105.425 33.3316 105.425C41.6656 105.425 41.6656 113.043 49.9995 113.043C58.3335 113.043 58.3335 105.425 66.6675 105.425C75.0007 105.425 75.0007 113.043 83.3327 113.043C91.6659 113.043 91.6659 105.425 99.9987 105.425C108.333 105.425 108.333 113.043 116.667 113.043C125.001 113.043 125.001 105.425 133.333 105.425C141.667 105.425 141.667 113.043 149.999 113.043C158.332 113.043 158.333 105.425 166.665 105.425C174.999 105.425 174.999 113.043 183.332 113.043C191.615 113.043 191.67 105.52 199.852 105.429C199.948 103.631 200 101.821 200 100H0Z" fill="#F0F0F0"/>
<path d="M199.961 97.6953C199.979 98.4625 199.99 99.2313 199.99 100.003C199.99 99.2316 199.979 98.4633 199.961 97.6953Z" fill="#F0F0F0"/>
<path d="M166.667 157.305C158.334 157.305 158.334 164.924 150.001 164.924C141.668 164.924 141.668 157.305 133.335 157.305C125.002 157.305 125.002 164.924 116.668 164.924C108.334 164.924 108.334 157.305 100 157.305C91.6671 157.305 91.6671 164.924 83.3343 164.924C75.0023 164.924 75.0023 157.305 66.6691 157.305C58.3351 157.305 58.3351 164.924 50.0011 164.924C41.6672 164.924 41.6672 157.305 33.3332 157.305C27.5777 157.305 25.7969 160.939 22.5 163.188C31.2457 173.901 42.1715 182.762 54.5953 189.107L100.002 186.819L145.408 189.106C157.831 182.761 168.757 173.902 177.503 163.188C174.204 160.94 172.424 157.305 166.667 157.305Z" fill="#0052B4"/>
<path d="M155.454 159.696L125.035 165.514L121.181 134.786L99.9925 157.385L78.805 134.785L74.9496 165.514L44.5312 159.695L59.4488 186.825L54.5769 189.116C68.205 196.077 83.6398 200.003 99.9925 200.003C116.345 200.003 131.78 196.077 145.408 189.117L140.538 186.826L155.454 159.696Z" fill="#FFDA44"/>
</svg>
