<svg width="200" height="200" viewBox="0 0 200 200" fill="none" xmlns="http://www.w3.org/2000/svg">
<path d="M100 200C155.228 200 200 155.228 200 100C200 44.7715 155.228 0 100 0C44.7715 0 0 44.7715 0 100C0 155.228 44.7715 200 100 200Z" fill="#F0F0F0"/>
<path d="M183.339 111.975C175.005 111.975 175.005 104.355 166.672 104.355C158.339 104.355 158.339 111.975 150.006 111.975C141.673 111.975 141.673 104.355 133.34 104.355C125.007 104.355 125.007 111.975 116.673 111.975C108.339 111.975 108.339 104.355 100.005 104.355C91.6719 104.355 91.6719 111.975 83.3391 111.975C75.007 111.975 75.007 104.355 66.6738 104.355C58.3399 104.355 58.3398 111.975 50.0059 111.975C41.6719 111.975 41.6719 104.355 33.3379 104.355C25.0059 104.355 25.0059 111.975 16.6727 111.975C8.38438 111.975 8.33633 104.439 0.136719 104.359C0.367578 108.933 0.913672 113.424 1.73945 117.816C8.38164 118.791 8.96328 125.308 16.6734 125.308C25.0066 125.308 25.0066 117.689 33.3387 117.689C41.6727 117.689 41.6727 125.308 50.0066 125.308C58.3406 125.308 58.3406 117.689 66.6746 117.689C75.0078 117.689 75.0078 125.308 83.3399 125.308C91.6731 125.308 91.6731 117.689 100.006 117.689C108.34 117.689 108.34 125.308 116.674 125.308C125.008 125.308 125.008 117.689 133.341 117.689C141.674 117.689 141.674 125.308 150.007 125.308C158.34 125.308 158.34 117.689 166.673 117.689C175.007 117.689 175.007 125.308 183.339 125.308C191.05 125.308 191.632 118.791 198.274 117.816C199.1 113.423 199.646 108.933 199.878 104.359C191.676 104.44 191.627 111.975 183.339 111.975Z" fill="#0052B4"/>
<path d="M166.674 130.43C158.341 130.43 158.341 138.049 150.008 138.049C141.675 138.049 141.675 130.43 133.342 130.43C125.009 130.43 125.009 138.049 116.675 138.049C108.341 138.049 108.341 130.43 100.007 130.43C91.6738 130.43 91.6738 138.049 83.341 138.049C75.009 138.049 75.009 130.43 66.6758 130.43C58.3418 130.43 58.3418 138.049 50.0078 138.049C41.6738 138.049 41.6738 130.43 33.3398 130.43C25.0078 130.43 25.0078 138.049 16.6746 138.049C10.5359 138.049 8.91523 133.917 5.15625 131.741C7.43281 138.545 10.423 145.021 14.0344 151.085C14.8164 151.274 15.6859 151.382 16.6742 151.382C25.0074 151.382 25.0074 143.764 33.3395 143.764C41.6734 143.764 41.6734 151.382 50.0074 151.382C58.3414 151.382 58.3414 143.764 66.6754 143.764C75.0086 143.764 75.0086 151.382 83.3406 151.382C91.6738 151.382 91.6738 143.764 100.007 143.764C108.341 143.764 108.341 151.382 116.675 151.382C125.009 151.382 125.009 143.764 133.341 143.764C141.675 143.764 141.675 151.382 150.007 151.382C158.34 151.382 158.341 143.764 166.673 143.764C175.007 143.764 175.007 151.382 183.34 151.382C184.329 151.382 185.2 151.274 185.982 151.085C189.594 145.021 192.584 138.545 194.86 131.741C191.101 133.918 189.48 138.05 183.34 138.05C175.008 138.049 175.008 130.43 166.674 130.43Z" fill="#0052B4"/>
<path d="M197.666 78.4934C191.575 79.7578 190.798 85.8812 183.325 85.8812C174.992 85.8812 174.992 78.2617 166.658 78.2617C158.325 78.2617 158.325 85.8812 149.992 85.8812C141.659 85.8812 141.659 78.2617 133.326 78.2617C124.993 78.2617 124.993 85.8812 116.659 85.8812C108.326 85.8812 108.325 78.2617 99.9914 78.2617C95.4887 78.2617 93.4184 80.4859 91.1523 82.5312V95.8644C93.4184 93.8195 95.4883 91.5957 99.9914 91.5957C108.325 91.5957 108.325 99.2144 116.659 99.2144C124.993 99.2144 124.993 91.5957 133.326 91.5957C141.659 91.5957 141.659 99.2144 149.992 99.2144C158.325 99.2144 158.325 91.5957 166.658 91.5957C174.992 91.5957 174.992 99.2144 183.325 99.2144C191.036 99.2144 191.617 92.698 198.26 91.7223C198.686 91.7223 199.161 91.718 199.648 91.7121C199.279 87.2148 198.611 82.8023 197.666 78.4934Z" fill="#0052B4"/>
<path d="M190.361 57.1324C188.634 58.5828 186.638 59.7875 183.325 59.7875C174.992 59.7875 174.992 52.168 166.658 52.168C158.325 52.168 158.325 59.7875 149.992 59.7875C141.659 59.7875 141.659 52.168 133.326 52.168C124.993 52.168 124.993 59.7875 116.659 59.7875C108.326 59.7875 108.325 52.168 99.9914 52.168C95.4887 52.168 93.4184 54.3922 91.1523 56.4375V69.7707C93.4184 67.7258 95.4883 65.5019 99.9914 65.5019C108.325 65.5019 108.325 73.1207 116.659 73.1207C124.993 73.1207 124.993 65.5019 133.326 65.5019C141.659 65.5019 141.659 73.1207 149.992 73.1207C158.325 73.1207 158.325 65.5019 166.658 65.5019C174.992 65.5019 174.992 73.1207 183.325 73.1207C189.237 73.1207 190.96 69.2906 194.436 67.0633C193.252 63.666 191.891 60.3516 190.361 57.1324Z" fill="#0052B4"/>
<path d="M167.37 26.1141C167.139 26.1016 166.904 26.0938 166.659 26.0938C158.325 26.0938 158.325 33.7133 149.993 33.7133C141.659 33.7133 141.659 26.0938 133.327 26.0938C124.993 26.0938 124.993 33.7133 116.659 33.7133C108.325 33.7133 108.325 26.0938 99.9914 26.0938C95.4887 26.0938 93.4184 28.318 91.1523 30.3633V43.6965C93.4184 41.6516 95.4883 39.4277 99.9914 39.4277C108.325 39.4277 108.325 47.0465 116.659 47.0465C124.993 47.0465 124.993 39.4277 133.326 39.4277C141.659 39.4277 141.659 47.0465 149.992 47.0465C158.325 47.0465 158.325 39.4277 166.658 39.4277C174.992 39.4277 174.992 47.0465 183.325 47.0465C183.838 47.0465 184.318 47.016 184.771 46.9617C179.931 39.2414 174.07 32.227 167.37 26.1141Z" fill="#0052B4"/>
<path d="M125.555 3.30156C123.268 5.35937 121.201 7.61953 116.662 7.61953C108.328 7.61953 108.328 0.00078125 99.9945 0H99.993C95.6836 0.000390625 93.6031 2.03828 91.4453 4.00664V17.3402C93.6027 15.3719 95.684 13.3336 99.9945 13.3336C108.329 13.3336 108.329 20.9523 116.662 20.9523C124.996 20.9523 124.996 13.3336 133.329 13.3336C141.663 13.3336 141.662 20.9523 149.995 20.9523C153.492 20.9523 155.52 19.6102 157.314 18.0531C147.807 11.391 137.089 6.3418 125.555 3.30156Z" fill="#0052B4"/>
<path d="M116.661 190.237C108.327 190.237 108.327 182.618 99.993 182.618C91.6598 182.618 91.6598 190.237 83.327 190.237C74.9949 190.237 74.9949 182.618 66.6617 182.618C60.2785 182.618 58.7812 187.084 54.6875 189.177C65.9766 194.925 78.5027 198.588 91.7605 199.669C93.8109 197.796 95.8937 195.951 99.993 195.951C104.093 195.951 106.176 197.796 108.227 199.67C121.485 198.589 134.012 194.925 145.302 189.177C141.207 187.085 139.71 182.617 133.328 182.617C124.995 182.618 124.995 190.237 116.661 190.237Z" fill="#0052B4"/>
<path d="M150.005 164.141C141.672 164.141 141.672 156.521 133.339 156.521C125.006 156.521 125.006 164.141 116.673 164.141C108.339 164.141 108.339 156.521 100.005 156.521C91.6715 156.521 91.6715 164.141 83.3387 164.141C75.0066 164.141 75.0066 156.521 66.6734 156.521C58.3395 156.521 58.3395 164.141 50.0055 164.141C41.6715 164.141 41.6715 156.521 33.3375 156.521C27.3449 156.521 25.6621 160.463 22.0898 162.676C24.3289 165.456 26.7094 168.118 29.2285 170.641C30.357 170.159 31.6813 169.855 33.3371 169.855C41.6711 169.855 41.6711 177.474 50.0051 177.474C58.3391 177.474 58.3391 169.855 66.673 169.855C75.0063 169.855 75.0062 177.474 83.3383 177.474C91.6715 177.474 91.6715 169.855 100.004 169.855C108.338 169.855 108.338 177.474 116.672 177.474C125.006 177.474 125.006 169.855 133.339 169.855C141.672 169.855 141.672 177.474 150.005 177.474C158.338 177.474 158.338 169.855 166.671 169.855C168.329 169.855 169.653 170.159 170.782 170.642C173.302 168.118 175.682 165.457 177.921 162.676C174.349 160.464 172.666 156.522 166.671 156.522C158.338 156.521 158.338 164.141 150.005 164.141Z" fill="#0052B4"/>
<path d="M99.7266 99.9941H99.9941C99.9941 99.9043 99.9941 99.8168 99.9941 99.7266C99.9051 99.816 99.816 99.9051 99.7266 99.9941Z" fill="#F0F0F0"/>
<path d="M99.9973 52.1797V81.5598L65.2148 47.832L99.9973 52.1797Z" fill="#0052B4"/>
<path d="M52.1801 100.009H81.559L52.1797 60.8789L47.832 91.3137L52.1801 100.009Z" fill="#0052B4"/>
<path d="M100 52.1738C100 34.5781 100 23.0488 100 0H99.9832C44.7625 0.009375 0 44.777 0 100H52.1742V70.6207L81.5531 100H99.7328C99.8219 99.9109 99.9109 99.8219 100 99.7324C100 92.9953 100 86.984 100 81.5539L70.6203 52.1738H100Z" fill="#F0F0F0"/>
<path d="M50.5953 13.0469C34.9551 21.9527 21.9527 34.9551 13.0469 50.5953V100.004H39.134V39.1348V39.134H100.004C100.004 30.9063 100.004 23.068 100.004 13.0469H50.5953Z" fill="#D80027"/>
<path d="M99.9941 87.6965L64.4648 52.168H52.168V52.1687L99.9934 99.9938H99.9941C99.9941 99.9938 99.9941 91.5145 99.9941 87.6965Z" fill="#D80027"/>
<path d="M130.43 52.168H169.56L149.995 71.7332L130.43 52.168Z" fill="#6DA544"/>
<path d="M145.645 67.3828H154.34V91.2957H145.645V67.3828Z" fill="#A2001D"/>
<path d="M145.645 130.43H154.34V154.343H145.645V130.43Z" fill="#A2001D"/>
<path d="M176.08 117.388C176.08 110.184 170.24 104.345 163.037 104.345C159.695 104.345 156.649 105.602 154.341 107.668V99.9965H158.689V91.3008H154.341V86.9531H145.645V91.3008H141.298V99.9965H145.645V107.668C143.337 105.602 140.291 104.345 136.95 104.345C129.746 104.345 123.906 110.184 123.906 117.388C123.906 121.25 125.586 124.719 128.254 127.107V134.779H171.732V127.107C174.4 124.719 176.08 121.25 176.08 117.388Z" fill="#FFDA44"/>
<path d="M163.052 113.047C161.68 113.047 160.72 113.649 160.155 114.154L154.356 119.346H145.661L139.861 114.154C139.296 113.649 138.336 113.047 136.965 113.047C134.568 113.047 132.617 114.997 132.617 117.395C132.617 119.083 133.528 120.15 134.07 120.636L136.965 123.229V126.09H163.052V123.229L165.947 120.636C166.49 120.15 167.4 119.083 167.4 117.395C167.4 114.997 165.449 113.047 163.052 113.047Z" fill="#D80027"/>
</svg>
