<svg width="200" height="200" viewBox="0 0 200 200" fill="none" xmlns="http://www.w3.org/2000/svg">
<path d="M200 100C200 155.228 155.228 200 100 200C44.7719 200 0 155.228 0 100C0 100.024 100 0.0109375 100 0C155.228 0 200 44.7719 200 100Z" fill="#0052B4"/>
<path d="M99.7266 99.9941H99.9941C99.9941 99.9043 99.9941 99.8168 99.9941 99.7266C99.9051 99.816 99.816 99.9051 99.7266 99.9941Z" fill="#F0F0F0"/>
<path d="M100 52.1738C100 34.5781 100 23.0488 100 0H99.9832C44.7621 0.009375 0 44.777 0 100H52.1738V70.6207L81.5531 100H99.7328C99.8219 99.9109 99.9109 99.8219 100 99.7324C100 92.9953 100 86.984 100 81.5539L70.6203 52.1738H100Z" fill="#F0F0F0"/>
<path d="M50.5953 13.0469C34.9551 21.9527 21.9523 34.9551 13.0469 50.5953V100.004H39.134V39.1348V39.134H100.004C100.004 30.9063 100.004 23.068 100.004 13.0469H50.5953Z" fill="#D80027"/>
<path d="M143.474 100L116.445 127.029C121.511 136.798 131.709 143.478 143.474 143.478C155.238 143.478 165.437 136.798 170.502 127.029L143.474 100Z" fill="#FFDA44"/>
<path d="M99.9941 87.6965L64.4648 52.168H52.168V52.1687L99.9934 99.9938H99.9941C99.9941 99.9938 99.9941 91.5145 99.9941 87.6965Z" fill="#D80027"/>
<path d="M113.047 52.168V99.9937V99.9941C113.047 123.291 143.482 130.429 143.482 130.429C143.482 130.429 173.916 123.291 173.916 99.9941V99.9937V52.168H113.047Z" fill="#6DA544"/>
<path d="M136.953 73.9062H149.996V108.689H136.953V73.9062Z" fill="#F0F0F0"/>
<path d="M143.475 80.4266C147.077 80.4266 149.997 77.5066 149.997 73.9047C149.997 70.3028 147.077 67.3828 143.475 67.3828C139.873 67.3828 136.953 70.3028 136.953 73.9047C136.953 77.5066 139.873 80.4266 143.475 80.4266Z" fill="#A2001D"/>
<path d="M121.738 60.8789H130.434V69.5746H121.738V60.8789Z" fill="#FFDA44"/>
<path d="M121.738 80.4297H130.434V89.1254H121.738V80.4297Z" fill="#FFDA44"/>
<path d="M121.738 100H130.434V108.696H121.738V100Z" fill="#FFDA44"/>
<path d="M156.523 60.8789H165.219V69.5746H156.523V60.8789Z" fill="#FFDA44"/>
<path d="M156.523 80.4297H165.219V89.1254H156.523V80.4297Z" fill="#FFDA44"/>
<path d="M156.523 100H165.219V108.696H156.523V100Z" fill="#FFDA44"/>
</svg>
