<svg width="200" height="200" viewBox="0 0 200 200" fill="none" xmlns="http://www.w3.org/2000/svg">
<path d="M100.01 199.99C155.233 199.99 200 155.225 200 100.005C200 44.7845 155.233 0.0195312 100.01 0.0195312C44.7867 0.0195312 0.0195312 44.7845 0.0195312 100.005C0.0195312 155.225 44.7867 199.99 100.01 199.99Z" fill="#F0F0F0"/>
<path d="M13.3992 50C8.88594 57.8158 5.5568 65.9871 3.33984 74.3103L170.562 170.852C176.662 164.77 182.075 157.801 186.587 149.985L13.3992 50Z" fill="black"/>
<path d="M149.998 13.41C109.989 -9.68773 60.6573 -1.98951 29.4336 29.1408L196.656 125.682C208.005 83.0783 190.006 36.5082 149.998 13.41Z" fill="#FFDA44"/>
<path d="M50.005 186.591C90.0134 209.688 139.346 201.99 170.569 170.86L3.34661 74.3184C-8.00225 116.923 9.99591 163.493 50.005 186.591Z" fill="#FFDA44"/>
<path d="M128.253 89.1253C128.253 104.731 115.601 117.382 99.9943 117.382C84.3877 117.382 71.736 104.731 71.736 89.1253C71.736 84.2596 72.9662 79.6809 75.1327 75.6836C69.0007 81.9544 65.2148 90.5296 65.2148 99.9931C65.2148 119.2 80.7859 134.771 99.9943 134.771C119.203 134.771 134.774 119.201 134.774 99.9931C134.774 90.5296 130.988 81.9544 124.856 75.6836C127.022 79.6817 128.253 84.2596 128.253 89.1253Z" fill="#D80027"/>
<path d="M93.4766 56.5234H106.519V121.731H93.4766V56.5234Z" fill="#D80027"/>
<path d="M121.736 69.5703H78.2617C78.2617 72.5715 80.8764 75.0044 83.8774 75.0044H83.6961C83.6961 78.0056 86.1295 80.4385 89.1305 80.4385C89.1305 83.4398 91.5638 85.8726 94.5648 85.8726H105.433C108.435 85.8726 110.868 83.4398 110.868 80.4385C113.869 80.4385 116.302 78.0056 116.302 75.0044H116.121C119.121 75.004 121.736 72.5719 121.736 69.5703Z" fill="#D80027"/>
<path d="M69.5703 126.074H130.434V139.116H69.5703V126.074Z" fill="#D80027"/>
<path d="M113.047 130.432H139.131V143.473H113.047V130.432Z" fill="#D80027"/>
<path d="M60.8789 130.432H86.9632V143.473H60.8789V130.432Z" fill="#D80027"/>
</svg>
