<svg width="200" height="200" viewBox="0 0 200 200" fill="none" xmlns="http://www.w3.org/2000/svg">
<path d="M100 200C155.228 200 200 155.228 200 100C200 44.7715 155.228 0 100 0C44.7715 0 0 44.7715 0 100C0 155.228 44.7715 200 100 200Z" fill="#F0F0F0"/>
<path d="M160.88 20.662C125.078 -6.88726 74.9031 -6.88726 39.1016 20.6616L99.9906 81.5506L160.88 20.662Z" fill="#D80027"/>
<path d="M99.9898 118.438L39.1016 179.327C74.9031 206.876 125.078 206.876 160.88 179.327L99.9906 118.438L99.9898 118.438Z" fill="#D80027"/>
<path d="M81.5506 99.9906L20.6619 39.1016C-6.88731 74.9031 -6.88731 125.078 20.6619 160.88L81.5506 99.9906Z" fill="#6DA544"/>
<path d="M118.438 99.9906L179.326 160.88C206.875 125.078 206.875 74.9031 179.326 39.1016L118.438 99.9906Z" fill="#6DA544"/>
<path d="M100.002 143.478C124.014 143.478 143.48 124.012 143.48 99.9996C143.48 75.9873 124.014 56.5215 100.002 56.5215C75.9893 56.5215 56.5234 75.9873 56.5234 99.9996C56.5234 124.012 75.9893 143.478 100.002 143.478Z" fill="#F0F0F0"/>
<path d="M100.007 69.5703L103.772 76.0922H111.303L107.537 82.6137L111.303 89.1355H103.772L100.007 95.6574L96.2414 89.1355H88.7109L92.4762 82.6137L88.7109 76.0922H96.2414L100.007 69.5703Z" fill="#D80027"/>
<path d="M80.8664 100L84.6316 106.522H92.1621L88.3969 113.043L92.1621 119.565H84.6316L80.8664 126.087L77.1008 119.565H69.5703L73.3355 113.043L69.5703 106.522H77.1008L80.8664 100Z" fill="#D80027"/>
<path d="M119.148 100L122.913 106.522H130.443L126.678 113.043L130.443 119.565H122.913L119.148 126.087L115.382 119.565H107.852L111.617 113.043L107.852 106.522H115.382L119.148 100Z" fill="#D80027"/>
</svg>
