<svg width="200" height="200" viewBox="0 0 200 200" fill="none" xmlns="http://www.w3.org/2000/svg">
<path d="M0 100C0 117.325 4.40742 133.619 12.159 147.827L100 156.522L187.841 147.827C195.593 133.619 200 117.325 200 100C200 82.6762 195.593 66.3816 187.841 52.1742L100 43.4785L12.159 52.1742C4.40742 66.3816 0 82.6762 0 100Z" fill="#D80027"/>
<path d="M12.168 52.1738H187.85C170.889 21.0895 137.913 0 100.009 0C62.1047 0 29.1285 21.0895 12.168 52.1738Z" fill="#0052B4"/>
<path d="M100.009 200.006C137.913 200.006 170.889 178.916 187.85 147.832H12.168C29.1285 178.916 62.1047 200.006 100.009 200.006Z" fill="#0052B4"/>
<path d="M134.784 119.569V106.525H126.089V89.134L117.393 80.4383L108.697 89.134V71.7426L100.002 63.0469L91.3059 71.7426V89.134L82.6102 80.4383L73.9145 89.134V106.525H65.2191V119.569H56.5234V132.612H143.48V119.569H134.784Z" fill="#F0F0F0"/>
</svg>
