<svg width="200" height="200" viewBox="0 0 200 200" fill="none" xmlns="http://www.w3.org/2000/svg">
<path d="M143.484 9.92266C130.337 3.56563 115.588 0 100.006 0C84.4238 0 69.6746 3.56563 56.5277 9.92266L47.832 100L56.5277 190.077C69.6746 196.434 84.4238 200 100.006 200C115.588 200 130.337 196.434 143.484 190.077L152.18 100L143.484 9.92266Z" fill="#D80027"/>
<path d="M99.9898 65.2148L108.623 91.7848H136.563L113.96 108.208L122.593 134.78L99.9898 118.357L77.3863 134.78L86.0211 108.208L63.418 91.7848H91.3566L99.9898 65.2148Z" fill="#FFDA44"/>
<path d="M56.5218 9.92188C23.0726 26.0961 0 60.3496 0 99.9957C0 139.642 23.0726 173.895 56.5218 190.07V9.92188Z" fill="#496E2D"/>
<path d="M143.477 9.92188V190.07C176.926 173.895 199.998 139.641 199.998 99.9957C199.998 60.35 176.926 26.0961 143.477 9.92188Z" fill="#FFDA44"/>
</svg>
