<svg width="200" height="200" viewBox="0 0 200 200" fill="none" xmlns="http://www.w3.org/2000/svg">
<path d="M99.9999 200C155.228 200 200 155.228 200 100C200 44.7715 155.228 0 99.9999 0C44.7715 0 0 44.7715 0 100C0 155.228 44.7715 200 99.9999 200Z" fill="#F0F0F0"/>
<path d="M199.998 99.9992C199.998 60.3531 176.926 26.0969 143.477 9.92188V190.076C176.926 173.902 199.998 139.645 199.998 99.9992Z" fill="#D80027"/>
<path d="M0 99.9992C0 139.645 23.0722 173.902 56.5218 190.077V9.92188C23.0722 26.0969 0 60.3531 0 99.9992Z" fill="#D80027"/>
<path d="M117.389 113.048L134.78 104.353L126.084 100.005V91.3094L108.693 100.005L117.389 82.6137H108.693L99.9972 69.5703L91.3015 82.6137H82.6058L91.3015 100.005L73.9101 91.3094V100.005L65.2148 104.353L82.6058 113.048L78.2582 121.744H95.6496V134.787H104.345V121.744H121.736L117.389 113.048Z" fill="#D80027"/>
</svg>
