<svg width="200" height="200" viewBox="0 0 200 200" fill="none" xmlns="http://www.w3.org/2000/svg">
<path d="M100 200C155.228 200 200 155.228 200 100C200 44.7715 155.228 0 100 0C44.7715 0 0 44.7715 0 100C0 155.228 44.7715 200 100 200Z" fill="#F0F0F0"/>
<path d="M100.004 199.997C130.313 199.997 157.471 186.511 175.809 165.215H24.1992C42.5379 186.511 69.6953 199.997 100.004 199.997Z" fill="#0052B4"/>
<path d="M200 100C200 44.7719 155.228 0 100 0C44.7719 0 0 44.7719 0 100C0 109.026 1.20313 117.769 3.44492 126.087H196.555C198.797 117.769 200 109.026 200 100Z" fill="#0052B4"/>
<path d="M7.94922 139.121C9.87695 143.651 12.1305 148.007 14.6785 152.164H185.324C187.871 148.007 190.125 143.65 192.053 139.121H7.94922Z" fill="#D80027"/>
<path d="M71.4859 106.521L73.1047 111.504H78.3434L74.1055 114.583L75.7242 119.565L71.4859 116.486L67.2477 119.565L68.8668 114.583L64.6289 111.504H69.8676L71.4859 106.521Z" fill="#FFDA44"/>
<path d="M71.4859 171.738L73.1047 176.721H78.3434L74.1055 179.8L75.7242 184.782L71.4859 181.703L67.2477 184.782L68.8668 179.8L64.6289 176.721H69.8676L71.4859 171.738Z" fill="#FFDA44"/>
<path d="M41.1148 149.688L42.7336 154.669H47.9723L43.7344 157.748L45.3531 162.731L41.1148 159.652L36.8766 162.731L38.4961 157.748L34.2578 154.669H39.4961L41.1148 149.688Z" fill="#FFDA44"/>
<path d="M52.7168 113.047L54.3355 118.029H59.5738L55.3363 121.108L56.9551 126.091L52.7168 123.011L48.4785 126.091L50.098 121.108L45.8594 118.029H51.098L52.7168 113.047Z" fill="#FFDA44"/>
<path d="M34.2578 133.557L39.4953 133.557L41.1145 128.574L42.7336 133.557L47.9723 133.557L43.734 136.636L45.3531 141.618L41.1145 138.539L36.8766 141.617L38.4953 136.636L34.2578 133.557Z" fill="#FFDA44"/>
<path d="M48.4793 177.3L50.098 172.319L45.8594 169.24H51.098L52.7172 164.258L54.3363 169.24H59.5746L55.3363 172.319L56.9551 177.302L52.7168 174.222L48.4793 177.3Z" fill="#FFDA44"/>
<path d="M101.818 149.688L100.2 154.669H94.9609L99.1984 157.748L97.5797 162.731L101.818 159.652L106.056 162.731L104.437 157.748L108.675 154.669H103.437L101.818 149.688Z" fill="#FFDA44"/>
<path d="M90.2359 113.047L88.6176 118.029H83.3789L87.6164 121.108L85.9977 126.091L90.2359 123.011L94.4742 126.091L92.8551 121.108L97.0934 118.029H91.8547L90.2359 113.047Z" fill="#FFDA44"/>
<path d="M108.675 133.557L103.437 133.557L101.818 128.574L100.2 133.557L94.9609 133.557L99.1988 136.636L97.5797 141.618L101.818 138.539L106.056 141.617L104.437 136.636L108.675 133.557Z" fill="#FFDA44"/>
<path d="M94.4742 177.3L92.8559 172.319L97.0941 169.24H91.8555L90.2363 164.258L88.6176 169.24H83.3789L87.6172 172.319L85.9984 177.302L90.2367 174.222L94.4742 177.3Z" fill="#FFDA44"/>
</svg>
