<svg width="200" height="200" viewBox="0 0 200 200" fill="none" xmlns="http://www.w3.org/2000/svg">
<path d="M99.9999 200C155.228 200 200 155.228 200 100C200 44.7715 155.228 0 99.9999 0C44.7715 0 0 44.7715 0 100C0 155.228 44.7715 200 99.9999 200Z" fill="#F0F0F0"/>
<path d="M187.84 52.1738C174.918 28.4906 152.698 10.6121 126.086 3.43945L121.738 52.1738H187.84Z" fill="#0052B4"/>
<path d="M12.168 52.1738H78.2695L73.9218 3.43945C47.3097 10.6121 25.0902 28.491 12.168 52.1738Z" fill="#0052B4"/>
<path d="M121.738 100V147.826H187.84C195.592 133.619 199.999 117.324 199.999 100H121.738Z" fill="#6DA544"/>
<path d="M78.2609 100H0C0 117.324 4.40742 133.619 12.159 147.826H78.2605V100H78.2609Z" fill="#6DA544"/>
<path d="M12.168 147.832C25.0902 171.515 47.3097 189.394 73.9218 196.566L78.2695 153.946L12.168 147.832Z" fill="#FFDA44"/>
<path d="M126.086 196.566C152.698 189.394 174.918 171.515 187.84 147.832L121.738 153.945L126.086 196.566Z" fill="#FFDA44"/>
<path d="M121.738 153.945L187.84 147.832H121.738V153.945Z" fill="#FFDA44"/>
<path d="M78.2699 147.832H12.168L78.2699 153.945V147.832Z" fill="#FFDA44"/>
<path d="M99.9933 0C90.9672 0 82.2242 1.20313 73.9062 3.44492V196.555C82.2242 198.797 90.9672 200 99.9933 200C109.02 200 117.762 198.797 126.08 196.555V3.44492C117.762 1.20313 109.02 0 99.9933 0Z" fill="#D80027"/>
<path d="M53.7914 21.7383L56.4891 30.0418H65.2207L58.1574 35.1738L60.8555 43.4773L53.7914 38.3457L46.7277 43.4773L49.4266 35.1738L42.3633 30.0418H51.0941L53.7914 21.7383Z" fill="#FFDA44"/>
</svg>
