<svg width="200" height="200" viewBox="0 0 200 200" fill="none" xmlns="http://www.w3.org/2000/svg">
<path d="M100 200C155.228 200 200 155.228 200 100C200 44.7715 155.228 0 100 0C44.7715 0 0 44.7715 0 100C0 155.228 44.7715 200 100 200Z" fill="#F0F0F0"/>
<path d="M100.008 0C72.3934 0 47.3934 11.193 29.2969 29.2891L100.008 100V0Z" fill="black"/>
<path d="M0 100C0 127.614 11.193 152.614 29.2891 170.711L100 100H0Z" fill="black"/>
<path d="M100 200C127.614 200 152.614 188.807 170.711 170.711L100 100V200Z" fill="black"/>
<path d="M200 100.008C200 72.3934 188.807 47.3934 170.711 29.2969L100 100.008H200Z" fill="black"/>
<path d="M65.2148 69.568L99.9973 73.9168L134.78 69.568V48.6984L120.867 55.6551L99.9973 34.7852L79.1277 55.6551L65.2148 48.6984V69.568Z" fill="#FFDA44"/>
<path d="M99.9973 152.178C80.818 152.178 65.2148 136.575 65.2148 117.396V82.6148L78.2582 69.5703H121.736L134.78 82.6148V117.396C134.78 136.575 119.177 152.178 99.9973 152.178Z" fill="#D80027"/>
<path d="M100.001 139.138C88.0137 139.138 78.2617 129.386 78.2617 117.399V82.6172H121.74V117.399C121.74 129.386 111.988 139.138 100.001 139.138Z" fill="#F0F0F0"/>
<path d="M65.2148 69.5703H78.2582V82.6137H65.2148V69.5703Z" fill="#FFDA44"/>
<path d="M121.738 69.5703H134.782V82.6137H121.738V69.5703Z" fill="#FFDA44"/>
<path d="M121.738 97.832H134.782V110.875H121.738V97.832Z" fill="#FFDA44"/>
<path d="M65.2148 97.832H78.2582V110.875H65.2148V97.832Z" fill="#FFDA44"/>
<path d="M99.9984 139.126C97.7266 139.126 95.5363 138.774 93.4766 138.125V151.547C95.5906 151.95 97.7687 152.17 99.9984 152.17C102.228 152.17 104.406 151.95 106.52 151.547V138.125C104.461 138.774 102.27 139.126 99.9984 139.126Z" fill="#FFDA44"/>
<path d="M78.5539 120.92L68.1445 131.329C69.9492 135.438 72.5242 139.133 75.6891 142.231L84.9078 133.012C81.618 129.834 79.3262 125.63 78.5539 120.92Z" fill="#FFDA44"/>
<path d="M131.861 131.327L121.451 120.918C120.679 125.628 118.387 129.831 115.098 133.011L124.316 142.229C127.48 139.131 130.056 135.436 131.861 131.327Z" fill="#FFDA44"/>
<path d="M95.6445 89.8633V97.1094C95.6445 99.5102 97.591 101.457 99.9922 101.457C102.393 101.457 104.34 99.5102 104.34 97.1094V89.8633H95.6445Z" fill="#0052B4"/>
<path d="M95.6445 118.848V126.094C95.6445 128.495 97.591 130.441 99.9922 130.441C102.393 130.441 104.34 128.495 104.34 126.094V118.848H95.6445Z" fill="#0052B4"/>
<path d="M108.691 104.355V111.602C108.691 114.003 110.638 115.95 113.039 115.95C115.44 115.95 117.387 114.003 117.387 111.602V104.355H108.691Z" fill="#0052B4"/>
<path d="M95.6445 104.355V111.602C95.6445 114.003 97.591 115.95 99.9922 115.95C102.393 115.95 104.34 114.003 104.34 111.602V104.355H95.6445Z" fill="#0052B4"/>
<path d="M82.6172 104.355V111.602C82.6172 114.003 84.5637 115.95 86.9648 115.95C89.366 115.95 91.3125 114.003 91.3125 111.602V104.355H82.6172Z" fill="#0052B4"/>
</svg>
