<svg width="200" height="200" viewBox="0 0 200 200" fill="none" xmlns="http://www.w3.org/2000/svg">
<path d="M100 0C87.7681 0 76.0505 2.20039 65.2177 6.21992L60.8696 100L65.2173 193.78C76.0505 197.8 87.7681 200 100 200C112.232 200 123.95 197.8 134.783 193.78L139.131 100L134.783 6.21992C123.95 2.20039 112.232 0 100 0Z" fill="#FFDA44"/>
<path d="M200.003 99.991C200.003 56.9945 172.865 20.3402 134.785 6.21094V193.771C172.865 179.642 200.003 142.987 200.003 99.991Z" fill="#D80027"/>
<path d="M65.2176 193.771V6.21094C27.1375 20.3402 0 56.9945 0 99.991C0 142.987 27.1375 179.642 65.2176 193.771Z" fill="#0052B4"/>
</svg>
