<svg width="200" height="200" viewBox="0 0 200 200" fill="none" xmlns="http://www.w3.org/2000/svg">
<path d="M100 200C155.228 200 200 155.228 200 100C200 44.7715 155.228 0 100 0C44.7715 0 0 44.7715 0 100C0 155.228 44.7715 200 100 200Z" fill="#F0F0F0"/>
<path d="M200 99.9951C200 155.223 155.228 199.995 100 199.995C44.7719 199.995 0 155.223 0 99.9951C0 44.7669 100 99.9951 100 99.9951C100 99.9951 175.688 99.9951 200 99.9951Z" fill="#D80027"/>
<path d="M0 100C0 44.7719 44.7719 0 100 0V100C100 100 34.7824 100 0 100Z" fill="#0052B4"/>
<path d="M59.5293 34.7852L66.0047 54.7141H86.959L70.0066 67.0305L76.4816 86.9594L59.5293 74.6426L42.577 86.9594L49.052 67.0305L32.0996 54.7141H53.0539L59.5293 34.7852Z" fill="#F0F0F0"/>
</svg>
