<svg width="200" height="200" viewBox="0 0 200 200" fill="none" xmlns="http://www.w3.org/2000/svg">
<path d="M170.711 170.719C131.659 209.771 68.342 209.771 29.2893 170.719C-9.7633 131.666 -9.76291 68.3496 29.2893 29.2969C32.3635 32.3707 109.223 90.7844 109.223 90.7844L170.711 170.719Z" fill="#0052B4"/>
<path d="M29.2969 29.2893C68.3491 -9.76309 131.666 -9.76309 170.718 29.2893C209.771 68.3416 209.771 131.658 170.718 170.711" fill="#6DA544"/>
<path d="M99.9933 126.08C114.401 126.08 126.08 114.401 126.08 99.9934C126.08 85.5858 114.401 73.9062 99.9933 73.9062C85.5858 73.9062 73.9062 85.5858 73.9062 99.9934C73.9062 114.401 85.5858 126.08 99.9933 126.08Z" fill="#FFDA44"/>
<path d="M37.2429 143.479L39.9871 149.216L46.1835 147.784L43.4085 153.507L48.3921 157.459L42.1875 158.857L42.2046 165.218L37.2429 161.238L32.2812 165.218L32.2984 158.857L26.0938 157.459L31.0773 153.507L28.3019 147.784L34.4988 149.216L37.2429 143.479Z" fill="#F0F0F0"/>
<path d="M19.2933 95.6445L22.0375 101.382L28.2339 99.9496L25.4593 105.673L30.4421 109.625L24.2378 111.023L24.255 117.384L19.2933 113.405L14.332 117.384L14.3488 111.023L8.14453 109.625L13.1277 105.673L10.3527 99.9496L16.5492 101.382L19.2933 95.6445Z" fill="#F0F0F0"/>
<path d="M37.2425 56.5215L39.9867 62.2594L46.1832 60.8266L43.4086 66.55L48.3917 70.502L42.1871 71.9L42.2043 78.2606L37.2425 74.2816L32.2808 78.2606L32.298 71.9L26.0938 70.502L31.0766 66.55L28.3016 60.8266L34.4984 62.2594L37.2425 56.5215Z" fill="#F0F0F0"/>
<path d="M59.5277 86.9531L62.2718 92.691L68.4687 91.2582L65.6933 96.982L70.6765 100.934L64.4722 102.332L64.489 108.692L59.5277 104.713L54.566 108.692L54.5832 102.332L48.3789 100.934L53.3617 96.982L50.5871 91.2582L56.7836 92.691L59.5277 86.9531Z" fill="#F0F0F0"/>
<path d="M43.5961 113.047L45.7547 119.69H52.739L47.0882 123.795L49.2468 130.438L43.5961 126.333L37.9453 130.438L40.1039 123.795L34.4531 119.69H41.4375L43.5961 113.047Z" fill="#F0F0F0"/>
<path d="M100.008 117.388H108.703C108.703 117.388 112.471 110.722 108.703 104.345L117.399 95.6488L113.051 86.9531H108.704C108.704 86.9531 106.53 93.475 97.8343 93.475C89.1387 93.475 86.9648 86.9531 86.9648 86.9531H82.6172L86.9648 95.6488L82.6172 104.345L86.9648 108.692C86.9648 108.692 91.3125 99.9965 100.008 104.345C100.008 104.345 103.703 109.779 100.008 117.388Z" fill="#6DA544"/>
<path d="M164.91 54.766C165.115 53.6977 165.224 52.5957 165.224 51.4676C165.224 43.7332 160.174 37.182 153.193 34.9219C155.326 39.2578 156.528 44.1344 156.528 49.2938C156.528 51.0336 156.389 52.7406 156.126 54.4066C155.075 52.7141 153.725 51.1676 152.077 49.8555C145.865 44.9133 137.377 44.7824 131.102 48.9445C135.947 50.0023 140.631 52.1527 144.775 55.4492C148.018 58.0305 150.639 61.5219 152.646 64.8922L126.094 73.2066C152.181 77.5543 173.92 60.1633 173.92 60.1633C171.511 55.3461 167.77 54.5336 164.91 54.766Z" fill="#FFDA44"/>
</svg>
