<svg width="200" height="200" viewBox="0 0 200 200" fill="none" xmlns="http://www.w3.org/2000/svg">
<path d="M100 200C155.228 200 200 155.228 200 100C200 44.7715 155.228 0 100 0C44.7715 0 0 44.7715 0 100C0 155.228 44.7715 200 100 200Z" fill="#6DA544"/>
<path d="M153.512 143.479L156.256 149.216L162.453 147.784L159.678 153.507L164.661 157.459L158.457 158.857L158.474 165.218L153.512 161.239L148.55 165.218L148.568 158.857L142.363 157.459L147.346 153.507L144.571 147.784L150.768 149.216L153.512 143.479Z" fill="#FFDA44"/>
<path d="M127.985 82.6172L130.729 88.3551L136.926 86.9227L134.151 92.6461L139.134 96.5977L132.93 97.9961L132.947 104.356L127.985 100.377L123.023 104.356L123.04 97.9961L116.836 96.5977L121.819 92.6461L119.044 86.9227L125.241 88.3551L127.985 82.6172Z" fill="#FFDA44"/>
<path d="M153.512 47.832L156.256 53.5699L162.453 52.1371L159.678 57.8605L164.661 61.8125L158.456 63.2105L158.473 69.5711L153.512 65.5918L148.55 69.5711L148.567 63.2105L142.363 61.8125L147.346 57.8605L144.571 52.1371L150.768 53.5699L153.512 47.832Z" fill="#FFDA44"/>
<path d="M175.817 73.9062L178.561 79.6441L184.758 78.2117L181.983 83.9352L186.966 87.8867L180.762 89.2852L180.779 95.6457L175.817 91.6664L170.855 95.6457L170.872 89.2852L164.668 87.8867L169.651 83.9352L166.876 78.2117L173.073 79.6441L175.817 73.9062Z" fill="#FFDA44"/>
<path d="M159.866 104.355L162.025 110.999H169.009L163.358 115.104L165.517 121.747L159.866 117.642L154.215 121.747L156.373 115.104L150.723 110.999H157.707L159.866 104.355Z" fill="#FFDA44"/>
<path d="M110.867 128.261C95.259 128.261 82.6059 115.607 82.6059 99.9996C82.6059 84.3918 95.2586 71.7387 110.867 71.7387C115.734 71.7387 120.313 72.9695 124.311 75.1356C118.039 69.002 109.463 65.2168 99.9969 65.2168C80.7875 65.2168 65.2148 80.7895 65.2148 99.9992C65.2148 119.209 80.7875 134.782 99.9969 134.782C109.463 134.782 118.039 130.996 124.31 124.863C120.313 127.03 115.734 128.261 110.867 128.261Z" fill="#FFDA44"/>
<path d="M62.8914 39.1254C59.8836 33.9285 54.2684 30.4297 47.8324 30.4297C41.3965 30.4297 35.7812 33.9285 32.7734 39.1254H62.8914Z" fill="#FFDA44"/>
<path d="M62.9375 39.2383L47.8207 54.3551L32.7039 39.2383C31.259 41.7738 30.4297 44.7062 30.4297 47.8336C30.4297 57.4387 38.216 65.225 47.8211 65.225C57.4262 65.225 65.2125 57.4391 65.2125 47.8336C65.2121 44.7062 64.3824 41.7738 62.9375 39.2383Z" fill="#FFDA44"/>
<path d="M43.4766 50V64.6695C44.866 65.027 46.323 65.2172 47.8242 65.2172C49.3254 65.2172 50.7824 65.0266 52.1719 64.6695V50H43.4766Z" fill="#A2001D"/>
</svg>
