<svg width="200" height="200" viewBox="0 0 200 200" fill="none" xmlns="http://www.w3.org/2000/svg">
<path d="M99.9998 200C155.228 200 200 155.228 200 100C200 44.7715 155.228 0 99.9998 0C44.7715 0 0 44.7715 0 100C0 155.228 44.7715 200 99.9998 200Z" fill="#F0F0F0"/>
<path d="M199.998 99.707H91.5956C70.0734 121.23 57.0586 137.846 43.7695 151.135L100.291 156.229L188 147.533C195.654 133.394 200.001 117.203 200.001 99.9965C200.001 99.8996 199.998 99.8039 199.998 99.707Z" fill="#D80027"/>
<path d="M43.7629 51.8844H187.674C170.667 20.9594 137.78 0 99.9944 0C72.4534 0 47.5175 11.1371 29.4336 29.15L43.7629 51.8844Z" fill="#FFDA44"/>
<path d="M48.109 147.539C39.1191 156.529 35.6449 164.061 29.1406 170.565C47.248 188.747 72.3046 200.003 99.9929 200.003C138.015 200.003 171.079 178.782 187.992 147.539H48.109Z" fill="#0052B4"/>
<path d="M29.2892 29.0039C-9.76307 68.0563 -9.76307 131.373 29.2892 170.426C45.4271 154.288 60.9477 138.767 100 99.7149L29.2892 29.0039Z" fill="#6DA544"/>
<path d="M26.3836 99.7102C26.3836 85.1406 36.623 72.9691 50.2964 69.9832C48.1949 69.5242 46.0144 69.2754 43.7746 69.2754C26.9656 69.2754 13.3398 82.9012 13.3398 99.7102C13.3398 116.519 26.9656 130.145 43.7746 130.145C46.014 130.145 48.1945 129.896 50.2964 129.437C36.623 126.451 26.3836 114.28 26.3836 99.7102Z" fill="#F0F0F0"/>
<path d="M49.9629 73.6328L51.582 78.6148H56.8203L52.582 81.6941L54.2012 86.6762L49.9629 83.5973L45.7246 86.6762L47.3437 81.6941L43.1055 78.6148H48.3437L49.9629 73.6328Z" fill="#F0F0F0"/>
<path d="M49.9629 86.6602L51.582 91.6426H56.8203L52.582 94.7215L54.2012 99.7039L49.9629 96.6246L45.7246 99.7039L47.3437 94.7215L43.1055 91.6426H48.3437L49.9629 86.6602Z" fill="#F0F0F0"/>
<path d="M49.9629 99.707L51.582 104.689H56.8203L52.582 107.768L54.2012 112.75L49.9629 109.671L45.7246 112.75L47.3437 107.768L43.1055 104.689H48.3437L49.9629 99.707Z" fill="#F0F0F0"/>
<path d="M49.9629 112.754L51.582 117.736H56.8203L52.582 120.815L54.2012 125.797L49.9629 122.718L45.7246 125.797L47.3437 120.815L43.1055 117.736H48.3437L49.9629 112.754Z" fill="#F0F0F0"/>
</svg>
