<svg width="200" height="200" viewBox="0 0 200 200" fill="none" xmlns="http://www.w3.org/2000/svg">
<path d="M200 100C200 155.228 155.228 200 100 200C44.7719 200 0 155.228 0 100C0 100.024 100 0.0109375 100 0C155.228 0 200 44.7719 200 100Z" fill="#0052B4"/>
<path d="M99.7266 99.9941H99.9941C99.9941 99.9043 99.9941 99.8168 99.9941 99.7266C99.9051 99.816 99.816 99.9051 99.7266 99.9941Z" fill="#F0F0F0"/>
<path d="M100 52.1738C100 34.5781 100 23.0488 100 0H99.9832C44.7621 0.009375 0 44.777 0 100H52.1738V70.6207L81.5531 100H99.7328C99.8219 99.9109 99.9109 99.8219 100 99.7324C100 92.9953 100 86.984 100 81.5539L70.6203 52.1738H100Z" fill="#F0F0F0"/>
<path d="M50.5953 13.0469C34.9551 21.9527 21.9523 34.9551 13.0469 50.5953V100.004H39.134V39.1348V39.134H100.004C100.004 30.9063 100.004 23.068 100.004 13.0469H50.5953Z" fill="#D80027"/>
<path d="M99.9941 87.6965L64.4648 52.168H52.168V52.1687L99.9934 99.9938H99.9941C99.9941 99.9938 99.9941 91.5145 99.9941 87.6965Z" fill="#D80027"/>
<path d="M134.789 100L136.64 105.694H142.627L137.784 109.213L139.634 114.907L134.789 111.388L129.946 114.907L131.796 109.213L126.953 105.694H132.939L134.789 100Z" fill="#F0F0F0"/>
<path d="M110.188 110.188L115.521 112.905L119.755 108.672L118.818 114.585L124.153 117.303L118.239 118.239L117.303 124.153L114.585 118.818L108.672 119.755L112.906 115.522L110.188 110.188Z" fill="#F0F0F0"/>
<path d="M100 134.789L105.694 132.939L105.695 126.953L109.213 131.796L114.907 129.945L111.388 134.789L114.907 139.633L109.213 137.783L105.695 142.626V136.64L100 134.789Z" fill="#F0F0F0"/>
<path d="M110.188 159.377L112.905 154.043L108.672 149.81L114.585 150.746L117.303 145.412L118.239 151.325L124.153 152.261L118.818 154.98L119.755 160.893L115.521 156.659L110.188 159.377Z" fill="#F0F0F0"/>
<path d="M134.79 169.575L132.94 163.88H126.953L131.796 160.362L129.946 154.668L134.79 158.187L139.634 154.668L137.784 160.362L142.627 163.88H136.641L134.79 169.575Z" fill="#F0F0F0"/>
<path d="M159.375 159.377L154.041 156.66L149.808 160.893L150.745 154.98L145.41 152.262L151.323 151.325L152.26 145.412L154.978 150.746L160.891 149.81L156.657 154.043L159.375 159.377Z" fill="#F0F0F0"/>
<path d="M169.575 134.789L163.88 136.64V142.626L160.362 137.783L154.668 139.633L158.187 134.789L154.668 129.945L160.362 131.796L163.88 126.953V132.939L169.575 134.789Z" fill="#F0F0F0"/>
<path d="M159.375 110.188L156.658 115.521L160.891 119.755L154.978 118.818L152.26 124.153L151.323 118.239L145.41 117.302L150.745 114.585L149.808 108.672L154.041 112.905L159.375 110.188Z" fill="#F0F0F0"/>
</svg>
