<svg width="200" height="200" viewBox="0 0 200 200" fill="none" xmlns="http://www.w3.org/2000/svg">
<path d="M100 200C155.228 200 200 155.228 200 100C200 44.7715 155.228 0 100 0C44.7715 0 0 44.7715 0 100C0 155.228 44.7715 200 100 200Z" fill="#FCFCFC"/>
<path d="M134.816 84.7012C134.816 63.5512 117.671 46.4062 96.5215 46.4062C80.9145 46.4062 67.4977 55.7461 61.532 69.1383L56.809 86.2613L61.1566 90.609L52.4609 108L61.1566 112.348L56.809 116.696V121.043L61.1566 125.391V134.087L65.5043 138.434L78.5477 134.087C78.5477 134.087 78.5477 138.434 82.8953 142.782C87.243 147.13 91.5914 155.826 91.5914 155.826C91.5914 155.826 104.635 160.174 113.33 147.13C122.026 134.087 130.722 129.739 130.722 129.739L122.341 112.976C130.005 105.975 134.816 95.9016 134.816 84.7012Z" fill="black"/>
<path d="M137.937 99.3535C155.604 96.3734 158.547 61.7773 158.547 61.7773H134.2C146.808 92.2121 133.611 94.2594 133.611 94.2594C131.823 92.9293 67.8395 62.6184 65.8113 61.8477C65.3227 62.5016 63.5238 64.2191 61.3371 69.5668C59.15 74.9145 58.6133 79.7254 58.6133 79.7254C59.6375 80.393 127.588 104.12 129.384 104.318C132.948 106.648 137.334 113.617 134.883 134.28L158.318 127.676C158.319 127.676 150.366 106.518 137.937 99.3535Z" fill="#ACABB1"/>
</svg>
