<svg width="200" height="200" viewBox="0 0 200 200" fill="none" xmlns="http://www.w3.org/2000/svg">
<path d="M100 200C155.228 200 200 155.228 200 100C200 44.7715 155.228 0 100 0C44.7715 0 0 44.7715 0 100C0 155.228 44.7715 200 100 200Z" fill="#F0F0F0"/>
<path d="M193.78 65.2148H6.21992C2.20039 76.048 0 87.7652 0 99.9973C0 112.229 2.20039 123.946 6.21992 134.78H193.78C197.8 123.946 200 112.229 200 99.9973C200 87.7652 197.8 76.048 193.78 65.2148Z" fill="#D80027"/>
<path d="M100.004 0C69.6953 0 42.5379 13.4859 24.1992 34.7824H175.809C157.471 13.4859 130.313 0 100.004 0Z" fill="#0052B4"/>
<path d="M175.809 165.215H24.1992C42.5379 186.511 69.6953 199.997 100.004 199.997C130.313 199.997 157.471 186.511 175.809 165.215Z" fill="#0052B4"/>
</svg>
