<svg width="200" height="200" viewBox="0 0 200 200" fill="none" xmlns="http://www.w3.org/2000/svg">
<path d="M200 100.009C200 87.7773 197.8 76.0598 193.78 65.227L100 60.8789L6.21992 65.2266C2.20039 76.0598 0 87.7773 0 100.009C0 112.241 2.20039 123.959 6.21992 134.792L100 139.14L193.78 134.792C197.8 123.959 200 112.241 200 100.009Z" fill="#F0F0F0"/>
<path d="M99.991 200.003C142.987 200.003 179.642 172.865 193.771 134.785H6.21094C20.3402 172.865 56.9945 200.003 99.991 200.003Z" fill="#0052B4"/>
<path d="M6.21094 65.2176H193.771C179.642 27.1375 142.987 0 99.991 0C56.9945 0 20.3402 27.1375 6.21094 65.2176Z" fill="#D80027"/>
<path d="M126.083 69.5563H108.691L111.59 47.8168L123.184 39.1211L134.778 47.8168V65.2082L126.083 69.5563Z" fill="#338AF3"/>
<path d="M73.9102 69.5563H91.3016L88.4027 47.8168L76.8086 39.1211L65.2148 47.8168V65.2082L73.9102 69.5563Z" fill="#338AF3"/>
<path d="M111.588 69.5563H88.3984V47.8168L99.993 39.1211L111.588 47.8168V69.5563Z" fill="#0052B4"/>
<path d="M65.2148 65.2148V113.041C65.2148 124.429 70.7156 134.556 79.2 140.905L85.2871 139.382L92.9684 147.109C95.2398 147.577 97.5902 147.823 99.9977 147.823C102.392 147.823 104.731 147.58 106.99 147.117L115.759 139.816L120.795 140.891C129.275 134.542 134.78 124.425 134.78 113.041V65.2148H65.2148Z" fill="#F0F0F0"/>
<path d="M65.2148 65.2148H79.1277V79.1277H65.2148V65.2148Z" fill="#D80027"/>
<path d="M93.0469 65.2148H106.96V79.1277H93.0469V65.2148Z" fill="#D80027"/>
<path d="M120.879 65.2148H134.792V79.1277H120.879V65.2148Z" fill="#D80027"/>
<path d="M79.1211 79.1211H93.034V93.034H79.1211V79.1211Z" fill="#D80027"/>
<path d="M106.953 79.1211H120.866V93.034H106.953V79.1211Z" fill="#D80027"/>
<path d="M65.2148 93.0469H79.1277V106.96H65.2148V93.0469Z" fill="#D80027"/>
<path d="M79.1211 106.953H93.034V120.866H79.1211V106.953Z" fill="#D80027"/>
<path d="M93.0469 93.0469H106.96V106.96H93.0469V93.0469Z" fill="#D80027"/>
<path d="M120.879 93.0469H134.792V106.96H120.879V93.0469Z" fill="#D80027"/>
<path d="M106.953 106.953H120.866V120.866H106.953V106.953Z" fill="#D80027"/>
<path d="M93.0469 120.859H106.96V134.772H93.0469V120.859Z" fill="#D80027"/>
<path d="M79.1285 120.859H66.1133C67.307 126.031 69.6539 130.764 72.8719 134.772H79.1285V120.859Z" fill="#D80027"/>
<path d="M120.879 134.772H127.135C130.354 130.764 132.7 126.031 133.894 120.859H120.879V134.772Z" fill="#D80027"/>
<path d="M79.1211 134.785V140.856C83.1676 143.901 87.8965 146.084 93.034 147.132V134.785H79.1211Z" fill="#D80027"/>
<path d="M106.953 134.785V147.132C112.091 146.085 116.82 143.901 120.866 140.856V134.785H106.953Z" fill="#D80027"/>
</svg>
