<svg width="200" height="200" viewBox="0 0 200 200" fill="none" xmlns="http://www.w3.org/2000/svg">
<path d="M0.01 17.3828H0V182.601H0.01V99.9921V17.3828Z" fill="#FF9811"/>
<path d="M99.9992 200C155.227 200 199.998 155.228 199.998 100C199.998 44.7715 155.227 0 99.9992 0C44.7712 0 0 44.7715 0 100C0 155.228 44.7712 200 99.9992 200Z" fill="#F0F0F0"/>
<path d="M100.004 0C67.2885 0 38.2441 15.7122 20 40.0002H180.008C161.764 15.7118 132.719 0 100.004 0Z" fill="#0052B4"/>
<path d="M100.004 200C132.72 200 161.764 184.288 180.008 160H20C38.2437 184.288 67.2885 200 100.004 200Z" fill="#0052B4"/>
<path d="M0 100C0 106.85 0.690622 113.538 2.00273 120H197.997C199.309 113.538 199.999 106.85 199.999 100C199.999 93.1504 199.309 86.4621 197.997 80H2.00273C0.690622 86.4621 0 93.1504 0 100Z" fill="#0052B4"/>
<path d="M29.2889 29.2969C-9.76295 68.349 -9.76295 131.666 29.2889 170.719C45.4267 154.581 60.9469 139.06 99.9991 100.008L29.2889 29.2969Z" fill="#D80027"/>
<path d="M40.4761 73.9062L46.9503 93.8341H67.9057L50.9538 106.151L57.428 126.079L40.4761 113.763L23.5234 126.079L29.9992 106.151L13.0469 93.8341H34.0007L40.4761 73.9062Z" fill="#F0F0F0"/>
</svg>
