<svg width="200" height="200" viewBox="0 0 200 200" fill="none" xmlns="http://www.w3.org/2000/svg">
<path d="M100 200C155.228 200 200 155.228 200 100C200 44.7715 155.228 0 100 0C44.7715 0 0 44.7715 0 100C0 155.228 44.7715 200 100 200Z" fill="#FFDA44"/>
<path d="M99.9918 200C132.804 200 161.925 184.196 180.159 159.785H19.8242C38.0586 184.196 67.1793 200 99.9918 200Z" fill="#0052B4"/>
<path d="M200 100C200 44.7719 155.228 0 100 0C44.7719 0 0 44.7719 0 100C0 111.825 2.0582 123.169 5.82656 133.699H194.173C197.942 123.169 200 111.825 200 100Z" fill="#0052B4"/>
<path d="M68.4434 64.1406L73.8391 80.7469H91.3016L77.1746 91.0117L82.5703 107.619L68.4434 97.3547L54.3164 107.619L59.7129 91.0117L45.5859 80.7469H63.0477L68.4434 64.1406Z" fill="#F0F0F0"/>
<path d="M38.4602 46.7383L41.6977 56.7023H52.1754L43.6992 62.8609L46.9367 72.8254L38.4602 66.6668L29.984 72.8254L33.2219 62.8609L24.7461 56.7023H35.2234L38.4602 46.7383Z" fill="#F0F0F0"/>
</svg>
