<svg width="200" height="200" viewBox="0 0 200 200" fill="none" xmlns="http://www.w3.org/2000/svg">
<path d="M100 200C155.228 200 200 155.228 200 100C200 44.7715 155.228 0 100 0C44.7715 0 0 44.7715 0 100C0 155.228 44.7715 200 100 200Z" fill="#FCFCFC"/>
<path d="M156.52 86.9531C153.476 86.9531 149.708 86.9531 143.476 86.9531C143.476 110.966 124.01 130.431 99.998 130.431C75.9852 130.431 56.5199 110.966 56.5199 86.9531C52.3168 86.9531 47.6789 86.9531 43.4766 86.9531C43.4766 112.818 60.85 134.626 84.5648 141.342C81.9648 146.281 82.3609 152.499 86.075 157.134C90.9531 153.224 96.0035 149.177 100.288 145.744C104.572 149.177 109.623 153.225 114.501 157.134C118.252 152.453 118.621 146.156 115.934 141.193C139.389 134.312 156.52 112.634 156.52 86.9531Z" fill="#6DA544"/>
<path d="M65.2148 82.6027C65.2148 82.6027 65.2148 104.342 86.9539 104.342L91.3016 108.689H99.9973C99.9973 108.689 104.345 95.6461 113.041 95.6461C113.041 95.6461 113.041 86.9504 121.736 86.9504C130.432 86.9504 134.78 86.9504 134.78 86.9504C134.78 86.9504 130.432 69.559 152.171 56.5156L143.475 52.168C143.475 52.168 113.041 73.907 91.3016 69.5594V78.2551H82.6059L78.2582 73.9074L65.2148 82.6027Z" fill="#FFDA44"/>
</svg>
