<svg width="200" height="200" viewBox="0 0 200 200" fill="none" xmlns="http://www.w3.org/2000/svg">
<path d="M99.9999 200C155.228 200 200 155.228 200 100C200 44.7715 155.228 0 99.9999 0C44.7715 0 0 44.7715 0 100C0 155.228 44.7715 200 99.9999 200Z" fill="#F0F0F0"/>
<path d="M91.312 100C91.312 100 29.3555 170.725 29.2969 170.711C47.393 188.807 72.3933 200 100.008 200C155.236 200 200.008 155.228 200.008 100H91.312Z" fill="#D80027"/>
<path d="M29.2892 29.2969C-9.76308 68.3492 -9.76308 131.666 29.2892 170.719C45.4271 154.581 60.9478 139.06 100 100.008L29.2892 29.2969Z" fill="#0052B4"/>
</svg>
