<svg width="200" height="200" viewBox="0 0 200 200" fill="none" xmlns="http://www.w3.org/2000/svg">
<path d="M188.905 54.1558C184.284 45.2031 178.228 36.8 170.723 29.2953C163.218 21.7902 154.814 15.7336 145.862 11.1133L75.413 75.4124L11.1133 145.861C15.734 154.814 21.7906 163.217 29.2953 170.722C36.8 178.227 45.2036 184.283 54.1559 188.904L124.605 124.605L188.905 54.1558Z" fill="#FFDA44"/>
<path d="M29.2961 170.723C33.491 174.918 37.9672 178.659 42.6621 181.953L181.953 42.6621C178.66 37.9672 174.918 33.491 170.723 29.2961C166.528 25.1012 162.052 21.3602 157.357 18.0664L18.0664 157.357C21.3598 162.051 25.1008 166.528 29.2961 170.723Z" fill="#D80027"/>
<path d="M29.2868 29.2859C-2.26285 60.8354 -8.3195 108.217 11.1047 145.852L145.853 11.1043C108.218 -8.31955 60.8361 -2.26214 29.2868 29.2859Z" fill="#338AF3"/>
<path d="M170.707 170.707C202.256 139.157 208.312 91.7753 188.889 54.1406L54.1406 188.889C91.7754 208.312 139.158 202.256 170.707 170.707Z" fill="#338AF3"/>
<path d="M53.2891 30.4316L58.6852 47.0398H76.1477L62.0204 57.3039L67.4165 73.9117L53.2891 63.6472L39.161 73.9117L44.5578 57.3039L30.4297 47.0398H47.8922L53.2891 30.4316Z" fill="#FFDA44"/>
</svg>
