<svg width="200" height="200" viewBox="0 0 200 200" fill="none" xmlns="http://www.w3.org/2000/svg">
<path d="M100 200C155.228 200 200 155.228 200 100C200 44.7715 155.228 0 100 0C44.7715 0 0 44.7715 0 100C0 155.228 44.7715 200 100 200Z" fill="#F0F0F0"/>
<path d="M78.2612 86.9566H199.153C192.762 37.8914 150.807 0 99.9999 0C92.5331 0 85.2608 0.82539 78.2608 2.37695L78.2612 86.9566Z" fill="#D80027"/>
<path d="M52.1672 86.9652V12.168C24.709 27.15 5.05195 54.6308 0.839844 86.9656L52.1672 86.9652Z" fill="#D80027"/>
<path d="M52.1668 113.047H0.839844C5.05195 145.382 24.709 172.862 52.1672 187.844L52.1668 113.047Z" fill="#D80027"/>
<path d="M78.2617 113.047V197.627C85.2617 199.178 92.534 200.003 100.001 200.003C150.808 200.003 192.762 162.112 199.154 113.047H78.2617V113.047Z" fill="#D80027"/>
</svg>
