<svg width="200" height="200" viewBox="0 0 200 200" fill="none" xmlns="http://www.w3.org/2000/svg">
<path d="M91.3046 108.696C91.3046 108.696 29.3481 29.2754 29.2896 29.2895C47.3856 11.193 72.3859 0 100 0C155.228 0 200 44.7719 200 100L91.3046 108.696Z" fill="#338AF3"/>
<path d="M91.3022 100C91.3022 100 29.3457 170.725 29.2871 170.711C47.3832 188.807 72.3835 200 99.9978 200C155.226 200 199.998 155.228 199.998 100H91.3022Z" fill="#6DA544"/>
<path d="M29.2892 29.2969C-9.76306 68.3492 -9.76306 131.666 29.2892 170.719C45.427 154.581 60.9477 139.06 99.9999 100.008L29.2892 29.2969Z" fill="#F0F0F0"/>
<path d="M40.4761 73.9062L46.9507 93.8344H67.9061L50.9538 106.152L57.428 126.08L40.4761 113.764L23.5234 126.08L29.9992 106.152L13.0469 93.8344H34.0007L40.4761 73.9062Z" fill="#D80027"/>
</svg>
