<svg width="200" height="200" viewBox="0 0 200 200" fill="none" xmlns="http://www.w3.org/2000/svg">
<path d="M100 200C155.228 200 200 155.228 200 100C200 44.7715 155.228 0 100 0C44.7715 0 0 44.7715 0 100C0 155.228 44.7715 200 100 200Z" fill="#F0F0F0"/>
<path d="M119.561 198.086C159.093 190.244 190.234 159.102 198.076 119.57H119.561V198.086Z" fill="#496E2D"/>
<path d="M1.92383 119.57C9.76563 159.102 40.907 190.244 80.4395 198.086V119.57H1.92383Z" fill="#496E2D"/>
<path d="M198.076 80.4297C190.234 40.8977 159.093 9.75625 119.561 1.91406V80.4297H198.076Z" fill="#496E2D"/>
<path d="M80.4395 1.91406C40.907 9.75625 9.76563 40.8977 1.92383 80.4297H80.4395V1.91406Z" fill="#496E2D"/>
<path d="M93.4828 119.57H80.4395V198.086C84.6961 198.93 89.0504 199.502 93.4828 199.787V119.57Z" fill="#FFDA44"/>
<path d="M93.4828 80.432V0.214844C89.0504 0.5 84.6957 1.07227 80.4395 1.91641V80.432H93.4828Z" fill="#FFDA44"/>
<path d="M106.522 0.217578C104.365 0.078125 102.192 0 100 0C97.8082 0 95.6351 0.078125 93.4781 0.217578V80.4352H106.521V0.217578H106.522Z" fill="black"/>
<path d="M93.4766 199.787C95.6336 199.927 97.8066 200.005 99.9984 200.005C102.19 200.005 104.363 199.927 106.52 199.787V119.57H93.4769L93.4766 199.787Z" fill="black"/>
<path d="M80.432 93.473V80.4297H1.91641C1.07187 84.6867 0.5 89.0406 0.214844 93.473H80.432Z" fill="#FFDA44"/>
<path d="M119.561 93.473H199.778C199.493 89.0406 198.921 84.6867 198.077 80.4297H119.561V93.473H119.561Z" fill="#FFDA44"/>
<path d="M119.561 106.522H199.778C199.917 104.366 199.995 102.192 199.995 100C199.995 97.8086 199.917 95.6352 199.778 93.4785H119.561V106.522Z" fill="black"/>
<path d="M0.217578 93.4785C0.0785156 95.6352 0 97.8086 0 100C0 102.192 0.0785156 104.366 0.217578 106.522H80.4352V93.4789L0.217578 93.4785Z" fill="black"/>
<path d="M100.004 147.82C126.418 147.82 147.83 126.408 147.83 99.9941C147.83 73.5805 126.418 52.168 100.004 52.168C73.5902 52.168 52.1777 73.5805 52.1777 99.9941C52.1777 126.408 73.5902 147.82 100.004 147.82Z" fill="#D80027"/>
<path d="M110.899 105.33C107.342 98.216 102.718 91.0051 102.718 91.0051C102.718 91.0051 102.833 87.7219 102.833 85.7656C102.833 82.8188 100.444 80.4297 97.4969 80.4297C94.7051 80.4297 92.4176 82.5746 92.1844 85.3055C89.9891 85.4488 88.252 87.2699 88.252 89.5012C88.252 91.1234 89.1711 92.5293 90.5164 93.232C91.1852 91.668 92.4945 90.4469 94.1141 89.8902C94.3781 90.1062 94.6617 90.2992 94.9644 90.4629L95.648 90.7902C95.648 90.7902 93.1133 97.9351 93.1133 101.773C93.1133 112.564 100.228 115.892 100.228 115.892V116.003L96.6707 119.56H103.785V112.445L107.343 116.003C107.374 115.936 114.081 111.694 110.899 105.33Z" fill="#496E2D"/>
<path d="M100.002 60.8789L101.62 65.8609H106.859L102.621 68.9402L104.24 73.9223L100.002 70.8434L95.7633 73.9223L97.3824 68.9402L93.1445 65.8609H98.3828L100.002 60.8789Z" fill="#496E2D"/>
<path d="M77.0043 68.3402L81.2418 71.4195L85.4801 68.3398L83.8613 73.3227L88.0996 76.4012L82.8609 76.4016L81.2422 81.3836L79.623 76.4016L74.3848 76.4012L78.6227 73.3219L77.0043 68.3402Z" fill="#496E2D"/>
<path d="M62.7832 87.9117H68.0211L69.6402 82.9297L71.259 87.9117L76.4977 87.9113L72.2598 90.991L73.8789 95.973L69.6402 92.8937L65.4023 95.9727L67.0207 90.9906L62.7832 87.9117Z" fill="#496E2D"/>
<path d="M62.7832 112.084L67.0207 109.006L65.402 104.023L69.6402 107.103L73.8785 104.023L72.2598 109.005L76.498 112.085L71.259 112.085L69.6402 117.067L68.0211 112.084H62.7832Z" fill="#496E2D"/>
<path d="M77.0047 131.656L78.623 126.675L74.3848 123.596H79.6234L81.2426 118.613L82.8613 123.595H88.1L83.8617 126.675L85.4805 131.657L81.2422 128.577L77.0047 131.656Z" fill="#496E2D"/>
<path d="M100.002 139.137L98.3828 134.156H93.1445L97.3824 131.076L95.7633 126.094L100.002 129.173L104.239 126.094L102.621 131.076L106.859 134.155L101.62 134.156L100.002 139.137Z" fill="#496E2D"/>
<path d="M123 131.656L118.762 128.577L114.524 131.657L116.143 126.675L111.904 123.596L117.143 123.595L118.761 118.613L120.381 123.596H125.619L121.381 126.675L123 131.656Z" fill="#496E2D"/>
<path d="M137.211 112.084H131.973L130.354 117.066L128.735 112.085H123.496L127.734 109.005L126.115 104.023L130.354 107.102L134.591 104.023L132.973 109.005L137.211 112.084Z" fill="#496E2D"/>
<path d="M137.211 87.9113L132.973 90.9902L134.592 95.9723L130.354 92.8934L126.116 95.973L127.734 90.9906L123.496 87.9117L128.735 87.9109L130.354 82.9297L131.973 87.9113H137.211Z" fill="#496E2D"/>
<path d="M123 68.3398L121.381 73.3215L125.619 76.4008H120.381L118.762 81.3832L117.143 76.4012L111.904 76.4016L116.143 73.3215L114.524 68.3402L118.762 71.4188L123 68.3398Z" fill="#496E2D"/>
</svg>
