<svg width="200" height="200" viewBox="0 0 200 200" fill="none" xmlns="http://www.w3.org/2000/svg">
<path d="M100 200C155.228 200 200 155.228 200 100C200 44.7715 155.228 0 100 0C44.7715 0 0 44.7715 0 100C0 155.228 44.7715 200 100 200Z" fill="#F0F0F0"/>
<path d="M3.4375 126.094C12.6711 160.353 39.6465 187.329 73.9059 196.562V126.094H3.4375Z" fill="#D80027"/>
<path d="M73.9055 3.4375C39.6465 12.6707 12.6707 39.6465 3.4375 73.9055H73.9059V3.4375H73.9055Z" fill="#0052B4"/>
<path d="M196.562 73.9055C187.329 39.6465 160.353 12.6707 126.094 3.4375V73.9059H196.562V73.9055Z" fill="#D80027"/>
<path d="M126.094 196.562C160.353 187.329 187.329 160.353 196.562 126.094H126.094V196.562Z" fill="#0052B4"/>
<path d="M126.08 99.9934C126.08 114.401 114.401 126.08 99.9934 126.08C85.5859 126.08 73.9062 114.401 73.9062 99.9934C73.9062 85.5855 99.9934 73.9062 99.9934 73.9062C99.9934 73.9062 126.08 85.5855 126.08 99.9934Z" fill="#496E2D"/>
<path d="M73.9062 99.9934C73.9062 85.5856 85.5859 73.9062 99.9934 73.9062C114.401 73.9062 126.08 85.5856 126.08 99.9934" fill="#0052B4"/>
<path d="M85.332 86.9531V103.257C85.332 111.362 91.9016 117.931 100.006 117.931C108.11 117.931 114.68 111.362 114.68 103.257V86.9531H85.332Z" fill="#D80027"/>
</svg>
