<svg width="200" height="200" viewBox="0 0 200 200" fill="none" xmlns="http://www.w3.org/2000/svg">
<path d="M100 200C155.228 200 200 155.228 200 100C200 44.7715 155.228 0 100 0C44.7715 0 0 44.7715 0 100C0 155.228 44.7715 200 100 200Z" fill="#FFDA44"/>
<path d="M99.9941 0C75.5109 0 53.0867 8.80352 35.7031 23.4117L143.472 100L35.7031 176.588C53.0867 191.196 75.5109 200 99.9941 200C155.222 200 199.994 155.228 199.994 100C199.994 44.7719 155.222 0 99.9941 0Z" fill="#D80027"/>
<path d="M29.2893 29.2969C-9.76309 68.3492 -9.76309 131.666 29.2893 170.719C45.4271 154.581 60.9478 139.06 100 100.008L29.2893 29.2969Z" fill="black"/>
<path d="M27.7184 77.0918L42.9371 91.4949L61.3387 81.4699L52.3445 100.396L67.5637 114.799L46.7848 112.093L37.7895 131.018L33.943 110.42L13.1641 107.713L31.5648 97.6891L27.7184 77.0918Z" fill="#F0F0F0"/>
</svg>
