<svg width="200" height="200" viewBox="0 0 200 200" fill="none" xmlns="http://www.w3.org/2000/svg">
<path d="M0 100C0 44.7719 44.7719 0 100 0C155.228 0 200 44.7719 200 100L100 108.696L0 100Z" fill="#FFDA44"/>
<path d="M13.3789 150C30.6699 179.889 62.984 200 99.9977 200C137.011 200 169.325 179.889 186.616 150L99.9977 143.479L13.3789 150Z" fill="#D80027"/>
<path d="M186.619 150C195.127 135.291 200 118.215 200 100H0C0 118.215 4.87266 135.291 13.3813 150H186.619Z" fill="#0052B4"/>
<path d="M99.9973 134.78C119.207 134.78 134.78 119.207 134.78 99.9973C134.78 80.7875 119.207 65.2148 99.9973 65.2148C80.7875 65.2148 65.2148 80.7875 65.2148 99.9973C65.2148 119.207 80.7875 134.78 99.9973 134.78Z" fill="#FFDA44"/>
<path d="M100.001 121.736C88.0137 121.736 78.2617 111.984 78.2617 99.9973V86.9539C78.2617 74.9668 88.0141 65.2148 100.001 65.2148C111.987 65.2148 121.74 74.9672 121.74 86.9539V99.9973C121.74 111.984 111.988 121.736 100.001 121.736Z" fill="#338AF3"/>
<path d="M134.78 47.8168H108.693C108.693 43.0145 104.8 39.1211 99.9977 39.1211C95.1953 39.1211 91.302 43.0145 91.302 47.8168H65.2148C65.2148 52.6195 69.398 56.5125 74.2 56.5125H73.9105C73.9105 61.3152 77.8035 65.2082 82.6063 65.2082C82.6063 70.0109 86.4992 73.9039 91.302 73.9039H108.693C113.496 73.9039 117.389 70.0109 117.389 65.2082C122.192 65.2082 126.085 61.3152 126.085 56.5125H125.795C130.598 56.5125 134.78 52.6191 134.78 47.8168Z" fill="black"/>
</svg>
