<svg width="200" height="200" viewBox="0 0 200 200" fill="none" xmlns="http://www.w3.org/2000/svg">
<path d="M100 200C155.228 200 200 155.228 200 100C200 44.7715 155.228 0 100 0C44.7715 0 0 44.7715 0 100C0 155.228 44.7715 200 100 200Z" fill="#F0F0F0"/>
<path d="M99.991 0C56.9945 0 20.3402 27.1375 6.21094 65.2176H193.771C179.642 27.1375 142.987 0 99.991 0Z" fill="#D80027"/>
<path d="M99.991 200.003C142.987 200.003 179.642 172.865 193.771 134.785H6.21094C20.3402 172.865 56.9945 200.003 99.991 200.003Z" fill="black"/>
<path d="M134.78 89.1254H108.693C108.693 84.323 104.8 80.4297 99.9977 80.4297C95.1953 80.4297 91.302 84.323 91.302 89.1254H65.2148C65.2148 93.9281 69.398 97.8211 74.2004 97.8211H73.9105C73.9105 102.624 77.8035 106.517 82.6063 106.517C82.6063 111.32 86.4992 115.213 91.302 115.213H108.693C113.496 115.213 117.389 111.32 117.389 106.517C122.192 106.517 126.085 102.624 126.085 97.8211H125.795C130.598 97.8211 134.78 93.9281 134.78 89.1254Z" fill="#FF9811"/>
</svg>
