<svg width="200" height="200" viewBox="0 0 200 200" fill="none" xmlns="http://www.w3.org/2000/svg">
<path d="M100 200C155.228 200 200 155.228 200 100C200 44.7715 155.228 0 100 0C44.7715 0 0 44.7715 0 100C0 155.228 44.7715 200 100 200Z" fill="#F0F0F0"/>
<path d="M100 0C60.3541 0 26.0979 23.0723 9.92285 56.5219H190.077C173.903 23.0723 139.646 0 100 0Z" fill="#0052B4"/>
<path d="M99.9992 200C139.645 200 173.902 176.928 190.077 143.479H9.92188C26.0969 176.928 60.3531 200 99.9992 200Z" fill="#0052B4"/>
<path d="M79.9219 104.353L100.004 69.5703L120.086 104.353H79.9219Z" fill="#FFDA44"/>
<path d="M126.08 115.829L99.9934 128.872L73.9062 115.829V98.4375H126.08V115.829Z" fill="#6DA544"/>
<path d="M124.592 71.0547L115.369 80.2777C119.303 84.2117 121.736 89.6465 121.736 95.6496C121.736 107.656 112.003 117.389 99.9973 117.389C87.9914 117.389 78.2582 107.655 78.2582 95.6496C78.2582 89.6465 80.6918 84.2117 84.6258 80.2777L75.4027 71.0547C69.1078 77.3484 65.2148 86.0441 65.2148 95.6496C65.2148 114.86 80.7875 130.432 99.9973 130.432C119.207 130.432 134.78 114.859 134.78 95.6496C134.779 86.0441 130.886 77.3484 124.592 71.0547Z" fill="#FFDA44"/>
</svg>
