<svg width="200" height="200" viewBox="0 0 200 200" fill="none" xmlns="http://www.w3.org/2000/svg">
<path d="M100 200C155.228 200 200 155.228 200 100C200 44.7715 155.228 0 100 0C44.7715 0 0 44.7715 0 100C0 155.228 44.7715 200 100 200Z" fill="#F0F0F0"/>
<path d="M60.8738 65.2176H193.784C179.655 27.1375 143 0 100.004 0C72.3895 0 47.3922 11.1949 29.2969 29.2926L60.8738 65.2176Z" fill="#6DA544"/>
<path d="M60.8738 134.785H193.784C179.655 172.865 143 200.003 100.004 200.003C72.3895 200.003 47.3922 188.808 29.2969 170.71L60.8738 134.785Z" fill="#D80027"/>
<path d="M29.2893 29.2969C-9.76309 68.3492 -9.76309 131.666 29.2893 170.719C45.4271 154.581 60.9478 139.06 100 100.008L29.2893 29.2969Z" fill="#0052B4"/>
<path d="M117.383 82.6172V104.356C117.383 117.669 134.774 121.748 134.774 121.748C134.774 121.748 152.166 117.669 152.166 104.356V82.6172H117.383Z" fill="#DEDDE0"/>
<path d="M130.43 100.43H139.125V113.038H130.43V100.43Z" fill="#786145"/>
<path d="M143.477 95.6488C143.477 90.8461 139.584 86.9531 134.782 86.9531C129.979 86.9531 126.086 90.8461 126.086 95.6488C123.685 95.6488 121.738 97.5953 121.738 99.9965C121.738 102.398 123.685 104.344 126.086 104.344H143.477C145.879 104.344 147.825 102.398 147.825 99.9965C147.825 97.5953 145.879 95.6488 143.477 95.6488Z" fill="#6DA544"/>
</svg>
