<svg width="200" height="200" viewBox="0 0 200 200" fill="none" xmlns="http://www.w3.org/2000/svg">
<path d="M91.312 91.3086C91.312 91.3086 29.3555 170.729 29.2969 170.715C47.393 188.811 72.3933 200.004 100.008 200.004C155.236 200.004 200.008 155.232 200.008 100.004L91.312 91.3086Z" fill="#338AF3"/>
<path d="M91.312 100C91.312 100 29.3555 29.2754 29.2969 29.2895C47.393 11.193 72.3933 0 100.008 0C155.236 0 200.008 44.7719 200.008 100H91.312Z" fill="#6DA544"/>
<path d="M29.2892 29.2969C-9.76308 68.3492 -9.76308 131.666 29.2892 170.719C29.2865 170.735 200 100.008 200 100.008L29.2892 29.2969Z" fill="#D80027"/>
<path d="M52.1652 58.6914C32.9859 58.6914 17.3828 74.2949 17.3828 93.4738V106.517C17.3828 125.696 32.9863 141.3 52.1652 141.3C71.3441 141.3 86.9476 125.696 86.9476 106.517V93.4738C86.948 74.2949 71.3445 58.6914 52.1652 58.6914ZM73.9042 106.518C73.9042 116.233 67.4972 124.479 58.6867 127.256V113.039L67.9148 103.811L58.6918 94.5883L58.6867 91.3059V86.9527H45.6437V99.9957L36.4219 109.217L45.6437 118.439V127.256C36.8332 124.479 30.4262 116.234 30.4262 106.518V93.4746C30.4262 81.4875 40.1785 71.7355 52.1652 71.7355C64.1519 71.7355 73.9042 81.4879 73.9042 93.4746V106.518Z" fill="#FFDA44"/>
</svg>
