<svg width="200" height="200" viewBox="0 0 200 200" fill="none" xmlns="http://www.w3.org/2000/svg">
<path d="M0 99.9996C0 112.232 2.20039 123.95 6.22031 134.783L100 143.478L193.78 134.783C197.8 123.95 200 112.232 200 99.9996C200 87.9352 197.863 76.3699 193.948 65.6617L100 56.5215L6.05234 65.6621C2.13711 76.3699 0 87.9352 0 99.9996Z" fill="#FFDA44"/>
<path d="M99.991 200.003C142.987 200.003 179.642 172.865 193.771 134.785H6.21094C20.3402 172.865 56.9945 200.003 99.991 200.003Z" fill="#D80027"/>
<path d="M99.991 0C56.9945 0 20.3402 27.1375 6.21094 65.2176H193.771C179.642 27.1375 142.987 0 99.991 0Z" fill="#6DA544"/>
<path d="M99.9941 147.82C126.408 147.82 147.82 126.408 147.82 99.9941C147.82 73.5805 126.408 52.168 99.9941 52.168C73.5805 52.168 52.168 73.5805 52.168 99.9941C52.168 126.408 73.5805 147.82 99.9941 147.82Z" fill="#0052B4"/>
<path d="M99.9949 62.9688L108.629 89.5398H136.612L113.964 105.962L122.666 132.612L99.9949 116.112L77.359 132.582L86.0254 105.962L63.3984 89.5398H91.3613L99.9949 62.9688Z" fill="#FFDA44"/>
<path d="M134.433 106.605L107.044 97.7055L123.971 74.4086L116.936 69.2969L100.009 92.5953L83.0824 69.2973L76.0473 74.4082L92.9738 97.707L65.5859 106.605L68.2727 114.876L95.6617 105.977V134.775H104.357V105.977L131.745 114.876L134.433 106.605Z" fill="#FFDA44"/>
</svg>
