<svg width="200" height="200" viewBox="0 0 200 200" fill="none" xmlns="http://www.w3.org/2000/svg">
<path d="M100 200C155.228 200 200 155.228 200 100C200 44.7715 155.228 0 100 0C44.7715 0 0 44.7715 0 100C0 155.228 44.7715 200 100 200Z" fill="#0052B4"/>
<path d="M100.004 39.1211L103.242 49.0855H113.718L105.242 55.2437L108.48 65.2082L100.004 59.0496L91.5273 65.2082L94.7652 55.2437L86.2891 49.0855H96.766L100.004 39.1211Z" fill="#FFDA44"/>
<path d="M56.9676 56.968L66.3035 61.7242L73.7117 54.3164L72.0723 64.6641L81.4078 69.4207L71.0598 71.0598L69.4207 81.4082L64.6641 72.0727L54.3164 73.7121L61.7246 66.3039L56.9676 56.968Z" fill="#FFDA44"/>
<path d="M39.1406 100.004L49.1051 96.766V86.2891L55.2629 94.7656L65.2277 91.5277L59.0687 100.004L65.2277 108.48L55.2629 105.243L49.1051 113.719V103.242L39.1406 100.004Z" fill="#FFDA44"/>
<path d="M56.9676 143.034L61.7242 133.698L54.3164 126.289L64.6645 127.929L69.4203 118.594L71.0598 128.942L81.4074 130.581L72.073 135.338L73.7117 145.685L66.3035 138.277L56.9676 143.034Z" fill="#FFDA44"/>
<path d="M100.004 160.87L96.7656 150.905H86.2891L94.7656 144.747L91.5273 134.783L100.004 140.941L108.48 134.783L105.242 144.747L113.718 150.905H103.241L100.004 160.87Z" fill="#FFDA44"/>
<path d="M143.033 143.034L133.698 138.277L126.289 145.686L127.929 135.337L118.594 130.581L128.941 128.942L130.58 118.594L135.337 127.929L145.684 126.289L138.276 133.698L143.033 143.034Z" fill="#FFDA44"/>
<path d="M160.871 100.004L150.907 103.242V113.719L144.749 105.242L134.785 108.48L140.943 100.004L134.785 91.5277L144.749 94.7656L150.907 86.2891V96.7664L160.871 100.004Z" fill="#FFDA44"/>
<path d="M143.033 56.9676L138.277 66.3035L145.685 73.7117L135.336 72.0719L130.58 81.4074L128.941 71.0594L118.594 69.4199L127.929 64.6637L126.289 54.3164L133.698 61.7242L143.033 56.9676Z" fill="#FFDA44"/>
</svg>
