<svg width="200" height="200" viewBox="0 0 200 200" fill="none" xmlns="http://www.w3.org/2000/svg">
<path d="M200 100C200 155.228 155.228 200 100 200C44.7719 200 0 155.228 0 100C0 100.024 100 0.0109375 100 0C155.228 0 200 44.7719 200 100Z" fill="#0052B4"/>
<path d="M99.7266 99.9941H99.9941C99.9941 99.9043 99.9941 99.8168 99.9941 99.7266C99.9051 99.816 99.816 99.9051 99.7266 99.9941Z" fill="#F0F0F0"/>
<path d="M100 52.1738C100 34.5781 100 23.0488 100 0H99.9832C44.7625 0.009375 0 44.777 0 100H52.1738V70.6207L81.5535 100H99.7328L100 99.7324C100 92.9953 100 86.984 100 81.5539L70.6203 52.1738H100Z" fill="#F0F0F0"/>
<path d="M50.5953 13.0469C34.9551 21.9527 21.9527 34.9551 13.0469 50.5953V100.004H39.134V39.1348V39.134H100.004C100.004 30.9063 100.004 23.068 100.004 13.0469H50.5953Z" fill="#D80027"/>
<path d="M99.9938 87.6965L64.4652 52.168H52.168V52.1687L99.993 99.9938H99.9938C99.9938 99.9938 99.9938 91.5145 99.9938 87.6965Z" fill="#D80027"/>
<path d="M160.873 117.383V121.73H126.091V117.383H113.047V134.774H121.743V139.122H165.221V134.774H173.916V117.383H160.873Z" fill="#FFDA44"/>
<path d="M113.047 52.168V99.9941C113.047 123.291 143.482 130.429 143.482 130.429C143.482 130.429 173.916 123.291 173.916 99.9941V52.168H113.047Z" fill="#338AF3"/>
<path d="M143.48 87.8516C135.871 87.8516 135.871 94.8082 128.263 94.8082C120.655 94.8082 120.655 87.8516 113.047 87.8516V100.025C120.655 100.025 120.655 106.982 128.263 106.982C135.871 106.982 135.871 100.025 143.48 100.025C151.089 100.025 151.089 106.982 158.698 106.982C166.307 106.982 166.307 100.025 173.916 100.025V87.8516C166.307 87.8516 166.307 94.8082 158.698 94.8082C151.089 94.8082 151.089 87.8516 143.48 87.8516Z" fill="#F3F3F3"/>
<path d="M143.48 63.4785C135.871 63.4785 135.871 70.4352 128.263 70.4352C120.655 70.4352 120.655 63.4785 113.047 63.4785V75.6523C120.655 75.6523 120.655 82.609 128.263 82.609C135.871 82.609 135.871 75.6523 143.48 75.6523C151.089 75.6523 151.089 82.609 158.698 82.609C166.307 82.609 166.307 75.6523 173.916 75.6523V63.4785C166.307 63.4785 166.307 70.4352 158.698 70.4352C151.089 70.4352 151.089 63.4785 143.48 63.4785Z" fill="#F3F3F3"/>
</svg>
