<svg width="200" height="200" viewBox="0 0 200 200" fill="none" xmlns="http://www.w3.org/2000/svg">
<path d="M100 200C155.228 200 200 155.228 200 100C200 44.7715 155.228 0 100 0C44.7715 0 0 44.7715 0 100C0 155.228 44.7715 200 100 200Z" fill="#F0F0F0"/>
<path d="M195.644 99.9906L199.144 86.9473C198.563 82.5016 197.691 78.1469 196.547 73.9039H91.2961V0.371094C86.8586 0.753125 82.5051 1.42852 78.2527 2.37148L60.8613 13.034L52.1656 12.1562C47.5895 14.6531 43.2297 17.4969 39.1223 20.6527V73.9035H3.43672C2.29336 78.1465 1.42148 82.5012 0.840234 86.9469L4.33945 99.9906L0.839844 113.034C1.42109 117.48 2.29297 121.834 3.43633 126.077H39.1219V179.328C43.2293 182.484 47.5894 185.328 52.1652 187.825L65.2086 186.947L78.2519 197.609C82.5047 198.552 86.8582 199.227 91.2953 199.61V126.078H196.546C197.689 121.835 198.561 117.48 199.143 113.034L195.644 99.9906Z" fill="#0052B4"/>
<path d="M199.154 86.9625H78.2613L78.2609 2.38281C69.0195 4.43203 60.2582 7.75352 52.1738 12.1648V86.9621H0.846484C0.290625 91.232 0 95.5851 0 100.006C0 104.427 0.290625 108.78 0.846484 113.049H52.1734H52.1738V187.846C60.2582 192.257 69.0195 195.58 78.2609 197.629V113.05V113.05H199.154C199.709 108.78 200 104.427 200 100.006C200 95.5851 199.709 91.232 199.154 86.9625Z" fill="#D80027"/>
</svg>
