<svg width="200" height="200" viewBox="0 0 200 200" fill="none" xmlns="http://www.w3.org/2000/svg">
<path d="M200 100C200 155.228 155.228 200 100 200C44.7719 200 0 155.228 0 100C0 100.024 100 0.0109375 100 0C155.228 0 200 44.7719 200 100Z" fill="#338AF3"/>
<path d="M99.9973 47.832V81.5598L65.2148 47.832H99.9973Z" fill="#0052B4"/>
<path d="M52.1797 100.009H81.5594L52.1797 60.8789L47.832 91.3137L52.1797 100.009Z" fill="#0052B4"/>
<path d="M99.7266 99.9941H99.9941C99.9941 99.9043 99.9941 99.8168 99.9941 99.7266C99.9051 99.816 99.816 99.9051 99.7266 99.9941Z" fill="#F0F0F0"/>
<path d="M100 52.1738C100 34.5781 100 23.0488 100 0H99.9832C44.7625 0.009375 0 44.777 0 100H52.1738V70.6207L81.5535 100H99.7332C99.8223 99.9109 99.9113 99.8219 100.001 99.7324C100.001 92.9953 100.001 86.984 100.001 81.5539L70.6203 52.1738H100Z" fill="#F0F0F0"/>
<path d="M50.5953 13.0469C34.9551 21.9527 21.9527 34.9551 13.0469 50.5953V100.004H39.134V39.1348V39.134H100.004C100.004 30.9063 100.004 23.068 100.004 13.0469H50.5953Z" fill="#D80027"/>
<path d="M99.9938 87.6965L64.4652 52.168H52.168V52.1687L99.993 99.9938H99.9938C99.9938 99.9938 99.9938 91.5145 99.9938 87.6965Z" fill="#D80027"/>
<path d="M113.047 65.2172V99.9992C113.047 123.296 143.482 130.434 143.482 130.434C143.482 130.434 173.916 123.296 173.916 99.9992V65.2172L143.482 56.5215L113.047 65.2172Z" fill="#F3F3F3"/>
<path d="M173.916 65.2113V52.168H113.047V65.2113H139.133V91.2988H113.047V99.9938V99.9945L139.133 99.9949V129.095C141.757 130.023 143.482 130.429 143.482 130.429C143.482 130.429 145.205 130.024 147.829 129.095V99.9945H173.916V99.9938V91.2984H147.829V65.2109H173.916V65.2113Z" fill="#D80027"/>
</svg>
