<svg width="200" height="200" viewBox="0 0 200 200" fill="none" xmlns="http://www.w3.org/2000/svg">
<path d="M100 200C155.228 200 200 155.228 200 100C200 44.7715 155.228 0 100 0C44.7715 0 0 44.7715 0 100C0 155.228 44.7715 200 100 200Z" fill="#F0F0F0"/>
<path d="M199.154 86.9625H78.2613L78.2609 2.38281C69.0195 4.43203 60.2582 7.75352 52.1738 12.1648V86.9617V86.9621H0.846484C0.289844 91.232 0 95.5851 0 100.006C0 104.427 0.289844 108.78 0.846484 113.049H52.1734H52.1738V187.846C60.2582 192.257 69.0195 195.58 78.2609 197.629V113.05V113.05H199.154C199.709 108.78 200 104.427 200 100.006C200 95.5851 199.709 91.232 199.154 86.9625Z" fill="#0052B4"/>
</svg>
