<svg width="200" height="200" viewBox="0 0 200 200" fill="none" xmlns="http://www.w3.org/2000/svg">
<path d="M100 200C155.228 200 200 155.228 200 100C200 44.7715 155.228 0 100 0C44.7715 0 0 44.7715 0 100C0 155.228 44.7715 200 100 200Z" fill="#F0F0F0"/>
<path d="M12.1587 52.1738H187.84C170.88 21.0895 137.904 0 99.9997 0C62.0954 0 29.1192 21.0895 12.1587 52.1738Z" fill="#D80027"/>
<path d="M99.9992 200.006C137.904 200.006 170.88 178.916 187.84 147.832H12.1582C29.1188 178.916 62.0949 200.006 99.9992 200.006Z" fill="#D80027"/>
<path d="M134.78 99.9973C134.78 119.207 119.207 130.432 99.9973 130.432C80.7875 130.432 65.2148 119.207 65.2148 99.9973C65.2148 80.7871 80.7875 65.2148 99.9973 65.2148C119.207 65.2148 134.78 80.7871 134.78 99.9973Z" fill="#FFDA44"/>
<path d="M134.78 100C134.78 119.21 119.207 134.782 99.9973 134.782C80.7875 134.782 65.2148 119.21 65.2148 100" fill="#0052B4"/>
<path d="M78.2617 91.3086H86.9574V108.7H78.2617V91.3086Z" fill="#D80027"/>
<path d="M113.047 91.3086H121.743V108.7H113.047V91.3086Z" fill="#D80027"/>
<path d="M95.6543 78.2617H104.35V108.696H95.6543V78.2617Z" fill="#D80027"/>
</svg>
