<svg width="200" height="200" viewBox="0 0 200 200" fill="none" xmlns="http://www.w3.org/2000/svg">
<path d="M193.78 134.782C197.8 123.949 200 112.232 200 99.9996C200 87.7676 197.8 76.0508 193.78 65.2172L100 56.5215L6.21992 65.2172C2.20039 76.0508 0 87.7676 0 99.9996C0 112.232 2.20039 123.949 6.21992 134.782L100 143.478L193.78 134.782Z" fill="#FFDA44"/>
<path d="M99.9914 200.003C142.988 200.003 179.642 172.865 193.771 134.785H6.21094C20.3406 172.865 56.9945 200.003 99.9914 200.003Z" fill="#0052B4"/>
<path d="M99.9914 0C56.9945 0 20.3406 27.1375 6.21094 65.2176H193.771C179.642 27.1375 142.988 0 99.9914 0Z" fill="#6DA544"/>
</svg>
