<svg width="200" height="200" viewBox="0 0 200 200" fill="none" xmlns="http://www.w3.org/2000/svg">
<path d="M100 200C155.228 200 200 155.228 200 100C200 44.7715 155.228 0 100 0C44.7715 0 0 44.7715 0 100C0 155.228 44.7715 200 100 200Z" fill="#F0F0F0"/>
<path d="M99.9999 0C58.6581 0 23.1784 25.0883 7.9483 60.8695H192.052C176.822 25.0883 141.342 0 99.9999 0Z" fill="#A2001D"/>
<path d="M100.001 199.991C141.343 199.991 176.823 174.902 192.052 139.121H7.94922C23.1793 174.902 58.659 199.991 100.001 199.991Z" fill="#496E2D"/>
<path d="M196.555 73.9062H3.44492C1.20313 82.2238 0 90.9672 0 99.9934C0 109.02 1.20313 117.763 3.44492 126.08H196.555C198.797 117.763 200 109.02 200 99.9934C200 90.9672 198.797 82.2238 196.555 73.9062Z" fill="#0052B4"/>
</svg>
