<svg width="200" height="200" viewBox="0 0 200 200" fill="none" xmlns="http://www.w3.org/2000/svg">
<path d="M100 200C155.228 200 200 155.228 200 100C200 44.7715 155.228 0 100 0C44.7715 0 0 44.7715 0 100C0 155.228 44.7715 200 100 200Z" fill="#F0F0F0"/>
<path d="M199.154 86.9566H113.044H113.044V0.846484C108.774 0.290625 104.421 0 100 0C95.5793 0 91.2262 0.290625 86.9566 0.846484V86.9559V86.9563H0.846484C0.290625 91.2262 0 95.5793 0 100C0 104.421 0.290625 108.774 0.846484 113.043H86.9559H86.9563V199.154C91.2262 199.709 95.5793 200 100 200C104.421 200 108.774 199.71 113.043 199.154V113.044V113.044H199.154C199.709 108.774 200 104.421 200 100C200 95.5793 199.709 91.2262 199.154 86.9566Z" fill="#D80027"/>
<path d="M60.8723 47.8289V34.7852H47.8289V47.8289H34.7852V60.8723H47.8289V73.9156H60.8723V60.8723H73.9156V47.8289H60.8723Z" fill="#D80027"/>
<path d="M152.18 47.8289V34.7852H139.137V47.8289H126.094V60.8723H139.137V73.9156H152.18V60.8723H165.224V47.8289H152.18Z" fill="#D80027"/>
<path d="M60.8723 139.137V126.094H47.8289V139.137H34.7852V152.18H47.8289V165.224H60.8723V152.18H73.9156V139.137H60.8723Z" fill="#D80027"/>
<path d="M152.18 139.137V126.094H139.137V139.137H126.094V152.18H139.137V165.224H152.18V152.18H165.224V139.137H152.18Z" fill="#D80027"/>
</svg>
