<svg width="200" height="200" viewBox="0 0 200 200" fill="none" xmlns="http://www.w3.org/2000/svg">
<path d="M6.21094 134.789C20.3402 172.869 56.9945 200.007 99.991 200.007C142.987 200.007 179.642 172.869 193.771 134.789L99.991 126.094L6.21094 134.789Z" fill="#FFDA44"/>
<path d="M99.991 0C56.9945 0 20.3402 27.1375 6.21094 65.2175L99.991 73.9129L193.771 65.2172C179.642 27.1375 142.987 0 99.991 0Z" fill="black"/>
<path d="M6.21992 65.2148C2.20039 76.048 0 87.7652 0 99.9972C0 112.229 2.20039 123.946 6.21992 134.78H193.78C197.8 123.946 200 112.229 200 99.9972C200 87.7652 197.8 76.048 193.78 65.2148H6.21992Z" fill="#D80027"/>
</svg>
