<svg width="200" height="200" viewBox="0 0 200 200" fill="none" xmlns="http://www.w3.org/2000/svg">
<path d="M100 200C155.228 200 200 155.228 200 100C200 44.7715 155.228 0 100 0C44.7715 0 0 44.7715 0 100C0 155.228 44.7715 200 100 200Z" fill="#F9F9F9"/>
<path d="M99.9914 200.003C142.988 200.003 179.642 172.865 193.771 134.785H6.21094C20.3406 172.865 56.9945 200.003 99.9914 200.003Z" fill="#D80027"/>
<path d="M139.125 82.6059V69.5625H143.472V60.8668H134.777V65.2148H126.081V60.8668H117.386V69.5625H121.733V82.6059H113.037V52.1719H117.386V43.4766H108.69V47.8234H104.342V43.4766H95.6465V47.8234H91.2984V43.4766H82.6027V52.1719H86.9508V82.6059H78.2551V69.5625H82.6027V60.8668H73.907V65.2148H65.2117V60.8668H56.516V69.5625H60.8637V82.6059H52.168V117.389H147.82V82.6059H139.125Z" fill="#D80027"/>
<path d="M100.008 113.047C92.8047 113.047 86.9648 118.887 86.9648 126.09C86.9648 131.768 90.5953 136.598 95.6605 138.389V156.525H82.6172V173.917H104.356V138.389C109.421 136.598 113.052 131.769 113.052 126.091C113.052 118.887 107.212 113.047 100.008 113.047ZM100.008 130.438C97.607 130.438 95.6605 128.491 95.6605 126.091C95.6605 123.689 97.607 121.743 100.008 121.743C102.409 121.743 104.356 123.689 104.356 126.091C104.356 128.491 102.409 130.438 100.008 130.438Z" fill="#FFDA44"/>
</svg>
