<svg width="200" height="200" viewBox="0 0 200 200" fill="none" xmlns="http://www.w3.org/2000/svg">
<path d="M100 200C155.228 200 200 155.228 200 100C200 44.7715 155.228 0 100 0C44.7715 0 0 44.7715 0 100C0 155.228 44.7715 200 100 200Z" fill="#F0F0F0"/>
<path d="M100 73.9191H196.555C194.048 64.6168 190.237 55.8508 185.323 47.832H100V73.9191Z" fill="#338AF3"/>
<path d="M37.7418 178.255H162.239C171.365 170.986 179.192 162.157 185.313 152.168H14.668C20.7895 162.157 28.616 170.986 37.7418 178.255Z" fill="#338AF3"/>
<path d="M34.773 24.1992C26.9113 30.9691 20.1148 38.9414 14.668 47.8305H34.773V24.1992Z" fill="#338AF3"/>
<path d="M100 99.9934C100 89.8074 100 81.2828 100 73.9062H60.8695V99.9934H34.7824V73.9062H3.44492C1.20313 82.2242 0 90.9672 0 99.9934C0 109.02 1.20313 117.762 3.44492 126.08H196.555C198.797 117.762 200 109.02 200 99.9934H100Z" fill="#338AF3"/>
<path d="M100.009 0C86.123 0 72.8984 2.8332 60.8789 7.94844V47.8262H100.009C100.009 38.7199 100.009 30.975 100.009 21.7391H162.258C145.176 8.13438 123.544 0 100.009 0Z" fill="#338AF3"/>
</svg>
