<svg width="200" height="200" viewBox="0 0 200 200" fill="none" xmlns="http://www.w3.org/2000/svg">
<path d="M0 100C0 44.7719 44.7719 0 100 0C155.228 0 200 44.7719 200 100C195.652 100 100 113.043 100 113.043L0 100Z" fill="#F0F0F0"/>
<path d="M200 100C200 155.228 155.228 200 100 200C44.7719 200 0 155.228 0 100" fill="#D80027"/>
<path d="M69.5645 147.82C95.9781 147.82 117.391 126.408 117.391 99.9941C117.391 73.5805 95.9781 52.168 69.5645 52.168C43.1508 52.168 21.7383 73.5805 21.7383 99.9941C21.7383 126.408 43.1508 147.82 69.5645 147.82Z" fill="#F0F0F0"/>
<path d="M21.7383 99.9941C21.7383 73.5813 43.1508 52.168 69.5645 52.168C95.9785 52.168 117.391 73.5809 117.391 99.9941" fill="#D80027"/>
</svg>
