<svg width="200" height="200" viewBox="0 0 200 200" fill="none" xmlns="http://www.w3.org/2000/svg">
<path d="M99.9999 200C155.228 200 200 155.228 200 100C200 44.7715 155.228 0 99.9999 0C44.7715 0 0 44.7715 0 100C0 155.228 44.7715 200 99.9999 200Z" fill="#FFDA44"/>
<path d="M43.6328 17.3914C59.6816 6.42031 79.0871 0 99.9949 0C120.903 0 140.308 6.42031 156.357 17.3914L99.9949 21.7391L43.6328 17.3914Z" fill="#A2001D"/>
<path d="M99.9906 99.9953L93.6086 93.6133L91.9141 96.6488L99.9906 99.9953Z" fill="#0052B4"/>
<path d="M29.2892 29.2969C-9.76308 68.3492 -9.76308 131.666 29.2892 170.719C45.4271 154.581 60.9478 139.06 100 100.008L29.2892 29.2969Z" fill="#496E2D"/>
<path d="M170.711 29.2969C209.763 68.3492 209.763 131.666 170.711 170.719C154.573 154.581 139.052 139.06 100 100.008L170.711 29.2969Z" fill="#496E2D"/>
<path d="M99.9972 134.78C119.207 134.78 134.78 119.207 134.78 99.9972C134.78 80.7875 119.207 65.2148 99.9972 65.2148C80.7874 65.2148 65.2148 80.7875 65.2148 99.9972C65.2148 119.207 80.7874 134.78 99.9972 134.78Z" fill="#A2001D"/>
<path d="M100.002 65.2148L107.798 89.2105H133.032L112.619 104.044L120.415 128.041L100.002 113.21L79.5879 128.041L87.3859 104.044L66.9727 89.2105H92.2047L100.002 65.2148Z" fill="#FFDA44"/>
<path d="M100.034 0H99.9669C72.3681 0.00898437 47.3833 11.1977 29.2947 29.2844H170.706C152.617 11.1977 127.632 0.00898437 100.034 0Z" fill="#A2001D"/>
<path d="M29.2969 170.723C47.393 188.816 72.3906 200.007 100.002 200.007C127.613 200.007 152.611 188.816 170.707 170.723H29.2969Z" fill="#A2001D"/>
<path d="M100.002 10.8789L101.621 15.8609H106.859L102.621 18.9402L104.241 23.9223L100.002 20.8434L95.7641 23.9223L97.3832 18.9402L93.1445 15.8609H98.3828L100.002 10.8789Z" fill="#FFDA44"/>
<path d="M75.7441 10.8789L77.3633 15.8609H82.6015L78.3637 18.9402L79.9828 23.9223L75.7441 20.8434L71.5066 23.9223L73.1254 18.9402L68.8867 15.8609H74.125L75.7441 10.8789Z" fill="#FFDA44"/>
<path d="M124.24 10.8789L125.859 15.8609H131.098L126.86 18.9402L128.479 23.9223L124.24 20.8434L120.002 23.9223L121.621 18.9402L117.383 15.8609H122.621L124.24 10.8789Z" fill="#FFDA44"/>
<path d="M100.002 176.094L101.621 181.076H106.859L102.621 184.155L104.241 189.137L100.002 186.058L95.7641 189.137L97.3832 184.155L93.1445 181.076H98.3828L100.002 176.094Z" fill="#FFDA44"/>
<path d="M75.7441 176.094L77.3633 181.076H82.6015L78.3637 184.155L79.9828 189.137L75.7441 186.058L71.5066 189.137L73.1254 184.155L68.8867 181.076H74.125L75.7441 176.094Z" fill="#FFDA44"/>
<path d="M124.24 176.094L125.859 181.076H131.098L126.86 184.155L128.479 189.137L124.24 186.058L120.002 189.137L121.621 184.155L117.383 181.076H122.621L124.24 176.094Z" fill="#FFDA44"/>
<path d="M30.4736 98.3445C33.0419 102.403 31.8349 107.774 27.7767 110.343C23.7189 112.912 18.347 111.705 15.7783 107.646C11.1279 100.3 13.8244 88.3008 13.8244 88.3008C13.8244 88.3008 25.8228 90.9973 30.4736 98.3445Z" fill="#FFDA44"/>
<path d="M25.4414 111.021C27.8425 111.021 29.7891 109.075 29.7891 106.674C29.7891 104.273 27.8425 102.326 25.4414 102.326C23.0403 102.326 21.0938 104.273 21.0938 106.674C21.0938 109.075 23.0403 111.021 25.4414 111.021Z" fill="#A2001D"/>
</svg>
