<svg width="200" height="200" viewBox="0 0 200 200" fill="none" xmlns="http://www.w3.org/2000/svg">
<path d="M43.6328 182.602C59.6812 193.573 79.0875 199.993 99.9949 199.993C120.902 199.993 140.308 193.573 156.357 182.602L99.9949 173.906L43.6328 182.602Z" fill="#D80027"/>
<path d="M156.357 17.3914C140.308 6.42071 120.902 0 99.9949 0C79.0875 0 59.6812 6.42071 43.6328 17.3914L99.9949 26.0871L156.357 17.3914Z" fill="#D80027"/>
<path d="M200 99.9914C200 66.9016 180.189 33.6711 156.362 17.3828H43.6379C17.293 35.3922 0 65.6711 0 99.9914C0 134.313 17.293 164.591 43.6379 182.6H156.362C182.707 164.591 200 134.313 200 99.9914Z" fill="#0052B4"/>
<path d="M94.3504 163.13C92.984 161.958 60.8789 134.048 60.8789 100.006C60.8789 65.9633 92.9836 38.0535 94.3504 36.882L100.009 32.0312L105.668 36.8816C107.035 38.0535 139.14 65.9629 139.14 100.006C139.14 134.049 107.035 161.959 105.668 163.13L100.009 167.981L94.3504 163.13Z" fill="#D80027"/>
<path d="M130.44 100C130.44 69.5656 100.005 43.4785 100.005 43.4785C100.005 43.4785 69.5703 69.5664 69.5703 100C69.5703 109.311 72.4207 118.213 76.3746 126.088H123.636C127.589 118.213 130.44 109.311 130.44 100Z" fill="#338AF3"/>
<path d="M130.44 100C130.44 109.311 127.589 118.213 123.636 126.087L100.005 130.435L76.3746 126.087C72.4207 118.213 69.5703 109.311 69.5703 100H130.44Z" fill="#0052B4"/>
<path d="M99.9977 156.529C99.9977 156.529 114.657 143.959 123.628 126.094H76.3672C85.3383 143.959 99.9977 156.529 99.9977 156.529Z" fill="#FFDA44"/>
<path d="M80.4297 82.6172H119.56L99.9949 102.182L80.4297 82.6172Z" fill="#6DA544"/>
<path d="M93.4766 95.6445H106.52V134.775H93.4766V95.6445Z" fill="#A2001D"/>
</svg>
