<svg width="200" height="200" viewBox="0 0 200 200" fill="none" xmlns="http://www.w3.org/2000/svg">
<path d="M99.9999 200C155.228 200 200 155.228 200 100C200 44.7715 155.228 0 99.9999 0C44.7715 0 0 44.7715 0 100C0 155.228 44.7715 200 99.9999 200Z" fill="#F0F0F0"/>
<path d="M199.998 99.9992C199.998 60.3531 176.926 26.0969 143.477 9.92188V190.076C176.926 173.902 199.998 139.645 199.998 99.9992Z" fill="#338AF3"/>
<path d="M0 99.9992C0 139.645 23.0722 173.902 56.5218 190.077V9.92188C23.0722 26.0969 0 60.3531 0 99.9992Z" fill="#338AF3"/>
<path d="M126.132 116.914L109.223 100.006L125.318 83.9102L124.589 75.4094L119.981 70.8008L99.9996 90.782L80.0184 70.8008L75.4105 75.4094L74.6812 83.9102L90.7761 100.006L73.8672 116.914L83.0906 126.137L99.9996 109.229L116.909 126.137L126.132 116.914Z" fill="#ACABB1"/>
<path d="M124.592 75.4102L115.369 84.6332C119.303 88.5672 121.737 94.002 121.737 100.005C121.737 112.011 112.003 121.744 99.9976 121.744C87.9918 121.744 78.2582 112.011 78.2582 100.005C78.2582 94.002 80.6918 88.5672 84.6258 84.6332L75.4027 75.4102C69.1078 81.7039 65.2148 90.3996 65.2148 100.005C65.2148 119.215 80.7875 134.787 99.9972 134.787C119.207 134.787 134.78 119.215 134.78 100.005C134.78 90.4 130.887 81.7043 124.592 75.4102Z" fill="#6DA544"/>
</svg>
