<svg width="200" height="200" viewBox="0 0 200 200" fill="none" xmlns="http://www.w3.org/2000/svg">
<path d="M134.792 6.22031C123.959 2.20039 112.241 0 100.009 0C87.777 0 76.0598 2.20039 65.227 6.21953L60.8789 100L65.2266 193.78C76.0598 197.8 87.777 200 100.009 200C112.241 200 123.959 197.8 134.792 193.78L139.14 100L134.792 6.22031Z" fill="#FFDA44"/>
<path d="M0 99.9914C0 142.988 27.1375 179.642 65.2176 193.771V6.21094C27.1375 20.3406 0 56.9945 0 99.9914Z" fill="#D80027"/>
<path d="M200.003 99.9914C200.003 56.9945 172.865 20.3406 134.785 6.21094V193.771C172.865 179.642 200.003 142.988 200.003 99.9914Z" fill="#6DA544"/>
</svg>
