<svg width="200" height="200" viewBox="0 0 200 200" fill="none" xmlns="http://www.w3.org/2000/svg">
<path d="M99.9973 0C90.9715 0 82.2277 1.20313 73.9102 3.44492L65.2148 100L73.9105 196.555C82.2277 198.797 90.9715 200 99.9973 200C155.225 200 199.997 155.228 199.997 100C199.997 44.7719 155.225 0 99.9973 0Z" fill="#FFDA44"/>
<path d="M65.2148 100L73.9105 196.555C82.2277 198.797 90.9715 200 99.9973 200C155.225 200 199.997 155.228 199.997 100H65.2148Z" fill="#6DA544"/>
<path d="M0 100.009C0 137.913 21.0898 170.89 52.1738 187.85V12.168C21.0898 29.1281 0 62.1047 0 100.009Z" fill="#D80027"/>
<path d="M0 99.9926C0 146.195 31.3363 185.073 73.9129 196.548V3.4375C31.3363 14.9125 0 53.7898 0 99.9926Z" fill="#D80027"/>
<path d="M37.7809 73.9062L44.2555 93.8344H65.2109L48.2586 106.152L54.7328 126.08L37.7809 113.764L20.8281 126.08L27.3039 106.152L10.3516 93.8344H31.3059L37.7809 73.9062Z" fill="black"/>
</svg>
