<svg width="200" height="200" viewBox="0 0 200 200" fill="none" xmlns="http://www.w3.org/2000/svg">
<path d="M100 200C155.229 200 200 155.228 200 100C200 44.7715 155.229 0 100 0C44.7719 0 0.000488281 44.7715 0.000488281 100C0.000488281 155.228 44.7719 200 100 200Z" fill="#F0F0F0"/>
<path d="M100.004 0C82.3242 0 65.7195 4.59453 51.3086 12.6453V187.355C65.7199 195.405 82.3242 200 100.004 200C155.232 200 200.004 155.228 200.004 100C200.004 44.7719 155.232 0 100.004 0Z" fill="#6DA544"/>
<path d="M51.5949 12.4805C45.3039 15.9668 39.4297 20.1105 34.0629 24.8215C34.6055 24.3457 35.1535 23.8754 35.7059 23.4113L112.294 99.9996L35.7055 176.588C35.1527 176.124 34.6051 175.654 34.0625 175.178C39.4293 179.889 45.3039 184.032 51.5945 187.519L199.996 99.9996L51.5949 12.4805Z" fill="#F0F0F0"/>
<path d="M43.1547 17.7344C40.1051 19.8461 37.1762 22.1184 34.3852 24.5469L100.002 100.007L34.3848 175.467C37.1758 177.896 40.1047 180.168 43.1543 182.28L182.884 100.007L43.1547 17.7344Z" fill="#FFDA44"/>
<path d="M35.707 23.418C33.484 25.2859 31.3387 27.2441 29.2871 29.2953L91.3022 100.006L29.2871 170.717C31.3387 172.769 33.4836 174.727 35.707 176.595L112.295 100.006L35.707 23.418Z" fill="black"/>
<path d="M29.2892 29.2969C-9.76307 68.3492 -9.76307 131.666 29.2892 170.719C45.4271 154.581 60.9477 139.06 100 100.008L29.2892 29.2969Z" fill="#D80027"/>
</svg>
