<svg width="200" height="200" viewBox="0 0 200 200" fill="none" xmlns="http://www.w3.org/2000/svg">
<path d="M200 100C200 155.228 155.228 200 100 200C44.7719 200 0 155.228 0 100C0 44.7719 100 0 100 0C100 0 200 44.7719 200 100Z" fill="#A2001D"/>
<path d="M0 100C0 44.7719 44.7719 0 100 0C155.228 0 200 44.7719 200 100" fill="#0052B4"/>
<path d="M134.78 126.08L99.9973 121.732L65.2148 126.08V73.9062H134.78V126.08Z" fill="#F0F0F0"/>
<path d="M99.9988 121.736C109.604 121.736 117.39 113.95 117.39 104.345C117.39 94.7395 109.604 86.9531 99.9988 86.9531C90.3938 86.9531 82.6074 94.7395 82.6074 104.345C82.6074 113.95 90.3938 121.736 99.9988 121.736Z" fill="#0052B4"/>
<path d="M100.004 113.036C104.807 113.036 108.7 109.143 108.7 104.34C108.7 99.5377 104.807 95.6445 100.004 95.6445C95.2018 95.6445 91.3086 99.5377 91.3086 104.34C91.3086 109.143 95.2018 113.036 100.004 113.036Z" fill="#A2001D"/>
<path d="M86.9531 82.6172H113.04L99.9965 95.6609L86.9531 82.6172Z" fill="#6DA544"/>
<path d="M95.6543 91.3086H104.35V117.396H95.6543V91.3086Z" fill="#FFDA44"/>
<path d="M113.91 114.785H86.0836L65.2148 126.09H134.78L113.91 114.785Z" fill="#6DA544"/>
</svg>
