<svg width="200" height="200" viewBox="0 0 200 200" fill="none" xmlns="http://www.w3.org/2000/svg">
<path d="M100 200C155.228 200 200 155.228 200 100C200 44.7715 155.228 0 100 0C44.7715 0 0 44.7715 0 100C0 155.228 44.7715 200 100 200Z" fill="#F0F0F0"/>
<path d="M100.002 200C125.361 200 148.51 190.556 166.138 175H33.8672C51.4949 190.556 74.6441 200 100.002 200Z" fill="#D80027"/>
<path d="M3.14453 124.991C5.42773 133.861 8.89883 142.253 13.3754 149.991H186.613C191.089 142.253 194.56 133.861 196.843 124.991L99.9941 117.383L3.14453 124.991Z" fill="#0052B4"/>
<path d="M196.853 75C194.57 66.1305 191.099 57.7383 186.622 50L100.004 47.8262C100.004 30.3602 100.004 13.8535 100.004 0C92.575 0 85.3351 0.810547 78.3684 2.34687C78.2348 2.37656 13.0469 53.7961 13.0469 100C14.7137 100.29 100.004 108.696 100.004 108.696C100.004 108.696 100.004 89.6484 100.004 75H196.853Z" fill="#0052B4"/>
<path d="M100 62.3816V12.3816H68.3301L78.368 2.34375C37.1605 11.432 5.49844 45.9336 0.652344 88.5773C0.226562 92.3234 0 96.1301 0 99.9902H50.6523V80.0594L70.7805 99.9902H106.556L68.3297 62.3816H100Z" fill="#F0F0F0"/>
<path d="M100.046 100.01L62.4371 62.4012H50.6523V62.4016L88.2605 100.01H38.0434V50.0098H186.619C181.174 40.5984 174.238 32.1594 166.136 25.0098H38.0434V21.5234C27.9543 29.4988 19.4418 39.377 13.0434 50.6168V100.01H0C0 108.642 1.09375 117.02 3.15039 125.01H196.85C198.906 117.019 200 108.642 200 100.01H100.046Z" fill="#D80027"/>
</svg>
