<svg width="200" height="200" viewBox="0 0 200 200" fill="none" xmlns="http://www.w3.org/2000/svg">
<path d="M100 200C155.228 200 200 155.228 200 100C200 44.7715 155.228 0 100 0C44.7715 0 0 44.7715 0 100C0 155.228 44.7715 200 100 200Z" fill="#F0F0F0"/>
<path d="M99.9992 200C139.645 200 173.902 176.928 190.077 143.479H9.92188C26.0969 176.928 60.3531 200 99.9992 200Z" fill="#338AF3"/>
<path d="M100 0C60.3541 0 26.0979 23.0723 9.92285 56.5218H190.077C173.903 23.0723 139.646 0 100 0Z" fill="#338AF3"/>
<path d="M61.5469 65.2148L64.7844 75.1793H75.2613L66.7855 81.3371L70.0234 91.3015L61.5469 85.1433L53.0703 91.3015L56.3082 81.3371L47.832 75.1793H58.309L61.5469 65.2148Z" fill="#338AF3"/>
<path d="M61.5469 108.691L64.7844 118.656H75.2613L66.7855 124.814L70.0234 134.778L61.5469 128.62L53.0703 134.778L56.3082 124.814L47.832 118.656H58.309L61.5469 108.691Z" fill="#338AF3"/>
<path d="M138.461 65.2148L141.699 75.1793H152.176L143.7 81.3371L146.937 91.3015L138.461 85.1433L129.984 91.3015L133.222 81.3371L124.746 75.1793H135.223L138.461 65.2148Z" fill="#338AF3"/>
<path d="M138.461 108.691L141.699 118.656H152.176L143.7 124.814L146.937 134.778L138.461 128.62L129.984 134.778L133.222 124.814L124.746 118.656H135.223L138.461 108.691Z" fill="#338AF3"/>
<path d="M100.004 86.9531L103.242 96.918H113.719L105.243 103.076L108.48 113.04L100.004 106.882L91.5273 113.04L94.7652 103.076L86.2891 96.918H96.766L100.004 86.9531Z" fill="#338AF3"/>
</svg>
