<svg width="200" height="200" viewBox="0 0 200 200" fill="none" xmlns="http://www.w3.org/2000/svg">
<path d="M100 200C155.228 200 200 155.228 200 100C200 44.7715 155.228 0 100 0C44.7715 0 0 44.7715 0 100C0 155.228 44.7715 200 100 200Z" fill="#D80027"/>
<path d="M110.326 75.6596C108.053 85.1123 104.015 83.3096 102.034 91.5534C90.3608 88.7467 83.1717 77.0084 85.9784 65.3346C88.7838 53.6616 100.523 46.4725 112.197 49.2791C108.233 65.7662 112.359 67.2053 110.326 75.6596Z" fill="#F0F0F0"/>
<path d="M80.0264 82.6648C88.3143 87.7469 85.3518 91.0309 92.5792 95.4633C86.3026 105.698 72.9178 108.907 62.6827 102.631C52.4479 96.3547 49.2382 82.9691 55.5147 72.7344C69.9702 81.5984 72.6128 78.1191 80.0264 82.6648Z" fill="#F0F0F0"/>
<path d="M77.3305 113.63C84.7254 107.318 86.932 111.15 93.3809 105.646C101.176 114.778 100.091 128.5 90.9602 136.295C81.8281 144.09 68.1062 143.004 60.3125 133.873C73.2086 122.864 70.716 119.275 77.3305 113.63Z" fill="#F0F0F0"/>
<path d="M105.954 125.777C102.236 116.793 106.562 115.878 103.32 108.045C114.414 103.454 127.129 108.725 131.721 119.818C136.312 130.911 131.04 143.627 119.946 148.218C113.463 132.55 109.28 133.812 105.954 125.777Z" fill="#F0F0F0"/>
<path d="M126.34 102.296C116.647 103.056 117.113 98.658 108.661 99.3213C107.723 87.353 116.666 76.8877 128.635 75.9483C140.604 75.0112 151.068 83.9534 152.007 95.9229C135.102 97.2483 135.008 101.617 126.34 102.296Z" fill="#F0F0F0"/>
</svg>
