<svg width="200" height="200" viewBox="0 0 200 200" fill="none" xmlns="http://www.w3.org/2000/svg">
<path d="M100 200C155.228 200 200 155.228 200 100C200 44.7715 155.228 0 100 0C44.7715 0 0 44.7715 0 100C0 155.228 44.7715 200 100 200Z" fill="#F0F0F0"/>
<path d="M132.471 73.9066H119.388C119.496 75.3445 119.557 76.7953 119.557 78.2543C119.557 87.9277 117.139 97.3039 112.924 103.978C111.624 106.037 109.439 108.944 106.514 110.905V73.9062H93.4703V110.905C90.5457 108.944 88.3602 106.037 87.0598 103.978C82.8441 97.3039 80.4266 87.9277 80.4266 78.2543C80.4266 76.7953 80.4883 75.3441 80.5961 73.9066H67.5125C67.4285 75.3375 67.3828 76.7867 67.3828 78.2543C67.3828 105.073 81.7062 126.08 99.9914 126.08C118.277 126.08 132.6 105.073 132.6 78.2543C132.601 76.7867 132.555 75.3375 132.471 73.9066Z" fill="#D80027"/>
<path d="M41.3044 47.8261H54.3478V56.5218H67.3911V47.8261H80.4345V56.5218H93.4779V47.8261H106.521V56.5218H119.565V47.8261H132.608V56.5218H145.651V47.8261H158.695V56.5218H190.076C173.902 23.0723 139.646 0 100 0C60.3544 0 26.0978 23.0723 9.92279 56.5218H41.3044V47.8261Z" fill="#6DA544"/>
<path d="M158.695 143.479V152.174H145.652V143.479H132.608V152.174H119.565V143.479H106.521V152.174H93.4781V143.479H80.4348V152.174H67.3914V143.479H54.3469V152.174H41.3035V143.479H9.92188C26.0969 176.928 60.3531 200 99.9992 200C139.645 200 173.902 176.928 190.077 143.479H158.695Z" fill="#D80027"/>
</svg>
