<svg width="200" height="200" viewBox="0 0 200 200" fill="none" xmlns="http://www.w3.org/2000/svg">
<path d="M100 200C155.228 200 200 155.228 200 100C200 44.7715 155.228 0 100 0C44.7715 0 0 44.7715 0 100C0 155.228 44.7715 200 100 200Z" fill="#F0F0F0"/>
<path d="M99.991 0C56.9945 0 20.3402 27.1375 6.21094 65.2176H193.771C179.642 27.1375 142.987 0 99.991 0Z" fill="#A2001D"/>
<path d="M99.991 200.003C142.987 200.003 179.642 172.865 193.771 134.785H6.21094C20.3402 172.865 56.9945 200.003 99.991 200.003Z" fill="black"/>
<path d="M76.0898 93.4715C76.0352 93.4715 75.9816 93.475 75.927 93.4758V93.4715H56.8109C57.7801 89.727 61.1777 86.9496 65.2203 86.9496V73.9062C53.2332 73.9062 43.4813 83.6586 43.4813 95.6453V106.298V106.515H75.927H76.0898C77.2887 106.515 78.2637 107.491 78.2637 108.689V113.037H34.7852V126.08H91.307V108.689C91.307 100.298 84.4805 93.4715 76.0898 93.4715Z" fill="#496E2D"/>
<path d="M108.688 113.037V73.9062H95.6445V126.08H117.384V113.037H108.688Z" fill="#496E2D"/>
<path d="M152.173 113.037V73.9062H139.13V113.037H134.782V99.9938H121.738V126.081H160.869V113.037H152.173Z" fill="#496E2D"/>
</svg>
