<svg width="200" height="200" viewBox="0 0 200 200" fill="none" xmlns="http://www.w3.org/2000/svg">
<path d="M100 200C155.228 200 200 155.228 200 100C200 44.7715 155.228 0 100 0C44.7715 0 0 44.7715 0 100C0 155.228 44.7715 200 100 200Z" fill="#D80027"/>
<path d="M137.024 67.027L129.956 92.25L108.749 88.334L95.0984 60.1953L58.2207 73.2816L55.3125 65.0863L45.6641 63.8977L52.934 84.3855L78.3125 77.8953L85.5246 98.2191L67.9809 124.111L97.7531 149.504L92.1102 156.12L95.9047 165.07L110.013 148.53L91.7031 129.796L105.698 113.389L136.893 115.637L143.998 77.1562L152.549 78.7355L158.404 70.9738L137.024 67.027Z" fill="#F0F0F0"/>
</svg>
