<svg width="200" height="200" viewBox="0 0 200 200" fill="none" xmlns="http://www.w3.org/2000/svg">
<path d="M100 200C155.228 200 200 155.228 200 100C200 44.7715 155.228 0 100 0C44.7715 0 0 44.7715 0 100C0 155.228 44.7715 200 100 200Z" fill="#F0F0F0"/>
<path d="M137.651 78.2606H112.548L99.9973 56.5215L87.4469 78.2606H62.3438L74.8961 99.9996L62.3438 121.739H87.4469L99.9973 143.478L112.548 121.739H137.651L125.098 99.9996L137.651 78.2606ZM115.417 99.9996L107.708 113.354H92.2879L84.5773 99.9996L92.2875 86.6449H107.707L115.417 99.9996ZM99.9973 73.2898L102.867 78.2602H97.1285L99.9973 73.2898ZM76.8668 86.6449H82.6059L79.7363 91.6152L76.8668 86.6449ZM76.8668 113.354L79.7367 108.384L82.6063 113.354H76.8668ZM99.9973 126.709L97.1281 121.739H102.867L99.9973 126.709ZM123.128 113.354H117.389L120.259 108.384L123.128 113.354ZM117.389 86.6449H123.128L120.258 91.6152L117.389 86.6449Z" fill="#0052B4"/>
<path d="M162.239 21.7383H37.7418C28.6156 29.007 20.7891 37.8359 14.668 47.8254H185.313C179.192 37.8363 171.365 29.007 162.239 21.7383Z" fill="#0052B4"/>
<path d="M37.7418 178.255H162.239C171.365 170.986 179.192 162.157 185.313 152.168H14.668C20.7895 162.157 28.616 170.986 37.7418 178.255Z" fill="#0052B4"/>
</svg>
