<svg width="200" height="200" viewBox="0 0 200 200" fill="none" xmlns="http://www.w3.org/2000/svg">
<path d="M100 200C155.228 200 200 155.228 200 100C200 44.7715 155.228 0 100 0C44.7715 0 0 44.7715 0 100C0 155.228 44.7715 200 100 200Z" fill="#F0F0F0"/>
<path d="M179.334 160.888L118.446 99.9996H118.445L179.334 39.1102C176.708 35.6977 173.836 32.4145 170.71 29.2883C167.584 26.1625 164.301 23.2895 160.888 20.6641L99.9996 81.5527L99.9992 81.5531L39.1105 20.6641C35.6984 23.2898 32.4148 26.1621 29.2887 29.2883C26.1625 32.4145 23.2898 35.6977 20.6645 39.1102L81.5531 99.9984L81.5535 99.9988L20.6641 160.888C23.2902 164.301 26.1629 167.584 29.2883 170.71C32.4145 173.836 35.6973 176.709 39.1102 179.334L99.9992 118.446L99.9996 118.445L160.888 179.334C164.3 176.708 167.584 173.836 170.71 170.71C173.836 167.584 176.709 164.3 179.334 160.888Z" fill="#D80027"/>
<path d="M82.6074 30.4305L99.9988 34.7781L117.39 30.4305V15.648L110.434 19.1262L99.9988 8.69141L89.5641 19.1262L82.6074 15.648V30.4305Z" fill="#FFDA44"/>
<path d="M82.6074 30.4297V41.3C82.6074 54.6125 99.9988 58.6914 99.9988 58.6914C99.9988 58.6914 117.39 54.6121 117.39 41.3V30.4297H82.6074Z" fill="#D80027"/>
</svg>
