<svg width="200" height="200" viewBox="0 0 200 200" fill="none" xmlns="http://www.w3.org/2000/svg">
<path d="M100 200C155.228 200 200 155.228 200 100C200 44.7715 155.228 0 100 0C44.7715 0 0 44.7715 0 100C0 155.228 44.7715 200 100 200Z" fill="#338AF3"/>
<path d="M156.52 101.094H43.4766C43.4766 108.898 50.2738 115.224 58.0773 115.224H57.607C57.607 123.029 63.9332 129.355 71.7375 129.355C71.7375 137.159 78.0637 143.485 85.868 143.485H114.129C121.933 143.485 128.259 137.159 128.259 129.355C136.064 129.355 142.39 123.029 142.39 115.224H141.92C149.722 115.224 156.52 108.898 156.52 101.094Z" fill="#FFDA44"/>
<path d="M139.14 82.6172C139.14 104.228 121.62 121.748 100.009 121.748C78.398 121.748 60.8789 104.228 60.8789 82.6172" fill="#338AF3"/>
<path d="M129.895 82.6121L117.682 88.357L124.185 100.185L110.923 97.648L109.243 111.045L100.006 101.191L90.7684 111.045L89.0883 97.648L75.8266 100.184L82.3297 88.3566L70.1172 82.6121L82.3301 76.8676L75.8266 65.0398L89.0879 67.5766L90.7687 54.1797L100.006 64.0332L109.243 54.1797L110.923 67.5766L124.186 65.0398L117.682 76.868L129.895 82.6121Z" fill="#FFDA44"/>
</svg>
