<svg width="200" height="200" viewBox="0 0 200 200" fill="none" xmlns="http://www.w3.org/2000/svg">
<path d="M100 200C155.228 200 200 155.228 200 100C200 44.7715 155.228 0 100 0C44.7715 0 0 44.7715 0 100C0 155.228 44.7715 200 100 200Z" fill="#F0F0F0"/>
<path d="M100 0C60.3541 0 26.0979 23.0723 9.92285 56.5218H190.077C173.903 23.0723 139.646 0 100 0Z" fill="black"/>
<path d="M99.9992 200C60.3531 200 26.0969 176.928 9.92188 143.479H190.076C173.902 176.928 139.645 200 99.9992 200Z" fill="#496E2D"/>
<path d="M195.278 69.5703H4.72227C1.65898 79.1676 0 89.3922 0 100.005C0 110.618 1.65898 120.843 4.72227 130.44H195.277C198.341 120.843 200 110.618 200 100.005C200 89.3922 198.341 79.1676 195.278 69.5703Z" fill="#A2001D"/>
<path d="M131.145 46.2082L119.302 40.7422L100.006 84.434L80.7098 40.7422L68.8672 46.2082L92.8234 99.9968L68.8672 153.785L80.7098 159.251L100.006 115.56L119.302 159.251L131.145 153.785L107.188 99.9968L131.145 46.2082Z" fill="#F0F0F0"/>
<path d="M108.04 51.3633C103.455 46.3566 99.9965 43.4785 99.9965 43.4785C99.9965 43.4785 96.5375 46.3562 91.9531 51.3633V148.637C96.5375 153.644 99.9965 156.522 99.9965 156.522C99.9965 156.522 103.455 153.644 108.04 148.637V51.3633Z" fill="#F0F0F0"/>
<path d="M78.2617 70.0109V129.977C83.1063 138.561 89.0355 145.596 93.4793 150.261V49.7266C89.0355 54.391 83.1059 61.4273 78.2617 70.0109Z" fill="#A2001D"/>
<path d="M121.741 70.0109C116.896 61.4269 110.967 54.391 106.523 49.7266V150.261C110.967 145.596 116.896 138.561 121.741 129.977V70.0109Z" fill="#A2001D"/>
<path d="M121.738 70.0195V129.985C126.643 121.294 130.434 111.017 130.434 100.003C130.434 88.9883 126.643 78.7109 121.738 70.0195Z" fill="black"/>
<path d="M78.266 70.0195V129.985C73.3617 121.294 69.5703 111.017 69.5703 100.003C69.5703 88.9883 73.3617 78.7109 78.266 70.0195Z" fill="black"/>
</svg>
