<svg width="200" height="200" viewBox="0 0 200 200" fill="none" xmlns="http://www.w3.org/2000/svg">
<path d="M0 100C0 44.7719 44.7719 0 100 0C155.228 0 200 44.7719 200 100" fill="#D80027"/>
<path d="M134.78 92.9902L120.567 99.675L128.136 113.44L112.702 110.487L110.747 126.078L99.9973 114.611L89.2473 126.078L87.2922 110.487L71.859 113.439L79.4273 99.675L65.2148 92.9902L79.4273 86.3043L71.859 72.5406L87.2918 75.4922L89.2477 59.9023L99.9973 71.3684L110.747 59.9023L112.702 75.4922L128.136 72.5406L120.568 86.3055L134.78 92.9902Z" fill="#FFDA44"/>
<path d="M126.08 32.6156H106.515C106.515 29.0145 103.595 26.0938 99.9934 26.0938C96.3918 26.0938 93.4715 29.0141 93.4715 32.6156H73.9062C73.9062 36.2172 77.0437 39.1375 80.6453 39.1375H80.4277C80.4277 42.7391 83.3473 45.6594 86.9496 45.6594C86.9496 49.2609 89.8691 52.1812 93.4715 52.1812H106.515C110.116 52.1812 113.037 49.2613 113.037 45.6594C116.638 45.6594 119.559 42.7395 119.559 39.1375H119.341C122.943 39.1375 126.08 36.2176 126.08 32.6156Z" fill="#FFDA44"/>
<path d="M200 100C200 155.228 155.228 200 100 200C44.7719 200 0 155.228 0 100H200Z" fill="#F0F0F0"/>
<path d="M100.002 199.996C131.261 199.996 159.164 185.651 177.503 163.189C174.204 160.94 172.423 157.305 166.667 157.305C158.334 157.305 158.334 164.924 150.001 164.924C141.668 164.924 141.668 157.305 133.335 157.305C125.002 157.305 125.002 164.924 116.668 164.924C108.335 164.924 108.334 157.305 100 157.305C91.6672 157.305 91.6672 164.924 83.3344 164.924C75.0023 164.924 75.0023 157.305 66.6691 157.305C58.3352 157.305 58.3352 164.924 50.0012 164.924C41.6672 164.924 41.6672 157.305 33.3332 157.305C27.5777 157.305 25.7969 160.939 22.5 163.188C40.8375 185.651 68.743 199.996 100.002 199.996Z" fill="#0052B4"/>
<path d="M183.339 112.754C175.005 112.754 175.005 105.135 166.672 105.135C158.339 105.135 158.339 112.754 150.006 112.754C141.673 112.754 141.673 105.135 133.34 105.135C125.007 105.135 125.007 112.754 116.673 112.754C108.339 112.754 108.339 105.135 100.005 105.135C91.6719 105.135 91.6719 112.754 83.3391 112.754C75.007 112.754 75.007 105.135 66.6738 105.135C58.3398 105.135 58.3398 112.754 50.0059 112.754C41.6719 112.754 41.6719 105.135 33.3379 105.135C25.0059 105.135 25.0059 112.754 16.6727 112.754C8.38437 112.754 8.33633 105.219 0.136719 105.138C0.367578 109.713 0.913672 114.203 1.73945 118.595C8.38164 119.571 8.96328 126.087 16.673 126.087C25.0062 126.087 25.0062 118.469 33.3383 118.469C41.6723 118.469 41.6723 126.087 50.0062 126.087C58.3402 126.087 58.3402 118.469 66.6742 118.469C75.0074 118.469 75.0074 126.087 83.3394 126.087C91.6727 126.087 91.6726 118.469 100.005 118.469C108.339 118.469 108.339 126.087 116.673 126.087C125.007 126.087 125.007 118.469 133.34 118.469C141.673 118.469 141.673 126.087 150.006 126.087C158.339 126.087 158.339 118.469 166.672 118.469C175.006 118.469 175.006 126.087 183.339 126.087C191.05 126.087 191.631 119.571 198.274 118.595C199.1 114.203 199.645 109.713 199.877 105.139C191.676 105.22 191.627 112.754 183.339 112.754Z" fill="#0052B4"/>
<path d="M166.668 131.23C158.335 131.23 158.335 138.85 150.002 138.85C141.669 138.85 141.669 131.23 133.336 131.23C125.003 131.23 125.003 138.85 116.669 138.85C108.335 138.85 108.335 131.23 100.001 131.23C91.668 131.23 91.668 138.85 83.3351 138.85C75.0031 138.85 75.0031 131.23 66.6699 131.23C58.3359 131.23 58.3359 138.85 50.002 138.85C41.668 138.85 41.668 131.23 33.334 131.23C25.002 131.23 25.002 138.85 16.6687 138.85C10.7145 138.85 9.01367 134.961 5.48828 132.739C7.83516 139.52 10.8883 145.97 14.5652 152C15.2047 152.118 15.9008 152.183 16.6687 152.183C25.002 152.183 25.002 144.564 33.334 144.564C41.668 144.564 41.668 152.183 50.002 152.183C58.3359 152.183 58.3359 144.564 66.6699 144.564C75.0031 144.564 75.0031 152.183 83.3351 152.183C91.6684 152.183 91.6684 144.564 100.001 144.564C108.335 144.564 108.335 152.183 116.669 152.183C125.003 152.183 125.003 144.564 133.336 144.564C141.669 144.564 141.669 152.183 150.002 152.183C158.335 152.183 158.335 144.564 166.668 144.564C175.002 144.564 175.002 152.183 183.335 152.183C184.103 152.183 184.8 152.118 185.439 152C189.116 145.97 192.169 139.52 194.517 132.739C190.991 134.96 189.29 138.85 183.335 138.85C175.002 138.85 175.002 131.23 166.668 131.23Z" fill="#0052B4"/>
<path d="M199.69 92.1004C191.67 92.2898 191.56 99.7113 183.332 99.7113C174.999 99.7113 174.999 92.0918 166.665 92.0918C158.332 92.0918 158.332 99.7113 149.999 99.7113C141.666 99.7113 141.666 92.0918 133.333 92.0918C125 92.0918 125 99.7113 116.666 99.7113C108.333 99.7113 108.332 92.0918 99.9984 92.0918C91.6652 92.0918 91.6652 99.7113 83.3324 99.7113C75.0004 99.7113 75.0004 92.0918 66.6672 92.0918C58.3332 92.0918 58.3332 99.7113 49.9992 99.7113C41.6652 99.7113 41.6652 92.0918 33.3313 92.0918C24.9992 92.0918 24.9992 99.7113 16.666 99.7113C8.43984 99.7113 8.32852 92.2906 0.309766 92.1004C0.10625 94.7074 0 97.3418 0 100.001C0 101.822 0.0515625 103.632 0.148828 105.429C8.32969 105.521 8.38398 113.044 16.6664 113.044C24.9996 113.044 24.9996 105.425 33.3316 105.425C41.6656 105.425 41.6656 113.044 49.9996 113.044C58.3336 113.044 58.3336 105.425 66.6676 105.425C75.0008 105.425 75.0008 113.044 83.3328 113.044C91.666 113.044 91.666 105.425 99.9988 105.425C108.333 105.425 108.333 113.044 116.667 113.044C125.001 113.044 125.001 105.425 133.334 105.425C141.667 105.425 141.667 113.044 150 113.044C158.332 113.044 158.333 105.425 166.666 105.425C175 105.425 175 113.044 183.332 113.044C191.616 113.044 191.67 105.521 199.852 105.429C199.948 103.632 200 101.822 200 100.001C200 97.3418 199.894 94.7074 199.69 92.1004Z" fill="#F0F0F0"/>
</svg>
