<svg xmlns="http://www.w3.org/2000/svg" xmlns:xlink="http://www.w3.org/1999/xlink" version="1.1" width="256" height="256" viewBox="0 0 256 256" xml:space="preserve">

<defs>
</defs>
<g style="stroke: none; stroke-width: 0; stroke-dasharray: none; stroke-linecap: butt; stroke-linejoin: miter; stroke-miterlimit: 10; fill: none; fill-rule: nonzero; opacity: 1;" transform="translate(1.4065934065934016 1.4065934065934016) scale(2.81 2.81)" >
	<circle cx="45" cy="45" r="45" style="stroke: none; stroke-width: 1; stroke-dasharray: none; stroke-linecap: butt; stroke-linejoin: miter; stroke-miterlimit: 10; fill: rgb(36,74,165); fill-rule: nonzero; opacity: 1;" transform="  matrix(1 0 0 1 0 0) "/>
	<path d="M 65.736 47.989 c -0.449 0.485 -1.5 0.036 -1.874 0.71 l -0.076 -0.148 c -0.072 -0.449 -0.521 -0.526 -1.047 -0.526 c -0.377 -0.261 0.225 -0.822 -0.225 -1.159 c -0.602 -0.04 -1.123 0 -1.573 0.261 l -0.975 -0.373 c -0.526 -0.337 -1.276 -0.152 -1.874 -0.265 l 0.225 -0.112 c 0.076 -0.447 0.225 -1.123 -0.148 -1.496 c 0.225 -0.712 1.047 -1.274 0.674 -2.06 c -0.449 0 -0.975 -0.076 -1.348 0.074 c -0.152 -0.225 -0.602 0.112 -0.525 -0.263 c 0 -1.049 -1.348 -0.524 -1.95 -0.786 v -0.263 c -0.899 -0.449 -0.674 -1.198 -0.522 -2.06 c -0.076 -0.449 -0.377 -0.824 -0.75 -1.236 c -0.525 -0.112 -0.674 0.263 -0.899 0.523 c -0.224 -0.449 -0.449 -0.899 -0.449 -1.422 c -0.301 -0.451 0 -1.087 -0.45 -1.462 c -0.902 0.263 -0.678 -1.085 -1.5 -0.86 l -0.225 0.598 c -0.373 0.113 -0.674 -0.149 -0.75 -0.45 c -2.098 0.824 -2.471 -1.348 -4.345 -1.085 c 0.301 -0.337 0.822 -0.413 1.2 -0.6 c 0 -0.637 -0.301 -1.161 -0.75 -1.686 c 0 -0.45 -0.712 -0.262 -0.786 -0.749 c -0.263 -0.225 -0.562 0.038 -0.824 0 c -0.6 0.824 -1.649 0.824 -2.435 1.274 c -0.299 0.449 -0.824 0.263 -1.123 0.524 c -0.786 -0.187 -0.449 0.637 -0.786 0.974 c -0.076 0.263 0.036 0.449 0.261 0.562 c 0.076 0.413 0.338 0.712 0.338 1.161 c 0.188 -0.074 0.487 0.075 0.599 -0.112 c 0.337 0.263 0.562 0.487 0.562 0.899 c -0.149 0.189 -0.337 0.263 -0.562 0.301 c -0.449 0.411 -0.112 1.049 -0.261 1.573 c -0.338 0.188 -0.413 0.75 -0.901 0.75 c -0.112 -0.038 -0.036 -0.263 -0.036 -0.449 c -1.386 -0.638 -0.712 1.123 -1.575 1.422 c -0.337 -0.074 -0.636 0.076 -0.899 0.189 c -0.225 0.411 -0.674 0.71 -0.487 1.31 c -0.074 0.526 1.049 0.75 0.75 1.35 c -0.263 0.899 -1.575 0.261 -1.611 1.011 c -0.301 -0.189 -0.638 -0.301 -1.049 -0.225 c -0.337 0 -0.6 0.375 -0.899 0.187 c -0.451 0.449 -1.2 0.449 -1.838 0.301 c -0.337 0.149 -0.748 0.337 -0.823 0.598 c -0.451 0.449 -0.75 0.825 -0.75 1.461 c -0.411 -0.187 -0.825 0 -1.161 0.076 c -0.337 -0.375 -0.937 -0.188 -1.274 -0.636 c -0.411 -0.112 -0.748 -0.263 -1.161 -0.189 c -0.411 0.263 -0.973 0.375 -1.236 0.712 c -1.011 -0.151 -0.074 1.011 -0.899 1.276 c 0 0.185 -0.076 0.449 0.074 0.598 c 0.6 0.301 1.087 0.822 1.761 0.935 c 0.375 -0.112 0.786 0.225 1.123 0.449 c -0.15 0.265 -0.299 0.602 -0.562 0.678 c -0.074 0.485 0 0.971 0.263 1.42 c -0.112 0.225 -0.112 0.489 -0.413 0.75 c 0.375 1.163 2.06 1.051 2.624 2.21 c -0.15 0.373 0.112 0.449 0.337 0.638 c -0.413 0.638 0.598 0.71 0.523 1.272 c -0.038 0.076 -0.112 0.225 -0.263 0.153 v 0.521 c 1.312 0.49 0.413 1.613 0.901 2.435 c 0.748 -0.185 1.498 0.337 2.096 -0.072 c 0.15 0.149 0.337 0.261 0.413 0.409 c 0.824 -0.072 0.973 0.975 1.797 0.975 c 1.161 0.112 1.2 1.388 2.024 1.873 c 0 0.562 0.299 1.011 0.411 1.5 c 0.263 0.598 0.75 1.272 0.263 1.833 c -0.187 0.714 0.375 1.163 0.712 1.46 c 0.524 0.75 0.337 1.689 0.861 2.323 c 0.225 0.786 -0.598 1.051 -1.085 1.424 c -0.188 0.602 0.411 0.899 0.225 1.573 c 0.449 0.225 0.337 0.75 0.937 0.75 c 0.411 0 0.748 -0.225 0.824 -0.638 c 0.261 0.265 0.562 0.562 0.973 0.449 c 0.413 -0.261 1.011 -0.449 1.2 -0.823 c 0.149 -0.148 0.225 -0.261 0.411 -0.261 c -0.074 -0.225 0 -0.337 0.225 -0.449 c 0.112 -0.076 0.189 -0.341 0.112 -0.525 c -0.337 -0.526 0.487 -0.526 0.225 -1.087 c -0.636 -0.45 -0.748 -1.087 -0.636 -1.838 c 0.299 -0.297 0.074 -0.935 0.562 -1.123 c 0.074 -0.971 1.312 -0.297 1.723 -0.971 c 1.047 0.562 1.424 -0.79 2.098 -1.127 c 1.497 -0.036 2.772 -1.011 3.819 -2.022 c 0.301 0.374 0.678 0.489 1.127 0.674 c 0 0.526 0.674 0.786 0.899 1.163 c 0.225 0.409 -0.152 1.159 0.449 1.312 c 0.75 0.225 1.946 0.449 2.62 -0.152 c 0 -0.225 0.076 -0.525 -0.072 -0.674 c -1.123 -0.786 0.522 -1.384 0.373 -2.287 c 0.975 0.112 0.449 -0.899 1.123 -1.159 c 0.526 -0.261 0.449 0.449 1.051 0.261 c 0.297 0 0.148 -0.337 0.148 -0.449 c -0.301 -0.409 0.373 -0.521 0.301 -0.859 c 0.373 0.072 0.822 0.072 1.047 0.337 c 0.225 0.112 0 0.409 0.225 0.521 c 0.899 -0.337 1.874 0.337 2.624 -0.261 l -0.75 -0.75 c -0.301 -0.449 -0.526 -1.2 -1.272 -1.123 c 0.072 -0.526 -0.377 -0.71 -0.225 -1.236 c 0.297 -0.449 0.746 0.076 1.196 -0.036 c 0 -0.79 0.75 0 1.127 -0.413 c 0 -0.714 0.898 -1.2 0.297 -1.986 c -0.297 -0.525 0.602 -0.337 0.674 -0.826 c 0.602 -0.073 0.225 -0.859 0.674 -1.124 c 0 -0.112 0.076 -0.297 -0.072 -0.373 c 0.449 -0.525 1.047 -0.975 1.348 -1.536 c -0.449 -1.159 0.975 -1.685 0.822 -2.848 C 66.635 48.811 66.486 47.989 65.736 47.989 z" style="stroke: none; stroke-width: 1; stroke-dasharray: none; stroke-linecap: butt; stroke-linejoin: miter; stroke-miterlimit: 10; fill: rgb(208,166,80); fill-rule: nonzero; opacity: 1;" transform=" matrix(1 0 0 1 0 0) " stroke-linecap="round" />
	<polygon points="51.38,19.29 50.34,16.1 49.32,19.29 45.97,19.29 48.68,21.25 47.65,24.44 50.34,22.47 53.06,24.44 52.02,21.25 54.73,19.29 " style="stroke: none; stroke-width: 1; stroke-dasharray: none; stroke-linecap: butt; stroke-linejoin: miter; stroke-miterlimit: 10; fill: rgb(255,255,255); fill-rule: nonzero; opacity: 1;" transform="  matrix(1 0 0 1 0 0) "/>
	<polygon points="61.92,21.14 60.88,17.97 59.86,21.14 56.51,21.14 59.22,23.11 58.18,26.29 60.88,24.32 63.59,26.29 62.56,23.11 65.27,21.14 " style="stroke: none; stroke-width: 1; stroke-dasharray: none; stroke-linecap: butt; stroke-linejoin: miter; stroke-miterlimit: 10; fill: rgb(255,255,255); fill-rule: nonzero; opacity: 1;" transform="  matrix(1 0 0 1 0 0) "/>
	<polygon points="75.32,24.8 71.97,24.8 70.94,21.63 69.91,24.8 66.56,24.8 69.27,26.77 68.23,29.95 70.94,27.98 73.64,29.95 72.61,26.77 " style="stroke: none; stroke-width: 1; stroke-dasharray: none; stroke-linecap: butt; stroke-linejoin: miter; stroke-miterlimit: 10; fill: rgb(255,255,255); fill-rule: nonzero; opacity: 1;" transform="  matrix(1 0 0 1 0 0) "/>
	<polygon points="40.68,19.29 39.66,16.1 38.62,19.29 35.27,19.29 37.98,21.25 36.94,24.44 39.66,22.47 42.35,24.44 41.32,21.25 44.03,19.29 " style="stroke: none; stroke-width: 1; stroke-dasharray: none; stroke-linecap: butt; stroke-linejoin: miter; stroke-miterlimit: 10; fill: rgb(255,255,255); fill-rule: nonzero; opacity: 1;" transform="  matrix(1 0 0 1 0 0) "/>
	<polygon points="30.14,21.14 29.12,17.97 28.08,21.14 24.73,21.14 27.44,23.11 26.41,26.29 29.12,24.32 31.82,26.29 30.78,23.11 33.49,21.14 " style="stroke: none; stroke-width: 1; stroke-dasharray: none; stroke-linecap: butt; stroke-linejoin: miter; stroke-miterlimit: 10; fill: rgb(255,255,255); fill-rule: nonzero; opacity: 1;" transform="  matrix(1 0 0 1 0 0) "/>
	<polygon points="20.09,24.8 19.05,21.63 18.03,24.8 14.68,24.8 17.39,26.77 16.36,29.95 19.05,27.98 21.77,29.95 20.73,26.77 23.44,24.8 " style="stroke: none; stroke-width: 1; stroke-dasharray: none; stroke-linecap: butt; stroke-linejoin: miter; stroke-miterlimit: 10; fill: rgb(255,255,255); fill-rule: nonzero; opacity: 1;" transform="  matrix(1 0 0 1 0 0) "/>
</g>
</svg>