<svg width="200" height="200" viewBox="0 0 200 200" fill="none" xmlns="http://www.w3.org/2000/svg">
<path d="M100 200C155.228 200 200 155.228 200 100C200 44.7715 155.228 0 100 0C44.7715 0 0 44.7715 0 100C0 155.228 44.7715 200 100 200Z" fill="#D80027"/>
<path d="M148.904 100L128.921 109.4L139.562 128.754L117.862 124.602L115.114 146.522L99.9984 130.401L84.8844 146.522L82.1348 124.602L60.4363 128.753L71.077 109.399L51.0938 100L71.077 90.6016L60.4363 71.2469L82.134 75.3992L84.8852 53.4785L99.9984 69.6L115.114 53.4785L117.862 75.3992L139.563 71.2469L128.922 90.6027L148.904 100Z" fill="#FFDA44"/>
<path d="M100.005 130.44C116.814 130.44 130.44 116.814 130.44 100.005C130.44 83.1964 116.814 69.5703 100.005 69.5703C83.1964 69.5703 69.5703 83.1964 69.5703 100.005C69.5703 116.814 83.1964 130.44 100.005 130.44Z" fill="#D80027"/>
<path d="M84.7887 100C84.0555 100 83.3316 100.038 82.6172 100.109C82.6434 104.324 84.1684 108.182 86.6871 111.179C88.0309 107.563 90.0371 104.266 92.5672 101.444C90.1508 100.515 87.5293 100 84.7887 100Z" fill="#FFDA44"/>
<path d="M94.1602 116.377C95.9883 117.03 97.9566 117.388 100.01 117.388C102.063 117.388 104.031 117.03 105.859 116.377C104.863 112.466 102.805 108.974 100.01 106.23C97.2141 108.974 95.1566 112.466 94.1602 116.377Z" fill="#FFDA44"/>
<path d="M115.062 91.3156C112.055 86.118 106.439 82.6172 100.002 82.6172C93.5645 82.6172 87.9484 86.1176 84.9414 91.3156C90.4234 91.3434 95.5641 92.834 100.002 95.4078C104.44 92.834 109.58 91.3434 115.062 91.3156Z" fill="#FFDA44"/>
<path d="M107.441 101.444C109.971 104.266 111.978 107.563 113.321 111.179C115.84 108.182 117.365 104.324 117.391 100.109C116.677 100.037 115.953 100 115.22 100C112.48 99.9996 109.859 100.514 107.441 101.444Z" fill="#FFDA44"/>
</svg>
