<svg width="200" height="200" viewBox="0 0 200 200" fill="none" xmlns="http://www.w3.org/2000/svg">
<path d="M190.078 56.5219C173.903 23.0723 139.646 0 100 0C60.3541 0 26.0979 23.0723 9.92285 56.5219L100 65.2176L190.078 56.5219Z" fill="#D80027"/>
<path d="M9.92188 143.481C26.0969 176.93 60.3531 200.003 99.9992 200.003C139.645 200.003 173.902 176.93 190.077 143.481L99.9992 134.785L9.92188 143.481Z" fill="#D80027"/>
<path d="M190.077 56.5215H9.92266C3.56563 69.668 0 84.4172 0 99.9996C0 115.582 3.56563 130.331 9.92266 143.478H190.077C196.435 130.331 200 115.582 200 99.9996C200 84.4172 196.435 69.668 190.077 56.5215Z" fill="#0052B4"/>
<path d="M99.9973 134.78C119.207 134.78 134.78 119.207 134.78 99.9973C134.78 80.7875 119.207 65.2148 99.9973 65.2148C80.7875 65.2148 65.2148 80.7875 65.2148 99.9973C65.2148 119.207 80.7875 134.78 99.9973 134.78Z" fill="#F0F0F0"/>
</svg>
