<svg width="200" height="200" viewBox="0 0 200 200" fill="none" xmlns="http://www.w3.org/2000/svg">
<path d="M100 200C155.228 200 200 155.228 200 100C200 44.7715 155.228 0 100 0C44.7715 0 0 44.7715 0 100C0 155.228 44.7715 200 100 200Z" fill="#F0F0F0"/>
<path d="M100 0C60.354 0 26.0978 23.0723 9.92279 56.5218H190.077C173.902 23.0723 139.646 0 100 0Z" fill="#D80027"/>
<path d="M99.9992 200C139.645 200 173.902 176.928 190.077 143.479H9.92188C26.0969 176.928 60.3531 200 99.9992 200Z" fill="#D80027"/>
<path d="M126.08 117.396L99.9934 69.5703L73.9062 117.396H93.4715V130.44H106.515V117.396H126.08Z" fill="#6DA544"/>
</svg>
