<svg width="200" height="200" viewBox="0 0 200 200" fill="none" xmlns="http://www.w3.org/2000/svg">
<path d="M0 99.9941C0 115.576 3.56523 130.325 9.92266 143.472L100 147.82L190.077 143.473C196.435 130.325 200 115.576 200 99.9941C200 84.4121 196.435 69.6629 190.077 56.516L100 52.168L9.92266 56.5156C3.56523 69.6629 0 84.4121 0 99.9941Z" fill="#F0F0F0"/>
<path d="M99.9992 200C139.645 200 173.902 176.928 190.077 143.479H9.92188C26.0969 176.928 60.3531 200 99.9992 200Z" fill="#6DA544"/>
<path d="M100 0C60.354 0 26.0978 23.0723 9.92279 56.5218H190.077C173.902 23.0723 139.646 0 100 0Z" fill="#0052B4"/>
<path d="M106.512 97.8191V73.9062H93.4687V97.8191L77.7148 113.573C82.2965 121.073 90.5586 126.08 99.9906 126.08C109.423 126.08 117.684 121.073 122.266 113.573L106.512 97.8191Z" fill="black"/>
</svg>
