<svg width="200" height="200" viewBox="0 0 200 200" fill="none" xmlns="http://www.w3.org/2000/svg">
<path d="M100 200C155.228 200 200 155.228 200 100C200 44.7715 155.228 0 100 0C44.7715 0 0 44.7715 0 100C0 155.228 44.7715 200 100 200Z" fill="#F0F0F0"/>
<path d="M22.8516 36.3633H177.136C171.438 29.4629 164.828 23.3437 157.496 18.1816H42.491C35.1594 23.343 28.5504 29.4625 22.8516 36.3633Z" fill="#F0F0F0"/>
<path d="M0 100.009C0 103.074 0.145703 106.104 0.415625 109.1H199.584C199.854 106.104 200 103.074 200 100.009C200 96.9434 199.854 93.9129 199.584 90.918H0.415625C0.145703 93.9129 0 96.9434 0 100.009Z" fill="#F0F0F0"/>
<path d="M10.9086 145.447H189.099C192.044 139.687 194.445 133.604 196.238 127.266H3.76953C5.56211 133.604 7.96445 139.687 10.9086 145.447Z" fill="#F0F0F0"/>
<path d="M42.491 181.814H157.496C164.828 176.652 171.437 170.533 177.136 163.633H22.8516C28.5504 170.532 35.1594 176.652 42.491 181.814Z" fill="#F0F0F0"/>
<path d="M3.76953 72.7324H196.239C194.446 66.3934 192.044 60.3105 189.1 54.5508H10.909C7.96484 60.3105 5.5625 66.3934 3.76953 72.7324Z" fill="#F0F0F0"/>
<path d="M47.832 18.1816H157.509C141.243 6.72929 121.411 0 100.006 0C86.9625 0 64.0977 6.72929 47.832 18.1816Z" fill="#D80027"/>
<path d="M95.6445 54.5488H189.088C185.762 48.0437 181.746 41.9504 177.134 36.3672H95.6445V54.5488Z" fill="#D80027"/>
<path d="M95.6445 90.916H199.577C199.014 84.673 197.884 78.5934 196.227 72.7344H95.6445V90.916Z" fill="#D80027"/>
<path d="M3.76016 127.264H196.229C197.886 121.405 199.016 115.325 199.579 109.082H0.410156C0.972656 115.325 2.10313 121.405 3.76016 127.264Z" fill="#D80027"/>
<path d="M22.8516 163.631H177.136C181.747 158.047 185.764 151.954 189.089 145.449H10.8984C14.2238 151.954 18.2402 158.048 22.8516 163.631Z" fill="#D80027"/>
<path d="M100.003 200C121.408 200 141.24 193.271 157.505 181.818H42.5C58.7656 193.271 78.5977 200 100.003 200Z" fill="#D80027"/>
<path d="M3.75977 72.7273C2.10273 78.5867 0.972656 84.666 0.410156 90.909H99.9945V0C54.2211 0 15.6316 30.7547 3.75977 72.7273Z" fill="#0052B4"/>
<path d="M59.5191 26.0938L65.9937 46.0215H86.9492L69.9969 58.3387L76.4711 78.2676L59.5191 65.9512L42.5664 78.2676L49.0422 58.3387L32.0898 46.0215H53.0441L59.5191 26.0938Z" fill="#F0F0F0"/>
</svg>
