<svg width="200" height="200" viewBox="0 0 200 200" fill="none" xmlns="http://www.w3.org/2000/svg">
<path d="M9.92266 56.5277C3.56563 69.6746 0 84.4234 0 100.006C0 115.588 3.56563 130.337 9.92266 143.484L100 152.18L190.077 143.484C196.434 130.337 200 115.588 200 100.006C200 84.4234 196.434 69.6746 190.077 56.5277L100 47.832L9.92266 56.5277Z" fill="black"/>
<path d="M9.92188 143.479C26.0961 176.928 60.3496 200 99.9957 200C139.641 200 173.895 176.928 190.07 143.479H9.92188Z" fill="#496E2D"/>
<path d="M9.92188 56.5218H190.07C173.895 23.0723 139.641 0 99.9957 0C60.3496 0 26.0961 23.0723 9.92188 56.5218Z" fill="#D80027"/>
<path d="M123.278 81.7188L131.482 93.0254L144.77 88.7168L136.552 100.014L144.756 111.32L131.473 106.995L123.255 118.292L123.264 104.323L109.98 99.9976L123.269 95.6891L123.278 81.7188Z" fill="#F0F0F0"/>
<path d="M100.886 128.261C85.2785 128.261 72.6254 115.607 72.6254 99.9996C72.6254 84.3918 85.2785 71.7387 100.886 71.7387C105.753 71.7387 110.332 72.9691 114.33 75.1355C108.058 69.0023 99.4812 65.2168 90.0168 65.2168C70.8066 65.2168 55.2344 80.7894 55.2344 99.9992C55.2344 119.209 70.807 134.782 90.0168 134.782C99.4816 134.782 108.058 130.996 114.33 124.863C110.332 127.03 105.753 128.261 100.886 128.261Z" fill="#F0F0F0"/>
</svg>
