<svg width="200" height="200" viewBox="0 0 200 200" fill="none" xmlns="http://www.w3.org/2000/svg">
<path d="M200 99.9965C200 155.225 155.228 199.997 100 199.997C44.7719 199.997 0 155.225 0 99.9965C4.34766 99.9965 100 86.9531 100 86.9531L200 99.9965Z" fill="#D80027"/>
<path d="M0 100C0 44.7719 44.7719 0 100 0C155.228 0 200 44.7719 200 100" fill="#0052B4"/>
<path d="M73.9121 69.5559C73.9121 62.3523 68.0723 56.5125 60.8688 56.5125C57.527 56.5125 54.4813 57.7703 52.173 59.8363V52.1645H56.5207V43.4687H52.173V39.1211H43.4773V43.4687H39.1297V52.1645H43.4773V59.8363C41.1691 57.7703 38.1234 56.5125 34.7816 56.5125C27.5781 56.5125 21.7383 62.3523 21.7383 69.5559C21.7383 73.418 23.4184 76.8867 26.0859 79.2754V86.9473H69.5641V79.2754C72.2324 76.8867 73.9121 73.418 73.9121 69.5559Z" fill="#FFDA44"/>
</svg>
