<svg width="200" height="200" viewBox="0 0 200 200" fill="none" xmlns="http://www.w3.org/2000/svg">
<path d="M193.78 134.782C197.8 123.949 200 112.232 200 99.9996C200 87.7676 197.8 76.05 193.78 65.2172L100 56.5215L6.21992 65.2172C2.2 76.05 0 87.7676 0 99.9996C0 112.232 2.2 123.949 6.21992 134.782L100 143.478L193.78 134.782Z" fill="#6DA544"/>
<path d="M193.771 65.2176C179.642 27.1375 142.987 0 99.991 0C56.9945 0 20.3402 27.1375 6.21094 65.2176H193.771Z" fill="#FFDA44"/>
<path d="M99.991 200.003C142.987 200.003 179.642 172.865 193.771 134.785H6.21094C20.3402 172.865 56.9945 200.003 99.991 200.003Z" fill="#D80027"/>
</svg>
