<svg width="200" height="200" viewBox="0 0 200 200" fill="none" xmlns="http://www.w3.org/2000/svg">
<path d="M100 200C155.228 200 200 155.228 200 100C200 44.7715 155.228 0 100 0C44.7715 0 0 44.7715 0 100C0 155.228 44.7715 200 100 200Z" fill="#496E2D"/>
<path d="M117.39 95.8328C114.936 95.8328 112.605 96.3223 110.441 97.1012C111.627 94.459 112.421 91.5191 112.421 88.3797C112.421 75.9574 99.9992 66.6406 99.9992 66.6406C99.9992 66.6406 87.577 75.9574 87.577 88.3797C87.577 91.5187 88.3719 94.459 89.5574 97.1012C87.393 96.323 85.0625 95.8328 82.6082 95.8328C70.1859 95.8328 60.8691 108.255 60.8691 108.255C60.8691 108.255 70.1859 120.678 82.6082 120.678C89.8914 120.678 96.1031 116.409 99.9996 112.875C103.896 116.409 110.108 120.678 117.391 120.678C129.813 120.678 139.13 108.255 139.13 108.255C139.13 108.255 129.813 95.8328 117.39 95.8328Z" fill="#F0F0F0"/>
<path d="M100 39.1211L102.566 47.018H110.87L104.153 51.8992L106.717 59.7961L100 54.9148L93.2836 59.7961L95.8477 51.8992L89.1309 47.018H97.4344L100 39.1211Z" fill="#FFDA44"/>
<path d="M68.4242 52.9492L73.3609 57.3937L79.1137 54.0727L76.4121 60.141L81.3484 64.5863L74.7422 63.8918L72.0406 69.9602L70.6586 63.4629L64.0527 62.7684L69.8051 59.4465L68.4242 52.9492Z" fill="#FFDA44"/>
<path d="M45.3125 76.0516L51.8102 77.4324L55.1316 71.6797L55.8262 78.2855L62.323 79.6676L56.2551 82.3695L56.9496 88.975L52.5039 84.0395L46.4359 86.741L49.7574 80.9879L45.3125 76.0516Z" fill="#FFDA44"/>
<path d="M131.576 52.9492L126.64 57.3937L120.887 54.0727L123.588 60.141L118.652 64.5863L125.259 63.8918L127.96 69.9602L129.342 63.4629L135.948 62.7684L130.196 59.4465L131.576 52.9492Z" fill="#FFDA44"/>
<path d="M154.686 76.0516L148.189 77.4324L144.868 71.6797L144.173 78.2855L137.676 79.6676L143.744 82.3695L143.049 88.975L147.495 84.0395L153.563 86.741L150.241 80.9879L154.686 76.0516Z" fill="#FFDA44"/>
<path d="M99.9988 155.453C109.866 155.453 118.962 152.161 126.258 146.621H73.7402C81.0363 152.16 90.1313 155.453 99.9988 155.453Z" fill="#F0F0F0"/>
<path d="M60.1465 129.375C61.5266 132.534 63.2766 135.492 65.332 138.207H134.675C136.73 135.492 138.48 132.534 139.861 129.375H60.1465Z" fill="#F0F0F0"/>
</svg>
