<svg width="200" height="200" viewBox="0 0 200 200" fill="none" xmlns="http://www.w3.org/2000/svg">
<path d="M100 200C155.228 200 200 155.228 200 100C200 44.7715 155.228 0 100 0C44.7715 0 0 44.7715 0 100C0 155.228 44.7715 200 100 200Z" fill="#F0F0F0"/>
<path d="M65.2148 99.9951V193.775C76.0477 197.795 87.7652 199.995 99.9973 199.995C155.225 199.995 199.997 155.223 199.997 99.9951C199.997 44.7669 65.2148 99.9951 65.2148 99.9951Z" fill="#6DA544"/>
<path d="M99.9973 0C87.7652 0 76.0477 2.20039 65.2148 6.21992V100H199.997C199.997 44.7719 155.225 0 99.9973 0Z" fill="#D80027"/>
</svg>
