<svg width="200" height="200" viewBox="0 0 200 200" fill="none" xmlns="http://www.w3.org/2000/svg">
<path d="M143.484 9.92266C130.337 3.56563 115.588 0 100.006 0C84.4234 0 69.6746 3.56563 56.5277 9.92266L47.832 100L56.5277 190.077C69.6746 196.434 84.4234 200 100.006 200C115.588 200 130.337 196.434 143.484 190.077L152.18 100L143.484 9.92266Z" fill="#FFDA44"/>
<path d="M56.5218 9.92188C23.0722 26.0965 0 60.35 0 99.9957C0 139.641 23.0722 173.895 56.5218 190.07V9.92188Z" fill="#0052B4"/>
<path d="M143.477 9.92188V190.07C176.926 173.895 199.998 139.641 199.998 99.9957C199.998 60.35 176.926 26.0965 143.477 9.92188Z" fill="#0052B4"/>
<path d="M128.258 108.693L134.78 117.389V82.6059L128.258 91.3016H108.693V71.7363L117.389 65.2148H82.6058L91.3015 71.7363V91.3016H71.7363L65.2148 82.6059V117.389L71.7363 108.693H91.3015V128.258L82.6058 134.78H117.389L108.693 128.258V108.693H128.258Z" fill="#D80027"/>
<path d="M126.08 95.6457H104.341V73.9062H95.6457V95.6457H73.9062V104.341H95.6457V126.08H104.341V104.341H126.08V95.6457Z" fill="#F0F0F0"/>
</svg>
