<svg width="200" height="200" viewBox="0 0 200 200" fill="none" xmlns="http://www.w3.org/2000/svg">
<path d="M100 200C155.228 200 200 155.228 200 100C200 44.7715 155.228 0 100 0C44.7715 0 0 44.7715 0 100C0 155.228 44.7715 200 100 200Z" fill="#F0F0F0"/>
<path d="M95.6445 99.9934H199.992C199.992 90.9672 198.789 82.2242 196.547 73.9062H95.6445V99.9934Z" fill="#D80027"/>
<path d="M95.6445 47.8254H185.315C179.193 37.8363 171.367 29.007 162.241 21.7383H95.6445V47.8254Z" fill="#D80027"/>
<path d="M100.003 200.001C123.537 200.001 145.169 191.866 162.252 178.262H37.7539C54.8363 191.866 76.468 200.001 100.003 200.001Z" fill="#D80027"/>
<path d="M14.6699 152.181H185.315C190.23 144.162 194.041 135.396 196.548 126.094H3.4375C5.94414 135.396 9.75547 144.162 14.6699 152.181Z" fill="#D80027"/>
<path d="M100 100C100 44.7719 100 38.2609 100 0C44.7719 0 0 44.7719 0 100H100Z" fill="#0052B4"/>
<path d="M66.4887 85.5922C52.8316 85.5922 41.7605 74.5207 41.7605 60.8641C41.7605 47.2074 52.832 36.1359 66.4887 36.1359C70.7469 36.1359 74.7535 37.2129 78.2516 39.1082C72.7641 33.7422 65.2594 30.4297 56.9777 30.4297C40.1695 30.4297 26.543 44.0559 26.543 60.8644C26.543 77.673 40.1695 91.2992 56.9777 91.2992C65.2594 91.2992 72.7641 87.9867 78.2516 82.6207C74.7535 84.5152 70.7473 85.5922 66.4887 85.5922Z" fill="#FFDA44"/>
<path d="M73.4641 43.4785L77.8543 52.659L87.7687 50.3684L83.3289 59.5242L91.3023 65.8473L81.375 68.0851L81.4027 78.2613L73.4641 71.8949L65.525 78.2613L65.5523 68.0851L55.625 65.8473L63.5984 59.5242L59.1582 50.3684L69.0734 52.659L73.4641 43.4785Z" fill="#FFDA44"/>
</svg>
