<svg width="200" height="200" viewBox="0 0 200 200" fill="none" xmlns="http://www.w3.org/2000/svg">
<path d="M100 200C155.228 200 200 155.228 200 100C200 44.7715 155.228 0 100 0C44.7715 0 0 44.7715 0 100C0 155.228 44.7715 200 100 200Z" fill="#D80027"/>
<path d="M34.7852 52.168H165.22V147.82H34.7852V52.168Z" fill="#6DA544"/>
<path d="M116.101 128.261C100.493 128.261 87.8402 115.607 87.8402 99.9996C87.8402 84.3918 100.493 71.7387 116.101 71.7387C120.968 71.7387 125.547 72.9691 129.545 75.1356C123.273 69.0023 114.697 65.2168 105.232 65.2168C86.0223 65.2168 70.4492 80.7895 70.4492 99.9992C70.4492 119.209 86.0223 134.782 105.232 134.782C114.697 134.782 123.273 130.996 129.545 124.863C125.547 127.03 120.968 128.261 116.101 128.261Z" fill="#F0F0F0"/>
</svg>
