<svg width="200" height="200" viewBox="0 0 200 200" fill="none" xmlns="http://www.w3.org/2000/svg">
<path d="M134.782 6.21992C123.949 2.20039 112.232 0 99.9996 0C87.7676 0 76.0504 2.20039 65.2172 6.21992L56.5215 100L65.2172 193.78C76.0504 197.8 87.7676 200 99.9996 200C112.232 200 123.949 197.8 134.782 193.78L143.478 100L134.782 6.21992Z" fill="#FFDA44"/>
<path d="M200.003 99.9906C200.003 56.9945 172.865 20.3398 134.785 6.21094V193.771C172.865 179.641 200.003 142.988 200.003 99.9906Z" fill="#D80027"/>
<path d="M0 99.9906C0 142.988 27.1375 179.641 65.2176 193.771V6.21094C27.1375 20.3398 0 56.9945 0 99.9906Z" fill="#6DA544"/>
</svg>
