<svg width="200" height="200" viewBox="0 0 200 200" fill="none" xmlns="http://www.w3.org/2000/svg">
<path d="M100 200C155.228 200 200 155.228 200 100C200 83.2176 195.859 67.4039 188.554 53.5156L99.8824 100.117L146.484 11.4461C132.596 4.14063 116.782 0 100 0C44.7719 0 0 44.7719 0 100C0 127.614 11.193 152.614 29.2891 170.711C47.3855 188.807 72.3855 200 100 200Z" fill="#0052B4"/>
<path d="M188.456 53.6152C183.879 44.9027 177.927 36.7227 170.602 29.3969C163.275 22.0711 155.096 16.1199 146.383 11.543L29.1797 170.818L188.456 53.6152Z" fill="#F0F0F0"/>
<path d="M29.1797 170.836L188.456 53.6324C183.879 44.9199 177.927 36.7398 170.602 29.4141L29.1797 170.836Z" fill="#FF9811"/>
<path d="M86.8477 58.6477L74.6352 64.3922L81.1387 76.2203L67.877 73.6832L66.1965 87.0801L56.959 77.2266L47.7215 87.0801L46.0418 73.6832L32.7801 76.2195L39.2828 64.3918L27.0703 58.6477L39.2832 52.9027L32.7801 41.0754L46.041 43.6117L47.7219 30.2148L56.959 40.0684L66.1965 30.2148L67.877 43.6117L81.1391 41.0754L74.6355 52.9031L86.8477 58.6477Z" fill="#F0F0F0"/>
</svg>
