<svg width="200" height="200" viewBox="0 0 200 200" fill="none" xmlns="http://www.w3.org/2000/svg">
<path d="M100 200C155.228 200 200 155.228 200 100C200 44.7715 155.228 0 100 0C44.7715 0 0 44.7715 0 100C0 155.228 44.7715 200 100 200Z" fill="#F0F0F0"/>
<path d="M199.146 86.959C196.388 65.8707 186.915 45.4934 170.714 29.2922C154.513 13.091 134.135 3.61797 113.047 0.859375L113.047 86.959H199.146Z" fill="#0052B4"/>
<path d="M86.959 0.859375C65.8707 3.61797 45.493 13.0906 29.2918 29.2918C13.091 45.4934 3.61797 65.8711 0.859375 86.9598L86.9594 86.9594L86.959 0.859375Z" fill="#0052B4"/>
<path d="M0.859375 113.047C3.61797 134.135 13.091 154.513 29.2918 170.714C45.493 186.915 65.8703 196.387 86.9594 199.147L86.959 113.048L0.859375 113.047Z" fill="#0052B4"/>
<path d="M113.047 199.146C134.135 196.388 154.513 186.915 170.714 170.714C186.915 154.513 196.388 134.135 199.146 113.047H113.047V199.146Z" fill="#0052B4"/>
<path d="M134.136 63.4445C134.136 62.1148 135.216 61.034 136.546 61.034H141.712C149.878 61.034 156.521 54.391 156.521 46.2258C156.521 38.0605 149.878 31.4172 141.712 31.4172H136.807C135.205 30.2145 133.057 29.4727 130.688 29.4727C125.745 29.4727 121.739 32.6777 121.739 36.6316C121.739 40.5473 125.669 43.7238 130.545 43.7855L130.543 43.8141H141.712C143.042 43.8141 144.123 44.8953 144.123 46.225C144.123 47.5547 143.042 48.6355 141.712 48.6355H136.546C128.381 48.6355 121.738 55.2785 121.738 63.4437C121.738 71.609 128.38 78.2523 136.546 78.2523H156.521V65.8547H136.546C135.216 65.8551 134.136 64.7742 134.136 63.4445Z" fill="#F0F0F0"/>
<path d="M55.8734 63.4445C55.8734 62.1148 56.9543 61.034 58.2844 61.034H63.45C71.6156 61.034 78.259 54.391 78.259 46.2258C78.259 38.0605 71.616 31.4172 63.45 31.4172H58.5445C56.9434 30.2145 54.7953 29.4727 52.4258 29.4727C47.4832 29.4727 43.4766 32.6777 43.4766 36.6316C43.4766 40.5473 47.4066 43.7238 52.2832 43.7855L52.2809 43.8141H63.4504C64.7805 43.8141 65.8613 44.8953 65.8613 46.225C65.8613 47.5547 64.7805 48.6355 63.4504 48.6355H58.2848C50.1191 48.6355 43.4766 55.2785 43.4766 63.4437C43.4766 71.609 50.1187 78.2523 58.2848 78.2523H78.2586V65.8547H58.2844C56.9543 65.8551 55.8734 64.7742 55.8734 63.4445Z" fill="#F0F0F0"/>
<path d="M134.136 155.71C134.136 154.38 135.217 153.3 136.547 153.3H141.712C149.878 153.3 156.521 146.657 156.521 138.491C156.521 130.326 149.879 123.683 141.712 123.683H136.807C135.206 122.48 133.058 121.738 130.688 121.738C125.745 121.738 121.739 124.944 121.739 128.897C121.739 132.813 125.669 135.989 130.545 136.051L130.543 136.08H141.712C143.042 136.08 144.123 137.161 144.123 138.491C144.123 139.82 143.042 140.901 141.712 140.901H136.546C128.381 140.901 121.738 147.544 121.738 155.709C121.738 163.875 128.38 170.518 136.546 170.518H156.521V158.121H136.547C135.217 158.121 134.136 157.039 134.136 155.71Z" fill="#F0F0F0"/>
<path d="M55.8738 155.71C55.8738 154.38 56.9547 153.3 58.2848 153.3H63.4504C71.616 153.3 78.2594 146.657 78.2594 138.491C78.2594 130.326 71.6164 123.683 63.4504 123.683H58.5449C56.9438 122.48 54.7957 121.738 52.4262 121.738C47.4832 121.738 43.4766 124.944 43.4766 128.897C43.4766 132.813 47.4066 135.989 52.2832 136.051L52.2809 136.08H63.4504C64.7805 136.08 65.8613 137.161 65.8613 138.491C65.8613 139.82 64.7805 140.901 63.4504 140.901H58.2848C50.1191 140.901 43.4766 147.544 43.4766 155.709C43.4766 163.875 50.1188 170.518 58.2848 170.518H78.259V158.121H58.2848C56.9547 158.121 55.8738 157.039 55.8738 155.71Z" fill="#F0F0F0"/>
</svg>
