<svg width="200" height="200" viewBox="0 0 200 200" fill="none" xmlns="http://www.w3.org/2000/svg">
<path d="M100 200C155.228 200 200 155.228 200 100C200 44.7715 155.228 0 100 0C44.7715 0 0 44.7715 0 100C0 155.228 44.7715 200 100 200Z" fill="#496E2D"/>
<path d="M99.9973 115.533C83.3465 115.533 69.4363 103.83 66.0234 88.2035C65.4992 90.6059 65.2148 93.0969 65.2148 95.657C65.2148 114.868 80.7871 130.439 99.9973 130.439C119.207 130.439 134.78 114.867 134.78 95.657C134.78 93.0969 134.495 90.6059 133.971 88.2031C130.558 103.831 116.648 115.533 99.9973 115.533Z" fill="#FFDA44"/>
<path d="M100.004 69.5703L103.241 79.5348H113.719L105.243 85.693L108.48 95.6574L100.004 89.4988L91.5273 95.6574L94.7652 85.693L86.2891 79.5348H96.766L100.004 69.5703Z" fill="#FFDA44"/>
</svg>
