<svg width="200" height="200" viewBox="0 0 200 200" fill="none" xmlns="http://www.w3.org/2000/svg">
<path d="M12.168 52.1738L100.009 60.8695L187.85 52.1738C170.889 21.0895 137.913 0 100.009 0C62.1047 0 29.1285 21.0895 12.168 52.1738Z" fill="#D80027"/>
<path d="M12.159 147.83L100 156.526L187.841 147.83C195.593 133.623 200 117.329 200 100.004L100 91.3086L0 100.004C0 117.329 4.40742 133.623 12.159 147.83Z" fill="#FFDA44"/>
<path d="M12.159 52.168C4.40742 66.3754 0 82.6699 0 99.9941H200C200 82.6699 195.593 66.3754 187.841 52.168H100H12.159Z" fill="#0052B4"/>
<path d="M100.009 200.006C137.913 200.006 170.889 178.916 187.85 147.832H12.168C29.1285 178.916 62.1047 200.006 100.009 200.006Z" fill="#6DA544"/>
</svg>
