<svg width="200" height="200" viewBox="0 0 200 200" fill="none" xmlns="http://www.w3.org/2000/svg">
<path d="M100 200C155.228 200 200 155.228 200 100C200 44.7715 155.228 0 100 0C44.7715 0 0 44.7715 0 100C0 155.228 44.7715 200 100 200Z" fill="#338AF3"/>
<path d="M47.832 108.691H152.18V121.735H47.832V108.691Z" fill="#818085"/>
<path d="M65.2148 69.568L99.9973 73.9164L134.78 69.568V48.6984L120.867 55.6551L99.9973 34.7852L79.1277 55.6551L65.2148 48.6984V69.568Z" fill="#FFDA44"/>
<path d="M56.5203 134.791H43.4766V110.878L47.8246 104.356L43.4766 97.8344V82.6172H56.5203V134.791Z" fill="#F0F0F0"/>
<path d="M156.52 134.791H143.477V82.6172H156.52V97.834L152.172 104.465L156.52 110.879V134.791Z" fill="#F0F0F0"/>
<path d="M43.4766 97.832H156.52V110.875H43.4766V97.832Z" fill="#ACABB1"/>
<path d="M99.9973 152.179C80.818 152.179 65.2148 136.575 65.2148 117.396V69.5703H134.78V117.396C134.78 136.575 119.177 152.179 99.9973 152.179Z" fill="#F0F0F0"/>
<path d="M100.001 139.138C88.0137 139.138 78.2617 129.386 78.2617 117.399V82.6172H121.74V117.399C121.74 129.386 111.988 139.138 100.001 139.138Z" fill="#0052B4"/>
<path d="M65.2148 69.5703H78.2582V82.6137H65.2148V69.5703Z" fill="#D80027"/>
<path d="M121.738 69.5703H134.782V82.6137H121.738V69.5703Z" fill="#D80027"/>
<path d="M121.738 97.832H134.782V110.875H121.738V97.832Z" fill="#D80027"/>
<path d="M65.2148 97.832H78.2582V110.875H65.2148V97.832Z" fill="#D80027"/>
<path d="M93.4766 69.5703H106.52V82.6137H93.4766V69.5703Z" fill="#D80027"/>
<path d="M99.9984 139.126C97.7266 139.126 95.5363 138.774 93.4766 138.125V151.547C95.5906 151.95 97.7687 152.17 99.9984 152.17C102.228 152.17 104.406 151.95 106.52 151.547V138.125C104.461 138.774 102.27 139.126 99.9984 139.126Z" fill="#D80027"/>
<path d="M78.5539 120.92L68.1445 131.329C69.9492 135.438 72.5242 139.133 75.6891 142.231L84.9078 133.012C81.618 129.834 79.3262 125.63 78.5539 120.92Z" fill="#D80027"/>
<path d="M131.861 131.327L121.451 120.918C120.679 125.628 118.387 129.831 115.098 133.011L124.316 142.229C127.48 139.131 130.056 135.436 131.861 131.327Z" fill="#D80027"/>
</svg>
