<svg width="200" height="200" viewBox="0 0 200 200" fill="none" xmlns="http://www.w3.org/2000/svg">
<path d="M99.9999 200C155.228 200 200 155.228 200 100C200 44.7715 155.228 0 99.9999 0C44.7715 0 0 44.7715 0 100C0 155.228 44.7715 200 99.9999 200Z" fill="#F0F0F0"/>
<path d="M199.998 99.9992C199.998 60.3531 176.926 26.0969 143.477 9.92188V190.076C176.926 173.902 199.998 139.645 199.998 99.9992Z" fill="#D80027"/>
<path d="M0 99.9992C0 139.645 23.0722 173.902 56.5218 190.077V9.92188C23.0722 26.0969 0 60.3531 0 99.9992Z" fill="#6DA544"/>
<path d="M73.9062 100.004C73.9062 114.412 85.5859 126.091 99.9933 126.091C114.401 126.091 126.08 114.412 126.08 100.004V91.3086H73.9062V100.004Z" fill="#6DA544"/>
<path d="M134.78 82.602H108.693C108.693 77.7996 104.8 73.9062 99.9976 73.9062C95.1953 73.9062 91.3019 77.7996 91.3019 82.602H65.2148C65.2148 87.4047 69.398 91.2977 74.2 91.2977H73.9105C73.9105 96.1004 77.8035 99.9934 82.6062 99.9934C82.6062 104.796 86.4992 108.689 91.3019 108.689H108.693C113.496 108.689 117.389 104.796 117.389 99.9934C122.192 99.9934 126.085 96.1004 126.085 91.2977H125.795C130.598 91.2977 134.78 87.4047 134.78 82.602Z" fill="#FF9811"/>
</svg>
