<svg width="200" height="200" viewBox="0 0 200 200" fill="none" xmlns="http://www.w3.org/2000/svg">
<path d="M100 200C155.228 200 200 155.228 200 100C200 44.7715 155.228 0 100 0C44.7715 0 0 44.7715 0 100C0 155.228 44.7715 200 100 200Z" fill="#338AF3"/>
<path d="M100.005 43.4785L104.321 56.7645H118.292L106.99 64.9758L111.307 78.2613L100.005 70.0504L88.7031 78.2613L93.0207 64.9758L81.7188 56.7645H95.6887L100.005 43.4785Z" fill="#F0F0F0"/>
<path d="M43.4766 100.006L56.7625 95.6891V81.7188L64.9738 93.0211L78.2594 88.7043L70.0484 100.006L78.2594 111.307L64.9738 106.99L56.7625 118.292V104.322L43.4766 100.006Z" fill="#F0F0F0"/>
<path d="M100.006 156.521L95.6891 143.235H81.7188L93.0211 135.024L88.7043 121.738L100.006 129.949L111.307 121.738L106.99 135.024L118.292 143.235H104.322L100.006 156.521Z" fill="#F0F0F0"/>
<path d="M156.521 100.005L143.235 104.322V118.292L135.024 106.99L121.738 111.307L129.949 100.005L121.738 88.7039L135.024 93.0211L143.235 81.7188V95.6887L156.521 100.005Z" fill="#F0F0F0"/>
</svg>
