<svg width="200" height="200" viewBox="0 0 200 200" fill="none" xmlns="http://www.w3.org/2000/svg">
<path d="M143.484 9.92266C130.337 3.56563 115.588 0 100.006 0C84.4238 0 69.6746 3.56563 56.5277 9.92266L47.832 100L56.5277 190.077C69.6746 196.434 84.4238 200 100.006 200C115.588 200 130.337 196.434 143.484 190.077L152.18 100L143.484 9.92266Z" fill="#FFDA44"/>
<path d="M56.5219 9.92188C23.0727 26.0965 0 60.35 0 99.9957C0 139.641 23.0727 173.895 56.5219 190.07V9.92188Z" fill="#0052B4"/>
<path d="M143.477 9.92188V190.07C176.926 173.895 199.998 139.641 199.998 99.9957C199.998 60.35 176.926 26.0965 143.477 9.92188Z" fill="#D80027"/>
<path d="M134.78 78.682H110.867C110.867 72.6789 106 67.8125 99.9973 67.8125C93.9942 67.8125 89.1277 72.6789 89.1277 78.682H65.2148C65.2148 84.5926 70.3637 89.3836 76.2734 89.3836H75.9172C75.9172 95.2945 80.7086 100.086 86.6195 100.086C86.6195 105.32 90.3781 109.668 95.3422 110.598L86.9086 129.637C90.9496 131.28 95.366 132.193 99.9973 132.193C104.628 132.193 109.045 131.28 113.086 129.637L104.652 110.598C109.616 109.668 113.375 105.32 113.375 100.086C119.286 100.086 124.077 95.2945 124.077 89.3836H123.721C129.631 89.3836 134.78 84.5922 134.78 78.682Z" fill="#FF9811"/>
<path d="M100.009 93.4785L85.8789 100V113.044L100.009 121.739L114.14 113.044V100L100.009 93.4785Z" fill="#0052B4"/>
<path d="M85.8789 86.9531H114.14V99.9965H85.8789V86.9531Z" fill="#D80027"/>
</svg>
