<svg width="200" height="200" viewBox="0 0 200 200" fill="none" xmlns="http://www.w3.org/2000/svg">
<path d="M100 200C112.232 200 123.95 197.8 134.783 193.78L139.131 100L134.783 6.21992C123.95 2.20039 112.232 0 100 0C87.7681 0 76.0505 2.20039 65.2177 6.21992L60.8696 100L65.2173 193.78C76.0505 197.8 87.7681 200 100 200Z" fill="#0052B4"/>
<path d="M0 99.991C0 142.987 27.1375 179.642 65.2176 193.771V6.21094C27.1375 20.3402 0 56.9945 0 99.991Z" fill="#A2001D"/>
<path d="M134.785 6.21094V193.771C172.865 179.642 200.003 142.987 200.003 99.991C200.003 56.9945 172.865 20.3402 134.785 6.21094Z" fill="#A2001D"/>
<path d="M47.8223 100H56.518V134.782H47.8223V100Z" fill="#FFDA44"/>
<path d="M13.0469 100H21.7426V134.782H13.0469V100Z" fill="#FFDA44"/>
<path d="M34.7797 121.747C39.5822 121.747 43.4754 117.854 43.4754 113.051C43.4754 108.249 39.5822 104.355 34.7797 104.355C29.9772 104.355 26.084 108.249 26.084 113.051C26.084 117.854 29.9772 121.747 34.7797 121.747Z" fill="#FFDA44"/>
<path d="M34.7871 86.957C37.1883 86.957 39.1348 85.0105 39.1348 82.6094C39.1348 80.2082 37.1883 78.2617 34.7871 78.2617C32.386 78.2617 30.4395 80.2082 30.4395 82.6094C30.4395 85.0105 32.386 86.957 34.7871 86.957Z" fill="#FFDA44"/>
<path d="M26.084 126.094H43.4754V134.789H26.084V126.094Z" fill="#FFDA44"/>
<path d="M26.084 91.3086H43.4754V100.004H26.084V91.3086Z" fill="#FFDA44"/>
<path d="M34.7816 52.168L37.8613 61.6445H47.8254L39.7648 67.5016L42.8422 76.9781L34.7816 71.1211L26.7215 76.9781L29.7988 67.5016L21.7383 61.6445H31.7023L34.7816 52.168Z" fill="#FFDA44"/>
</svg>
