<svg width="200" height="200" viewBox="0 0 200 200" fill="none" xmlns="http://www.w3.org/2000/svg">
<path d="M100 200C155.228 200 200 155.228 200 100C200 44.7715 155.228 0 100 0C44.7715 0 0 44.7715 0 100C0 155.228 44.7715 200 100 200Z" fill="#FFDA44"/>
<path d="M200 99.9914C200 65.6707 182.707 35.3918 156.362 17.3828H43.6379C17.293 35.3918 0 65.6707 0 99.9914C0 134.313 17.293 164.591 43.6379 182.6H156.362C182.707 164.591 200 134.313 200 99.9914Z" fill="#A2001D"/>
<path d="M78.2617 73.9187H121.74V56.5277L113.044 60.8754L100.001 47.832L86.9574 60.8754L78.2617 56.5277V73.9187Z" fill="#FFDA44"/>
<path d="M139.121 99.9996H117.39C118.243 98.5254 118.738 96.8195 118.738 94.9945C118.738 89.4527 114.245 84.9609 108.704 84.9609C104.876 84.9609 101.551 87.1062 99.859 90.2586C98.1672 87.1059 94.8422 84.9609 91.0137 84.9609C85.4727 84.9609 80.9801 89.4527 80.9801 94.9945C80.9801 96.8199 81.4762 98.5258 82.3277 99.9996H60.8594C60.8594 106.649 66.6512 112.039 73.3004 112.039H72.8996C72.8996 117.494 76.5273 122.099 81.5012 123.579L71.7289 133.352L80.952 142.575L94.0352 129.491C94.5477 129.679 95.0777 129.829 95.6258 129.932L87.7203 147.782C91.5086 149.323 95.6488 150.178 99.9906 150.178C104.332 150.178 108.472 149.323 112.261 147.782L104.355 129.932C104.903 129.83 105.433 129.679 105.945 129.491L119.029 142.575L128.251 133.352L118.479 123.579C123.452 122.099 127.08 117.494 127.08 112.04H126.679C133.329 112.039 139.121 106.649 139.121 99.9996Z" fill="#FFDA44"/>
<path d="M100.009 106.521L85.8789 113.043V126.087L100.009 134.782L114.14 126.087V113.043L100.009 106.521Z" fill="#6DA544"/>
<path d="M85.8789 100H114.14V117.391H85.8789V100Z" fill="#0052B4"/>
</svg>
