<svg width="200" height="200" viewBox="0 0 200 200" fill="none" xmlns="http://www.w3.org/2000/svg">
<path d="M100 200C155.228 200 200 155.228 200 100C200 44.7715 155.228 0 100 0C44.7715 0 0 44.7715 0 100C0 155.228 44.7715 200 100 200Z" fill="#D80027"/>
<path d="M159.102 82.0703H113.945L100 39.1406L86.0547 82.0703H40.8984L77.4219 108.594L63.4766 151.523L100 125L136.523 151.523L122.578 108.594L159.102 82.0703ZM87.6562 105.273L92.3828 90.7422H107.656L112.383 105.273L100.039 114.258L87.6562 105.273ZM104.805 82.0703H95.1953L100 67.2656L104.805 82.0703ZM119.766 99.9219L116.797 90.7812H132.344L119.766 99.9219ZM83.2422 90.7812L80.2734 99.9219L67.6953 90.7812H83.2422ZM80 128.789L84.8047 113.984L92.5781 119.648L80 128.789ZM107.383 119.648L115.156 113.984L119.961 128.789L107.383 119.648Z" fill="#6DA544"/>
</svg>
