<svg width="200" height="200" viewBox="0 0 200 200" fill="none" xmlns="http://www.w3.org/2000/svg">
<path d="M99.9999 200C155.228 200 200 155.228 200 100C200 44.7715 155.228 0 99.9999 0C44.7715 0 0 44.7715 0 100C0 155.228 44.7715 200 99.9999 200Z" fill="#F0F0F0"/>
<path d="M54.0555 139.121L29.2969 170.698C47.3922 188.796 72.3894 199.991 100.004 199.991C141.344 199.991 176.818 174.901 192.048 139.121H54.0555Z" fill="#FFDA44"/>
<path d="M192.203 61.2316C177.059 25.2586 141.484 0 100.004 0C72.3894 0 47.3922 11.1949 29.2969 29.2926L54.3398 61.2316H192.203Z" fill="#496E2D"/>
<path d="M21.7383 73.5547V126.091H196.555C198.798 117.774 199.999 109.03 199.999 100.004C199.999 90.8469 198.765 81.9797 196.46 73.5547H21.7383Z" fill="black"/>
<path d="M29.2892 29.2969C-9.76308 68.3492 -9.76308 131.666 29.2892 170.719C45.4271 154.581 60.9478 139.06 100 100.008L29.2892 29.2969Z" fill="#A2001D"/>
<path d="M40.4762 73.9062L46.9508 93.8344H67.9062L50.9539 106.152L57.4281 126.08L40.4762 113.764L23.5234 126.08L29.9992 106.152L13.0469 93.8344H34.0008L40.4762 73.9062Z" fill="#FFDA44"/>
<path d="M21.5234 100H59.4234V117.391H21.5234V100Z" fill="#F0F0F0"/>
<path d="M66.5929 80.0555L60.4441 73.9062L40.4644 93.8859L20.4848 73.9062L14.3359 80.0555L34.3332 100.017L14.3359 120.015L20.4848 126.08L40.4644 106.137L60.4441 126.08L66.5929 120.015L46.5957 100.017L66.5929 80.0555Z" fill="black"/>
</svg>
