<svg width="200" height="200" viewBox="0 0 200 200" fill="none" xmlns="http://www.w3.org/2000/svg">
<path d="M100 200C155.228 200 200 155.228 200 100C200 44.7715 155.228 0 100 0C44.7715 0 0 44.7715 0 100C0 155.228 44.7715 200 100 200Z" fill="#F0F0F0"/>
<path d="M29.2957 170.717C33.4906 174.912 37.9664 178.653 42.6613 181.946L181.946 42.6613C178.653 37.9664 174.912 33.4906 170.716 29.2957C166.521 25.1008 162.046 21.3602 157.351 18.0664L18.0664 157.352C21.3598 162.046 25.1008 166.522 29.2957 170.717Z" fill="#A2001D"/>
<path d="M29.2857 29.2847C-2.26277 60.8332 -8.31902 108.213 11.104 145.846L145.847 11.1039C108.213 -8.31918 60.8333 -2.26215 29.2857 29.2847Z" fill="#0052B4"/>
<path d="M170.702 170.702C202.25 139.155 208.306 91.7746 188.884 54.1406L54.1406 188.884C91.7738 208.307 139.154 202.25 170.702 170.702Z" fill="#496E2D"/>
<path d="M82.6 56.5168L71.3945 61.7875L77.3617 72.6398L65.1941 70.3125L63.652 82.6035L55.177 73.5633L46.7016 82.6035L45.1602 70.3125L32.9922 72.6395L38.959 61.7871L27.7539 56.5168L38.9594 51.2457L32.9922 40.3941L45.1598 42.7215L46.702 30.4297L55.177 39.4703L63.6523 30.4297L65.1941 42.7215L77.3617 40.3941L71.3953 51.2461L82.6 56.5168Z" fill="#FFDA44"/>
</svg>
