<svg width="200" height="200" viewBox="0 0 200 200" fill="none" xmlns="http://www.w3.org/2000/svg">
<path d="M100 200C155.228 200 200 155.228 200 100C200 44.7715 155.228 0 100 0C44.7715 0 0 44.7715 0 100C0 155.228 44.7715 200 100 200Z" fill="#0052B4"/>
<path d="M100 200C155.228 200 200 155.228 200 100C200 44.7715 155.228 0 100 0C44.7715 0 0 44.7715 0 100C0 155.228 44.7715 200 100 200Z" fill="#FFDA44"/>
<path d="M99.9902 0C47.6918 0 4.77852 40.1488 0.371094 91.3043H199.61C195.202 40.1488 152.289 0 99.9902 0Z" fill="#0052B4"/>
<path d="M99.9902 199.996C152.289 199.996 195.202 159.847 199.61 108.691H0.371094C4.77852 159.847 47.6918 199.996 99.9902 199.996Z" fill="#0052B4"/>
<path d="M82.6004 134.778L71.3949 140.049L77.3617 150.901L65.1941 148.573L63.6523 160.865L55.177 151.825L46.702 160.865L45.1602 148.573L32.9922 150.901L38.9594 140.049L27.7539 134.778L38.9598 129.507L32.9922 118.656L45.1598 120.983L46.7023 108.691L55.177 117.732L63.6527 108.691L65.1941 120.983L77.3621 118.656L71.3953 129.508L82.6004 134.778Z" fill="#F0F0F0"/>
</svg>
