<svg width="200" height="200" viewBox="0 0 200 200" fill="none" xmlns="http://www.w3.org/2000/svg">
<path d="M100 200C155.228 200 200 155.228 200 100C200 44.7715 155.228 0 100 0C44.7715 0 0 44.7715 0 100C0 155.228 44.7715 200 100 200Z" fill="#F0F0F0"/>
<path d="M199.417 110.862L199.414 110.859L199.414 110.862H199.417Z" fill="#0052B4"/>
<path d="M199.41 110.877C199.41 110.876 199.411 110.875 199.411 110.874L89.7445 0.527344C84.7973 1.03164 79.9562 1.89648 75.2488 3.09531C31.9914 14.109 0 100.007 0 100.007C0 100.007 139.999 193.693 155.971 182.884C159.166 180.721 162.23 178.379 165.148 175.871L100.154 110.877H199.41Z" fill="#0052B4"/>
<path d="M173.913 100.008L76.6582 2.75391C32.6906 13.2684 0 52.8176 0 100.008C0 155.236 44.7719 200.008 100 200.008C120.949 200.008 140.389 193.562 156.457 182.552L73.9129 100.008H173.913Z" fill="#D80027"/>
<path d="M95.1098 147.654L82.8969 141.909L89.4004 130.081L76.1387 132.618L74.4582 119.221L65.2211 129.074L55.984 119.221L54.3031 132.618L41.0418 130.081L47.5453 141.909L35.332 147.654L47.5453 153.398L41.0418 165.226L54.3039 162.689L55.9836 176.086L65.2211 166.232L74.4582 176.086L76.1387 162.689L89.4 165.226L82.8965 153.398L95.1098 147.654Z" fill="#F0F0F0"/>
<path d="M86.9551 55.4648L78.0723 51.2871L82.8023 42.6844L73.1566 44.5297L71.9344 34.7852L65.216 41.952L58.4977 34.7852L57.275 44.5297L47.6293 42.6844L52.3598 51.2871L43.4766 55.4648L65.216 59.8133L86.9551 55.4648Z" fill="#F0F0F0"/>
<path d="M91.2953 55.4688C91.2953 69.8762 79.6156 81.5559 65.2082 81.5559C50.8008 81.5559 39.1211 69.8762 39.1211 55.4688" fill="#F0F0F0"/>
</svg>
