<svg width="200" height="200" viewBox="0 0 200 200" fill="none" xmlns="http://www.w3.org/2000/svg">
<path d="M200 100C200 155.228 155.228 200 100 200C44.7719 200 0 155.228 0 100C0 100.024 100 0.0109375 100 0C155.228 0 200 44.7719 200 100Z" fill="#0052B4"/>
<path d="M99.7266 99.9941H99.9941C99.9941 99.9043 99.9941 99.8168 99.9941 99.7266C99.9051 99.816 99.816 99.9051 99.7266 99.9941Z" fill="#F0F0F0"/>
<path d="M100 52.1738C100 34.5781 100 23.0488 100 0H99.9832C44.7625 0.009375 0 44.777 0 100H52.1738V70.6207L81.5535 100H99.7328C99.8219 99.9109 99.9113 99.8219 100 99.7324C100 92.9953 100 86.984 100 81.5539L70.6203 52.1738H100Z" fill="#F0F0F0"/>
<path d="M50.5953 13.0469C34.9551 21.9527 21.9527 34.9551 13.0469 50.5953V100.004H39.134V39.1348V39.134H100.004C100.004 30.9063 100.004 23.068 100.004 13.0469H50.5953Z" fill="#D80027"/>
<path d="M99.9938 87.6965L64.4652 52.168C64.4652 52.168 52.168 52.1688 52.168 52.168V52.1687L99.9934 99.9938H99.9938C99.9938 99.9938 99.9938 91.5145 99.9938 87.6965Z" fill="#D80027"/>
<path d="M173.167 74.1992L175.325 80.8422H182.31L176.659 84.9477L178.818 91.5902L173.167 87.4852L167.516 91.5902L169.675 84.9477L164.023 80.8422H171.008L173.167 74.1992Z" fill="#D80027"/>
<path d="M148.207 122.031L151.445 131.996H161.922L153.445 138.154L156.684 148.118L148.207 141.96L139.73 148.118L142.969 138.154L134.492 131.996H144.969L148.207 122.031Z" fill="#D80027"/>
<path d="M149.143 43.7676L151.842 52.0719H160.573L153.509 57.2027L156.207 65.5066L149.143 60.3742L142.08 65.5066L144.778 57.2027L137.715 52.0719H146.445L149.143 43.7676Z" fill="#D80027"/>
<path d="M125.121 73.9062L128.359 83.8711H138.836L130.359 90.0289L133.598 99.9934L125.121 93.8352L116.645 99.9934L119.883 90.0289L111.406 83.8711H121.883L125.121 73.9062Z" fill="#D80027"/>
</svg>
