<svg width="200" height="200" viewBox="0 0 200 200" fill="none" xmlns="http://www.w3.org/2000/svg">
<path d="M100 200C155.228 200 200 155.228 200 100C200 44.7715 155.228 0 100 0C44.7715 0 0 44.7715 0 100C0 155.228 44.7715 200 100 200Z" fill="#F0F0F0"/>
<path d="M100 0C60.3541 0 26.0979 23.0723 9.92285 56.5218H190.077C173.903 23.0723 139.646 0 100 0Z" fill="#338AF3"/>
<path d="M99.9992 200C139.645 200 173.902 176.928 190.077 143.479H9.92188C26.0969 176.928 60.3531 200 99.9992 200Z" fill="#338AF3"/>
<path d="M100.005 69.5703C83.1965 69.5703 69.5703 83.1965 69.5703 100.005C69.5703 116.814 83.1965 130.44 100.005 130.44C116.814 130.44 130.44 116.814 130.44 100.005C130.44 83.1965 116.814 69.5703 100.005 69.5703ZM100.005 117.396C90.4004 117.396 82.6137 109.611 82.6137 100.005C82.6137 90.3996 90.4 82.6137 100.005 82.6137C109.61 82.6137 117.396 90.3996 117.396 100.005C117.396 109.611 109.61 117.396 100.005 117.396Z" fill="#FFDA44"/>
<path d="M115.066 104.348L100.004 100L84.9422 104.348L79.9219 113.043H120.086L115.066 104.348Z" fill="#0052B4"/>
<path d="M100.002 78.2617L89.9609 95.6531L100.002 100.001L110.043 95.6531L100.002 78.2617Z" fill="#338AF3"/>
<path d="M84.9414 104.34H115.065L110.044 95.6445H89.9621L84.9414 104.34Z" fill="#6DA544"/>
</svg>
