<svg width="200" height="200" viewBox="0 0 200 200" fill="none" xmlns="http://www.w3.org/2000/svg">
<path d="M9.92266 56.5277C3.56563 69.6746 0 84.4234 0 100.006C0 115.588 3.56563 130.337 9.92266 143.484L100 152.18L190.077 143.484C196.434 130.337 200 115.588 200 100.006C200 84.4234 196.434 69.6746 190.077 56.5277L100 47.832L9.92266 56.5277Z" fill="#F0F0F0"/>
<path d="M9.92188 143.479C26.0961 176.928 60.3496 200 99.9957 200C139.642 200 173.895 176.928 190.07 143.479H9.92188Z" fill="#6DA544"/>
<path d="M9.92188 56.5218H190.07C173.895 23.0723 139.641 0 99.9957 0C60.35 0 26.0961 23.0723 9.92188 56.5218Z" fill="#FF9811"/>
<path d="M99.9973 134.78C119.207 134.78 134.78 119.207 134.78 99.9972C134.78 80.7875 119.207 65.2148 99.9973 65.2148C80.7875 65.2148 65.2148 80.7875 65.2148 99.9972C65.2148 119.207 80.7875 134.78 99.9973 134.78Z" fill="#FF9811"/>
</svg>
