<svg width="200" height="200" viewBox="0 0 200 200" fill="none" xmlns="http://www.w3.org/2000/svg">
<path d="M200 100C200 155.228 155.228 200 100 200C44.7719 200 0 155.228 0 100C0 100.024 100 0.0109375 100 0C155.228 0 200 44.7719 200 100Z" fill="#FFDA44"/>
<path d="M99.9973 47.832V81.5598L65.2148 47.832H99.9973Z" fill="#0052B4"/>
<path d="M52.1797 100.009H81.559L52.1797 60.8789L47.832 91.3137L52.1797 100.009Z" fill="#0052B4"/>
<path d="M99.7266 99.9941H99.9941C99.9941 99.9043 99.9941 99.8168 99.9941 99.7266C99.9051 99.816 99.816 99.9051 99.7266 99.9941Z" fill="#F0F0F0"/>
<path d="M100 52.1738C100 34.5781 100 23.0488 100 0H99.9832C44.7621 0.009375 0 44.777 0 100H52.1738V70.6207L81.5531 100H99.7328C99.8219 99.9109 99.9109 99.8219 100 99.7324C100 92.9953 100 86.984 100 81.5539L70.6203 52.1738H100Z" fill="#F0F0F0"/>
<path d="M99.9941 87.6965L64.4648 52.168H52.168V52.1687L99.9934 99.9938H99.9941C99.9941 99.9938 99.9941 91.5145 99.9941 87.6965Z" fill="#D80027"/>
<path d="M50.5953 13.0469C46.7402 15.2422 43.0469 17.6887 39.5344 20.3594H43.6375L32.793 28.2398L36.9344 40.9887L26.0898 33.1098L24.9359 33.9484C20.4332 39.0617 16.441 44.6352 13.0469 50.5953V100.004H39.134V39.1348V39.134H100.004C100.004 30.9063 100.004 23.068 100.004 13.0469H50.5953Z" fill="#D80027"/>
<path d="M42.7184 18.0273C41.6398 18.7824 40.5766 19.5586 39.5293 20.3551L32.7891 28.2355L26.0859 33.1051L24.9223 33.9504C22.4668 36.7395 20.1641 39.666 18.0273 42.718C20.4629 43.9 23.1969 44.5645 26.0859 44.5645C36.2914 44.5645 44.5641 36.2918 44.5641 26.0863C44.5648 23.1965 43.9008 20.4633 42.7184 18.0273Z" fill="#0052B4"/>
<path d="M24.9219 33.9469L26.0855 33.1016L36.9301 40.9809L32.7883 28.232L43.632 20.3516H39.5281C34.218 24.3902 29.3246 28.9465 24.9219 33.9469Z" fill="#FFDA44"/>
<path d="M69.1242 17.3828L71.2828 24.0254H78.2672L72.6168 28.1313L74.7742 34.7738L69.1242 30.6684L63.4738 34.7738L65.6309 28.1313L59.9805 24.0254H66.9652L69.1242 17.3828Z" fill="#FFDA44"/>
<path d="M26.0965 60.8789L28.2551 67.5215H35.2395L29.5895 71.6277L31.7469 78.2703L26.0965 74.1645L20.4457 78.2703L22.6031 71.6277L16.9531 67.5215H23.9375L26.0965 60.8789Z" fill="#FFDA44"/>
</svg>
