<svg width="200" height="200" viewBox="0 0 200 200" fill="none" xmlns="http://www.w3.org/2000/svg">
<path d="M143.474 9.92266C130.327 3.56563 115.579 0 99.9961 0C84.4137 0 69.6649 3.56563 56.518 9.92266L47.8223 100L56.518 190.077C69.6649 196.434 84.4137 200 99.9961 200C115.579 200 130.327 196.434 143.474 190.077L152.17 100L143.474 9.92266Z" fill="#F0F0F0"/>
<path d="M56.5219 9.92188C23.0723 26.0961 0 60.3496 0 99.9957C0 139.642 23.0723 173.895 56.5219 190.07V9.92188Z" fill="#6DA544"/>
<path d="M143.477 9.92188V190.07C176.926 173.895 199.998 139.641 199.998 99.9957C199.998 60.35 176.926 26.0961 143.477 9.92188Z" fill="#6DA544"/>
<path d="M126.09 130.441L100.003 47.832L73.916 130.441H93.4813V152.18H106.525V130.441H126.09Z" fill="#6DA544"/>
</svg>
