<svg width="200" height="200" viewBox="0 0 200 200" fill="none" xmlns="http://www.w3.org/2000/svg">
<path d="M100 200C155.228 200 200 155.228 200 100C200 44.7715 155.228 0 100 0C44.7715 0 0 44.7715 0 100C0 155.228 44.7715 200 100 200Z" fill="#F0F0F0"/>
<path d="M100.004 0C69.6953 0 42.5379 13.4859 24.1992 34.7824H175.809C157.471 13.4859 130.313 0 100.004 0Z" fill="#0052B4"/>
<path d="M175.809 165.215H24.1992C42.5379 186.511 69.6953 199.997 100.004 199.997C130.313 199.997 157.471 186.511 175.809 165.215Z" fill="#0052B4"/>
<path d="M185.323 47.832H14.6773C5.36914 63.0215 0 80.8859 0 100.006C0 119.126 5.36914 136.991 14.6773 152.18H185.323C194.631 136.991 200 119.126 200 100.006C200 80.8859 194.631 63.0215 185.323 47.832Z" fill="#D80027"/>
<path d="M61.525 138.478C82.7759 138.478 100.003 121.25 100.003 99.9996C100.003 78.7487 82.7759 61.5215 61.525 61.5215C40.2741 61.5215 23.0469 78.7487 23.0469 99.9996C23.0469 121.25 40.2741 138.478 61.525 138.478Z" fill="#F0F0F0"/>
<path d="M61.5184 61.5215L70.1516 88.0922H98.1352L75.4879 104.515L84.1887 131.165L61.5184 114.664L38.8824 131.134L47.5488 104.515L24.9219 88.0922H52.8848L61.5184 61.5215Z" fill="#D80027"/>
</svg>
