<svg width="200" height="200" viewBox="0 0 200 200" fill="none" xmlns="http://www.w3.org/2000/svg">
<path d="M100 200C155.228 200 200 155.228 200 100C200 44.7715 155.228 0 100 0C44.7715 0 0 44.7715 0 100C0 155.228 44.7715 200 100 200Z" fill="#338AF3"/>
<path d="M96.8415 162.964C94.1458 162.833 91.9153 161.081 91.0415 158.703C89.4981 160.716 86.8458 161.729 84.2329 161.055C81.6153 160.381 79.7852 158.216 79.4067 155.703C77.4849 157.363 74.6849 157.815 72.2634 156.629C69.8372 155.438 68.481 152.946 68.62 150.411C66.4071 151.655 63.5724 151.533 61.4376 149.881C59.3071 148.228 58.4767 145.52 59.12 143.063C56.7024 143.837 53.9548 143.15 52.1938 141.102C50.4329 139.059 50.163 136.237 51.2852 133.963C48.7634 134.232 46.2071 133.006 44.8938 130.65C43.5763 128.294 43.881 125.472 45.4415 123.467C42.9153 123.224 40.6544 121.506 39.8458 118.932C39.0329 116.358 39.9024 113.654 41.8372 112.006C39.411 111.258 37.5501 109.119 37.2763 106.437C37.0024 103.754 38.3938 101.289 40.6153 100.063C38.3934 98.8451 36.9935 96.3803 37.2587 93.7018H37.263C37.5282 91.0147 39.3892 88.8717 41.8106 88.1147C39.8759 86.4713 38.9977 83.7713 39.802 81.1971C40.6063 78.619 42.8626 76.8971 45.3892 76.6447C43.8282 74.6447 43.5153 71.8225 44.8239 69.4623C46.1325 67.1057 48.6892 65.8752 51.2153 66.1404C50.0849 63.8666 50.3501 61.0447 52.1067 58.9928C53.8591 56.9451 56.6067 56.2537 59.0286 57.019C58.3763 54.5666 59.2024 51.8537 61.3329 50.1975C63.4591 48.5404 66.2938 48.4143 68.5067 49.649C68.3634 47.1147 69.7153 44.6229 72.1372 43.4272C74.5548 42.2358 77.3591 42.6795 79.2849 44.3401C79.6544 41.8276 81.4849 39.6537 84.0977 38.9748C86.7063 38.2967 89.3587 39.301 90.9063 41.3096C91.7802 38.9315 94.0063 37.1748 96.702 37.0401C99.3935 36.9014 101.784 38.4139 102.898 40.6885C104.228 38.5319 106.759 37.2537 109.424 37.658C112.093 38.058 114.141 40.0229 114.776 42.4799C116.515 40.6272 119.254 39.8928 121.785 40.8229C124.32 41.7576 125.928 44.0967 126.05 46.6358C128.124 45.1752 130.959 45.0053 133.25 46.4315C135.541 47.8533 136.642 50.4662 136.25 52.9748C138.576 51.9619 141.385 52.3662 143.341 54.2182C145.298 56.0748 145.854 58.8529 144.968 61.2311C147.45 60.7049 150.12 61.6615 151.668 63.8744C153.215 66.083 153.202 68.9178 151.859 71.0701C154.394 71.0526 156.816 72.5311 157.89 75.0049C158.959 77.483 158.372 80.2615 156.62 82.1006C159.111 82.5963 161.185 84.5311 161.733 87.1744C162.276 89.8178 161.141 92.4135 159.059 93.8615C161.39 94.849 163.033 97.1572 163.037 99.8529V99.9401V99.9967C163.037 102.692 161.402 105.005 159.072 106.001C161.159 107.44 162.302 110.036 161.759 112.679C161.22 115.322 159.15 117.262 156.659 117.766C158.416 119.601 159.011 122.375 157.946 124.858C156.881 127.336 154.459 128.819 151.92 128.805C153.268 130.958 153.29 133.792 151.746 136.005C150.203 138.219 147.538 139.184 145.055 138.662C145.946 141.036 145.394 143.819 143.442 145.68C141.485 147.537 138.681 147.945 136.355 146.94C136.75 149.445 135.655 152.062 133.368 153.493C131.081 154.923 128.246 154.758 126.168 153.301C126.05 155.84 124.45 158.184 121.92 159.123C119.39 160.062 121.92 159.123 121.916 159.123C119.385 160.058 116.646 159.328 114.903 157.48C114.277 159.941 112.233 161.91 109.564 162.319C106.899 162.724 104.364 161.454 103.029 159.297C101.968 161.485 99.7247 162.971 97.1681 162.971C97.0591 162.973 96.9505 162.969 96.8415 162.964Z" fill="#F3F3F3"/>
<path d="M100.002 143.478C124.014 143.478 143.48 124.012 143.48 99.9996C143.48 75.9873 124.014 56.5215 100.002 56.5215C75.9893 56.5215 56.5234 75.9873 56.5234 99.9996C56.5234 124.012 75.9893 143.478 100.002 143.478Z" fill="#338AF3"/>
<path d="M109.525 85.2391C111.661 83.6547 113.052 81.1223 113.052 78.2582V73.9105C113.052 69.1078 109.159 65.2148 104.356 65.2148H95.6605C90.8578 65.2148 86.9648 69.1078 86.9648 73.9105V78.2582C86.9648 81.1223 88.3555 83.6547 90.4914 85.2391L82.6172 165.214C82.6172 165.214 86.9648 169.563 100.009 169.563C113.052 169.563 117.4 165.214 117.4 165.214L109.525 85.2391Z" fill="#BDBCC1"/>
<path d="M100.009 65.2148L107.563 88.4641H132.01L112.232 102.834L119.786 126.084L100.009 111.715L80.2305 126.084L87.7855 102.834L68.0078 88.4641H92.4543L100.009 65.2148Z" fill="#F0F0F0"/>
</svg>
