<svg width="200" height="200" viewBox="0 0 200 200" fill="none" xmlns="http://www.w3.org/2000/svg">
<path d="M100 200C155.228 200 200 155.228 200 100C200 44.7715 155.228 0 100 0C44.7715 0 0 44.7715 0 100C0 155.228 44.7715 200 100 200Z" fill="#F0F0F0"/>
<path d="M24.1859 34.7852C20.677 38.8605 17.4914 43.2211 14.668 47.8285H185.313C182.49 43.2211 179.305 38.8602 175.795 34.7852H24.1859Z" fill="#D80027"/>
<path d="M24.1855 165.211H175.795C179.304 161.136 182.49 156.775 185.313 152.168H14.668C17.491 156.775 20.6766 161.136 24.1855 165.211Z" fill="#D80027"/>
<path d="M87.2031 81.7188L95.4078 93.0254L108.696 88.7168L100.478 100.014L108.682 111.32L95.3988 106.995L87.1813 118.292L87.1895 104.323L73.9062 99.9977L87.1945 95.6891L87.2031 81.7188Z" fill="#D80027"/>
<path d="M64.8121 128.261C49.2043 128.261 36.5512 115.607 36.5512 99.9996C36.5512 84.3918 49.2043 71.7387 64.8121 71.7387C69.6785 71.7387 74.2578 72.9691 78.2555 75.1356C71.984 69.0023 63.407 65.2168 53.9426 65.2168C34.7324 65.2168 19.1602 80.7895 19.1602 99.9992C19.1602 119.209 34.7328 134.782 53.9426 134.782C63.407 134.782 71.984 130.996 78.2555 124.863C74.2578 127.03 69.6789 128.261 64.8121 128.261Z" fill="#D80027"/>
</svg>
