<svg width="200" height="200" viewBox="0 0 200 200" fill="none" xmlns="http://www.w3.org/2000/svg">
<path d="M100 200C155.228 200 200 155.228 200 100C200 44.7715 155.228 0 100 0C44.7715 0 0 44.7715 0 100C0 155.228 44.7715 200 100 200Z" fill="#F0F0F0"/>
<path d="M0 100.009C0 137.913 21.0898 170.89 52.1738 187.85V12.168C21.0898 29.1281 0 62.1047 0 100.009Z" fill="#D80027"/>
<path d="M193.78 134.78C197.8 123.946 200 112.229 200 99.9973C200 87.7652 197.8 76.0477 193.78 65.2148H6.22031C2.20039 76.0477 0 87.7652 0 99.9973C0 112.229 2.20039 123.946 6.22031 134.78L100 143.475L193.78 134.78Z" fill="#D80027"/>
<path d="M99.9906 200.003C142.988 200.003 179.641 172.865 193.771 134.785H6.21094C20.3398 172.865 56.9945 200.003 99.9906 200.003Z" fill="#6DA544"/>
<path d="M0 99.9926C0 146.195 31.3363 185.073 73.9129 196.548V3.4375C31.3363 14.9125 0 53.7898 0 99.9926Z" fill="#D80027"/>
<path d="M61.1734 44.0082L51.9504 34.7852L45.802 40.9344L39.6535 34.7852L30.4305 44.0082L36.5793 50.157L30.4297 56.3062L39.6527 65.5293L45.8016 59.3801L51.9504 65.5293L61.1734 56.3062L55.0246 50.157L61.1734 44.0082Z" fill="#F0F0F0"/>
</svg>
