<svg width="200" height="200" viewBox="0 0 200 200" fill="none" xmlns="http://www.w3.org/2000/svg">
<path d="M100 200C155.228 200 200 155.228 200 100C200 44.7715 155.228 0 100 0C44.7715 0 0 44.7715 0 100C0 155.228 44.7715 200 100 200Z" fill="#F0F0F0"/>
<path d="M0 100.009C0 137.913 21.0895 170.889 52.1738 187.85V12.168C21.0895 29.1285 0 62.1047 0 100.009Z" fill="#F0F0F0"/>
<path d="M99.9941 0C82.6699 0 66.3754 4.40742 52.168 12.159V187.841C66.3754 195.593 82.6699 200 99.9941 200C155.222 200 199.994 155.228 199.994 100C199.994 44.7719 155.222 0 99.9941 0Z" fill="#496E2D"/>
<path d="M142.764 116.534C130.113 125.675 112.446 122.83 103.306 110.179C94.1643 97.5273 97.01 79.8613 109.661 70.7207C113.606 67.8707 118.038 66.1859 122.547 65.6003C113.872 64.3031 104.702 66.2578 97.0315 71.8003C81.4612 83.0511 77.9585 104.794 89.2089 120.365C100.459 135.935 122.202 139.438 137.773 128.186C145.445 122.644 150.18 114.553 151.671 105.909C149.7 110.005 146.709 113.684 142.764 116.534Z" fill="#F0F0F0"/>
<path d="M142.221 65.2148L149.347 72.8949L158.854 68.4918L153.751 77.6418L160.877 85.3227L150.597 83.2973L145.495 92.448L144.245 82.0457L133.965 80.0203L143.471 75.6172L142.221 65.2148Z" fill="#F0F0F0"/>
</svg>
