<svg width="200" height="200" viewBox="0 0 200 200" fill="none" xmlns="http://www.w3.org/2000/svg">
<path d="M100 200C155.228 200 200 155.228 200 100C200 44.7715 155.228 0 100 0C44.7715 0 0 44.7715 0 100C0 155.228 44.7715 200 100 200Z" fill="#F0F0F0"/>
<path d="M0 100C0 155.228 44.7719 200 100 200C100 161.971 100 100 100 100C100 100 34.7824 100 0 100Z" fill="#0052B4"/>
<path d="M100 0C155.228 0 200 44.7719 200 100C161.971 100 100 100 100 100C100 100 100 34.7824 100 0Z" fill="#D80027"/>
<path d="M59.5195 34.7852L65.9949 54.7141H86.9492L69.9969 67.0305L76.4719 86.9594L59.5195 74.6426L42.5672 86.9594L49.0422 67.0305L32.0898 54.7141H53.0441L59.5195 34.7852Z" fill="#0052B4"/>
<path d="M140.477 113.047L146.952 132.976H167.906L150.954 145.292L157.429 165.221L140.477 152.904L123.524 165.221L129.999 145.292L113.047 132.976H134.001L140.477 113.047Z" fill="#D80027"/>
</svg>
