<svg width="200" height="200" viewBox="0 0 200 200" fill="none" xmlns="http://www.w3.org/2000/svg">
<path d="M170.711 170.71C131.659 209.763 68.3423 209.763 29.2892 170.71C-9.76313 131.658 -9.76313 68.341 29.2896 29.2882C68.3419 -9.7642 125.51 -3.61536 164.562 35.4374C203.614 74.4899 209.763 131.658 170.711 170.71Z" fill="black"/>
<path d="M29.2969 29.289C68.3492 -9.76345 131.665 -9.76267 170.718 29.2894C209.771 68.3418 209.771 131.658 170.718 170.711" fill="#A2001D"/>
<path d="M76.4248 134.785L78.0436 139.768H83.2822L79.0439 142.846L80.6631 147.829L76.4248 144.75L72.1865 147.829L73.8053 142.846L69.5674 139.768H74.8057L76.4248 134.785Z" fill="#F0F0F0"/>
<path d="M63.05 86.9531L65.7488 95.2571H74.4793L67.4156 100.389L70.1137 108.693L63.05 103.56L55.9867 108.693L58.6852 100.389L51.6211 95.2571H60.3523L63.05 86.9531Z" fill="#F0F0F0"/>
<path d="M63.05 147.832L65.7481 156.136H74.4793L67.4148 161.267L70.1137 169.571L63.05 164.439L55.9867 169.571L58.6844 161.267L51.6211 156.136H60.3512L63.05 147.832Z" fill="#F0F0F0"/>
<path d="M88.5745 108.691L91.2733 116.995H100.004L92.9401 122.127L95.6382 130.431L88.5745 125.298L81.5112 130.431L84.2097 122.127L77.146 116.995H85.8769L88.5745 108.691Z" fill="#F0F0F0"/>
<path d="M37.5227 108.691L40.2215 116.995H48.9516L41.8883 122.127L44.5859 130.431L37.5227 125.298L30.459 130.431L33.1578 122.127L26.0938 116.995H34.8246L37.5227 108.691Z" fill="#F0F0F0"/>
<path d="M167.389 74.0415C162.92 69.5723 157.113 66.9321 150.873 66.4786L169.553 51.95C162.113 44.5106 152.142 41.1508 142.412 41.8614C141.247 37.6754 139.027 33.7215 135.735 30.4297L128.356 45.1867C127.872 44.3047 127.26 43.4746 126.512 42.7274C122.267 38.4824 115.385 38.4824 111.14 42.7274C106.896 46.9723 106.895 53.8543 111.14 58.0993C111.887 58.8465 112.718 59.4594 113.6 59.9438L98.8428 67.3223C102.135 70.6153 106.092 72.8376 110.28 74.0017C109.567 83.7314 112.924 93.7009 120.363 101.141L136.684 80.1571C137.912 78.9481 139.533 78.2806 141.258 78.2806C143 78.2806 144.638 78.9587 145.869 80.1911C147.101 81.4228 147.78 83.0607 147.78 84.8025C147.78 86.5446 147.101 88.1822 145.869 89.4142L152.019 95.5634C154.892 92.6892 156.476 88.8677 156.476 84.8028C156.476 81.4771 155.415 78.3153 153.456 75.7013C156.31 76.4634 159.007 77.9563 161.242 80.1911C168.023 86.972 168.023 98.0056 161.242 104.786L167.391 110.935C172.318 106.008 175.031 99.4572 175.031 92.4888C175.03 85.5196 172.316 78.9689 167.389 74.0415Z" fill="#FFDA44"/>
</svg>
