<svg width="200" height="200" viewBox="0 0 200 200" fill="none" xmlns="http://www.w3.org/2000/svg">
<path d="M99.9999 200C155.228 200 200 155.228 200 100C200 44.7715 155.228 0 99.9999 0C44.7715 0 0 44.7715 0 100C0 155.228 44.7715 200 99.9999 200Z" fill="#F0F0F0"/>
<path d="M100.008 0V100L29.2969 170.711C47.3933 188.807 72.3933 200 100.008 200C155.236 200 200.008 155.228 200.008 100C200.008 44.7719 100.008 0 100.008 0Z" fill="#D80027"/>
<path d="M100.008 0C72.3933 0 47.3933 11.193 29.2969 29.2891C53.832 53.8242 62.5418 62.5344 100.008 100H200.008C200.008 44.7719 155.236 0 100.008 0Z" fill="#0052B4"/>
<path d="M68.4687 99.9949L56.2562 94.2504L62.7597 82.4227L49.498 84.9598L47.8175 71.5625L38.5801 81.4156L29.3429 71.5625L27.6621 84.9598L14.4008 82.4223L20.9043 94.2504L8.69141 99.9949L20.9043 105.739L14.4008 117.567L27.6633 115.03L29.3426 128.427L38.5801 118.574L47.8175 128.427L49.498 115.03L62.7589 117.568L56.2558 105.74L68.4687 99.9949Z" fill="#FFDA44"/>
<path d="M26.6719 39.1211L30.7359 44.802L37.3941 42.693L33.2465 48.3133L37.3105 53.9941L30.6832 51.7867L26.5359 57.4066L26.5879 50.4223L19.9609 48.2145L26.6203 46.1055L26.6719 39.1211Z" fill="#FFDA44"/>
<path d="M26.6719 142.578L30.7359 148.259L37.3941 146.15L33.2465 151.77L37.3105 157.451L30.6832 155.244L26.5359 160.864L26.5879 153.879L19.9609 151.671L26.6203 149.562L26.6719 142.578Z" fill="#FFDA44"/>
<path d="M84.6256 90.8594L80.5619 96.5402L73.9033 94.4305L78.051 100.051L73.9869 105.732L80.6143 103.525L84.7619 109.145L84.7096 102.161L91.3365 99.9527L84.6775 97.8438L84.6256 90.8594Z" fill="#FFDA44"/>
</svg>
