<svg width="200" height="200" viewBox="0 0 200 200" fill="none" xmlns="http://www.w3.org/2000/svg">
<path d="M200 100C200 155.228 155.228 200 100 200C44.7719 200 0 155.228 0 100C0 100.024 100 0.0109375 100 0C155.228 0 200 44.7719 200 100Z" fill="#0052B4"/>
<path d="M99.7266 99.9941H99.9941C99.9941 99.9043 99.9941 99.8168 99.9941 99.7266C99.9051 99.816 99.816 99.9051 99.7266 99.9941Z" fill="#F0F0F0"/>
<path d="M100 52.1738C100 34.5781 100 23.0488 100 0H99.9832C44.7621 0.009375 0 44.777 0 100H52.1738V70.6207L81.5531 100H99.7328C99.8219 99.9109 99.9109 99.8219 100 99.7324C100 92.9953 100 86.984 100 81.5539L70.6203 52.1738H100Z" fill="#F0F0F0"/>
<path d="M50.5953 13.0469C34.9551 21.9527 21.9523 34.9551 13.0469 50.5953V100.004H39.134V39.1348V39.134H100.004C100.004 30.9063 100.004 23.068 100.004 13.0469H50.5953Z" fill="#D80027"/>
<path d="M99.9941 87.6965L64.4648 52.168H52.168V52.1687L99.9934 99.9938H99.9941C99.9941 99.9938 99.9941 91.5145 99.9941 87.6965Z" fill="#D80027"/>
<path d="M156.529 60.8602L143.485 65.2082L130.441 60.8602L126.094 49.9906L130.441 39.1211H156.529L152.18 49.9906L156.529 60.8602Z" fill="#ACABB1"/>
<path d="M113.047 60.8789V108.705C113.047 132.002 143.482 139.14 143.482 139.14C143.482 139.14 173.916 132.002 173.916 108.705V60.8789H113.047Z" fill="#338AF3"/>
<path d="M115.781 120.019C123.263 134.382 143.473 139.123 143.473 139.123C143.473 139.123 163.683 134.382 171.164 120.019L143.473 73.9062L115.781 120.019Z" fill="#6DA544"/>
<path d="M173.916 108.221L143.482 60.8789L113.047 108.222V108.705C113.047 113.016 114.091 116.773 115.79 120.035L143.482 76.959L171.173 120.035C172.872 116.773 173.916 113.016 173.916 108.704V108.221Z" fill="#FFDA44"/>
</svg>
