<svg width="200" height="200" viewBox="0 0 200 200" fill="none" xmlns="http://www.w3.org/2000/svg">
<path d="M0 99.991C0 142.987 27.1375 179.641 65.2168 193.771L73.9129 99.9906L65.2168 6.21094C27.1375 20.3406 0 56.9945 0 99.991Z" fill="#6DA544"/>
<path d="M200 100C200 44.7719 155.228 0 100 0C87.768 0 76.0504 2.20039 65.2168 6.21992V193.78C76.0504 197.8 87.768 200 100 200C155.228 200 200 155.228 200 100Z" fill="#D80027"/>
<path d="M65.2219 134.78C84.4317 134.78 100.004 119.207 100.004 99.9973C100.004 80.7875 84.4317 65.2148 65.2219 65.2148C46.0121 65.2148 30.4395 80.7875 30.4395 99.9973C30.4395 119.207 46.0121 134.78 65.2219 134.78Z" fill="#FFDA44"/>
<path d="M45.6543 82.6172V104.356C45.6543 115.162 54.4137 123.921 65.2195 123.921C76.0254 123.921 84.7848 115.162 84.7848 104.356V82.6172H45.6543Z" fill="#D80027"/>
<path d="M65.2133 110.862C61.6172 110.862 58.6914 107.936 58.6914 104.34V95.6445H71.7348V104.34C71.7348 107.936 68.809 110.862 65.2133 110.862Z" fill="#F0F0F0"/>
</svg>
