<svg width="200" height="200" viewBox="0 0 200 200" fill="none" xmlns="http://www.w3.org/2000/svg">
<path d="M100 200C155.228 200 200 155.228 200 100C200 44.7715 155.228 0 100 0C44.7715 0 0 44.7715 0 100C0 155.228 44.7715 200 100 200Z" fill="#F0F0F0"/>
<path d="M100.004 0C67.2887 0 38.2438 15.7121 20 40H180.009C161.765 15.7121 132.72 0 100.004 0Z" fill="#D80027"/>
<path d="M100.004 200C132.72 200 161.765 184.288 180.009 160H20C38.2438 184.288 67.2887 200 100.004 200Z" fill="#D80027"/>
<path d="M0 100C0 106.85 0.690625 113.538 2.00273 120H197.998C199.31 113.538 200 106.85 200 100C200 93.1504 199.309 86.4621 197.998 80H2.00273C0.690625 86.4621 0 93.1504 0 100Z" fill="#D80027"/>
<path d="M29.2893 29.2969C-9.76309 68.3492 -9.76309 131.666 29.2893 170.719C45.4271 154.581 60.9478 139.06 100 100.008L29.2893 29.2969Z" fill="#0052B4"/>
<path d="M40.4762 73.9062L46.9508 93.8344H67.9063L50.9539 106.152L57.4281 126.08L40.4762 113.764L23.5234 126.08L29.9992 106.152L13.0469 93.8344H34.0008L40.4762 73.9062Z" fill="#F0F0F0"/>
</svg>
