<svg width="200" height="200" viewBox="0 0 200 200" fill="none" xmlns="http://www.w3.org/2000/svg">
<path d="M100 200C155.228 200 200 155.228 200 100C200 44.7715 155.228 0 100 0C44.7715 0 0 44.7715 0 100C0 155.228 44.7715 200 100 200Z" fill="#F0F0F0"/>
<path d="M199.991 100C199.991 44.7719 155.219 0 99.9906 0C80.4281 0 62.1805 5.62305 46.7672 15.3324L68.6863 24.6453L39.1211 37.207L68.6863 49.7684L39.1211 62.3293L68.6863 74.8898L39.1211 87.4488L68.6863 100.007L39.1211 112.568L68.6863 125.128L39.1211 137.687L68.6863 150.247L39.1211 162.808L68.6863 175.367L46.777 184.675C62.1883 194.38 80.432 200 99.9906 200C155.219 200 199.991 155.228 199.991 100Z" fill="#751A46"/>
</svg>
