<svg width="200" height="200" viewBox="0 0 200 200" fill="none" xmlns="http://www.w3.org/2000/svg">
<path d="M100 200C155.228 200 200 155.228 200 100C200 44.7715 155.228 0 100 0C44.7715 0 0 44.7715 0 100C0 155.228 44.7715 200 100 200Z" fill="#FFDA44"/>
<path d="M115.208 198.85C131.472 196.369 146.443 189.964 159.136 180.64L100 100L115.208 198.85Z" fill="#D80027"/>
<path d="M84.7879 1.15234C68.5242 3.63359 53.5531 10.0383 40.8594 19.3621L99.9961 100.003L84.7879 1.15234Z" fill="#D80027"/>
<path d="M40.8594 180.64C53.5523 189.964 68.5234 196.369 84.7871 198.851L99.9961 100L40.8594 180.64Z" fill="#D80027"/>
<path d="M19.3621 40.8594C10.0379 53.5531 3.63398 68.5238 1.15234 84.7879L100.003 99.9961L19.3621 40.8594Z" fill="#D80027"/>
<path d="M1.15234 115.208C3.63359 131.472 10.0383 146.443 19.3625 159.136L100.003 100L1.15234 115.208Z" fill="#D80027"/>
<path d="M198.85 84.7875C196.369 68.5238 189.964 53.5527 180.64 40.8594L100 99.9957L198.85 84.7875Z" fill="#D80027"/>
<path d="M159.136 19.3617C146.443 10.0379 131.472 3.63359 115.208 1.15234L100 100.003L159.136 19.3617Z" fill="#D80027"/>
<path d="M180.641 159.136C189.965 146.443 196.369 131.471 198.851 115.208L100 100L180.641 159.136Z" fill="#D80027"/>
<path d="M99.9973 134.78C119.207 134.78 134.78 119.207 134.78 99.9973C134.78 80.7875 119.207 65.2148 99.9973 65.2148C80.7875 65.2148 65.2148 80.7875 65.2148 99.9973C65.2148 119.207 80.7875 134.78 99.9973 134.78Z" fill="#D80027"/>
<path d="M99.9934 126.08C114.401 126.08 126.08 114.401 126.08 99.9934C126.08 85.5858 114.401 73.9062 99.9934 73.9062C85.5858 73.9062 73.9062 85.5858 73.9062 99.9934C73.9062 114.401 85.5858 126.08 99.9934 126.08Z" fill="#FFDA44"/>
</svg>
