<svg width="200" height="200" viewBox="0 0 200 200" fill="none" xmlns="http://www.w3.org/2000/svg">
<path d="M134.782 6.21953C123.949 2.20039 112.232 5.19912e-08 99.9997 5.19912e-08C87.7677 -0.000390573 76.0505 2.20039 65.2173 6.21953L56.5216 99.9996L65.2173 193.78C76.0501 197.8 87.7673 200 99.9997 200C112.231 200 123.949 197.8 134.782 193.78L143.477 100L134.782 6.21953Z" fill="#FFDA44"/>
<path d="M200.003 99.991C200.003 56.9949 172.865 20.3398 134.785 6.21094V193.772C172.865 179.641 200.002 142.988 200.003 99.991Z" fill="#D80027"/>
<path d="M0 99.9902C0 142.987 27.1375 179.641 65.2168 193.771L65.2172 6.21094C27.1375 20.3398 0 56.9937 0 99.9902Z" fill="#0052B4"/>
</svg>
