<svg width="200" height="200" viewBox="0 0 200 200" fill="none" xmlns="http://www.w3.org/2000/svg">
<path d="M100 200C155.228 200 200 155.228 200 100C200 44.7715 155.228 0 100 0C44.7715 0 0 44.7715 0 100C0 155.228 44.7715 200 100 200Z" fill="#F0F0F0"/>
<path d="M193.78 134.78C197.8 123.946 200 112.229 200 99.9973C200 87.7652 197.8 76.048 193.78 65.2148H6.21992C2.20039 76.048 0 87.7652 0 99.9973C0 112.229 2.20039 123.946 6.21992 134.78L100 143.475L193.78 134.78Z" fill="#0052B4"/>
<path d="M99.991 200.003C142.987 200.003 179.642 172.865 193.771 134.785H6.21094C20.3402 172.865 56.9945 200.003 99.991 200.003Z" fill="#D80027"/>
</svg>
