<svg width="200" height="200" viewBox="0 0 200 200" fill="none" xmlns="http://www.w3.org/2000/svg">
<path d="M0 100.004C0 117.329 4.40742 133.623 12.159 147.83L100 156.526L187.841 147.83C195.593 133.623 200 117.329 200 100.004L100 91.3086L0 100.004Z" fill="#FFDA44"/>
<path d="M187.841 52.1738C170.88 21.0895 137.904 0 100 0C62.0957 0 29.1195 21.0895 12.159 52.1738C4.40742 66.3812 0 82.6758 0 100H200C200 82.6758 195.593 66.3812 187.841 52.1738Z" fill="#338AF3"/>
<path d="M100.009 200.006C137.913 200.006 170.889 178.916 187.85 147.832H12.168C29.1285 178.916 62.1047 200.006 100.009 200.006Z" fill="#496E2D"/>
<path d="M113.047 58.5297L125.26 64.2746L118.757 76.1027L132.018 73.566L133.699 86.9625L142.936 77.1094L152.173 86.9625L153.853 73.566L167.115 76.1019L160.612 64.2742L172.824 58.5297L160.611 52.7855L167.115 40.9574L153.854 43.4941L152.173 30.0977L142.936 39.9508L133.698 30.0977L132.018 43.4941L118.756 40.9574L125.26 52.7859L113.047 58.5297Z" fill="#FFDA44"/>
</svg>
