<svg width="200" height="200" viewBox="0 0 200 200" fill="none" xmlns="http://www.w3.org/2000/svg">
<path d="M100 200C155.228 200 200 155.228 200 100C200 44.7715 155.228 0 100 0C44.7715 0 0 44.7715 0 100C0 155.228 44.7715 200 100 200Z" fill="#F0F0F0"/>
<path d="M100 3.70451e-05C99.9066 -0.0702754 -0.0265572 99.9738 5.29435e-06 100C5.29435e-06 44.7719 44.7719 3.70451e-05 100 3.70451e-05Z" fill="#D80027"/>
<path d="M100 3.70453e-05C100.093 -0.0702754 200.027 99.9734 200 100C200 44.7719 155.228 3.70453e-05 100 3.70453e-05Z" fill="#D80027"/>
<path d="M100 200C99.9066 200.07 -0.0265572 100.027 5.29435e-06 100C5.29435e-06 155.228 44.7719 200 100 200Z" fill="#0052B4"/>
<path d="M100 200C100.093 200.07 200.027 100.027 200 100C200 155.228 155.228 200 100 200Z" fill="#0052B4"/>
<path d="M99.993 52.168L110.785 85.3824H145.709L117.455 105.91L128.247 139.125L99.993 118.597L71.7391 139.125L82.5313 105.91L54.2773 85.3824H89.2008L99.993 52.168Z" fill="#FFDA44"/>
</svg>
