<svg width="200" height="200" viewBox="0 0 200 200" fill="none" xmlns="http://www.w3.org/2000/svg">
<path d="M9.92266 56.5277C3.56563 69.6746 0 84.4234 0 100.006C0 115.588 3.56563 130.337 9.92266 143.484L100 152.18L190.077 143.484C196.434 130.337 200 115.588 200 100.006C200 84.4234 196.434 69.6746 190.077 56.5277L100 47.832L9.92266 56.5277Z" fill="#F0F0F0"/>
<path d="M9.92188 143.479C26.0961 176.928 60.35 200 99.9957 200C139.641 200 173.895 176.928 190.07 143.479H9.92188Z" fill="#496E2D"/>
<path d="M9.92188 56.5218H190.07C173.895 23.0723 139.642 0 99.9957 0C60.3496 0 26.0961 23.0723 9.92188 56.5218Z" fill="black"/>
<path d="M29.2893 29.2969C-9.76309 68.3492 -9.76309 131.666 29.2893 170.719C45.4271 154.581 60.9478 139.06 100 100.008L29.2893 29.2969Z" fill="#D80027"/>
<path d="M126.091 100.005C126.091 85.4355 136.33 73.2641 150.004 70.2781C147.902 69.8191 145.721 69.5703 143.482 69.5703C126.673 69.5703 113.047 83.1961 113.047 100.005C113.047 116.814 126.673 130.44 143.482 130.44C145.721 130.44 147.902 130.191 150.004 129.732C136.33 126.746 126.091 114.575 126.091 100.005Z" fill="#D80027"/>
<path d="M151.274 80.4297L155.592 93.7164H169.561L158.259 101.927L162.577 115.212L151.274 107.002L139.973 115.212L144.291 101.927L132.988 93.7164H146.957L151.274 80.4297Z" fill="#D80027"/>
</svg>
