<svg width="200" height="200" viewBox="0 0 200 200" fill="none" xmlns="http://www.w3.org/2000/svg">
<path d="M91.312 108.696C91.312 108.696 29.3555 29.2754 29.2969 29.2895C47.393 11.193 72.3933 0 100.008 0C155.236 0 200.008 44.7719 200.008 100L91.312 108.696Z" fill="#D80027"/>
<path d="M91.312 100C91.312 100 29.3555 170.725 29.2969 170.711C47.393 188.807 72.3933 200 100.008 200C155.236 200 200.008 155.228 200.008 100H91.312Z" fill="#0052B4"/>
<path d="M29.2892 29.2969C-9.76308 68.3492 -9.76308 131.666 29.2892 170.719C45.4271 154.581 60.9478 139.06 100 100.008L29.2892 29.2969Z" fill="#F0F0F0"/>
<path d="M10.9707 100C10.916 100.718 10.8789 101.441 10.8789 102.173C10.8789 117.781 23.532 130.434 39.1398 130.434C54.7476 130.434 67.4007 117.781 67.4007 102.173C67.4007 101.441 67.3636 100.718 67.3089 100H10.9707Z" fill="#FFDA44"/>
<path d="M39.1254 86.9617C43.9279 86.9617 47.8211 83.0685 47.8211 78.266C47.8211 73.4635 43.9279 69.5703 39.1254 69.5703C34.3229 69.5703 30.4297 73.4635 30.4297 78.266C30.4297 83.0685 34.3229 86.9617 39.1254 86.9617Z" fill="#FFDA44"/>
<path d="M19.5703 76.0938V104.355C19.5703 119.331 39.1355 123.92 39.1355 123.92C39.1355 123.92 58.7007 119.331 58.7007 104.355V76.0938H19.5703Z" fill="#D80027"/>
<path d="M39.141 114.815C35.5113 113.509 28.2617 110.171 28.2617 104.35V84.7852H50.0012V104.35C50.0012 110.19 42.7523 113.52 39.141 114.815Z" fill="#338AF3"/>
<path d="M43.4867 95.643V91.2949L39.1391 89.1211L34.791 91.2949V95.643L32.6172 97.8168V106.513H45.6609V97.8168L43.4867 95.643Z" fill="#F3F3F3"/>
</svg>
