<svg width="200" height="200" viewBox="0 0 200 200" fill="none" xmlns="http://www.w3.org/2000/svg">
<path d="M43.6328 182.602C59.682 193.573 79.0871 199.993 99.9949 199.993C120.903 199.993 140.308 193.573 156.357 182.602L99.9949 173.906L43.6328 182.602Z" fill="#D80027"/>
<path d="M156.357 17.3914C140.308 6.42071 120.903 0 99.9949 0C79.0871 0 59.6812 6.42071 43.6328 17.3914L99.9949 26.0871L156.357 17.3914Z" fill="#D80027"/>
<path d="M43.6328 182.602C59.682 193.573 79.0871 199.993 99.9949 199.993C120.903 199.993 140.308 193.573 156.357 182.602L99.9949 173.906L43.6328 182.602Z" fill="#D80027"/>
<path d="M156.357 17.3914C140.308 6.42071 120.903 0 99.9949 0C79.0871 0 59.6812 6.42071 43.6328 17.3914L99.9949 26.0871L156.357 17.3914Z" fill="#D80027"/>
<path d="M199.75 93.47C197.381 62.6067 178.628 32.6004 156.367 17.3828H43.6426C18.9801 34.2426 2.25078 61.8551 0.214844 93.47L100.005 99.9918L199.75 93.47Z" fill="#0052B4"/>
<path d="M0.214844 106.522C2.25078 138.137 18.9797 165.749 43.6422 182.609H156.366C181.03 165.75 197.758 138.137 199.794 106.522L100.005 100L0.214844 106.522Z" fill="#0052B4"/>
<path d="M199.745 93.4813H106.522V13.0469H93.4785V93.4813H0.210547C0.071875 95.6375 0 97.8121 0 100.004C0 102.195 0.0714844 104.369 0.210156 106.525H93.4785V186.96H106.522V106.525H199.79C199.929 104.369 200 102.195 200 100.004C200 97.8282 199.912 95.6528 199.745 93.4813Z" fill="#D80027"/>
<path d="M39.1211 99.9969L99.9902 61.7383L160.86 99.9969L99.9902 138.256L39.1211 99.9969Z" fill="#F0F0F0"/>
<path d="M65.2148 117.396H143.475L126.084 91.3086L117.389 100.004L108.693 95.6566L99.9973 108.7H82.6059L73.9102 100.004L65.2148 117.396Z" fill="#6DA544"/>
<path d="M100.002 73.9062L102.161 80.5488H109.145L103.494 84.6547L105.653 91.2977L100.002 87.1922L94.3512 91.2977L96.5098 84.6547L90.8594 80.5488H97.8434L100.002 73.9062Z" fill="#FFDA44"/>
<path d="M99.9988 50.8008L21.7383 99.9906L99.9988 149.181L178.26 99.9906L99.9988 50.8008ZM46.2492 99.9906L99.9988 66.2066L153.749 99.9906L99.9988 133.775L46.2492 99.9906Z" fill="#D80027"/>
</svg>
