<svg width="200" height="200" viewBox="0 0 200 200" fill="none" xmlns="http://www.w3.org/2000/svg">
<path d="M100 200C155.228 200 200 155.228 200 100C200 44.7715 155.228 0 100 0C44.7715 0 0 44.7715 0 100C0 155.228 44.7715 200 100 200Z" fill="#FFDA44"/>
<path d="M29.295 170.717C33.4899 174.912 37.9661 178.653 42.661 181.947L181.946 42.6618C178.653 37.9665 174.912 33.4907 170.716 29.2957C166.521 25.1008 162.045 21.3606 157.351 18.0664L18.0664 157.352C21.3594 162.047 25.1 166.522 29.295 170.717Z" fill="black"/>
<path d="M29.2856 29.2846C-2.26258 60.8327 -8.31925 108.213 11.1043 145.846L145.847 11.104C108.214 -8.31909 60.8326 -2.26243 29.2856 29.2846Z" fill="#6DA544"/>
<path d="M170.703 170.702C202.251 139.155 208.307 91.7748 188.885 54.1406L54.1406 188.884C91.7744 208.307 139.155 202.251 170.703 170.702Z" fill="#D80027"/>
<path d="M63.5891 117.964L72.9243 122.721L80.3329 115.312L78.6938 125.66L88.0286 130.417L77.6805 132.056L76.0415 142.404L71.2852 133.068L60.9375 134.707L68.3457 127.299L63.5891 117.964Z" fill="#F0F0F0"/>
<path d="M117.964 63.5891L127.299 68.3457L134.707 60.9375L133.069 71.2848L142.404 76.0419L132.056 77.6809L130.417 88.0286L125.66 78.6938L115.312 80.3325L122.721 72.9243L117.964 63.5891Z" fill="#F0F0F0"/>
</svg>
