<svg width="200" height="200" viewBox="0 0 200 200" fill="none" xmlns="http://www.w3.org/2000/svg">
<path d="M147.826 12.159C133.619 4.40742 117.325 0 100 0C82.6761 0 66.3816 4.40742 52.1742 12.159L43.4785 100L52.1742 187.841C66.3816 195.593 82.6761 200 100 200C117.325 200 133.619 195.593 147.826 187.841L156.522 100L147.826 12.159Z" fill="#FFDA44"/>
<path d="M52.1738 187.85V12.168C21.0894 29.1289 0 62.1051 0 100.009C0 137.914 21.0894 170.89 52.1738 187.85Z" fill="#338AF3"/>
<path d="M200.006 100.009C200.006 62.1051 178.916 29.1289 147.832 12.168V187.85C178.916 170.89 200.006 137.914 200.006 100.009Z" fill="#6DA544"/>
<path d="M78.2512 126.08L60.8594 99.9934L78.2508 73.9062L95.6429 99.9934L78.2512 126.08Z" fill="#6DA544"/>
<path d="M121.747 126.08L104.355 99.9934L121.747 73.9062L139.138 99.9934L121.747 126.08Z" fill="#6DA544"/>
<path d="M100.009 160.865L82.6172 134.778L100.009 108.691L117.4 134.778L100.009 160.865Z" fill="#6DA544"/>
</svg>
