<svg width="200" height="200" viewBox="0 0 200 200" fill="none" xmlns="http://www.w3.org/2000/svg">
<path d="M200 100C200 155.228 155.228 200 100 200C44.7719 200 0 155.228 0 100C34.3477 65.6523 63.4781 36.5219 100 0C155.228 0 200 44.7719 200 100Z" fill="#D80027"/>
<path d="M100 100C100 44.7719 100 38.2609 100 0C44.7719 0 0 44.7719 0 100H100Z" fill="#0052B4"/>
<path d="M80.0996 65.2148L81.7188 70.1973H86.957L82.7188 73.2758L84.3379 78.2582L80.0996 75.1789L75.8613 78.2582L77.4805 73.2758L73.2422 70.1973H78.4805L80.0996 65.2148Z" fill="#F0F0F0"/>
<path d="M53.7922 26.0938L56.4902 34.398H65.2215L58.1574 39.5289L60.8562 47.8328L53.7922 42.7004L46.7285 47.8328L49.427 39.5289L42.3633 34.398H51.0937L53.7922 26.0938Z" fill="#F0F0F0"/>
<path d="M79.8664 34.7852L82.5645 43.0898H91.2953L84.2316 48.2207L86.9297 56.5246L79.8664 51.3922L72.8027 56.5246L75.5012 48.2207L68.4375 43.0898H77.168L79.8664 34.7852Z" fill="#F0F0F0"/>
<path d="M59.2609 69.5703L61.9594 77.8746H70.6898L63.6262 83.0055L66.3246 91.3094L59.2609 86.1773L52.1973 91.3094L54.8957 83.0055L47.832 77.8746H56.5629L59.2609 69.5703Z" fill="#F0F0F0"/>
<path d="M36.3895 47.832L39.0879 56.1363H47.8187L40.7547 61.2672L43.4531 69.5711L36.3895 64.4391L29.3262 69.5711L32.0242 61.2672L24.9609 56.1363H33.6914L36.3895 47.832Z" fill="#F0F0F0"/>
</svg>
