<svg width="200" height="200" viewBox="0 0 200 200" fill="none" xmlns="http://www.w3.org/2000/svg">
<path d="M200 99.9965C200 155.225 155.228 199.997 100 199.997C44.7719 199.997 0 155.225 0 99.9965C4.34766 99.9965 100 86.9531 100 86.9531L200 99.9965Z" fill="#338AF3"/>
<path d="M0 100C0 44.7719 44.7719 0 100 0C155.228 0 200 44.7719 200 100" fill="#F0F0F0"/>
<path d="M139.688 69.002L99.9938 108.696L60.3 69.002C55.1668 76.6219 52.168 85.7934 52.168 95.6524V108.696C52.168 129.639 65.7012 147.48 84.4813 153.938C81.9746 158.85 82.3973 164.981 86.0703 169.565C90.9484 165.656 95.9988 161.608 100.283 158.175C104.568 161.609 109.618 165.656 114.496 169.565C118.212 164.928 118.604 158.705 115.999 153.764C134.522 147.166 147.82 129.456 147.82 108.696V95.6527C147.82 85.7934 144.821 76.6223 139.688 69.002Z" fill="#6DA544"/>
<path d="M99.9973 143.487C80.818 143.487 65.2148 127.884 65.2148 108.705V95.6613C65.2148 76.482 80.8184 60.8789 99.9973 60.8789C119.176 60.8789 134.78 76.4824 134.78 95.6613V108.705C134.78 127.884 119.177 143.487 99.9973 143.487Z" fill="#FFDA44"/>
<path d="M121.74 108.689V95.6453C121.74 83.6582 111.987 73.9062 100.001 73.9062C88.0141 73.9062 78.2617 83.6586 78.2617 95.6453V108.689L100.001 113.036L121.74 108.689Z" fill="#338AF3"/>
<path d="M78.2617 108.691C78.2617 120.679 88.0141 130.43 100.001 130.43C111.987 130.43 121.74 120.678 121.74 108.691H78.2617Z" fill="#6DA544"/>
<path d="M126.08 60.8645C126.08 53.6609 120.24 47.8211 113.037 47.8211C109.695 47.8211 106.649 49.0789 104.341 51.1449V43.4731H108.689V34.7773H104.341V30.4297H95.6453V34.7773H91.2977V43.4731H95.6453V51.1449C93.3371 49.0789 90.291 47.8211 86.9496 47.8211C79.7461 47.8211 73.9062 53.6609 73.9062 60.8645C73.9062 64.7266 75.5863 68.1953 78.2539 70.584V78.2559H121.732V70.584C124.4 68.1953 126.08 64.7266 126.08 60.8645Z" fill="#FFDA44"/>
</svg>
