<svg width="200" height="200" viewBox="0 0 200 200" fill="none" xmlns="http://www.w3.org/2000/svg">
<path d="M100 200C155.228 200 200 155.228 200 100C200 44.7715 155.228 0 100 0C44.7715 0 0 44.7715 0 100C0 155.228 44.7715 200 100 200Z" fill="#6DA544"/>
<path d="M56.5234 119.57C56.5234 126.774 62.3633 132.614 69.5668 132.614H108.697C108.697 138.617 113.564 143.483 119.567 143.483H132.61C138.613 143.483 143.48 138.617 143.48 132.614V119.57H56.5234Z" fill="#F0F0F0"/>
<path d="M144.565 56.5215V86.9562C144.565 91.7512 140.664 95.652 135.869 95.652V108.695C147.856 108.695 157.608 98.943 157.608 86.9562V56.5215H144.565Z" fill="#F0F0F0"/>
<path d="M51.0883 86.9562C51.0883 91.7512 47.1875 95.652 42.3926 95.652V108.695C54.3797 108.695 64.1316 98.943 64.1316 86.9562V56.5215H51.0883V86.9562Z" fill="#F0F0F0"/>
<path d="M125 56.5215H138.043V86.9562H125V56.5215Z" fill="#F0F0F0"/>
<path d="M105.437 73.9129C105.437 75.1117 104.461 76.0867 103.263 76.0867C102.064 76.0867 101.089 75.1113 101.089 73.9129V56.5215H88.0457V73.9129C88.0457 75.1117 87.0703 76.0867 85.8719 76.0867C84.6734 76.0867 83.698 75.1113 83.698 73.9129V56.5215H70.6543V73.9129C70.6543 82.3039 77.4809 89.1305 85.8719 89.1305C89.1035 89.1305 92.1004 88.1148 94.5676 86.3898C97.0344 88.1145 100.032 89.1305 103.263 89.1305C103.914 89.1305 104.554 89.0848 105.183 89.0047C104.259 92.8129 100.829 95.652 96.7414 95.652V108.695C108.729 108.695 118.48 98.943 118.48 86.9562V73.9129V56.5215H105.437V73.9129H105.437Z" fill="#F0F0F0"/>
<path d="M70.6543 95.6445H90.2195V108.688H70.6543V95.6445Z" fill="#F0F0F0"/>
</svg>
