<svg width="200" height="200" viewBox="0 0 200 200" fill="none" xmlns="http://www.w3.org/2000/svg">
<path d="M100 200C155.228 200 200 155.228 200 100C200 44.7715 155.228 0 100 0C44.7715 0 0 44.7715 0 100C0 155.228 44.7715 200 100 200Z" fill="#F0F0F0"/>
<path d="M160.884 20.6719C144.022 7.71054 122.914 0 100.003 0C77.091 0 55.9832 7.71093 39.1211 20.6719L100.003 81.5531L160.884 20.6719Z" fill="#0052B4"/>
<path d="M20.6715 39.1191C7.71094 55.9812 0 77.0887 0 100C0 122.912 7.71094 144.02 20.6719 160.882L81.5535 100L20.6715 39.1191Z" fill="#0052B4"/>
<path d="M39.1211 179.319C55.9836 192.28 77.091 199.991 100.003 199.991C122.914 199.991 144.022 192.28 160.884 179.319L100.003 118.438L39.1211 179.319Z" fill="#0052B4"/>
<path d="M179.329 160.882C192.29 144.019 200 122.912 200 100C200 77.0887 192.29 55.9812 179.329 39.1191L118.447 100L179.329 160.882Z" fill="#0052B4"/>
</svg>
