<svg width="200" height="200" viewBox="0 0 200 200" fill="none" xmlns="http://www.w3.org/2000/svg">
<path d="M100 200C155.228 200 200 155.228 200 100C200 44.7715 155.228 0 100 0C44.7715 0 0 44.7715 0 100C0 155.228 44.7715 200 100 200Z" fill="#F0F0F0"/>
<path d="M100 0C44.7719 0 0 44.7719 0 100C0 112.232 2.20039 123.95 6.21992 134.782H193.78C197.8 123.95 200 112.232 200 100C200 44.7719 155.228 0 100 0Z" fill="#0052B4"/>
<path d="M99.991 0C56.9945 0 20.3402 27.1375 6.21094 65.2176H193.771C179.642 27.1375 142.987 0 99.991 0Z" fill="#D80027"/>
<path d="M25.8594 56.5215V106.407C25.8594 134.783 62.9301 143.478 62.9301 143.478C62.9301 143.478 100 134.783 100 106.407V56.5215H25.8594Z" fill="#D80027"/>
<path d="M41.1914 65.2082H84.6699V47.8168L75.9742 52.1645L62.9309 39.1211L49.8871 52.1645L41.1914 47.8168V65.2082Z" fill="#FFDA44"/>
<path d="M91.307 113.359L63.0461 85.0977L34.7852 113.359L44.0082 122.582L63.0461 103.544L82.084 122.582L91.307 113.359Z" fill="#FFDA44"/>
<path d="M91.307 86.9488H78.1211C78.8625 85.6691 79.2938 84.1871 79.2938 82.602C79.2938 77.7988 75.4004 73.9062 70.598 73.9062C67.2797 73.9062 64.398 75.7648 62.932 78.4973C61.466 75.7652 58.5844 73.9062 55.266 73.9062C50.4637 73.9062 46.5703 77.7988 46.5703 82.602C46.5703 84.1871 47.0016 85.6695 47.743 86.9488H34.7852C34.7852 91.7516 38.9684 95.6445 43.7703 95.6445H43.4809C43.4809 100.447 47.3738 104.34 52.1766 104.34C52.1766 108.593 55.2305 112.125 59.2637 112.882L52.4121 128.351C55.6957 129.686 59.284 130.427 63.0465 130.427C66.809 130.427 70.3973 129.686 73.6809 128.351L66.8293 112.882C70.8625 112.126 73.9164 108.593 73.9164 104.34C78.7191 104.34 82.6121 100.447 82.6121 95.6445H82.3227C87.1242 95.6445 91.307 91.7512 91.307 86.9488Z" fill="#F0F0F0"/>
</svg>
