<svg width="200" height="200" viewBox="0 0 200 200" fill="none" xmlns="http://www.w3.org/2000/svg">
<path d="M100 200C155.228 200 200 155.228 200 100C200 44.7715 155.228 0 100 0C44.7715 0 0 44.7715 0 100C0 155.228 44.7715 200 100 200Z" fill="#F0F0F0"/>
<path d="M167.504 26.2254C149.715 9.93945 126.019 0 100 0C95.7407 0 91.5435 0.268359 87.4239 0.785156L39.1306 56.5219L3.16455 125.051C5.48799 134.059 9.04033 142.573 13.6235 150.409L100 100L167.504 26.2254Z" fill="#FFDA44"/>
<path d="M183.249 155.41L43.3398 182.41C59.4449 193.504 78.9598 200.005 99.9949 200.005C134.73 200.005 165.323 182.293 183.249 155.41Z" fill="#6DA544"/>
<path d="M167.509 26.2305L13.6719 150.498C17.6957 157.361 22.5133 163.701 28.0004 169.392L199.991 99.9918C199.991 70.7891 187.471 44.5125 167.509 26.2305Z" fill="#D80027"/>
<path d="M0 99.9961C0 108.647 1.09922 117.041 3.16445 125.047L87.4238 0.78125C38.132 6.96641 0 49.0273 0 99.9961Z" fill="#0052B4"/>
</svg>
