<svg width="200" height="200" viewBox="0 0 200 200" fill="none" xmlns="http://www.w3.org/2000/svg">
<path d="M100 200C155.228 200 200 155.228 200 100C200 44.7715 155.228 0 100 0C44.7715 0 0 44.7715 0 100C0 155.228 44.7715 200 100 200Z" fill="#F0F0F0"/>
<path d="M0 100C0 44.7719 44.7719 0 100 0C155.228 0 200 44.7719 200 100" fill="#D80027"/>
<path d="M60.8758 52.1727C60.8758 37.6031 71.1152 25.432 84.7887 22.4457C82.6871 21.9871 80.507 21.7383 78.2668 21.7383C61.4578 21.7383 47.832 35.3641 47.832 52.173C47.832 68.982 61.4578 82.6078 78.2668 82.6078C80.5063 82.6078 82.6867 82.359 84.7887 81.9C71.1152 78.9137 60.8758 66.7426 60.8758 52.1727Z" fill="#F0F0F0"/>
<path d="M100.002 23.9062L102.161 30.5488H109.146L103.495 34.6547L105.653 41.2973L100.002 37.1922L94.3516 41.2973L96.5102 34.6547L90.8594 30.5488H97.8438L100.002 23.9062Z" fill="#F0F0F0"/>
<path d="M83.05 36.9531L85.2082 43.5961H92.193L86.5422 47.7016L88.7008 54.3441L83.05 50.2391L77.3984 54.3441L79.5574 47.7016L73.9062 43.5961H80.891L83.05 36.9531Z" fill="#F0F0F0"/>
<path d="M116.936 36.9531L119.095 43.5961H126.079L120.428 47.7016L122.587 54.3441L116.936 50.2391L111.285 54.3441L113.444 47.7016L107.793 43.5961H114.777L116.936 36.9531Z" fill="#F0F0F0"/>
<path d="M110.432 56.5215L112.591 63.1645H119.575L113.924 67.2699L116.083 73.9125L110.432 69.8074L104.781 73.9125L106.94 67.2699L101.289 63.1645H108.273L110.432 56.5215Z" fill="#F0F0F0"/>
<path d="M89.5731 56.5215L91.7313 63.1645H98.7164L93.0652 67.2699L95.2242 73.9125L89.5731 69.8074L83.9219 73.9125L86.0805 67.2699L80.4297 63.1645H87.4145L89.5731 56.5215Z" fill="#F0F0F0"/>
</svg>
