<svg width="200" height="200" viewBox="0 0 200 200" fill="none" xmlns="http://www.w3.org/2000/svg">
<path d="M100 200C155.228 200 200 155.228 200 100C200 44.7715 155.228 0 100 0C44.7715 0 0 44.7715 0 100C0 155.228 44.7715 200 100 200Z" fill="#F0F0F0"/>
<path d="M100 199.997C155.228 199.997 200 155.225 200 99.9973C200 87.7652 197.8 76.0477 193.78 65.2148H6.21992C2.20039 76.0477 0 87.7652 0 99.9973C0 155.225 44.7719 199.997 100 199.997Z" fill="#0052B4"/>
<path d="M99.991 200.003C142.987 200.003 179.642 172.865 193.771 134.785H6.21094C20.3402 172.865 56.9945 200.003 99.991 200.003Z" fill="#D80027"/>
<path d="M25.8594 56.5215V106.407C25.8594 134.783 62.9301 143.478 62.9301 143.478C62.9301 143.478 100 134.783 100 106.407V56.5215H25.8594Z" fill="#F0F0F0"/>
<path d="M34.5508 56.5215V106.407C34.5508 109.738 35.2906 112.884 36.7563 115.834H89.0949C90.5605 112.884 91.3004 109.738 91.3004 106.407V56.5215H34.5508Z" fill="#D80027"/>
<path d="M80.3293 91.3016H67.2863V82.6059H75.982V73.9102H67.2863V65.2148H58.5906V73.9102H49.8953V82.6059H58.5906V91.3016H45.5469V99.9973H58.5906V108.693H67.2863V99.9973H80.3293V91.3016Z" fill="#F0F0F0"/>
<path d="M48.6184 127.98C54.2219 131.502 59.9789 133.546 62.9262 134.455C65.8734 133.546 71.6305 131.502 77.234 127.98C82.8848 124.429 86.8461 120.367 89.0953 115.841C86.6145 114.086 83.5875 113.051 80.3176 113.051C79.127 113.051 77.9703 113.192 76.8582 113.451C74.5016 108.096 69.152 104.355 62.9266 104.355C56.7012 104.355 51.3512 108.096 48.9949 113.451C47.8828 113.192 46.7258 113.051 45.5355 113.051C42.2656 113.051 39.2387 114.086 36.7578 115.841C39.0059 120.366 42.9672 124.428 48.6184 127.98Z" fill="#0052B4"/>
</svg>
