<svg width="200" height="200" viewBox="0 0 200 200" fill="none" xmlns="http://www.w3.org/2000/svg">
<path d="M100 200C155.228 200 200 155.228 200 100C200 44.7715 155.228 0 100 0C44.7715 0 0 44.7715 0 100C0 155.228 44.7715 200 100 200Z" fill="#F0F0F0"/>
<path d="M193.78 65.2082H86.9566V39.1211H34.7824V65.2082H6.21992C2.20039 76.041 0 87.7586 0 99.9906C0 112.223 2.20039 123.94 6.21992 134.773L100 143.469L193.78 134.773C197.8 123.94 200 112.223 200 99.9906C200 87.7586 197.8 76.041 193.78 65.2082Z" fill="#0052B4"/>
<path d="M99.991 200.003C142.987 200.003 179.642 172.865 193.771 134.785H6.21094C20.3402 172.865 56.9945 200.003 99.991 200.003Z" fill="#D80027"/>
<path d="M34.7852 65.2266V73.9219C34.7852 93.891 60.8723 100.009 60.8723 100.009C60.8723 100.009 86.9594 93.891 86.9594 73.9219V65.2266L78.2637 73.9223L60.8723 60.8789L43.4809 73.9223L34.7852 65.2266Z" fill="#F0F0F0"/>
</svg>
