<svg width="200" height="200" viewBox="0 0 200 200" fill="none" xmlns="http://www.w3.org/2000/svg">
<path d="M170.705 170.705C208.209 133.201 209.69 73.3238 175.163 34.043L99.9913 99.9909L34.043 175.163C73.3238 209.69 133.2 208.209 170.705 170.705Z" fill="#496E2D"/>
<path d="M29.2865 29.2867C66.7907 -8.21756 126.668 -9.69841 165.948 24.8285L99.9996 100.001L24.8287 165.949C-9.69861 126.668 -8.21736 66.7909 29.2865 29.2867Z" fill="#0052B4"/>
<path d="M165.944 24.8242L24.8242 165.944C26.2508 167.567 27.732 169.16 29.2824 170.709C30.8324 172.259 32.425 173.74 34.0484 175.168L175.167 34.0476C173.741 32.4242 172.259 30.832 170.709 29.2816C169.16 27.7324 167.567 26.2508 165.944 24.8242Z" fill="#FFDA44"/>
<path d="M42.1316 34.7852L44.2906 41.4285H51.2754L45.6246 45.5336L47.7828 52.1769L42.1316 48.0711L36.4805 52.1769L38.6394 45.5336L32.9883 41.4285H39.9734L42.1316 34.7852Z" fill="#F0F0F0"/>
<path d="M77.8152 34.7852L79.9742 41.4285H86.9586L81.3078 45.5336L83.4664 52.1769L77.8152 48.0711L72.1641 52.1769L74.323 45.5336L68.6719 41.4285H75.6566L77.8152 34.7852Z" fill="#F0F0F0"/>
<path d="M42.1316 69.5703L44.2906 76.2137H51.2754L45.6246 80.3191L47.7828 86.9625L42.1316 82.8566L36.4805 86.9625L38.6394 80.3191L32.9883 76.2137H39.9734L42.1316 69.5703Z" fill="#F0F0F0"/>
<path d="M77.8152 69.5703L79.9742 76.2137H86.9586L81.3078 80.3191L83.4664 86.9625L77.8152 82.8566L72.1641 86.9625L74.323 80.3191L68.6719 76.2137H75.6566L77.8152 69.5703Z" fill="#F0F0F0"/>
<path d="M59.964 52.168L62.123 58.8113H69.1074L63.4566 62.9168L65.6152 69.5601L59.964 65.4543L54.3129 69.5601L56.4715 62.9168L50.8203 58.8113H57.8055L59.964 52.168Z" fill="#F0F0F0"/>
</svg>
