<svg width="200" height="200" viewBox="0 0 200 200" fill="none" xmlns="http://www.w3.org/2000/svg">
<path d="M99.9999 200C155.228 200 200 155.228 200 100C200 44.7715 155.228 0 99.9999 0C44.7715 0 0 44.7715 0 100C0 155.228 44.7715 200 99.9999 200Z" fill="#F0F0F0"/>
<path d="M29.2892 170.719C-9.76308 131.666 -9.76308 68.3496 29.2892 29.2969C29.2865 29.3012 86.9568 100.008 86.9568 100.008L29.2892 170.719Z" fill="black"/>
<path d="M86.9511 99.9949L13.2574 50.1953C10.9727 54.1668 8.95781 58.3121 7.22656 62.6027L44.5347 99.9953L7.22773 137.39C8.95742 141.677 10.9703 145.82 13.2535 149.789L86.9511 99.9949Z" fill="#FFDA44"/>
<path d="M199.156 86.9629H86.9566L29.291 29.2969C23.0769 35.5109 17.6781 42.5387 13.2656 50.207L62.9683 100.006L13.2617 149.799C17.6742 157.469 23.0754 164.5 29.291 170.715L86.9566 113.05H199.156C199.712 108.78 200.003 104.427 200.003 100.006C200.003 95.5855 199.712 91.2324 199.156 86.9629Z" fill="#6DA544"/>
<path d="M39.1211 179.334C55.984 192.295 77.0922 200.007 100.005 200.007C146.207 200.007 185.085 168.67 196.56 126.094H92.3613L39.1211 179.334Z" fill="#0052B4"/>
<path d="M196.56 73.9129C185.085 31.3363 146.207 0 100.005 0C77.0922 0 55.984 7.71133 39.1211 20.673L92.3609 73.9129H196.56Z" fill="#D80027"/>
</svg>
