<svg width="200" height="200" viewBox="0 0 200 200" fill="none" xmlns="http://www.w3.org/2000/svg">
<path d="M100 200C155.228 200 200 155.228 200 100C200 44.7715 155.228 0 100 0C44.7715 0 0 44.7715 0 100C0 155.228 44.7715 200 100 200Z" fill="#F0F0F0"/>
<path d="M134.78 99.9973C134.78 108.693 119.207 130.432 99.9973 130.432C80.7875 130.432 65.2148 108.693 65.2148 99.9973C65.2148 80.7871 80.7875 65.2148 99.9973 65.2148C119.207 65.2148 134.78 80.7871 134.78 99.9973Z" fill="#D80027"/>
<path d="M134.78 100C134.78 119.21 119.207 134.782 99.9973 134.782C80.7875 134.782 65.2148 119.21 65.2148 100" fill="#0052B4"/>
<path d="M136.875 130.742L146.097 121.521L152.245 127.668L143.023 136.89L136.875 130.742Z" fill="black"/>
<path d="M121.484 146.115L130.706 136.894L136.854 143.041L127.632 152.263L121.484 146.115Z" fill="black"/>
<path d="M155.312 149.18L164.534 139.958L170.682 146.106L161.46 155.328L155.312 149.18Z" fill="black"/>
<path d="M139.941 164.551L149.163 155.329L155.311 161.477L146.089 170.699L139.941 164.551Z" fill="black"/>
<path d="M146.094 139.961L155.315 130.739L161.463 136.887L152.242 146.109L146.094 139.961Z" fill="black"/>
<path d="M130.723 155.332L139.944 146.11L146.092 152.258L136.871 161.48L130.723 155.332Z" fill="black"/>
<path d="M155.352 69.2773L130.76 44.6862L136.908 38.5383L161.499 63.1295L155.352 69.2773Z" fill="black"/>
<path d="M130.762 63.127L121.54 53.9053L127.688 47.7577L136.909 56.9794L130.762 63.127Z" fill="black"/>
<path d="M146.133 78.4961L136.911 69.2744L143.059 63.1269L152.28 72.3485L146.133 78.4961Z" fill="black"/>
<path d="M149.199 44.6875L139.978 35.4658L146.125 29.318L155.347 38.5396L149.199 44.6875Z" fill="black"/>
<path d="M164.57 60.0586L155.349 50.8369L161.497 44.6891L170.718 53.9107L164.57 60.0586Z" fill="black"/>
<path d="M35.4492 139.941L60.0404 164.533L53.8925 170.68L29.3014 146.089L35.4492 139.941Z" fill="black"/>
<path d="M60.0391 146.094L69.2607 155.315L63.1131 161.463L53.8915 152.241L60.0391 146.094Z" fill="black"/>
<path d="M44.668 130.723L53.8896 139.944L47.7418 146.092L38.5201 136.871L44.668 130.723Z" fill="black"/>
<path d="M53.8867 121.502L78.4779 146.093L72.33 152.241L47.7389 127.65L53.8867 121.502Z" fill="black"/>
<path d="M60.0391 35.4297L35.4479 60.0209L29.3 53.873L53.8912 29.2818L60.0391 35.4297Z" fill="black"/>
<path d="M69.2578 44.668L44.6666 69.2591L38.5188 63.1113L63.1099 38.5201L69.2578 44.668Z" fill="black"/>
<path d="M78.4961 53.8867L53.9049 78.4779L47.7573 72.3303L72.3485 47.7391L78.4961 53.8867Z" fill="black"/>
</svg>
