<svg width="200" height="200" viewBox="0 0 200 200" fill="none" xmlns="http://www.w3.org/2000/svg">
<path d="M99.9999 200C155.228 200 200 155.228 200 99.9999C200 44.7715 155.228 0 99.9999 0C44.7715 0 0 44.7715 0 99.9999C0 155.228 44.7715 200 99.9999 200Z" fill="#F0F0F0"/>
<path d="M192.203 61.2316C177.059 25.2586 141.484 0 100.004 0C72.3894 0 47.3922 11.1949 29.2969 29.2926L54.3398 61.2316H192.203Z" fill="black"/>
<path d="M54.6238 138.398L29.2969 170.7C47.3922 188.797 72.3894 199.992 100.004 199.992C141.624 199.992 177.3 174.565 192.357 138.398H54.6238Z" fill="#496E2D"/>
<path d="M21.7383 73.5547V126.091H196.555C198.798 117.774 199.999 109.03 199.999 100.004C199.999 90.8469 198.765 81.9797 196.46 73.5547H21.7383Z" fill="#A2001D"/>
<path d="M29.2892 29.2969C-9.76308 68.3492 -9.76308 131.666 29.2892 170.719C45.4271 154.581 60.9478 139.06 100 100.008L29.2892 29.2969Z" fill="#0052B4"/>
<path d="M32.5676 75.1367L44.7726 92.1683L64.7445 85.8226L52.3183 102.695L64.5234 119.727L44.6375 113.123L32.2109 129.995L32.3476 109.041L12.4609 102.436L32.4312 96.0902L32.5676 75.1367Z" fill="#FFDA44"/>
</svg>
