<svg width="200" height="200" viewBox="0 0 200 200" fill="none" xmlns="http://www.w3.org/2000/svg">
<path d="M0 99.9996C0 112.232 2.20039 123.949 6.21992 134.782L100 143.478L193.78 134.782C197.8 123.949 200 112.232 200 99.9996C200 87.7676 197.8 76.0504 193.78 65.2172L100 56.5215L6.21992 65.2172C2.20039 76.0504 0 87.7676 0 99.9996Z" fill="#FFDA44"/>
<path d="M193.78 65.2176C179.651 27.1379 142.996 0 99.9998 0C57.0033 0 20.349 27.1379 6.21973 65.2176H193.78Z" fill="#D80027"/>
<path d="M6.2207 134.785C20.35 172.865 57.0043 200.003 100.001 200.003C142.997 200.003 179.652 172.865 193.781 134.785H6.2207Z" fill="#D80027"/>
</svg>
