<svg width="200" height="200" viewBox="0 0 200 200" fill="none" xmlns="http://www.w3.org/2000/svg">
<path d="M0.01 17.3828H0V182.6H0.01V99.9921V17.3828Z" fill="#FF9811"/>
<path d="M100 200C155.228 200 200 155.228 200 100C200 44.7715 155.228 0 100 0C44.7715 0 0 44.7715 0 100C0 155.228 44.7715 200 100 200Z" fill="#FFDA44"/>
<path d="M78.2658 17.3828H43.6426C42.1082 18.4316 40.6067 19.5234 39.1352 20.6535L30.4395 99.9913L39.1352 179.329C40.6067 180.46 42.1082 181.551 43.6426 182.6H78.2658V17.3828Z" fill="#FF9811"/>
<path d="M0 100C0 132.323 15.3391 161.058 39.1306 179.338V20.6621C15.3391 38.9427 0 67.6779 0 100Z" fill="#6DA544"/>
<path d="M160.869 60.957V63.459L160.962 63.4731L160.869 60.957Z" fill="#FFDA44"/>
<path d="M192.034 126.079H173.193L165.222 134.774V152.166H147.83V143.47H156.526V126.079H117.395V136.948H108.7V116.233C106.032 113.845 104.352 110.375 104.352 106.513V49.9915C104.352 42.788 110.192 36.9481 117.395 36.9481V117.383H134.787L140.754 112.41C139.712 109.928 139.135 107.202 139.135 104.34V91.2964H126.091V65.2096H152.178C152.178 60.8619 158.7 56.5138 158.7 56.5138C158.7 56.5138 165.222 60.8615 165.222 65.2096V71.7315V91.2968C170.059 91.3542 177.744 91.2288 186.047 91.2968C183.866 87.4843 182.613 82.9604 182.613 78.2534C182.613 70.5811 185.925 63.6834 191.198 58.9099C183.598 42.0681 171.471 27.7079 156.366 17.3828H91.3086V182.601H156.367C174.734 170.046 188.698 151.526 195.473 129.831L192.034 126.079Z" fill="#A2001D"/>
</svg>
