<svg width="200" height="200" viewBox="0 0 200 200" fill="none" xmlns="http://www.w3.org/2000/svg">
<path d="M9.92266 56.5277C3.56563 69.6746 0 84.4235 0 100.006C0 115.588 3.56563 130.337 9.92266 143.484L100 152.18L190.077 143.484C196.434 130.337 200 115.588 200 100.006C200 84.4235 196.434 69.6746 190.077 56.5277L100 47.832L9.92266 56.5277Z" fill="#F0F0F0"/>
<path d="M9.92188 143.479C26.0961 176.928 60.3496 200 99.9957 200C139.642 200 173.895 176.928 190.07 143.479H9.92188Z" fill="black"/>
<path d="M9.92188 56.5219H190.07C173.895 23.0723 139.642 0 99.9957 0C60.3496 0 26.0961 23.0723 9.92188 56.5219Z" fill="#D80027"/>
<path d="M29.2893 29.2969C-9.76309 68.3492 -9.76309 131.666 29.2893 170.719C45.4271 154.581 60.9478 139.06 100 100.008L29.2893 29.2969Z" fill="#496E2D"/>
</svg>
