<svg width="200" height="200" viewBox="0 0 200 200" fill="none" xmlns="http://www.w3.org/2000/svg">
<path d="M100 200C155.228 200 200 155.228 200 100C200 44.7715 155.228 0 100 0C44.7715 0 0 44.7715 0 100C0 155.228 44.7715 200 100 200Z" fill="#F0F0F0"/>
<path d="M193.78 65.2148H6.21953C2.20039 76.0484 0 87.7652 0 99.9972C0 112.229 2.20039 123.947 6.21953 134.78H193.78C197.8 123.947 200 112.229 200 99.9972C200 87.7652 197.8 76.0484 193.78 65.2148Z" fill="#A2001D"/>
<path d="M100.291 200C134.542 200 164.767 182.776 182.789 156.521H17.793C35.8156 182.776 66.0398 200 100.291 200Z" fill="#6DA544"/>
<path d="M100.291 0C134.542 0 164.767 17.2234 182.789 43.4781H17.793C35.8156 17.2234 66.0398 0 100.291 0Z" fill="#6DA544"/>
<path d="M99.9906 65.2148L108.624 91.7851H136.563L113.96 108.209L122.594 134.78L99.9906 118.358L77.3871 134.78L86.0215 108.209L63.418 91.7851H91.3574L99.9906 65.2148Z" fill="#FFDA44"/>
</svg>
