<svg width="200" height="200" viewBox="0 0 200 200" fill="none" xmlns="http://www.w3.org/2000/svg">
<path d="M190.077 143.472C196.434 130.326 200 115.576 200 99.9942C200 84.4121 196.434 69.6625 190.077 56.516L100 52.168L9.92266 56.5156C3.56563 69.6625 0 84.4121 0 99.9942C0 115.576 3.56563 130.326 9.92266 143.472L100 147.82L190.077 143.472Z" fill="#FFDA44"/>
<path d="M100 0C60.3541 0 26.0979 23.0723 9.92285 56.5219H190.077C173.903 23.0723 139.646 0 100 0Z" fill="black"/>
<path d="M99.9992 200C60.3531 200 26.0969 176.928 9.92188 143.479H190.076C173.902 176.928 139.645 200 99.9992 200Z" fill="#0052B4"/>
<path d="M195.278 69.5703H4.72227C1.65898 79.1676 0 89.3922 0 100.005C0 110.618 1.65898 120.843 4.72227 130.44H195.277C198.341 120.843 200 110.618 200 100.005C200 89.3922 198.341 79.1676 195.278 69.5703Z" fill="#A2001D"/>
<path d="M34.7852 95.6445H165.22V104.34H34.7852V95.6445Z" fill="#FFDA44"/>
<path d="M52.168 78.2617H147.82V86.9574H52.168V78.2617Z" fill="#FFDA44"/>
<path d="M148.441 99.9934C148.441 99.9934 126.08 126.08 99.9934 126.08C73.9066 126.08 73.9062 99.9934 73.9062 99.9934C73.9062 99.9934 73.9063 73.9062 99.9934 73.9062C126.08 73.9062 148.441 99.9934 148.441 99.9934Z" fill="#F0F0F0"/>
<path d="M99.9902 126.08C73.9031 126.08 51.543 99.9934 51.543 99.9934C51.543 99.9934 73.9031 73.9062 99.9902 73.9062" fill="black"/>
<path d="M82.6172 91.3086H91.3129V108.7H82.6172V91.3086Z" fill="#F0F0F0"/>
<path d="M108.691 91.3086H117.387V108.7H108.691V91.3086Z" fill="black"/>
<path d="M34.7895 108.7C39.592 108.7 43.4852 104.807 43.4852 100.004C43.4852 95.2018 39.592 91.3086 34.7895 91.3086C29.9869 91.3086 26.0938 95.2018 26.0938 100.004C26.0938 104.807 29.9869 108.7 34.7895 108.7Z" fill="#0052B4"/>
<path d="M165.219 108.7C170.022 108.7 173.915 104.807 173.915 100.004C173.915 95.2018 170.022 91.3086 165.219 91.3086C160.417 91.3086 156.523 95.2018 156.523 100.004C156.523 104.807 160.417 108.7 165.219 108.7Z" fill="#0052B4"/>
</svg>
