<svg width="200" height="200" viewBox="0 0 200 200" fill="none" xmlns="http://www.w3.org/2000/svg">
<path d="M100 200C155.228 200 200 155.228 200 100C200 44.7715 155.228 0 100 0C44.7715 0 0 44.7715 0 100C0 155.228 44.7715 200 100 200Z" fill="#F0F0F0"/>
<path d="M99.991 0C56.9945 0 20.3402 27.1375 6.21094 65.2176H193.771C179.642 27.1375 142.987 0 99.991 0Z" fill="#D80027"/>
<path d="M99.991 200.003C142.987 200.003 179.642 172.865 193.771 134.785H6.21094C20.3402 172.865 56.9945 200.003 99.991 200.003Z" fill="black"/>
<path d="M59.7523 76.0938L65.148 92.7H82.6102L68.4832 102.965L73.8793 119.572L59.7523 109.308L45.6254 119.572L51.0215 102.965L36.8945 92.7H54.3566L59.7523 76.0938Z" fill="#6DA544"/>
<path d="M140.241 76.0938L145.636 92.7H163.099L148.971 102.965L154.368 119.572L140.241 109.308L126.114 119.572L131.51 102.965L117.383 92.7H134.845L140.241 76.0938Z" fill="#6DA544"/>
</svg>
