<svg width="200" height="200" viewBox="0 0 200 200" fill="none" xmlns="http://www.w3.org/2000/svg">
<path d="M200 100C200 155.228 155.228 200 100 200C44.7719 200 0 155.228 0 100C34.3477 65.6523 63.4781 36.5219 100 0C155.228 0 200 44.7719 200 100Z" fill="#D80027"/>
<path d="M100 100C100 44.7719 100 38.2609 100 0C44.7719 0 0 44.7719 0 100H100Z" fill="#0052B4"/>
<path d="M86.9648 58.5297L74.7519 64.275L81.2551 76.1027L67.9937 73.5652L66.3129 86.9625L57.0762 77.1094L47.8387 86.9625L46.1586 73.5652L32.8969 76.102L39.4 64.2742L27.1875 58.5297L39.4004 52.7855L32.8969 40.9574L46.1582 43.4945L47.8391 30.0977L57.0762 39.9508L66.3133 30.0977L67.9937 43.4945L81.2555 40.9574L74.7519 52.7859L86.9648 58.5297Z" fill="#F0F0F0"/>
<path d="M57.0715 77.1312C67.352 77.1312 75.6859 68.7973 75.6859 58.5168C75.6859 48.2363 67.352 39.9023 57.0715 39.9023C46.791 39.9023 38.457 48.2363 38.457 58.5168C38.457 68.7973 46.791 77.1312 57.0715 77.1312Z" fill="#0052B4"/>
<path d="M57.0668 68.4508C51.5977 68.4508 47.1484 64.0012 47.1484 58.532C47.1484 53.0629 51.598 48.6133 57.0668 48.6133C62.5359 48.6133 66.9855 53.0629 66.9855 58.532C66.9852 64.0012 62.5352 68.4508 57.0668 68.4508Z" fill="#F0F0F0"/>
</svg>
