<svg width="200" height="200" viewBox="0 0 200 200" fill="none" xmlns="http://www.w3.org/2000/svg">
<path d="M9.92266 56.5277C3.56563 69.6746 0 84.4238 0 100.006C0 115.588 3.56563 130.337 9.92266 143.484L100 152.18L190.077 143.484C196.434 130.337 200 115.588 200 100.006C200 84.4238 196.434 69.6746 190.077 56.5277L100 47.832L9.92266 56.5277Z" fill="#F0F0F0"/>
<path d="M9.92188 143.479C26.0965 176.928 60.35 200 99.9957 200C139.641 200 173.895 176.928 190.07 143.479H9.92188Z" fill="#6DA544"/>
<path d="M9.92188 56.5219H190.07C173.895 23.0727 139.641 0 99.9957 0C60.35 0 26.0965 23.0727 9.92188 56.5219Z" fill="#D80027"/>
<path d="M82.6172 126.095H117.4V111.312L110.443 114.79L100.009 104.355L89.5738 114.79L82.6172 111.312V126.095Z" fill="#FFDA44"/>
<path d="M62.7168 108.691L64.3359 113.673H69.5742L65.3359 116.753L66.9551 121.735L62.7168 118.656L58.4785 121.735L60.0977 116.753L55.8594 113.673H61.0977L62.7168 108.691Z" fill="#FFDA44"/>
<path d="M67.7363 91.3086L69.3555 96.2906H74.5938L70.3555 99.3699L71.9742 104.352L67.7363 101.273L63.498 104.352L65.1172 99.3699L60.8789 96.2906H66.1172L67.7363 91.3086Z" fill="#FFDA44"/>
<path d="M82.0723 78.2617L83.6914 83.2438H88.9293L84.6918 86.323L86.3102 91.3051L82.0723 88.2262L77.8344 91.3051L79.4531 86.323L75.2148 83.2438H80.4535L82.0723 78.2617Z" fill="#FFDA44"/>
<path d="M137.287 108.691L135.668 113.673H130.43L134.668 116.753L133.049 121.735L137.287 118.656L141.525 121.735L139.906 116.753L144.145 113.673H138.906L137.287 108.691Z" fill="#FFDA44"/>
<path d="M132.268 91.3086L130.648 96.2906H125.41L129.648 99.3699L128.029 104.352L132.268 101.273L136.506 104.352L134.887 99.3699L139.125 96.2906H133.887L132.268 91.3086Z" fill="#FFDA44"/>
<path d="M117.931 78.2617L116.312 83.2438H111.074L115.312 86.323L113.693 91.3051L117.931 88.2262L122.169 91.3051L120.55 86.323L124.788 83.2438H119.55L117.931 78.2617Z" fill="#FFDA44"/>
<path d="M100.002 71.7383L101.621 76.7203H106.859L102.621 79.7996L104.24 84.7817L100.002 81.7027L95.7637 84.7817L97.3828 79.7996L93.1445 76.7203H98.3828L100.002 71.7383Z" fill="#FFDA44"/>
</svg>
