<svg width="200" height="200" viewBox="0 0 200 200" fill="none" xmlns="http://www.w3.org/2000/svg">
<path d="M100 200C155.228 200 200 155.228 200 100C200 44.7715 155.228 0 100 0C44.7715 0 0 44.7715 0 100C0 155.228 44.7715 200 100 200Z" fill="#FFDA44"/>
<path d="M29.2953 170.717C33.4902 174.912 37.966 178.653 42.6609 181.947L181.946 42.6613C178.653 37.9664 174.912 33.4906 170.717 29.2957C166.521 25.1008 162.046 21.3602 157.351 18.0664L18.0664 157.352C21.3594 162.046 25.1008 166.522 29.2953 170.717Z" fill="black"/>
<path d="M29.2852 29.2847C-2.26246 60.8332 -8.3191 108.212 11.1039 145.846L145.847 11.1039C108.213 -8.31918 60.8333 -2.26215 29.2852 29.2847Z" fill="#6DA544"/>
<path d="M170.702 170.702C202.25 139.155 208.306 91.7746 188.884 54.1406L54.1406 188.884C91.7738 208.307 139.154 202.25 170.702 170.702Z" fill="#338AF3"/>
</svg>
