<svg width="200" height="200" viewBox="0 0 200 200" fill="none" xmlns="http://www.w3.org/2000/svg">
<path d="M100 200C155.228 200 200 155.228 200 100C200 44.7715 155.228 0 100 0C44.7715 0 0 44.7715 0 100C0 155.228 44.7715 200 100 200Z" fill="#FFDA44"/>
<path d="M99.9922 0C99.9195 0.00078125 95.6445 40 95.6445 40H179.997C161.753 15.7121 132.708 0 99.9922 0Z" fill="#496E2D"/>
<path d="M100.004 200C132.72 200 161.765 184.288 180.009 160H20C38.2437 184.288 67.2887 200 100.004 200Z" fill="#496E2D"/>
<path d="M197.99 80H95.6445L99.9922 120H197.99C199.302 113.538 199.992 106.85 199.992 100C199.992 93.1504 199.302 86.4621 197.99 80Z" fill="#496E2D"/>
<path d="M100 120C100 99.1305 100 23.4781 100 0C44.7719 0 0 44.7719 0 100C0 106.85 0.690625 113.538 2.00234 120H100Z" fill="#D80027"/>
<path d="M55.1828 47.832L61.6578 67.7598H82.6129L65.6609 80.0773L72.1351 100.006L55.1828 87.6895L38.2305 100.006L44.7059 80.0773L27.7539 67.7598H48.7082L55.1828 47.832Z" fill="#F0F0F0"/>
</svg>
