<svg width="200" height="200" viewBox="0 0 200 200" fill="none" xmlns="http://www.w3.org/2000/svg">
<path d="M100 200C155.228 200 200 155.228 200 100C200 44.7715 155.228 0 100 0C44.7715 0 0 44.7715 0 100C0 155.228 44.7715 200 100 200Z" fill="#FFDA44"/>
<path d="M160.87 47.8262C159.973 52.1367 159.565 56.7277 159.565 61.3043C159.565 87.6848 175.291 110.517 197.829 120.796C199.248 114.086 200 107.131 200 100C200 44.7719 155.228 0 100 0C44.7719 0 0 44.7719 0 100C0 155.228 44.7719 200 100 200C134.251 200 164.476 182.777 182.498 156.522H56.5219V143.479H190.077C191.444 140.652 192.679 137.75 193.78 134.783H56.5219L160.87 47.8262Z" fill="#0052B4"/>
<path d="M73.4695 52.168L75.6281 58.8109H82.6125L76.9621 62.9168L79.1207 69.5594L73.4695 65.4543L67.8191 69.5594L69.9773 62.9168L64.3262 58.8109H71.3109L73.4695 52.168Z" fill="#F0F0F0"/>
<path d="M45.0906 100L47.7891 108.304H56.5195L49.4559 113.435L52.1543 121.739L45.0906 116.607L38.0273 121.739L40.7254 113.435L33.6621 108.304H42.3926L45.0906 100Z" fill="#F0F0F0"/>
<path d="M45.0906 30.4297L47.7891 38.734H56.5195L49.4559 43.8648L52.1543 52.1688L45.0906 47.0367L38.0273 52.1688L40.7254 43.8648L33.6621 38.734H42.3926L45.0906 30.4297Z" fill="#F0F0F0"/>
<path d="M23.3523 69.5703L26.0508 77.8746H34.7809L27.7176 83.0055L30.416 91.3094L23.3523 86.1773L16.2891 91.3094L18.9871 83.0055L11.9238 77.8746H20.6539L23.3523 69.5703Z" fill="#F0F0F0"/>
</svg>
