<svg width="200" height="200" viewBox="0 0 200 200" fill="none" xmlns="http://www.w3.org/2000/svg">
<path d="M54.1558 11.1133C45.2035 15.734 36.8 21.7906 29.2953 29.2953C21.7902 36.8004 15.7336 45.2039 11.1133 54.1562L75.4128 124.605L145.862 188.904C154.814 184.284 163.218 178.227 170.722 170.723C178.228 163.218 184.284 154.814 188.904 145.862L124.605 75.4128L54.1558 11.1133Z" fill="#F0F0F0"/>
<path d="M170.704 170.704C174.899 166.509 178.64 162.033 181.934 157.338L42.6429 18.0469C37.948 21.3402 33.4719 25.0816 29.2769 29.2766C25.082 33.4715 21.3406 37.9476 18.0469 42.6429L157.338 181.933C162.032 178.64 166.509 174.899 170.704 170.704Z" fill="black"/>
<path d="M29.2859 170.707C60.8354 202.257 108.217 208.313 145.852 188.889L11.1043 54.1406C-8.31955 91.7757 -2.26214 139.158 29.2859 170.707Z" fill="#D80027"/>
<path d="M170.707 29.2864C139.157 -2.26281 91.7757 -8.31905 54.1406 11.104L188.889 145.853C208.313 108.218 202.256 60.8356 170.707 29.2864Z" fill="#D80027"/>
</svg>
