<svg width="200" height="200" viewBox="0 0 200 200" fill="none" xmlns="http://www.w3.org/2000/svg">
<path d="M100 200C155.228 200 200 155.228 200 100C200 44.7715 155.228 0 100 0C44.7715 0 0 44.7715 0 100C0 155.228 44.7715 200 100 200Z" fill="#D80027"/>
<path d="M99.9941 147.82C126.408 147.82 147.82 126.408 147.82 99.9941C147.82 73.5805 126.408 52.168 99.9941 52.168C73.5805 52.168 52.168 73.5805 52.168 99.9941C52.168 126.408 73.5805 147.82 99.9941 147.82Z" fill="#F0F0F0"/>
<path d="M105.895 81.7188L114.099 93.0254L127.387 88.7168L119.17 100.014L127.373 111.32L114.09 106.995L105.872 118.292L105.881 104.323L92.5977 99.9977L105.886 95.6891L105.895 81.7188Z" fill="#D80027"/>
<path d="M110.867 128.261C95.259 128.261 82.6059 115.607 82.6059 99.9996C82.6059 84.3918 95.259 71.7387 110.867 71.7387C115.733 71.7387 120.312 72.9691 124.31 75.1356C118.039 69.0023 109.463 65.2168 99.9973 65.2168C80.7879 65.2168 65.2148 80.7895 65.2148 99.9992C65.2148 119.209 80.7879 134.782 99.9973 134.782C109.463 134.782 118.039 130.996 124.31 124.863C120.312 127.03 115.733 128.261 110.867 128.261Z" fill="#D80027"/>
</svg>
