<svg width="200" height="200" viewBox="0 0 200 200" fill="none" xmlns="http://www.w3.org/2000/svg">
<path d="M200 100C200 155.228 155.228 200 100 200C44.7719 200 0 155.228 0 100C0 100.024 100 0.0109375 100 0C155.228 0 200 44.7719 200 100Z" fill="#0052B4"/>
<path d="M99.7266 99.9941H99.9941C99.9941 99.9043 99.9941 99.8168 99.9941 99.7266C99.9051 99.816 99.816 99.9051 99.7266 99.9941Z" fill="#F0F0F0"/>
<path d="M100 52.1738C100 34.5781 100 23.0488 100 0H99.9832C44.7621 0.009375 0 44.777 0 100H52.1738V70.6207L81.5531 100H99.7328C99.8219 99.9109 99.9109 99.8219 100 99.7324C100 92.9953 100 86.984 100 81.5539L70.6203 52.1738H100Z" fill="#F0F0F0"/>
<path d="M50.5953 13.0469C34.9551 21.9527 21.9523 34.9551 13.0469 50.5953V100.004H39.134V39.1348V39.134H100.004C100.004 30.9063 100.004 23.068 100.004 13.0469H50.5953Z" fill="#D80027"/>
<path d="M99.9941 87.6965L64.4648 52.168H52.168V52.1687L99.9934 99.9938H99.9941C99.9941 99.9938 99.9941 91.5145 99.9941 87.6965Z" fill="#D80027"/>
<path d="M113.047 52.168V99.9937C113.047 123.291 143.482 130.429 143.482 130.429C143.482 130.429 173.916 123.291 173.916 99.9937V52.168H113.047Z" fill="#FFDA44"/>
<path d="M139.13 69.5746C139.13 74.3773 135.237 86.966 130.434 86.966C125.631 86.966 121.738 74.3773 121.738 69.5746C121.738 64.7719 130.434 60.8789 130.434 60.8789C130.434 60.8789 139.13 64.7719 139.13 69.5746Z" fill="#FF9811"/>
<path d="M162.208 79.0453C163.611 75.6215 164.703 70.6168 164.703 68.1254C164.703 64.123 159.485 60.8789 159.485 60.8789C159.485 60.8789 154.268 64.1234 154.268 68.1254C154.268 70.6168 155.359 75.6215 156.762 79.0453L153.75 85.8461C155.52 86.5656 157.455 86.9656 159.485 86.9656C161.514 86.9656 163.449 86.5656 165.22 85.8461L162.208 79.0453Z" fill="#A2001D"/>
<path d="M136.965 99.9922C136.965 99.9922 132.617 108.688 132.617 117.384H154.356C154.356 108.688 150.008 99.9922 150.008 99.9922L143.486 95.6445L136.965 99.9922Z" fill="#6DA544"/>
<path d="M149.997 100.004V97.8305C149.997 94.2289 147.077 91.3086 143.475 91.3086C139.873 91.3086 136.953 94.2285 136.953 97.8305V100.004H149.997Z" fill="#D80027"/>
</svg>
