<svg width="200" height="200" viewBox="0 0 200 200" fill="none" xmlns="http://www.w3.org/2000/svg">
<path d="M100 200C155.228 200 200 155.228 200 100C200 44.7715 155.228 0 100 0C44.7715 0 0 44.7715 0 100C0 155.228 44.7715 200 100 200Z" fill="#D80027"/>
<path d="M95.9141 81.7188L104.119 93.0254L117.407 88.7168L109.189 100.014L117.393 111.32L104.11 106.995L95.8922 118.292L95.9008 104.323L82.6172 99.9977L95.9055 95.6891L95.9141 81.7188Z" fill="#F0F0F0"/>
<path d="M73.5035 128.261C57.8957 128.261 45.2426 115.607 45.2426 99.9996C45.2426 84.3918 57.8957 71.7387 73.5035 71.7387C78.3699 71.7387 82.9488 72.9695 86.9465 75.1356C80.675 69.002 72.098 65.2168 62.634 65.2168C43.4238 65.2168 27.8516 80.7895 27.8516 99.9992C27.8516 119.209 43.4242 134.782 62.634 134.782C72.0988 134.782 80.6754 130.996 86.9465 124.863C82.9488 127.03 78.3699 128.261 73.5035 128.261Z" fill="#F0F0F0"/>
</svg>
