<svg width="200" height="200" viewBox="0 0 200 200" fill="none" xmlns="http://www.w3.org/2000/svg">
<path d="M99.9927 0C92.5262 0 85.2532 0.825391 78.2539 2.37695L73.9062 99.9996L78.2539 197.623C85.2536 199.174 92.5266 200 99.9927 200C155.221 200 199.993 155.228 199.993 99.9996C199.993 44.7715 155.221 0 99.9927 0Z" fill="#496E2D"/>
<path d="M26.0868 32.6367C9.88207 50.4086 0 74.0453 0 99.9914C0 125.937 9.88246 149.574 26.0872 167.347L30.4349 99.9914L26.0868 32.6367Z" fill="#496E2D"/>
<path d="M146.258 75.4289C151.178 61.7156 145.651 46.8012 133.789 39.373C135.922 39.6508 138.058 40.1531 140.166 40.909C155.988 46.5855 164.212 64.0121 158.535 79.8332C152.859 95.6555 135.432 103.879 119.611 98.2023C117.502 97.4461 115.534 96.4754 113.711 95.3336C127.59 97.141 141.338 89.1422 146.258 75.4289Z" fill="#F0F0F0"/>
<path d="M118.965 35.6055L114.69 41.1297L108.116 38.7707L112.048 44.5434L107.773 50.0668L114.479 48.1113L118.411 53.8832L118.622 46.902L125.328 44.9461L118.754 42.5879L118.965 35.6055Z" fill="#F0F0F0"/>
<path d="M130.509 53.6133L126.233 59.1371L119.659 56.7781L123.591 62.5508L119.316 68.0742L126.022 66.118L129.954 71.891L130.166 64.9094L136.871 62.9531L130.297 60.5945L130.509 53.6133Z" fill="#F0F0F0"/>
<path d="M98.6137 42.1699L94.3383 47.6934L87.7645 45.3352L91.6969 51.1074L87.4219 56.6312L94.1266 54.6754L98.0594 60.4477L98.2711 53.4664L104.976 51.5105L98.4024 49.1516L98.6137 42.1699Z" fill="#F0F0F0"/>
<path d="M98.1454 62.793L93.8703 68.3168L87.2961 65.9582L91.2289 71.7309L86.9531 77.2543L93.659 75.2988L97.5914 81.0707L97.8028 74.0895L104.508 72.1336L97.9336 69.7746L98.1454 62.793Z" fill="#F0F0F0"/>
<path d="M117.774 69.8242L113.499 75.3477L106.925 72.9891L110.858 78.7617L106.582 84.2848L113.288 82.3293L117.22 88.102L117.432 81.1199L124.137 79.1645L117.563 76.8059L117.774 69.8242Z" fill="#F0F0F0"/>
<path d="M26.0938 32.6508V167.361C39.7188 182.304 57.8165 193.095 78.2678 197.628V2.38281C57.8162 6.91641 39.7192 17.7074 26.0938 32.6508Z" fill="#D80027"/>
<path d="M46.0004 52.6453L37.2656 46.1383V36.9363L46.0004 30.4297H58.354L67.0888 36.9363V46.1383L58.354 52.6453H46.0004Z" fill="#F0F0F0"/>
<path d="M52.1774 30.4297H46.0004L37.2656 36.9363V41.4352H52.1774V30.4297Z" fill="#FF9811"/>
<path d="M52.168 52.6465H58.3446L67.0794 46.1395V41.4453H52.168V52.6465Z" fill="#FF9811"/>
<path d="M46.0004 169.559L37.2656 163.052V153.851L46.0004 147.344H58.354L67.0888 153.851V163.052L58.354 169.559H46.0004Z" fill="#F0F0F0"/>
<path d="M52.1774 147.344H46.0004L37.2656 153.851V158.35H52.1774V147.344Z" fill="#FF9811"/>
<path d="M52.168 169.56H58.3446L67.0794 163.053V158.359H52.168V169.56Z" fill="#FF9811"/>
<path d="M46.0004 111.102L37.2656 104.595V95.3937L46.0004 88.8867H58.354L67.0888 95.3937V104.595L58.354 111.102H46.0004Z" fill="#496E2D"/>
<path d="M67.3876 125.424H63.5829V121.62H56.8974L52.17 116.893L47.443 121.62H40.7574V125.424H36.9531V133.033H40.7574V136.837H47.4426L52.1704 141.565L56.8974 136.837H63.5829V133.033H67.3876V125.424Z" fill="#496E2D"/>
<path d="M67.3876 66.9695H63.5829V63.1648H56.8974L52.17 58.4375L47.443 63.1648H40.7574V66.9695H36.9531V74.5781H40.7574V78.3824H47.4426L52.1704 83.1106L56.8974 78.3824H63.5829V74.5781H67.3876V66.9695Z" fill="#496E2D"/>
<path d="M47.832 95.6445H56.5278V104.34H47.832V95.6445Z" fill="#D80027"/>
<path d="M52.1797 75.1211C54.5809 75.1211 56.5274 73.1746 56.5274 70.7734C56.5274 68.3723 54.5809 66.4258 52.1797 66.4258C49.7786 66.4258 47.832 68.3723 47.832 70.7734C47.832 73.1746 49.7786 75.1211 52.1797 75.1211Z" fill="#D80027"/>
<path d="M52.1797 133.578C54.5809 133.578 56.5274 131.632 56.5274 129.23C56.5274 126.829 54.5809 124.883 52.1797 124.883C49.7786 124.883 47.832 126.829 47.832 129.23C47.832 131.632 49.7786 133.578 52.1797 133.578Z" fill="#D80027"/>
</svg>
