<svg width="200" height="200" viewBox="0 0 200 200" fill="none" xmlns="http://www.w3.org/2000/svg">
<path d="M200 100C200 155.228 155.228 200 100 200C44.7719 200 0 155.228 0 100C0 100.024 100 0.0109375 100 0C155.228 0 200 44.7719 200 100Z" fill="#338AF3"/>
<path d="M47.832 99.9973H81.5594L52.1797 65.2148L47.832 78.2582V99.9973Z" fill="#0052B4"/>
<path d="M99.9977 81.5598L65.2148 47.832H99.9973L99.9977 81.5598Z" fill="#0052B4"/>
<path d="M99.7266 99.9941H99.9941C99.9941 99.9043 99.9941 99.8168 99.9941 99.7266C99.9051 99.816 99.816 99.9051 99.7266 99.9941Z" fill="#F0F0F0"/>
<path d="M100 52.1738C100 34.5781 100 23.0484 100 0H99.9836C44.7625 0.009375 0 44.777 0 100H52.1742V70.6207L81.5535 100H99.7332C99.8223 99.9109 99.9113 99.8219 100.001 99.7324C100.001 92.9953 100.001 86.984 100.001 81.5539L70.6203 52.1738H100Z" fill="#F0F0F0"/>
<path d="M50.5953 13.0469C34.9551 21.9527 21.9527 34.9551 13.0469 50.5953V100.004H39.134V39.1348V39.134H100.004C100.004 30.9063 100.004 23.068 100.004 13.0469H50.5953Z" fill="#D80027"/>
<path d="M99.9941 87.6965L64.4648 52.168H52.168V52.1687L99.9934 99.9938H99.9941C99.9941 99.9938 99.9941 91.5145 99.9941 87.6965Z" fill="#D80027"/>
<path d="M109.143 165.215L111.302 171.858H118.286L112.636 175.963L114.795 182.606L109.143 178.501L103.493 182.606L105.651 175.963L100 171.858H106.984L109.143 165.215Z" fill="#FFDA44"/>
<path d="M164.768 121.738L166.927 128.381H173.911L168.261 132.487L170.42 139.13L164.768 135.025L159.118 139.13L161.277 132.487L155.625 128.381H162.61L164.768 121.738Z" fill="#FFDA44"/>
<path d="M178.713 56.5215L180.872 63.1645H187.857L182.206 67.2699L184.364 73.9125L178.713 69.8074L173.063 73.9125L175.221 67.2699L169.57 63.1645H176.555L178.713 56.5215Z" fill="#FFDA44"/>
<path d="M182.171 104.355L184.329 110.999H191.314L185.663 115.104L187.822 121.747L182.171 117.642L176.52 121.747L178.679 115.104L173.027 110.999H180.012L182.171 104.355Z" fill="#FFDA44"/>
<path d="M119.15 149.599L125.375 152.771L130.313 147.832L129.221 154.73L135.444 157.901L128.545 158.994L127.452 165.893L124.282 159.669L117.383 160.762L122.321 155.824L119.15 149.599Z" fill="#FFDA44"/>
<path d="M119.15 123.506L125.375 126.677L130.313 121.738L129.221 128.637L135.444 131.807L128.545 132.9L127.452 139.799L124.282 133.576L117.383 134.669L122.321 129.73L119.15 123.506Z" fill="#FFDA44"/>
<path d="M140.888 140.224L147.113 143.396L152.052 138.457L150.959 145.355L157.182 148.526L150.283 149.619L149.191 156.518L146.02 150.294L139.121 151.388L144.06 146.449L140.888 140.224Z" fill="#FFDA44"/>
<path d="M140.888 84.3848L147.113 87.5559L152.052 82.6172L150.959 89.5156L157.182 92.6863L150.283 93.7793L149.191 100.678L146.02 94.4547L139.121 95.5477L144.06 90.609L140.888 84.3848Z" fill="#FFDA44"/>
<path d="M161.963 83.7012L168.187 86.8723L173.126 81.9336L172.033 88.832L178.257 92.0027L171.357 93.0957L170.265 99.9945L167.095 93.7711L160.195 94.8641L165.134 89.9254L161.963 83.7012Z" fill="#FFDA44"/>
</svg>
