<svg width="200" height="200" viewBox="0 0 200 200" fill="none" xmlns="http://www.w3.org/2000/svg">
<path d="M174.529 166.673C190.366 148.981 200 125.621 200 100.007C200 74.3926 190.365 51.032 174.528 33.3398L100 26.0938L25.4719 33.3398C9.63477 51.032 0 74.3926 0 100.007C0 125.621 9.63438 148.981 25.4715 166.673L100 173.92L174.529 166.673Z" fill="#FFDA44"/>
<path d="M25.4688 33.3332H174.525C156.215 12.8773 129.611 0 99.9969 0C70.3824 0 43.7789 12.8773 25.4688 33.3332Z" fill="black"/>
<path d="M0 99.9937L100 108.689L200 99.9937C200 88.3047 197.988 77.0867 194.302 66.6602H5.69844C2.01211 77.0867 0 88.3047 0 99.9937Z" fill="#D80027"/>
<path d="M5.69844 133.333H194.302C197.988 122.907 200 111.689 200 100H0C0 111.689 2.01211 122.907 5.69844 133.333Z" fill="black"/>
<path d="M174.526 166.66H25.4688C43.7789 187.116 70.3824 199.994 99.9973 199.994C129.612 199.994 156.216 187.116 174.526 166.66Z" fill="#D80027"/>
<path d="M133.36 99.9906C133.36 118.421 118.421 133.36 99.9906 133.36C81.5598 133.36 66.6211 118.421 66.6211 99.9906C66.6211 81.5598 81.5598 66.6211 99.9906 66.6211C118.421 66.6211 133.36 81.5598 133.36 99.9906Z" fill="#F0F0F0"/>
<path d="M112.234 101.694L100.009 96.3965C100.009 96.3965 102.869 86.9031 103.021 86.2535C103.133 85.7789 103.192 85.284 103.192 84.7754C103.192 82.9742 102.462 81.3438 101.282 80.1641L104.356 77.0898C102.389 75.123 99.6715 73.9062 96.6699 73.9062C93.6684 73.9062 90.9508 75.1227 88.984 77.0898L92.0582 80.1641C90.8777 81.3441 90.148 82.9746 90.148 84.7754C90.148 85.434 90.2477 86.0688 90.4293 86.6684L85.8008 91.2965H94.2133C94.2133 91.2965 90.7352 96.5207 88.8363 100.811C86.9375 105.101 88.8625 110.338 93.2508 112.289L95.7883 113.416L100.009 117.384V121.731L95.6613 126.079H104.357V117.383L108.325 113.416H116.531C116.57 113.334 116.612 113.254 116.649 113.171C118.599 108.783 116.622 103.644 112.234 101.694Z" fill="black"/>
</svg>
