<svg width="200" height="200" viewBox="0 0 200 200" fill="none" xmlns="http://www.w3.org/2000/svg">
<path d="M100 200C155.228 200 200 155.228 200 100C200 44.7715 155.228 0 100 0C44.7715 0 0 44.7715 0 100C0 155.228 44.7715 200 100 200Z" fill="#F0F0F0"/>
<path d="M20.6645 39.1211C12.8094 49.341 6.88633 61.1203 3.4375 73.9168H55.4601L20.6645 39.1211Z" fill="#0052B4"/>
<path d="M196.553 73.9164C193.104 61.1203 187.181 49.341 179.326 39.1211L144.531 73.9164H196.553Z" fill="#0052B4"/>
<path d="M3.4375 126.094C6.88672 138.89 12.8098 150.669 20.6645 160.889L55.459 126.094H3.4375Z" fill="#0052B4"/>
<path d="M160.889 20.6648C150.669 12.8098 138.89 6.88672 126.094 3.4375V55.4598L160.889 20.6648Z" fill="#0052B4"/>
<path d="M39.1211 179.328C49.341 187.183 61.1203 193.106 73.9164 196.555V144.533L39.1211 179.328Z" fill="#0052B4"/>
<path d="M73.916 3.4375C61.1199 6.88672 49.3406 12.8098 39.1211 20.6645L73.916 55.4594V3.4375Z" fill="#0052B4"/>
<path d="M126.094 196.555C138.89 193.106 150.669 187.183 160.889 179.328L126.094 144.533V196.555Z" fill="#0052B4"/>
<path d="M144.531 126.094L179.326 160.889C187.181 150.67 193.104 138.89 196.553 126.094H144.531Z" fill="#0052B4"/>
<path d="M199.154 86.9566H113.044H113.044V0.846484C108.774 0.290625 104.421 0 100 0C95.5785 0 91.2262 0.290625 86.9566 0.846484V86.9559V86.9563H0.846484C0.290625 91.2262 0 95.5793 0 100C0 104.421 0.290625 108.774 0.846484 113.043H86.9559H86.9563V199.154C91.2262 199.709 95.5785 200 100 200C104.421 200 108.774 199.71 113.043 199.154V113.044V113.044H199.154C199.709 108.774 200 104.421 200 100C200 95.5793 199.709 91.2262 199.154 86.9566Z" fill="#D80027"/>
<path d="M126.094 126.094L170.717 170.718C172.77 168.666 174.727 166.521 176.595 164.298L138.391 126.094H126.094V126.094Z" fill="#D80027"/>
<path d="M73.9207 126.094H73.9199L29.2969 170.717C31.3484 172.769 33.4934 174.727 35.7168 176.595L73.9207 138.39V126.094Z" fill="#D80027"/>
<path d="M73.9195 73.9215V73.9207L29.2961 29.2969C27.2438 31.3484 25.2859 33.4934 23.418 35.7168L61.6223 73.9211L73.9195 73.9215Z" fill="#D80027"/>
<path d="M126.094 73.9199L170.718 29.2957C168.666 27.2434 166.521 25.2855 164.298 23.418L126.094 61.6223V73.9199Z" fill="#D80027"/>
</svg>
