<svg width="200" height="200" viewBox="0 0 200 200" fill="none" xmlns="http://www.w3.org/2000/svg">
<path d="M100 200C155.228 200 200 155.228 200 100C200 44.7715 155.228 0 100 0C44.7715 0 0 44.7715 0 100C0 155.228 44.7715 200 100 200Z" fill="#F0F0F0"/>
<path d="M56.5234 134.785L65.2191 193.784C76.052 197.804 87.7695 200.003 100.002 200.003C142.998 200.003 179.652 172.865 193.781 134.785H56.5234Z" fill="black"/>
<path d="M56.5216 65.2176L65.2173 6.21914C76.0501 2.19922 87.7677 0 99.9997 0C142.996 0 179.651 27.1375 193.779 65.2176H56.5216Z" fill="#6DA544"/>
<path d="M0 99.991C0 142.987 27.1379 179.642 65.2176 193.771V6.21094C27.1379 20.3402 0 56.9945 0 99.991Z" fill="#A2001D"/>
</svg>
