<svg width="200" height="200" viewBox="0 0 200 200" fill="none" xmlns="http://www.w3.org/2000/svg">
<path d="M100 200C155.228 200 200 155.228 200 100C200 44.7715 155.228 0 100 0C44.7715 0 0 44.7715 0 100C0 155.228 44.7715 200 100 200Z" fill="#F0F0F0"/>
<path d="M100 73.9191H196.555C194.048 64.6168 190.237 55.8508 185.323 47.832H100V73.9191Z" fill="#338AF3"/>
<path d="M37.7418 178.255H162.239C171.365 170.986 179.192 162.157 185.313 152.168H14.668C20.7895 162.157 28.616 170.986 37.7418 178.255Z" fill="#338AF3"/>
<path d="M100 0V21.7391H162.249C145.167 8.13438 123.535 0 100 0Z" fill="#338AF3"/>
<path d="M100 73.9191H196.555C194.048 64.6168 190.237 55.8508 185.323 47.832H100V73.9191Z" fill="#338AF3"/>
<path d="M0 100C0 109.026 1.20313 117.769 3.44492 126.087H196.555C198.797 117.769 200 109.026 200 100H0Z" fill="#338AF3"/>
<path d="M86.9648 58.5297L74.7516 64.2746L81.2551 76.1027L67.9934 73.566L66.3129 86.9625L57.0762 77.1094L47.8387 86.9625L46.1586 73.566L32.8969 76.102L39.4 64.2742L27.1875 58.5297L39.4004 52.7855L32.8969 40.9574L46.1582 43.4941L47.8391 30.0977L57.0762 39.9508L66.3133 30.0977L67.9934 43.4941L81.2555 40.9574L74.7519 52.7859L86.9648 58.5297Z" fill="#FFDA44"/>
</svg>
