<svg width="200" height="200" viewBox="0 0 200 200" fill="none" xmlns="http://www.w3.org/2000/svg">
<path d="M100 200C155.228 200 200 155.228 200 100C200 44.7715 155.228 0 100 0C44.7715 0 0 44.7715 0 100C0 155.228 44.7715 200 100 200Z" fill="#FCFCFC"/>
<path d="M116.976 69.8547C116.976 60.475 109.372 52.8711 99.9922 52.8711C90.6121 52.8711 83.0082 60.475 83.0082 69.8547H45.6445C45.6445 79.0895 53.6891 86.5766 62.9238 86.5766H62.3676C62.3676 95.8121 69.8535 103.3 79.0898 103.3C79.0898 111.477 84.9625 118.271 92.7184 119.723L92.675 119.821H107.31L107.266 119.723C115.023 118.27 120.895 111.476 120.895 103.3C130.131 103.3 137.617 95.8121 137.617 86.5766H137.06C146.295 86.5766 154.34 79.0895 154.34 69.8547H116.976Z" fill="#FFDA44"/>
<path d="M92.5422 118.086L82.0117 141.861C87.568 144.119 93.641 145.375 100.009 145.375C106.376 145.375 112.449 144.12 118.005 141.861L107.475 118.086H92.5422Z" fill="#FFDA44"/>
<path d="M78.2617 78.2227V107.477C78.2617 124.117 100.001 129.216 100.001 129.216C100.001 129.216 121.74 124.117 121.74 107.477V78.2227H78.2617Z" fill="#F0F0F0"/>
<path d="M24.2504 100.703L36.0078 133.587L47.643 100.703H56.5227L39.5594 144.181H32.4559L15.3711 100.703H24.2504Z" fill="#338AF3"/>
<path d="M160.879 144.181V100.703H169.329V144.181H160.879Z" fill="#338AF3"/>
<path d="M86.9531 87.6562V123.107C89.9418 125.307 93.1574 126.82 95.6488 127.788V87.6562H86.9531Z" fill="#D80027"/>
<path d="M113.051 87.6562V123.107C110.062 125.307 106.847 126.82 104.355 127.788V87.6562H113.051Z" fill="#D80027"/>
<path d="M78.2617 78.2031H121.74V91.9984H78.2617V78.2031Z" fill="#0052B4"/>
</svg>
