<svg width="200" height="200" viewBox="0 0 200 200" fill="none" xmlns="http://www.w3.org/2000/svg">
<path d="M4.72187 69.5629C1.65859 79.1598 -0.000390555 89.3837 6.89666e-08 99.9966C-0.000390555 110.61 1.65898 120.835 4.72226 130.431L99.9998 134.78L195.277 130.432C198.34 120.835 200 110.61 200 99.9974C200 89.3841 198.341 79.1598 195.277 69.5625L99.9998 65.2148L4.72187 69.5629Z" fill="#F0F0F0"/>
<path d="M195.283 69.5625L100.005 65.2148L4.72734 69.5625C3.81953 72.4078 3.03789 75.309 2.38281 78.2583H197.626C196.972 75.3086 196.191 72.4071 195.283 69.5625Z" fill="#D80027"/>
<path d="M2.38281 121.738C3.03711 124.688 3.81875 127.588 4.72656 130.434L4.73593 130.434L100.004 134.782L195.281 130.434C196.189 127.589 196.971 124.688 197.625 121.738H2.38281Z" fill="#D80027"/>
<path d="M100.004 199.995C144.619 199.995 182.404 170.775 195.281 130.43H4.72656C17.6035 170.775 55.3894 199.995 100.004 199.995Z" fill="#6DA544"/>
<path d="M100.004 3.91645e-09C55.3894 0.00039063 17.6043 29.2204 4.72656 69.5655L195.281 69.5659C182.405 29.22 144.62 -0.000390623 100.004 3.91645e-09Z" fill="#338AF3"/>
<path d="M45.6898 41.3051C45.6898 31.9391 52.2722 24.1149 61.0625 22.1953C59.7117 21.9 58.3097 21.7402 56.8699 21.7402C46.0644 21.7402 37.3047 30.4996 37.3047 41.3055C37.3047 52.1114 46.0637 60.8708 56.8699 60.8708C58.3097 60.8708 59.7113 60.7107 61.0625 60.4158C52.2726 58.4954 45.6898 50.6712 45.6898 41.3051Z" fill="#F0F0F0"/>
<path d="M72.6422 50.1953L73.9664 54.2715H78.2523L74.7851 56.791L76.1094 60.8672L72.6422 58.3481L69.1742 60.8672L70.4988 56.791L67.0312 54.2715H71.3172L72.6422 50.1953Z" fill="#F0F0F0"/>
<path d="M86.3133 50.1953L87.6379 54.2715H91.9238L88.4562 56.791L89.7808 60.8672L86.3133 58.3481L82.8457 60.8672L84.1703 56.791L80.7031 54.2715H84.9887L86.3133 50.1953Z" fill="#F0F0F0"/>
<path d="M99.9859 50.1953L101.31 54.2715H105.596L102.129 56.791L103.453 60.8672L99.9859 58.3481L96.518 60.8672L97.843 56.791L94.375 54.2715H98.6613L99.9859 50.1953Z" fill="#F0F0F0"/>
<path d="M113.677 50.1953L115.002 54.2715H119.287L115.82 56.791L117.145 60.8672L113.677 58.3481L110.209 60.8672L111.534 56.791L108.066 54.2715H112.352L113.677 50.1953Z" fill="#F0F0F0"/>
<path d="M127.348 50.1953L128.673 54.2715H132.959L129.492 56.791L130.816 60.8672L127.348 58.3481L123.881 60.8672L125.205 56.791L121.738 54.2715H126.024L127.348 50.1953Z" fill="#F0F0F0"/>
<path d="M86.3133 35.9766L87.6379 40.0524H91.9238L88.4562 42.5723L89.7808 46.6481L86.3133 44.1289L82.8457 46.6481L84.1703 42.5723L80.7031 40.0524H84.9887L86.3133 35.9766Z" fill="#F0F0F0"/>
<path d="M99.9859 35.9766L101.31 40.0524H105.596L102.129 42.5723L103.453 46.6481L99.9859 44.1289L96.518 46.6481L97.843 42.5723L94.375 40.0524H98.6613L99.9859 35.9766Z" fill="#F0F0F0"/>
<path d="M113.677 35.9766L115.002 40.0524H119.287L115.82 42.5723L117.145 46.6481L113.677 44.1289L110.209 46.6481L111.534 42.5723L108.066 40.0524H112.352L113.677 35.9766Z" fill="#F0F0F0"/>
<path d="M127.348 35.9766L128.673 40.0524H132.959L129.492 42.5723L130.816 46.6481L127.348 44.1289L123.881 46.6481L125.205 42.5723L121.738 40.0524H126.024L127.348 35.9766Z" fill="#F0F0F0"/>
<path d="M99.9859 21.7383L101.31 25.8149H105.596L102.129 28.334L103.453 32.4106L99.9859 29.8914L96.518 32.4106L97.843 28.334L94.375 25.8149H98.6613L99.9859 21.7383Z" fill="#F0F0F0"/>
<path d="M113.677 21.7383L115.002 25.8149H119.287L115.82 28.334L117.145 32.4106L113.677 29.8914L110.209 32.4106L111.534 28.334L108.066 25.8149H112.352L113.677 21.7383Z" fill="#F0F0F0"/>
<path d="M127.348 21.7383L128.673 25.8149H132.959L129.492 28.334L130.816 32.4106L127.348 29.8914L123.881 32.4106L125.205 28.334L121.738 25.8149H126.024L127.348 21.7383Z" fill="#F0F0F0"/>
</svg>
