<svg width="200" height="200" viewBox="0 0 200 200" fill="none" xmlns="http://www.w3.org/2000/svg">
<path d="M199.999 100.008C199.999 95.5871 199.709 91.234 199.153 86.9645H86.9553C66.5253 66.5356 29.2876 29.3 29.2891 29.2969C-9.76304 68.3492 -9.76304 131.666 29.2891 170.719L86.9565 113.052H199.153C199.709 108.782 199.999 104.429 199.999 100.008Z" fill="black"/>
<path d="M199.975 102.266C199.971 102.459 199.966 102.652 199.961 102.845C199.966 102.652 199.97 102.459 199.975 102.266Z" fill="#F0F0F0"/>
<path d="M199.876 105C199.867 105.191 199.854 105.381 199.844 105.572C199.854 105.382 199.866 105.191 199.876 105Z" fill="#F0F0F0"/>
<path d="M199.74 107.188C199.72 107.468 199.7 107.749 199.678 108.029C199.7 107.749 199.72 107.468 199.74 107.188Z" fill="#F0F0F0"/>
<path d="M199.404 89.1016C199.441 89.4359 199.478 89.7699 199.511 90.1051C199.478 89.7695 199.441 89.4359 199.404 89.1016Z" fill="#F0F0F0"/>
<path d="M199.844 94.4141C199.854 94.6047 199.867 94.7949 199.876 94.9859C199.867 94.7949 199.854 94.6043 199.844 94.4141Z" fill="#F0F0F0"/>
<path d="M199.961 97.1465C199.966 97.3395 199.97 97.5332 199.975 97.7262C199.971 97.5324 199.966 97.3395 199.961 97.1465Z" fill="#F0F0F0"/>
<path d="M199.678 91.9707C199.7 92.2508 199.72 92.5316 199.74 92.8125C199.72 92.5316 199.7 92.2508 199.678 91.9707Z" fill="#F0F0F0"/>
<path d="M199.153 86.9563C199.198 87.2988 199.238 87.6434 199.279 87.9867C193.343 38.4234 151.162 0 99.9997 0C72.385 0 47.3847 11.1934 29.2883 29.2906L86.9537 86.9567H199.153V86.9563Z" fill="#D80027"/>
<path d="M199.152 113.044H86.9525L29.2871 170.71C47.3835 188.807 72.3838 200.001 99.9985 200.001C151.16 200.001 193.343 161.577 199.277 112.014C199.236 112.357 199.196 112.702 199.152 113.044Z" fill="#6DA544"/>
<path d="M199.511 109.902C199.478 110.238 199.441 110.571 199.404 110.906C199.441 110.571 199.478 110.238 199.511 109.902Z" fill="#F0F0F0"/>
<path d="M199.277 87.9863C199.322 88.357 199.365 88.7285 199.405 89.1004C199.364 88.7285 199.321 88.3574 199.277 87.9863Z" fill="black"/>
<path d="M199.512 90.0977C199.573 90.7184 199.628 91.3406 199.677 91.9652C199.628 91.3406 199.573 90.718 199.512 90.0977Z" fill="black"/>
<path d="M199.999 100C199.999 100.761 199.987 101.518 199.971 102.274C199.987 101.518 199.999 100.76 199.999 100Z" fill="black"/>
<path d="M199.838 105.586C199.808 106.123 199.774 106.659 199.736 107.194C199.774 106.659 199.808 106.123 199.838 105.586Z" fill="black"/>
<path d="M199.677 108.029C199.628 108.653 199.573 109.276 199.512 109.896C199.573 109.276 199.628 108.653 199.677 108.029Z" fill="black"/>
<path d="M199.405 110.898C199.365 111.27 199.322 111.641 199.277 112.012C199.321 111.642 199.364 111.27 199.405 110.898Z" fill="black"/>
<path d="M199.873 95C199.908 95.7156 199.935 96.434 199.955 97.1535C199.935 96.4336 199.909 95.7156 199.873 95Z" fill="black"/>
<path d="M199.955 102.854C199.935 103.573 199.908 104.291 199.873 105.007C199.909 104.291 199.935 103.573 199.955 102.854Z" fill="black"/>
<path d="M199.907 95.6188H83.2841L23.3793 35.7227C21.443 37.7648 19.3441 40.6164 18.0461 42.6473L75.3345 99.966L17.998 157.304C19.1332 159.323 21.6062 162.313 23.3426 164.257L83.2852 104.314H199.921C199.983 102.872 200.002 101.424 200.002 99.9668C200.002 98.0145 199.948 96.575 199.907 95.6188Z" fill="#FFDA44"/>
<path d="M24.2945 121.325V112.949C32.653 112.949 39.4526 106.148 39.4526 97.7906C39.4526 91.877 34.6413 87.066 28.7281 87.066C24.6996 87.066 21.4218 90.3434 21.4218 94.3727C21.4218 96.9488 23.5175 99.0449 26.0941 99.0449C27.5503 99.0449 28.7351 97.8594 28.7351 96.4031H37.1108C37.1108 102.479 32.1687 107.421 26.0945 107.421C18.8996 107.421 13.0469 101.567 13.0469 94.3734C13.0469 85.7262 20.082 78.6914 28.7284 78.6914C39.2604 78.6914 47.8291 87.2602 47.8291 97.7918C47.8287 110.767 37.2714 121.325 24.2945 121.325Z" fill="#FFDA44"/>
</svg>
