<svg width="200" height="200" viewBox="0 0 200 200" fill="none" xmlns="http://www.w3.org/2000/svg">
<path d="M99.9965 0C155.225 0 199.996 44.7719 199.996 100C199.996 155.228 155.225 200 99.9965 200C99.9965 195.652 86.9531 100 86.9531 100L99.9965 0Z" fill="#F0F0F0"/>
<path d="M99.9999 200C44.7718 200 0 155.228 0 100C0 44.7719 44.7718 0 99.9999 0" fill="#FFDA44"/>
<path d="M138.295 87.0172L157.088 111.879C154.127 116.363 154.143 122.403 157.568 126.933C161.911 132.68 170.091 133.817 175.838 129.473C181.585 125.129 182.722 116.949 178.378 111.203C174.954 106.673 169.146 105.01 164.025 106.636L134.736 67.8887L127.799 73.1324L117.393 80.9973L127.88 94.8703L138.295 87.0172ZM165.351 115.599C167.266 114.151 169.993 114.53 171.441 116.445C172.889 118.361 172.511 121.088 170.595 122.536C168.68 123.984 165.953 123.605 164.505 121.689C163.056 119.774 163.436 117.047 165.351 115.599Z" fill="#ACABB1"/>
<path d="M170.529 94.873L181.016 81L170.611 73.1344L163.674 67.8906L134.385 106.638C129.264 105.012 123.456 106.675 120.032 111.205C115.687 116.952 116.825 125.131 122.571 129.475C128.318 133.819 136.498 132.682 140.842 126.935C144.266 122.405 144.282 116.364 141.321 111.881L160.114 87.0191L170.529 94.873ZM133.905 121.692C132.457 123.608 129.731 123.987 127.815 122.539C125.9 121.091 125.521 118.364 126.969 116.448C128.416 114.533 131.143 114.154 133.059 115.602C134.974 117.05 135.353 119.777 133.905 121.692Z" fill="#FFDA44"/>
</svg>
