<svg width="200" height="200" viewBox="0 0 200 200" fill="none" xmlns="http://www.w3.org/2000/svg">
<path d="M190.077 143.484C196.435 130.337 200 115.588 200 100.006C200 84.4235 196.435 69.6746 190.077 56.5277L100 47.832L9.92266 56.5277C3.56523 69.6746 0 84.4235 0 100.006C0 115.588 3.56523 130.337 9.92266 143.484L100 152.18L190.077 143.484Z" fill="#0052B4"/>
<path d="M99.9992 200C139.645 200 173.902 176.928 190.077 143.479H9.92188C26.0969 176.928 60.3531 200 99.9992 200Z" fill="#D80027"/>
<path d="M173.183 119.639L167.902 123.766L170.194 130.064L164.636 126.316L159.354 130.443L161.201 124L155.645 120.251L162.343 120.018L164.192 113.574L166.485 119.873L173.183 119.639Z" fill="#F0F0F0"/>
<path d="M159.669 96.1988L156.118 101.884L160.427 107.017L153.923 105.398L150.37 111.081L149.902 104.395L143.398 102.772L149.614 100.261L149.147 93.5742L153.455 98.7098L159.669 96.1988Z" fill="#F0F0F0"/>
<path d="M138.94 78.8086L137.547 85.3652L143.352 88.7168L136.686 89.4195L135.292 95.9742L132.565 89.8516L125.898 90.5512L130.88 86.066L128.154 79.9434L133.959 83.2941L138.94 78.8086Z" fill="#F0F0F0"/>
<path d="M113.517 69.5703L114.451 76.2082L121.052 77.3715L115.027 80.3113L115.961 86.9488L111.304 82.127L105.279 85.0652L108.426 79.1461L103.77 74.325L110.371 75.4887L113.517 69.5703Z" fill="#F0F0F0"/>
<path d="M86.4793 69.5703L89.6266 75.4887L96.2266 74.3242L91.5715 79.1473L94.7172 85.066L88.693 82.127L84.0359 86.9477L84.9699 80.3113L78.9453 77.373L85.5465 76.2082L86.4793 69.5703Z" fill="#F0F0F0"/>
<path d="M61.0512 78.8086L66.0332 83.2941L71.8367 79.9434L69.1113 86.0684L74.0922 90.5527L67.4262 89.8516L64.6988 95.9742L63.307 89.4184L56.6406 88.7184L62.4453 85.366L61.0512 78.8086Z" fill="#F0F0F0"/>
<path d="M40.3262 96.1977L46.5422 98.7086L50.8492 93.5742L50.3832 100.262L56.5973 102.773L50.0938 104.394L49.6254 111.08L46.0746 105.396L39.5703 107.017L43.8789 101.882L40.3262 96.1977Z" fill="#F0F0F0"/>
<path d="M26.8164 119.638L33.5164 119.872L35.8078 113.574L37.6574 120.018L44.3555 120.252L38.7984 124L40.6453 130.443L35.3641 126.317L29.8066 130.064L32.0992 123.766L26.8164 119.638Z" fill="#F0F0F0"/>
<path d="M190.078 56.5219C173.903 23.0723 139.646 0 100 0C60.3541 0 26.0979 23.0723 9.92285 56.5219H190.078Z" fill="#FFDA44"/>
</svg>
