<svg width="200" height="200" viewBox="0 0 200 200" fill="none" xmlns="http://www.w3.org/2000/svg">
<path d="M100 200C155.228 200 200 155.228 200 100C200 44.7715 155.228 0 100 0C44.7715 0 0 44.7715 0 100C0 155.228 44.7715 200 100 200Z" fill="#F0F0F0"/>
<path d="M200 100C200 155.228 155.228 200 100 200C44.7719 200 0 155.228 0 100" fill="#496E2D"/>
<path d="M173.055 69.5809C169.479 59.4391 159.816 52.168 148.451 52.168H126.09C111.682 52.168 100.003 63.8477 100.003 78.2551C100.003 82.9621 101.256 87.4859 103.437 91.2984C95.1332 91.2305 87.4484 91.3559 82.6113 91.2984C82.6113 81.2375 82.6113 68.4211 82.6113 65.7395L83.6387 64.7121C88.2504 60.1004 86.7125 52.4145 86.7125 52.4145C86.7125 52.4145 79.0273 50.8773 74.4156 55.4891L69.041 60.8637H63.0461C49.8391 60.8637 39.1332 71.5699 39.1332 84.7766H56.5246V104.342C56.5246 107.204 57.1016 109.93 58.1441 112.412L52.1766 117.385H43.4809V108.689H34.7852V126.081H73.9156V143.472H65.2199V152.168H82.6113V134.777L90.582 125.211H109.423L117.394 134.777V143.472H108.698V152.168H143.48V104.341C143.48 97.1379 149.32 91.298 156.524 91.298C156.709 91.298 156.893 91.3047 157.076 91.3121C156.716 89.9184 156.524 88.457 156.524 86.9504C156.525 77.6344 163.85 70.0297 173.055 69.5809ZM126.09 143.472V125.211H126.814L134.785 134.776V143.472H126.09Z" fill="#D80027"/>
</svg>
