<svg width="200" height="200" viewBox="0 0 200 200" fill="none" xmlns="http://www.w3.org/2000/svg">
<path d="M100 200C155.228 200 200 155.228 200 100C200 44.7715 155.228 0 100 0C44.7715 0 0 44.7715 0 100C0 155.228 44.7715 200 100 200Z" fill="#496E2D"/>
<path d="M139.13 100H100V200C111.689 200 122.907 197.988 133.333 194.302L139.13 100Z" fill="#D80027"/>
<path d="M166.676 174.529C187.132 156.218 200.009 129.614 200.009 100H160.879L166.676 174.529Z" fill="#FF9811"/>
<path d="M133.34 100V194.302C145.761 189.911 157.055 183.138 166.673 174.529V100H133.34Z" fill="black"/>
<path d="M184.78 65.2172H158.693C158.693 60.4148 154.8 56.5215 149.998 56.5215C145.195 56.5215 141.302 60.4148 141.302 65.2172H115.215C115.215 70.0199 119.398 73.9129 124.2 73.9129H123.911C123.911 78.7156 127.803 82.6086 132.606 82.6086C132.606 87.4113 136.499 91.3043 141.302 91.3043H158.693C163.496 91.3043 167.389 87.4113 167.389 82.6086C172.191 82.6086 176.085 78.7156 176.085 73.9129H175.795C180.598 73.9125 184.78 70.0195 184.78 65.2172Z" fill="#FF9811"/>
</svg>
