<svg width="200" height="200" viewBox="0 0 200 200" fill="none" xmlns="http://www.w3.org/2000/svg">
<path d="M99.9999 200C155.228 200 200 155.228 200 100C200 44.7715 155.228 0 99.9999 0C44.7715 0 0 44.7715 0 100C0 155.228 44.7715 200 99.9999 200Z" fill="#F0F0F0"/>
<path d="M190.427 57.266C185.346 46.534 178.412 36.8531 170.037 28.6324L99.9984 21.7383L29.9594 28.6328C29.7359 28.852 29.518 29.0762 29.2969 29.2977L57.2656 57.2664L99.9984 58.5715L190.427 57.266Z" fill="#FFDA44"/>
<path d="M29.2969 170.693C29.6648 171.061 30.032 171.43 30.4055 171.792L99.9995 178.252L169.593 171.792C178.054 163.589 185.073 153.907 190.225 143.159L60.8687 139.121C49.7387 150.252 36.9012 163.088 29.2969 170.693Z" fill="#FFDA44"/>
<path d="M199.014 85.909L82.6172 82.6172L100.009 100.009C94.8574 105.16 87.1676 112.85 82.6172 117.4L198.953 114.543C199.644 109.797 200.008 104.946 200.008 100.009C200.008 95.2219 199.665 90.5164 199.014 85.909Z" fill="black"/>
<path d="M99.9994 0C72.7229 0 48.0018 10.9258 29.9604 28.6336H170.038C151.997 10.9258 127.276 0 99.9994 0Z" fill="#6DA544"/>
<path d="M85.8992 85.8992H199.004C197.577 75.7902 194.641 66.1676 190.427 57.2656H57.2656L85.8992 85.8992Z" fill="#D80027"/>
<path d="M56.8359 143.165H190.23C194.493 134.27 197.476 124.646 198.949 114.531H85.4695C74.3808 125.62 64.9832 135.018 56.8359 143.165Z" fill="#D80027"/>
<path d="M100.003 199.996C127.056 199.996 151.595 189.249 169.597 171.797H30.4102C48.4117 189.249 72.9507 199.996 100.003 199.996Z" fill="#6DA544"/>
<path d="M35.7168 23.418C33.4937 25.2859 31.3488 27.2441 29.2969 29.2953L100.008 100.006L29.2969 170.717C31.3484 172.769 33.4937 174.727 35.7168 176.595L112.305 100.006L35.7168 23.418Z" fill="black"/>
<path d="M40.2023 73.9062L46.6769 93.8344H67.632L50.6797 106.152L57.1546 126.08L40.2023 113.764L23.2496 126.08L29.7254 106.152L12.7734 93.8344H33.7273L40.2023 73.9062Z" fill="#D80027"/>
<path d="M58.0218 101.631L41.1476 95.6531C41.1476 95.6531 39.9008 83.9566 39.8254 83.5602C39.2527 80.5434 36.6015 78.2617 33.418 78.2617C29.8164 78.2617 26.8961 81.1816 26.8961 84.7836C26.8961 85.3809 26.9832 85.9562 27.1336 86.5062L22.4023 91.2691H30.8148C30.8148 100.001 24.2992 100.001 24.2992 108.696L27.9137 117.392H49.6527L53.2761 108.696H53.2746C53.6375 107.862 53.8578 107.002 53.9488 106.142C57.0722 104.879 58.0218 101.631 58.0218 101.631Z" fill="#FFDA44"/>
</svg>
